<?xml version="1.0" standalone="no"?>
 <!DOCTYPE svg PUBLIC "-//W3C//DTD SVG 1.1//EN" 
 "http://www.w3.org/Graphics/SVG/1.1/DTD/svg11.dtd"> 
<svg
  xmlns:svg="http://www.w3.org/2000/svg"
  xmlns="http://www.w3.org/2000/svg"
  xmlns:xlink="http://www.w3.org/1999/xlink"
  version="1.1"
  width="297.0022mm" height="210.0072mm" viewBox="0.0000 0.0000 297.0022 210.0072">
<title>SVG Image created as lemmingz40-NPTH-drl-drl_map.svg date 2023/11/25 13:24:31 </title>
  <desc>Image generated by PCBNEW </desc>
<g style="fill:#000000; fill-opacity:1.0000;stroke:#000000; stroke-opacity:1.0000;
stroke-linecap:round; stroke-linejoin:round;"
 transform="translate(0 0) scale(1 1)">
</g>
<g style="fill:#000000; fill-opacity:0.0; 
stroke:#000000; stroke-width:0.0000; stroke-opacity:1; 
stroke-linecap:round; stroke-linejoin:round;">
</g>
<g style="fill:#000000; fill-opacity:0.0; 
stroke:#000000; stroke-width:0.2400; stroke-opacity:1; 
stroke-linecap:round; stroke-linejoin:round;">
<path d="M166.7137 5.3308
L265.3708 5.4110
" />
<path d="M130.1367 5.3308
L31.6315 5.4110
" />
</g>
<g style="fill:#000000; fill-opacity:0.0; 
stroke:#000000; stroke-width:0.1200; stroke-opacity:1; 
stroke-linecap:round; stroke-linejoin:round;">
<path d="M31.6315 5.4110 A7.2001 7.2001 0.0 0 0 24.5406 11.3609" />
<path d="M10.1694 92.8643
L24.5406 11.3609
" />
<path d="M126.4789 120.6841
L16.0099 101.2055
" />
<path d="M280.9923 101.2054
L170.5233 120.6841
" />
<path d="M10.1694 92.8643 A7.2000 7.2000 0.0 0 0 16.0099 101.2055" />
<path d="M169.2730 120.7935
L127.7292 120.7935
" />
<path d="M280.9923 101.2054 A7.2003 7.2003 0.0 0 0 286.8328 92.8643" />
<path d="M272.4616 11.3609
L286.8328 92.8643
" />
<path d="M169.2730 120.7935 A7.2034 7.2034 0.0 0 0 170.5233 120.6841" />
<path d="M272.4616 11.3609 A7.2002 7.2002 0.0 0 0 265.3708 5.4110" />
<path d="M126.4789 120.6841 A7.1993 7.1993 0.0 0 0 127.7292 120.7935" />
</g>
<g style="fill:#000000; fill-opacity:0.0; 
stroke:#000000; stroke-width:0.4800; stroke-opacity:1; 
stroke-linecap:round; stroke-linejoin:round;">
</g>
<g style="fill:#000000; fill-opacity:0.0; 
stroke:#000000; stroke-width:0.0960; stroke-opacity:1; 
stroke-linecap:round; stroke-linejoin:round;">
<path d="M138.9449 20.2832
L139.9050 21.2433
" />
<path d="M139.9050 20.2832
L138.9449 21.2433
" />
<path d="M156.9454 20.2832
L157.9055 21.2433
" />
<path d="M157.9055 20.2832
L156.9454 21.2433
" />
</g>
<g style="fill:#000000; fill-opacity:0.0; 
stroke:#000000; stroke-width:0.4800; stroke-opacity:1; 
stroke-linecap:round; stroke-linejoin:round;">
</g>
<g style="fill:#000000; fill-opacity:0.0; 
stroke:#000000; stroke-width:0.2000; stroke-opacity:1; 
stroke-linecap:round; stroke-linejoin:round;">
<text x="12.0000" y="124.0535"
textLength="14.8667" font-size="2.6667" lengthAdjust="spacingAndGlyphs"
text-anchor="start" opacity="0">Drill Map:</text>
<g class="stroked-text"><desc>Drill Map:</desc>
<path d="M12.6078 123.9683
L12.6078 121.9683
" />
<path d="M12.6078 121.9683
L13.0840 121.9683
" />
<path d="M13.0840 121.9683
L13.3697 122.0636
" />
<path d="M13.3697 122.0636
L13.5601 122.2541
" />
<path d="M13.5601 122.2541
L13.6554 122.4445
" />
<path d="M13.6554 122.4445
L13.7506 122.8255
" />
<path d="M13.7506 122.8255
L13.7506 123.1112
" />
<path d="M13.7506 123.1112
L13.6554 123.4922
" />
<path d="M13.6554 123.4922
L13.5601 123.6826
" />
<path d="M13.5601 123.6826
L13.3697 123.8731
" />
<path d="M13.3697 123.8731
L13.0840 123.9683
" />
<path d="M13.0840 123.9683
L12.6078 123.9683
" />
<path d="M14.6078 123.9683
L14.6078 122.6350
" />
<path d="M14.6078 123.0160
L14.7030 122.8255
" />
<path d="M14.7030 122.8255
L14.7982 122.7302
" />
<path d="M14.7982 122.7302
L14.9887 122.6350
" />
<path d="M14.9887 122.6350
L15.1792 122.6350
" />
<path d="M15.8459 123.9683
L15.8459 122.6350
" />
<path d="M15.8459 121.9683
L15.7506 122.0636
" />
<path d="M15.7506 122.0636
L15.8459 122.1588
" />
<path d="M15.8459 122.1588
L15.9411 122.0636
" />
<path d="M15.9411 122.0636
L15.8459 121.9683
" />
<path d="M15.8459 121.9683
L15.8459 122.1588
" />
<path d="M17.0840 123.9683
L16.8935 123.8731
" />
<path d="M16.8935 123.8731
L16.7982 123.6826
" />
<path d="M16.7982 123.6826
L16.7982 121.9683
" />
<path d="M18.1316 123.9683
L17.9411 123.8731
" />
<path d="M17.9411 123.8731
L17.8459 123.6826
" />
<path d="M17.8459 123.6826
L17.8459 121.9683
" />
<path d="M20.4173 123.9683
L20.4173 121.9683
" />
<path d="M20.4173 121.9683
L21.0840 123.3969
" />
<path d="M21.0840 123.3969
L21.7506 121.9683
" />
<path d="M21.7506 121.9683
L21.7506 123.9683
" />
<path d="M23.5601 123.9683
L23.5601 122.9207
" />
<path d="M23.5601 122.9207
L23.4649 122.7302
" />
<path d="M23.4649 122.7302
L23.2744 122.6350
" />
<path d="M23.2744 122.6350
L22.8935 122.6350
" />
<path d="M22.8935 122.6350
L22.7030 122.7302
" />
<path d="M23.5601 123.8731
L23.3697 123.9683
" />
<path d="M23.3697 123.9683
L22.8935 123.9683
" />
<path d="M22.8935 123.9683
L22.7030 123.8731
" />
<path d="M22.7030 123.8731
L22.6078 123.6826
" />
<path d="M22.6078 123.6826
L22.6078 123.4922
" />
<path d="M22.6078 123.4922
L22.7030 123.3017
" />
<path d="M22.7030 123.3017
L22.8935 123.2064
" />
<path d="M22.8935 123.2064
L23.3697 123.2064
" />
<path d="M23.3697 123.2064
L23.5601 123.1112
" />
<path d="M24.5125 122.6350
L24.5125 124.6350
" />
<path d="M24.5125 122.7302
L24.7030 122.6350
" />
<path d="M24.7030 122.6350
L25.0840 122.6350
" />
<path d="M25.0840 122.6350
L25.2744 122.7302
" />
<path d="M25.2744 122.7302
L25.3697 122.8255
" />
<path d="M25.3697 122.8255
L25.4649 123.0160
" />
<path d="M25.4649 123.0160
L25.4649 123.5874
" />
<path d="M25.4649 123.5874
L25.3697 123.7779
" />
<path d="M25.3697 123.7779
L25.2744 123.8731
" />
<path d="M25.2744 123.8731
L25.0840 123.9683
" />
<path d="M25.0840 123.9683
L24.7030 123.9683
" />
<path d="M24.7030 123.9683
L24.5125 123.8731
" />
<path d="M26.3221 123.7779
L26.4173 123.8731
" />
<path d="M26.4173 123.8731
L26.3221 123.9683
" />
<path d="M26.3221 123.9683
L26.2268 123.8731
" />
<path d="M26.2268 123.8731
L26.3221 123.7779
" />
<path d="M26.3221 123.7779
L26.3221 123.9683
" />
<path d="M26.3221 122.7302
L26.4173 122.8255
" />
<path d="M26.4173 122.8255
L26.3221 122.9207
" />
<path d="M26.3221 122.9207
L26.2268 122.8255
" />
<path d="M26.2268 122.8255
L26.3221 122.7302
" />
<path d="M26.3221 122.7302
L26.3221 122.9207
" />
</g></g>
<g style="fill:#000000; fill-opacity:0.0; 
stroke:#000000; stroke-width:0.0960; stroke-opacity:1; 
stroke-linecap:round; stroke-linejoin:round;">
<path d="M9.0400 126.7735
L10.0000 127.7335
" />
<path d="M10.0000 126.7735
L9.0400 127.7335
" />
</g>
<g style="fill:#000000; fill-opacity:0.0; 
stroke:#000000; stroke-width:0.4800; stroke-opacity:1; 
stroke-linecap:round; stroke-linejoin:round;">
</g>
<g style="fill:#000000; fill-opacity:0.0; 
stroke:#000000; stroke-width:0.2000; stroke-opacity:1; 
stroke-linecap:round; stroke-linejoin:round;">
<text x="12.0000" y="128.2535"
textLength="66.6762" font-size="2.6667" lengthAdjust="spacingAndGlyphs"
text-anchor="start" opacity="0">0.400mm / 0.0157" (2 holes) (not plated)</text>
<g class="stroked-text"><desc>0.400mm / 0.0157" (2 holes) (not plated)</desc>
<path d="M12.9887 126.1683
L13.1792 126.1683
" />
<path d="M13.1792 126.1683
L13.3697 126.2636
" />
<path d="M13.3697 126.2636
L13.4649 126.3588
" />
<path d="M13.4649 126.3588
L13.5601 126.5493
" />
<path d="M13.5601 126.5493
L13.6554 126.9302
" />
<path d="M13.6554 126.9302
L13.6554 127.4064
" />
<path d="M13.6554 127.4064
L13.5601 127.7874
" />
<path d="M13.5601 127.7874
L13.4649 127.9779
" />
<path d="M13.4649 127.9779
L13.3697 128.0731
" />
<path d="M13.3697 128.0731
L13.1792 128.1683
" />
<path d="M13.1792 128.1683
L12.9887 128.1683
" />
<path d="M12.9887 128.1683
L12.7982 128.0731
" />
<path d="M12.7982 128.0731
L12.7030 127.9779
" />
<path d="M12.7030 127.9779
L12.6078 127.7874
" />
<path d="M12.6078 127.7874
L12.5125 127.4064
" />
<path d="M12.5125 127.4064
L12.5125 126.9302
" />
<path d="M12.5125 126.9302
L12.6078 126.5493
" />
<path d="M12.6078 126.5493
L12.7030 126.3588
" />
<path d="M12.7030 126.3588
L12.7982 126.2636
" />
<path d="M12.7982 126.2636
L12.9887 126.1683
" />
<path d="M14.5125 127.9779
L14.6078 128.0731
" />
<path d="M14.6078 128.0731
L14.5125 128.1683
" />
<path d="M14.5125 128.1683
L14.4173 128.0731
" />
<path d="M14.4173 128.0731
L14.5125 127.9779
" />
<path d="M14.5125 127.9779
L14.5125 128.1683
" />
<path d="M16.3221 126.8350
L16.3221 128.1683
" />
<path d="M15.8459 126.0731
L15.3697 127.5017
" />
<path d="M15.3697 127.5017
L16.6078 127.5017
" />
<path d="M17.7506 126.1683
L17.9411 126.1683
" />
<path d="M17.9411 126.1683
L18.1316 126.2636
" />
<path d="M18.1316 126.2636
L18.2268 126.3588
" />
<path d="M18.2268 126.3588
L18.3221 126.5493
" />
<path d="M18.3221 126.5493
L18.4173 126.9302
" />
<path d="M18.4173 126.9302
L18.4173 127.4064
" />
<path d="M18.4173 127.4064
L18.3221 127.7874
" />
<path d="M18.3221 127.7874
L18.2268 127.9779
" />
<path d="M18.2268 127.9779
L18.1316 128.0731
" />
<path d="M18.1316 128.0731
L17.9411 128.1683
" />
<path d="M17.9411 128.1683
L17.7506 128.1683
" />
<path d="M17.7506 128.1683
L17.5601 128.0731
" />
<path d="M17.5601 128.0731
L17.4649 127.9779
" />
<path d="M17.4649 127.9779
L17.3697 127.7874
" />
<path d="M17.3697 127.7874
L17.2744 127.4064
" />
<path d="M17.2744 127.4064
L17.2744 126.9302
" />
<path d="M17.2744 126.9302
L17.3697 126.5493
" />
<path d="M17.3697 126.5493
L17.4649 126.3588
" />
<path d="M17.4649 126.3588
L17.5601 126.2636
" />
<path d="M17.5601 126.2636
L17.7506 126.1683
" />
<path d="M19.6554 126.1683
L19.8459 126.1683
" />
<path d="M19.8459 126.1683
L20.0363 126.2636
" />
<path d="M20.0363 126.2636
L20.1316 126.3588
" />
<path d="M20.1316 126.3588
L20.2268 126.5493
" />
<path d="M20.2268 126.5493
L20.3221 126.9302
" />
<path d="M20.3221 126.9302
L20.3221 127.4064
" />
<path d="M20.3221 127.4064
L20.2268 127.7874
" />
<path d="M20.2268 127.7874
L20.1316 127.9779
" />
<path d="M20.1316 127.9779
L20.0363 128.0731
" />
<path d="M20.0363 128.0731
L19.8459 128.1683
" />
<path d="M19.8459 128.1683
L19.6554 128.1683
" />
<path d="M19.6554 128.1683
L19.4649 128.0731
" />
<path d="M19.4649 128.0731
L19.3697 127.9779
" />
<path d="M19.3697 127.9779
L19.2744 127.7874
" />
<path d="M19.2744 127.7874
L19.1792 127.4064
" />
<path d="M19.1792 127.4064
L19.1792 126.9302
" />
<path d="M19.1792 126.9302
L19.2744 126.5493
" />
<path d="M19.2744 126.5493
L19.3697 126.3588
" />
<path d="M19.3697 126.3588
L19.4649 126.2636
" />
<path d="M19.4649 126.2636
L19.6554 126.1683
" />
<path d="M21.1792 128.1683
L21.1792 126.8350
" />
<path d="M21.1792 127.0255
L21.2744 126.9302
" />
<path d="M21.2744 126.9302
L21.4649 126.8350
" />
<path d="M21.4649 126.8350
L21.7506 126.8350
" />
<path d="M21.7506 126.8350
L21.9411 126.9302
" />
<path d="M21.9411 126.9302
L22.0363 127.1207
" />
<path d="M22.0363 127.1207
L22.0363 128.1683
" />
<path d="M22.0363 127.1207
L22.1316 126.9302
" />
<path d="M22.1316 126.9302
L22.3221 126.8350
" />
<path d="M22.3221 126.8350
L22.6078 126.8350
" />
<path d="M22.6078 126.8350
L22.7982 126.9302
" />
<path d="M22.7982 126.9302
L22.8935 127.1207
" />
<path d="M22.8935 127.1207
L22.8935 128.1683
" />
<path d="M23.8459 128.1683
L23.8459 126.8350
" />
<path d="M23.8459 127.0255
L23.9411 126.9302
" />
<path d="M23.9411 126.9302
L24.1316 126.8350
" />
<path d="M24.1316 126.8350
L24.4173 126.8350
" />
<path d="M24.4173 126.8350
L24.6078 126.9302
" />
<path d="M24.6078 126.9302
L24.7030 127.1207
" />
<path d="M24.7030 127.1207
L24.7030 128.1683
" />
<path d="M24.7030 127.1207
L24.7982 126.9302
" />
<path d="M24.7982 126.9302
L24.9887 126.8350
" />
<path d="M24.9887 126.8350
L25.2744 126.8350
" />
<path d="M25.2744 126.8350
L25.4649 126.9302
" />
<path d="M25.4649 126.9302
L25.5601 127.1207
" />
<path d="M25.5601 127.1207
L25.5601 128.1683
" />
<path d="M29.4649 126.0731
L27.7506 128.6445
" />
<path d="M32.0363 126.1683
L32.2268 126.1683
" />
<path d="M32.2268 126.1683
L32.4173 126.2636
" />
<path d="M32.4173 126.2636
L32.5125 126.3588
" />
<path d="M32.5125 126.3588
L32.6078 126.5493
" />
<path d="M32.6078 126.5493
L32.7030 126.9302
" />
<path d="M32.7030 126.9302
L32.7030 127.4064
" />
<path d="M32.7030 127.4064
L32.6078 127.7874
" />
<path d="M32.6078 127.7874
L32.5125 127.9779
" />
<path d="M32.5125 127.9779
L32.4173 128.0731
" />
<path d="M32.4173 128.0731
L32.2268 128.1683
" />
<path d="M32.2268 128.1683
L32.0363 128.1683
" />
<path d="M32.0363 128.1683
L31.8459 128.0731
" />
<path d="M31.8459 128.0731
L31.7506 127.9779
" />
<path d="M31.7506 127.9779
L31.6554 127.7874
" />
<path d="M31.6554 127.7874
L31.5601 127.4064
" />
<path d="M31.5601 127.4064
L31.5601 126.9302
" />
<path d="M31.5601 126.9302
L31.6554 126.5493
" />
<path d="M31.6554 126.5493
L31.7506 126.3588
" />
<path d="M31.7506 126.3588
L31.8459 126.2636
" />
<path d="M31.8459 126.2636
L32.0363 126.1683
" />
<path d="M33.5602 127.9779
L33.6554 128.0731
" />
<path d="M33.6554 128.0731
L33.5602 128.1683
" />
<path d="M33.5602 128.1683
L33.4649 128.0731
" />
<path d="M33.4649 128.0731
L33.5602 127.9779
" />
<path d="M33.5602 127.9779
L33.5602 128.1683
" />
<path d="M34.8935 126.1683
L35.0840 126.1683
" />
<path d="M35.0840 126.1683
L35.2744 126.2636
" />
<path d="M35.2744 126.2636
L35.3697 126.3588
" />
<path d="M35.3697 126.3588
L35.4649 126.5493
" />
<path d="M35.4649 126.5493
L35.5601 126.9302
" />
<path d="M35.5601 126.9302
L35.5601 127.4064
" />
<path d="M35.5601 127.4064
L35.4649 127.7874
" />
<path d="M35.4649 127.7874
L35.3697 127.9779
" />
<path d="M35.3697 127.9779
L35.2744 128.0731
" />
<path d="M35.2744 128.0731
L35.0840 128.1683
" />
<path d="M35.0840 128.1683
L34.8935 128.1683
" />
<path d="M34.8935 128.1683
L34.7030 128.0731
" />
<path d="M34.7030 128.0731
L34.6078 127.9779
" />
<path d="M34.6078 127.9779
L34.5125 127.7874
" />
<path d="M34.5125 127.7874
L34.4173 127.4064
" />
<path d="M34.4173 127.4064
L34.4173 126.9302
" />
<path d="M34.4173 126.9302
L34.5125 126.5493
" />
<path d="M34.5125 126.5493
L34.6078 126.3588
" />
<path d="M34.6078 126.3588
L34.7030 126.2636
" />
<path d="M34.7030 126.2636
L34.8935 126.1683
" />
<path d="M37.4649 128.1683
L36.3221 128.1683
" />
<path d="M36.8935 128.1683
L36.8935 126.1683
" />
<path d="M36.8935 126.1683
L36.7030 126.4541
" />
<path d="M36.7030 126.4541
L36.5125 126.6445
" />
<path d="M36.5125 126.6445
L36.3221 126.7398
" />
<path d="M39.2744 126.1683
L38.3221 126.1683
" />
<path d="M38.3221 126.1683
L38.2268 127.1207
" />
<path d="M38.2268 127.1207
L38.3221 127.0255
" />
<path d="M38.3221 127.0255
L38.5125 126.9302
" />
<path d="M38.5125 126.9302
L38.9887 126.9302
" />
<path d="M38.9887 126.9302
L39.1792 127.0255
" />
<path d="M39.1792 127.0255
L39.2744 127.1207
" />
<path d="M39.2744 127.1207
L39.3697 127.3112
" />
<path d="M39.3697 127.3112
L39.3697 127.7874
" />
<path d="M39.3697 127.7874
L39.2744 127.9779
" />
<path d="M39.2744 127.9779
L39.1792 128.0731
" />
<path d="M39.1792 128.0731
L38.9887 128.1683
" />
<path d="M38.9887 128.1683
L38.5125 128.1683
" />
<path d="M38.5125 128.1683
L38.3221 128.0731
" />
<path d="M38.3221 128.0731
L38.2268 127.9779
" />
<path d="M40.0363 126.1683
L41.3697 126.1683
" />
<path d="M41.3697 126.1683
L40.5125 128.1683
" />
<path d="M42.0363 126.1683
L42.0363 126.5493
" />
<path d="M42.7982 126.1683
L42.7982 126.5493
" />
<path d="M45.7506 128.9302
L45.6554 128.8350
" />
<path d="M45.6554 128.8350
L45.4649 128.5493
" />
<path d="M45.4649 128.5493
L45.3697 128.3588
" />
<path d="M45.3697 128.3588
L45.2744 128.0731
" />
<path d="M45.2744 128.0731
L45.1792 127.5969
" />
<path d="M45.1792 127.5969
L45.1792 127.2160
" />
<path d="M45.1792 127.2160
L45.2744 126.7398
" />
<path d="M45.2744 126.7398
L45.3697 126.4541
" />
<path d="M45.3697 126.4541
L45.4649 126.2636
" />
<path d="M45.4649 126.2636
L45.6554 125.9779
" />
<path d="M45.6554 125.9779
L45.7506 125.8826
" />
<path d="M46.4173 126.3588
L46.5125 126.2636
" />
<path d="M46.5125 126.2636
L46.7030 126.1683
" />
<path d="M46.7030 126.1683
L47.1792 126.1683
" />
<path d="M47.1792 126.1683
L47.3697 126.2636
" />
<path d="M47.3697 126.2636
L47.4649 126.3588
" />
<path d="M47.4649 126.3588
L47.5602 126.5493
" />
<path d="M47.5602 126.5493
L47.5602 126.7398
" />
<path d="M47.5602 126.7398
L47.4649 127.0255
" />
<path d="M47.4649 127.0255
L46.3221 128.1683
" />
<path d="M46.3221 128.1683
L47.5602 128.1683
" />
<path d="M49.9411 128.1683
L49.9411 126.1683
" />
<path d="M50.7982 128.1683
L50.7982 127.1207
" />
<path d="M50.7982 127.1207
L50.7030 126.9302
" />
<path d="M50.7030 126.9302
L50.5125 126.8350
" />
<path d="M50.5125 126.8350
L50.2268 126.8350
" />
<path d="M50.2268 126.8350
L50.0363 126.9302
" />
<path d="M50.0363 126.9302
L49.9411 127.0255
" />
<path d="M52.0363 128.1683
L51.8459 128.0731
" />
<path d="M51.8459 128.0731
L51.7506 127.9779
" />
<path d="M51.7506 127.9779
L51.6554 127.7874
" />
<path d="M51.6554 127.7874
L51.6554 127.2160
" />
<path d="M51.6554 127.2160
L51.7506 127.0255
" />
<path d="M51.7506 127.0255
L51.8459 126.9302
" />
<path d="M51.8459 126.9302
L52.0363 126.8350
" />
<path d="M52.0363 126.8350
L52.3221 126.8350
" />
<path d="M52.3221 126.8350
L52.5125 126.9302
" />
<path d="M52.5125 126.9302
L52.6078 127.0255
" />
<path d="M52.6078 127.0255
L52.7030 127.2160
" />
<path d="M52.7030 127.2160
L52.7030 127.7874
" />
<path d="M52.7030 127.7874
L52.6078 127.9779
" />
<path d="M52.6078 127.9779
L52.5125 128.0731
" />
<path d="M52.5125 128.0731
L52.3221 128.1683
" />
<path d="M52.3221 128.1683
L52.0363 128.1683
" />
<path d="M53.8459 128.1683
L53.6554 128.0731
" />
<path d="M53.6554 128.0731
L53.5602 127.8826
" />
<path d="M53.5602 127.8826
L53.5602 126.1683
" />
<path d="M55.3697 128.0731
L55.1792 128.1683
" />
<path d="M55.1792 128.1683
L54.7982 128.1683
" />
<path d="M54.7982 128.1683
L54.6078 128.0731
" />
<path d="M54.6078 128.0731
L54.5125 127.8826
" />
<path d="M54.5125 127.8826
L54.5125 127.1207
" />
<path d="M54.5125 127.1207
L54.6078 126.9302
" />
<path d="M54.6078 126.9302
L54.7982 126.8350
" />
<path d="M54.7982 126.8350
L55.1792 126.8350
" />
<path d="M55.1792 126.8350
L55.3697 126.9302
" />
<path d="M55.3697 126.9302
L55.4649 127.1207
" />
<path d="M55.4649 127.1207
L55.4649 127.3112
" />
<path d="M55.4649 127.3112
L54.5125 127.5017
" />
<path d="M56.2268 128.0731
L56.4173 128.1683
" />
<path d="M56.4173 128.1683
L56.7982 128.1683
" />
<path d="M56.7982 128.1683
L56.9887 128.0731
" />
<path d="M56.9887 128.0731
L57.0840 127.8826
" />
<path d="M57.0840 127.8826
L57.0840 127.7874
" />
<path d="M57.0840 127.7874
L56.9887 127.5969
" />
<path d="M56.9887 127.5969
L56.7982 127.5017
" />
<path d="M56.7982 127.5017
L56.5125 127.5017
" />
<path d="M56.5125 127.5017
L56.3221 127.4064
" />
<path d="M56.3221 127.4064
L56.2268 127.2160
" />
<path d="M56.2268 127.2160
L56.2268 127.1207
" />
<path d="M56.2268 127.1207
L56.3221 126.9302
" />
<path d="M56.3221 126.9302
L56.5125 126.8350
" />
<path d="M56.5125 126.8350
L56.7982 126.8350
" />
<path d="M56.7982 126.8350
L56.9887 126.9302
" />
<path d="M57.7506 128.9302
L57.8459 128.8350
" />
<path d="M57.8459 128.8350
L58.0363 128.5493
" />
<path d="M58.0363 128.5493
L58.1316 128.3588
" />
<path d="M58.1316 128.3588
L58.2268 128.0731
" />
<path d="M58.2268 128.0731
L58.3221 127.5969
" />
<path d="M58.3221 127.5969
L58.3221 127.2160
" />
<path d="M58.3221 127.2160
L58.2268 126.7398
" />
<path d="M58.2268 126.7398
L58.1316 126.4541
" />
<path d="M58.1316 126.4541
L58.0363 126.2636
" />
<path d="M58.0363 126.2636
L57.8459 125.9779
" />
<path d="M57.8459 125.9779
L57.7506 125.8826
" />
<path d="M61.3697 128.9302
L61.2744 128.8350
" />
<path d="M61.2744 128.8350
L61.0840 128.5493
" />
<path d="M61.0840 128.5493
L60.9887 128.3588
" />
<path d="M60.9887 128.3588
L60.8935 128.0731
" />
<path d="M60.8935 128.0731
L60.7982 127.5969
" />
<path d="M60.7982 127.5969
L60.7982 127.2160
" />
<path d="M60.7982 127.2160
L60.8935 126.7398
" />
<path d="M60.8935 126.7398
L60.9887 126.4541
" />
<path d="M60.9887 126.4541
L61.0840 126.2636
" />
<path d="M61.0840 126.2636
L61.2744 125.9779
" />
<path d="M61.2744 125.9779
L61.3697 125.8826
" />
<path d="M62.1316 126.8350
L62.1316 128.1683
" />
<path d="M62.1316 127.0255
L62.2268 126.9302
" />
<path d="M62.2268 126.9302
L62.4173 126.8350
" />
<path d="M62.4173 126.8350
L62.7030 126.8350
" />
<path d="M62.7030 126.8350
L62.8935 126.9302
" />
<path d="M62.8935 126.9302
L62.9887 127.1207
" />
<path d="M62.9887 127.1207
L62.9887 128.1683
" />
<path d="M64.2268 128.1683
L64.0363 128.0731
" />
<path d="M64.0363 128.0731
L63.9411 127.9779
" />
<path d="M63.9411 127.9779
L63.8459 127.7874
" />
<path d="M63.8459 127.7874
L63.8459 127.2160
" />
<path d="M63.8459 127.2160
L63.9411 127.0255
" />
<path d="M63.9411 127.0255
L64.0363 126.9302
" />
<path d="M64.0363 126.9302
L64.2268 126.8350
" />
<path d="M64.2268 126.8350
L64.5125 126.8350
" />
<path d="M64.5125 126.8350
L64.7030 126.9302
" />
<path d="M64.7030 126.9302
L64.7982 127.0255
" />
<path d="M64.7982 127.0255
L64.8935 127.2160
" />
<path d="M64.8935 127.2160
L64.8935 127.7874
" />
<path d="M64.8935 127.7874
L64.7982 127.9779
" />
<path d="M64.7982 127.9779
L64.7030 128.0731
" />
<path d="M64.7030 128.0731
L64.5125 128.1683
" />
<path d="M64.5125 128.1683
L64.2268 128.1683
" />
<path d="M65.4649 126.8350
L66.2268 126.8350
" />
<path d="M65.7506 126.1683
L65.7506 127.8826
" />
<path d="M65.7506 127.8826
L65.8459 128.0731
" />
<path d="M65.8459 128.0731
L66.0363 128.1683
" />
<path d="M66.0363 128.1683
L66.2268 128.1683
" />
<path d="M68.4173 126.8350
L68.4173 128.8350
" />
<path d="M68.4173 126.9302
L68.6078 126.8350
" />
<path d="M68.6078 126.8350
L68.9887 126.8350
" />
<path d="M68.9887 126.8350
L69.1792 126.9302
" />
<path d="M69.1792 126.9302
L69.2744 127.0255
" />
<path d="M69.2744 127.0255
L69.3697 127.2160
" />
<path d="M69.3697 127.2160
L69.3697 127.7874
" />
<path d="M69.3697 127.7874
L69.2744 127.9779
" />
<path d="M69.2744 127.9779
L69.1792 128.0731
" />
<path d="M69.1792 128.0731
L68.9887 128.1683
" />
<path d="M68.9887 128.1683
L68.6078 128.1683
" />
<path d="M68.6078 128.1683
L68.4173 128.0731
" />
<path d="M70.5125 128.1683
L70.3221 128.0731
" />
<path d="M70.3221 128.0731
L70.2268 127.8826
" />
<path d="M70.2268 127.8826
L70.2268 126.1683
" />
<path d="M72.1316 128.1683
L72.1316 127.1207
" />
<path d="M72.1316 127.1207
L72.0363 126.9302
" />
<path d="M72.0363 126.9302
L71.8459 126.8350
" />
<path d="M71.8459 126.8350
L71.4649 126.8350
" />
<path d="M71.4649 126.8350
L71.2744 126.9302
" />
<path d="M72.1316 128.0731
L71.9411 128.1683
" />
<path d="M71.9411 128.1683
L71.4649 128.1683
" />
<path d="M71.4649 128.1683
L71.2744 128.0731
" />
<path d="M71.2744 128.0731
L71.1792 127.8826
" />
<path d="M71.1792 127.8826
L71.1792 127.6922
" />
<path d="M71.1792 127.6922
L71.2744 127.5017
" />
<path d="M71.2744 127.5017
L71.4649 127.4064
" />
<path d="M71.4649 127.4064
L71.9411 127.4064
" />
<path d="M71.9411 127.4064
L72.1316 127.3112
" />
<path d="M72.7982 126.8350
L73.5602 126.8350
" />
<path d="M73.0840 126.1683
L73.0840 127.8826
" />
<path d="M73.0840 127.8826
L73.1792 128.0731
" />
<path d="M73.1792 128.0731
L73.3697 128.1683
" />
<path d="M73.3697 128.1683
L73.5602 128.1683
" />
<path d="M74.9887 128.0731
L74.7982 128.1683
" />
<path d="M74.7982 128.1683
L74.4173 128.1683
" />
<path d="M74.4173 128.1683
L74.2268 128.0731
" />
<path d="M74.2268 128.0731
L74.1316 127.8826
" />
<path d="M74.1316 127.8826
L74.1316 127.1207
" />
<path d="M74.1316 127.1207
L74.2268 126.9302
" />
<path d="M74.2268 126.9302
L74.4173 126.8350
" />
<path d="M74.4173 126.8350
L74.7982 126.8350
" />
<path d="M74.7982 126.8350
L74.9887 126.9302
" />
<path d="M74.9887 126.9302
L75.0840 127.1207
" />
<path d="M75.0840 127.1207
L75.0840 127.3112
" />
<path d="M75.0840 127.3112
L74.1316 127.5017
" />
<path d="M76.7982 128.1683
L76.7982 126.1683
" />
<path d="M76.7982 128.0731
L76.6078 128.1683
" />
<path d="M76.6078 128.1683
L76.2268 128.1683
" />
<path d="M76.2268 128.1683
L76.0363 128.0731
" />
<path d="M76.0363 128.0731
L75.9411 127.9779
" />
<path d="M75.9411 127.9779
L75.8459 127.7874
" />
<path d="M75.8459 127.7874
L75.8459 127.2160
" />
<path d="M75.8459 127.2160
L75.9411 127.0255
" />
<path d="M75.9411 127.0255
L76.0363 126.9302
" />
<path d="M76.0363 126.9302
L76.2268 126.8350
" />
<path d="M76.2268 126.8350
L76.6078 126.8350
" />
<path d="M76.6078 126.8350
L76.7982 126.9302
" />
<path d="M77.5602 128.9302
L77.6554 128.8350
" />
<path d="M77.6554 128.8350
L77.8459 128.5493
" />
<path d="M77.8459 128.5493
L77.9411 128.3588
" />
<path d="M77.9411 128.3588
L78.0363 128.0731
" />
<path d="M78.0363 128.0731
L78.1316 127.5969
" />
<path d="M78.1316 127.5969
L78.1316 127.2160
" />
<path d="M78.1316 127.2160
L78.0363 126.7398
" />
<path d="M78.0363 126.7398
L77.9411 126.4541
" />
<path d="M77.9411 126.4541
L77.8459 126.2636
" />
<path d="M77.8459 126.2636
L77.6554 125.9779
" />
<path d="M77.6554 125.9779
L77.5602 125.8826
" />
</g></g> 
</svg>
