%TF.GenerationSoftware,KiCad,Pcbnew,7.0.8*%
%TF.CreationDate,2023-11-25T13:24:33-06:00*%
%TF.ProjectId,lemmingz40,6c656d6d-696e-4677-9a34-302e6b696361,rev?*%
%TF.SameCoordinates,Original*%
%TF.FileFunction,Soldermask,Top*%
%TF.FilePolarity,Negative*%
%FSLAX46Y46*%
G04 Gerber Fmt 4.6, Leading zero omitted, Abs format (unit mm)*
G04 Created by KiCad (PCBNEW 7.0.8) date 2023-11-25 13:24:33*
%MOMM*%
%LPD*%
G01*
G04 APERTURE LIST*
G04 Aperture macros list*
%AMHorizOval*
0 Thick line with rounded ends*
0 $1 width*
0 $2 $3 position (X,Y) of the first rounded end (center of the circle)*
0 $4 $5 position (X,Y) of the second rounded end (center of the circle)*
0 Add line between two ends*
20,1,$1,$2,$3,$4,$5,0*
0 Add two circle primitives to create the rounded ends*
1,1,$1,$2,$3*
1,1,$1,$4,$5*%
G04 Aperture macros list end*
%ADD10O,1.200000X2.300000*%
%ADD11C,0.600000*%
%ADD12C,4.190000*%
%ADD13HorizOval,1.224000X0.147721X0.026047X-0.147721X-0.026047X0*%
%ADD14HorizOval,1.224000X0.147721X-0.026047X-0.147721X0.026047X0*%
G04 APERTURE END LIST*
D10*
%TO.C,J1*%
X87085012Y-41104151D03*
X98235012Y-41104151D03*
X87085012Y-36504151D03*
X98235012Y-36504151D03*
D11*
X88910012Y-41184151D03*
X96410012Y-41184151D03*
%TD*%
D12*
%TO.C,H4*%
X75663823Y-71275424D03*
%TD*%
%TO.C,H5*%
X106248381Y-51579265D03*
%TD*%
%TO.C,H8*%
X139265580Y-66065975D03*
%TD*%
%TO.C,H7*%
X109721346Y-71275421D03*
%TD*%
%TO.C,H2*%
X79157630Y-51461058D03*
%TD*%
%TO.C,H6*%
X135792617Y-46369820D03*
%TD*%
D13*
%TO.C,SW6*%
X122614277Y-43616385D03*
X117690239Y-44484625D03*
%TD*%
D14*
%TO.C,SW35*%
X62485483Y-74028855D03*
X57561445Y-73160615D03*
%TD*%
%TO.C,SW27*%
X74070045Y-65917263D03*
X69146007Y-65049023D03*
%TD*%
%TO.C,SW23*%
X54373894Y-62444294D03*
X49449856Y-61576054D03*
%TD*%
D13*
%TO.C,SW22*%
X145783397Y-59839577D03*
X140859359Y-60707817D03*
%TD*%
%TO.C,SW26*%
X126087241Y-63312541D03*
X121163203Y-64180781D03*
%TD*%
D14*
%TO.C,SW39*%
X82181641Y-77501822D03*
X77257603Y-76633582D03*
%TD*%
%TO.C,SW9*%
X87391088Y-47957588D03*
X82467050Y-47089348D03*
%TD*%
%TO.C,SW37*%
X72333561Y-75765341D03*
X67409523Y-74897101D03*
%TD*%
D13*
%TO.C,SW28*%
X116239164Y-65049022D03*
X111315126Y-65917262D03*
%TD*%
%TO.C,SW16*%
X124350757Y-53464462D03*
X119426719Y-54332702D03*
%TD*%
%TO.C,SW24*%
X135935320Y-61576058D03*
X131011282Y-62444298D03*
%TD*%
D14*
%TO.C,SW3*%
X57846854Y-42748143D03*
X52922816Y-41879903D03*
%TD*%
%TO.C,SW5*%
X67694931Y-44484626D03*
X62770893Y-43616386D03*
%TD*%
D13*
%TO.C,SW12*%
X144046915Y-49991497D03*
X139122877Y-50859737D03*
%TD*%
%TO.C,SW14*%
X134198838Y-51727979D03*
X129274800Y-52596219D03*
%TD*%
D14*
%TO.C,SW7*%
X77543007Y-46221108D03*
X72618969Y-45352868D03*
%TD*%
D13*
%TO.C,SW30*%
X106391087Y-66785500D03*
X101467049Y-67653740D03*
%TD*%
%TO.C,SW40*%
X108127569Y-76633582D03*
X103203531Y-77501822D03*
%TD*%
D14*
%TO.C,SW33*%
X52637409Y-72292376D03*
X47713371Y-71424136D03*
%TD*%
D13*
%TO.C,SW18*%
X114502681Y-55200944D03*
X109578643Y-56069184D03*
%TD*%
D14*
%TO.C,SW17*%
X75806527Y-56069186D03*
X70882489Y-55200946D03*
%TD*%
D13*
%TO.C,SW34*%
X137671798Y-71424137D03*
X132747760Y-72292377D03*
%TD*%
%TO.C,SW4*%
X132462353Y-41879900D03*
X127538315Y-42748140D03*
%TD*%
D14*
%TO.C,SW13*%
X56110369Y-52596218D03*
X51186331Y-51727978D03*
%TD*%
%TO.C,SW11*%
X46262294Y-50859740D03*
X41338256Y-49991500D03*
%TD*%
%TO.C,SW31*%
X42789332Y-70555894D03*
X37865294Y-69687654D03*
%TD*%
%TO.C,SW25*%
X64221967Y-64180781D03*
X59297929Y-63312541D03*
%TD*%
%TO.C,SW29*%
X83918122Y-67653743D03*
X78994084Y-66785503D03*
%TD*%
D13*
%TO.C,SW36*%
X127823723Y-73160618D03*
X122899685Y-74028858D03*
%TD*%
D14*
%TO.C,SW1*%
X47998777Y-41011659D03*
X43074739Y-40143419D03*
%TD*%
%TO.C,SW21*%
X44525813Y-60707815D03*
X39601775Y-59839575D03*
%TD*%
%TO.C,SW15*%
X65958452Y-54332702D03*
X61034414Y-53464462D03*
%TD*%
D13*
%TO.C,SW38*%
X117975647Y-74897097D03*
X113051609Y-75765337D03*
%TD*%
D14*
%TO.C,SW19*%
X85654602Y-57805663D03*
X80730564Y-56937423D03*
%TD*%
D13*
%TO.C,SW8*%
X112766202Y-45352866D03*
X107842164Y-46221106D03*
%TD*%
%TO.C,SW20*%
X104654605Y-56937422D03*
X99730567Y-57805662D03*
%TD*%
%TO.C,SW10*%
X102918121Y-47089349D03*
X97994083Y-47957589D03*
%TD*%
%TO.C,SW32*%
X147519882Y-69687654D03*
X142595844Y-70555894D03*
%TD*%
%TO.C,SW2*%
X142310433Y-40143421D03*
X137386395Y-41011661D03*
%TD*%
D12*
%TO.C,H3*%
X46119592Y-66065976D03*
%TD*%
%TO.C,H1*%
X49613397Y-46251616D03*
%TD*%
M02*
