%TF.GenerationSoftware,KiCad,Pcbnew,7.0.8*%
%TF.CreationDate,2023-12-09T20:05:49-06:00*%
%TF.ProjectId,lemmingz40,6c656d6d-696e-4677-9a34-302e6b696361,rev?*%
%TF.SameCoordinates,Original*%
%TF.FileFunction,Copper,L2,Bot*%
%TF.FilePolarity,Positive*%
%FSLAX46Y46*%
G04 Gerber Fmt 4.6, Leading zero omitted, Abs format (unit mm)*
G04 Created by KiCad (PCBNEW 7.0.8) date 2023-12-09 20:05:49*
%MOMM*%
%LPD*%
G01*
G04 APERTURE LIST*
G04 Aperture macros list*
%AMRoundRect*
0 Rectangle with rounded corners*
0 $1 Rounding radius*
0 $2 $3 $4 $5 $6 $7 $8 $9 X,Y pos of 4 corners*
0 Add a 4 corners polygon primitive as box body*
4,1,4,$2,$3,$4,$5,$6,$7,$8,$9,$2,$3,0*
0 Add four circle primitives for the rounded corners*
1,1,$1+$1,$2,$3*
1,1,$1+$1,$4,$5*
1,1,$1+$1,$6,$7*
1,1,$1+$1,$8,$9*
0 Add four rect primitives between the rounded corners*
20,1,$1+$1,$2,$3,$4,$5,0*
20,1,$1+$1,$4,$5,$6,$7,0*
20,1,$1+$1,$6,$7,$8,$9,0*
20,1,$1+$1,$8,$9,$2,$3,0*%
%AMHorizOval*
0 Thick line with rounded ends*
0 $1 width*
0 $2 $3 position (X,Y) of the first rounded end (center of the circle)*
0 $4 $5 position (X,Y) of the second rounded end (center of the circle)*
0 Add line between two ends*
20,1,$1,$2,$3,$4,$5,0*
0 Add two circle primitives to create the rounded ends*
1,1,$1,$2,$3*
1,1,$1,$4,$5*%
G04 Aperture macros list end*
%TA.AperFunction,ComponentPad*%
%ADD10HorizOval,1.224000X0.147721X0.026047X-0.147721X-0.026047X0*%
%TD*%
%TA.AperFunction,ComponentPad*%
%ADD11HorizOval,1.224000X0.147721X-0.026047X-0.147721X0.026047X0*%
%TD*%
%TA.AperFunction,SMDPad,CuDef*%
%ADD12RoundRect,0.150000X-0.223009X0.112992X-0.170914X-0.182451X0.223009X-0.112992X0.170914X0.182451X0*%
%TD*%
%TA.AperFunction,SMDPad,CuDef*%
%ADD13RoundRect,0.150000X-0.170914X0.182451X-0.223009X-0.112992X0.170914X-0.182451X0.223009X0.112992X0*%
%TD*%
%TA.AperFunction,SMDPad,CuDef*%
%ADD14R,1.100000X1.800000*%
%TD*%
%TA.AperFunction,SMDPad,CuDef*%
%ADD15RoundRect,0.140000X-0.170000X0.140000X-0.170000X-0.140000X0.170000X-0.140000X0.170000X0.140000X0*%
%TD*%
%TA.AperFunction,SMDPad,CuDef*%
%ADD16RoundRect,0.150000X0.150000X-0.512500X0.150000X0.512500X-0.150000X0.512500X-0.150000X-0.512500X0*%
%TD*%
%TA.AperFunction,ComponentPad*%
%ADD17C,4.190000*%
%TD*%
%TA.AperFunction,SMDPad,CuDef*%
%ADD18RoundRect,0.140000X0.219203X0.021213X0.021213X0.219203X-0.219203X-0.021213X-0.021213X-0.219203X0*%
%TD*%
%TA.AperFunction,SMDPad,CuDef*%
%ADD19RoundRect,0.135000X0.185000X-0.135000X0.185000X0.135000X-0.185000X0.135000X-0.185000X-0.135000X0*%
%TD*%
%TA.AperFunction,SMDPad,CuDef*%
%ADD20RoundRect,0.140000X-0.140000X-0.170000X0.140000X-0.170000X0.140000X0.170000X-0.140000X0.170000X0*%
%TD*%
%TA.AperFunction,SMDPad,CuDef*%
%ADD21RoundRect,0.140000X0.021213X-0.219203X0.219203X-0.021213X-0.021213X0.219203X-0.219203X0.021213X0*%
%TD*%
%TA.AperFunction,WasherPad*%
%ADD22C,0.600000*%
%TD*%
%TA.AperFunction,SMDPad,CuDef*%
%ADD23R,0.550000X1.100000*%
%TD*%
%TA.AperFunction,SMDPad,CuDef*%
%ADD24R,0.300000X1.100000*%
%TD*%
%TA.AperFunction,ComponentPad*%
%ADD25O,1.200000X2.300000*%
%TD*%
%TA.AperFunction,SMDPad,CuDef*%
%ADD26R,0.700000X2.300000*%
%TD*%
%TA.AperFunction,SMDPad,CuDef*%
%ADD27RoundRect,0.135000X0.135000X0.185000X-0.135000X0.185000X-0.135000X-0.185000X0.135000X-0.185000X0*%
%TD*%
%TA.AperFunction,SMDPad,CuDef*%
%ADD28RoundRect,0.075000X0.521491X-0.415425X-0.415425X0.521491X-0.521491X0.415425X0.415425X-0.521491X0*%
%TD*%
%TA.AperFunction,SMDPad,CuDef*%
%ADD29RoundRect,0.075000X0.521491X0.415425X0.415425X0.521491X-0.521491X-0.415425X-0.415425X-0.521491X0*%
%TD*%
%TA.AperFunction,SMDPad,CuDef*%
%ADD30RoundRect,0.150000X0.587500X0.150000X-0.587500X0.150000X-0.587500X-0.150000X0.587500X-0.150000X0*%
%TD*%
%TA.AperFunction,SMDPad,CuDef*%
%ADD31RoundRect,0.250000X-0.477833X-0.550387X0.260773X-0.680623X0.477833X0.550387X-0.260773X0.680623X0*%
%TD*%
%TA.AperFunction,SMDPad,CuDef*%
%ADD32RoundRect,0.140000X-0.219203X-0.021213X-0.021213X-0.219203X0.219203X0.021213X0.021213X0.219203X0*%
%TD*%
%TA.AperFunction,ViaPad*%
%ADD33C,0.800000*%
%TD*%
%TA.AperFunction,Conductor*%
%ADD34C,0.250000*%
%TD*%
%TA.AperFunction,Conductor*%
%ADD35C,0.200000*%
%TD*%
G04 APERTURE END LIST*
D10*
%TO.P,SW2,1,1*%
%TO.N,Net-(D2-A)*%
X137386395Y-41011661D03*
%TO.P,SW2,2,2*%
%TO.N,COL2*%
X142310433Y-40143421D03*
%TD*%
%TO.P,SW32,1,1*%
%TO.N,Net-(D32-A)*%
X142595844Y-70555894D03*
%TO.P,SW32,2,2*%
%TO.N,COL2*%
X147519882Y-69687654D03*
%TD*%
%TO.P,SW10,1,1*%
%TO.N,Net-(D10-A)*%
X97994083Y-47957589D03*
%TO.P,SW10,2,2*%
%TO.N,COL10*%
X102918121Y-47089349D03*
%TD*%
%TO.P,SW20,1,1*%
%TO.N,Net-(D20-A)*%
X99730567Y-57805662D03*
%TO.P,SW20,2,2*%
%TO.N,COL10*%
X104654605Y-56937422D03*
%TD*%
%TO.P,SW8,1,1*%
%TO.N,Net-(D8-A)*%
X107842164Y-46221106D03*
%TO.P,SW8,2,2*%
%TO.N,COL8*%
X112766202Y-45352866D03*
%TD*%
D11*
%TO.P,SW19,1,1*%
%TO.N,Net-(D19-A)*%
X80730564Y-56937423D03*
%TO.P,SW19,2,2*%
%TO.N,COL9*%
X85654602Y-57805663D03*
%TD*%
D10*
%TO.P,SW38,1,1*%
%TO.N,Net-(D38-A)*%
X113051609Y-75765337D03*
%TO.P,SW38,2,2*%
%TO.N,COL8*%
X117975647Y-74897097D03*
%TD*%
D11*
%TO.P,SW15,1,1*%
%TO.N,Net-(D15-A)*%
X61034414Y-53464462D03*
%TO.P,SW15,2,2*%
%TO.N,COL5*%
X65958452Y-54332702D03*
%TD*%
%TO.P,SW21,1,1*%
%TO.N,Net-(D21-A)*%
X39601775Y-59839575D03*
%TO.P,SW21,2,2*%
%TO.N,COL1*%
X44525813Y-60707815D03*
%TD*%
%TO.P,SW1,1,1*%
%TO.N,Net-(D1-A)*%
X43074739Y-40143419D03*
%TO.P,SW1,2,2*%
%TO.N,COL1*%
X47998777Y-41011659D03*
%TD*%
D10*
%TO.P,SW36,1,1*%
%TO.N,Net-(D36-A)*%
X122899685Y-74028858D03*
%TO.P,SW36,2,2*%
%TO.N,COL6*%
X127823723Y-73160618D03*
%TD*%
D11*
%TO.P,SW29,1,1*%
%TO.N,Net-(D29-A)*%
X78994084Y-66785503D03*
%TO.P,SW29,2,2*%
%TO.N,COL9*%
X83918122Y-67653743D03*
%TD*%
%TO.P,SW25,1,1*%
%TO.N,Net-(D25-A)*%
X59297929Y-63312541D03*
%TO.P,SW25,2,2*%
%TO.N,COL5*%
X64221967Y-64180781D03*
%TD*%
%TO.P,SW31,1,1*%
%TO.N,Net-(D31-A)*%
X37865294Y-69687654D03*
%TO.P,SW31,2,2*%
%TO.N,COL1*%
X42789332Y-70555894D03*
%TD*%
%TO.P,SW11,1,1*%
%TO.N,Net-(D11-A)*%
X41338256Y-49991500D03*
%TO.P,SW11,2,2*%
%TO.N,COL1*%
X46262294Y-50859740D03*
%TD*%
%TO.P,SW13,1,1*%
%TO.N,Net-(D13-A)*%
X51186331Y-51727978D03*
%TO.P,SW13,2,2*%
%TO.N,COL3*%
X56110369Y-52596218D03*
%TD*%
D10*
%TO.P,SW4,1,1*%
%TO.N,Net-(D4-A)*%
X127538315Y-42748140D03*
%TO.P,SW4,2,2*%
%TO.N,COL4*%
X132462353Y-41879900D03*
%TD*%
%TO.P,SW34,1,1*%
%TO.N,Net-(D34-A)*%
X132747760Y-72292377D03*
%TO.P,SW34,2,2*%
%TO.N,COL4*%
X137671798Y-71424137D03*
%TD*%
D11*
%TO.P,SW17,1,1*%
%TO.N,Net-(D17-A)*%
X70882489Y-55200946D03*
%TO.P,SW17,2,2*%
%TO.N,COL7*%
X75806527Y-56069186D03*
%TD*%
D10*
%TO.P,SW18,1,1*%
%TO.N,Net-(D18-A)*%
X109578643Y-56069184D03*
%TO.P,SW18,2,2*%
%TO.N,COL8*%
X114502681Y-55200944D03*
%TD*%
D11*
%TO.P,SW33,1,1*%
%TO.N,Net-(D33-A)*%
X47713371Y-71424136D03*
%TO.P,SW33,2,2*%
%TO.N,COL3*%
X52637409Y-72292376D03*
%TD*%
D10*
%TO.P,SW40,1,1*%
%TO.N,Net-(D40-A)*%
X103203531Y-77501822D03*
%TO.P,SW40,2,2*%
%TO.N,COL10*%
X108127569Y-76633582D03*
%TD*%
%TO.P,SW30,1,1*%
%TO.N,Net-(D30-A)*%
X101467049Y-67653740D03*
%TO.P,SW30,2,2*%
%TO.N,COL10*%
X106391087Y-66785500D03*
%TD*%
D11*
%TO.P,SW7,1,1*%
%TO.N,Net-(D7-A)*%
X72618969Y-45352868D03*
%TO.P,SW7,2,2*%
%TO.N,COL7*%
X77543007Y-46221108D03*
%TD*%
D10*
%TO.P,SW14,1,1*%
%TO.N,Net-(D14-A)*%
X129274800Y-52596219D03*
%TO.P,SW14,2,2*%
%TO.N,COL4*%
X134198838Y-51727979D03*
%TD*%
%TO.P,SW12,1,1*%
%TO.N,Net-(D12-A)*%
X139122877Y-50859737D03*
%TO.P,SW12,2,2*%
%TO.N,COL2*%
X144046915Y-49991497D03*
%TD*%
D11*
%TO.P,SW5,1,1*%
%TO.N,Net-(D5-A)*%
X62770893Y-43616386D03*
%TO.P,SW5,2,2*%
%TO.N,COL5*%
X67694931Y-44484626D03*
%TD*%
%TO.P,SW3,1,1*%
%TO.N,Net-(D3-A)*%
X52922816Y-41879903D03*
%TO.P,SW3,2,2*%
%TO.N,COL3*%
X57846854Y-42748143D03*
%TD*%
D10*
%TO.P,SW24,1,1*%
%TO.N,Net-(D24-A)*%
X131011282Y-62444298D03*
%TO.P,SW24,2,2*%
%TO.N,COL4*%
X135935320Y-61576058D03*
%TD*%
%TO.P,SW16,1,1*%
%TO.N,Net-(D16-A)*%
X119426719Y-54332702D03*
%TO.P,SW16,2,2*%
%TO.N,COL6*%
X124350757Y-53464462D03*
%TD*%
%TO.P,SW28,1,1*%
%TO.N,Net-(D28-A)*%
X111315126Y-65917262D03*
%TO.P,SW28,2,2*%
%TO.N,COL8*%
X116239164Y-65049022D03*
%TD*%
D11*
%TO.P,SW37,1,1*%
%TO.N,Net-(D37-A)*%
X67409523Y-74897101D03*
%TO.P,SW37,2,2*%
%TO.N,COL7*%
X72333561Y-75765341D03*
%TD*%
%TO.P,SW9,1,1*%
%TO.N,Net-(D9-A)*%
X82467050Y-47089348D03*
%TO.P,SW9,2,2*%
%TO.N,COL9*%
X87391088Y-47957588D03*
%TD*%
%TO.P,SW39,1,1*%
%TO.N,Net-(D39-A)*%
X77257603Y-76633582D03*
%TO.P,SW39,2,2*%
%TO.N,COL9*%
X82181641Y-77501822D03*
%TD*%
D10*
%TO.P,SW26,1,1*%
%TO.N,Net-(D26-A)*%
X121163203Y-64180781D03*
%TO.P,SW26,2,2*%
%TO.N,COL6*%
X126087241Y-63312541D03*
%TD*%
%TO.P,SW22,1,1*%
%TO.N,Net-(D22-A)*%
X140859359Y-60707817D03*
%TO.P,SW22,2,2*%
%TO.N,COL2*%
X145783397Y-59839577D03*
%TD*%
D11*
%TO.P,SW23,1,1*%
%TO.N,Net-(D23-A)*%
X49449856Y-61576054D03*
%TO.P,SW23,2,2*%
%TO.N,COL3*%
X54373894Y-62444294D03*
%TD*%
%TO.P,SW27,1,1*%
%TO.N,Net-(D27-A)*%
X69146007Y-65049023D03*
%TO.P,SW27,2,2*%
%TO.N,COL7*%
X74070045Y-65917263D03*
%TD*%
%TO.P,SW35,1,1*%
%TO.N,Net-(D35-A)*%
X57561445Y-73160615D03*
%TO.P,SW35,2,2*%
%TO.N,COL5*%
X62485483Y-74028855D03*
%TD*%
D10*
%TO.P,SW6,1,1*%
%TO.N,Net-(D6-A)*%
X117690239Y-44484625D03*
%TO.P,SW6,2,2*%
%TO.N,COL6*%
X122614277Y-43616385D03*
%TD*%
D12*
%TO.P,D36,1,K*%
%TO.N,ROW4*%
X129682963Y-75066720D03*
%TO.P,D36,2,A*%
%TO.N,Net-(D36-A)*%
X129439855Y-73687990D03*
%TD*%
%TO.P,D10,1,K*%
%TO.N,ROW1*%
X104777358Y-48995451D03*
%TO.P,D10,2,A*%
%TO.N,Net-(D10-A)*%
X104534250Y-47616721D03*
%TD*%
D13*
%TO.P,D33,1,K*%
%TO.N,ROW4*%
X53732592Y-74719424D03*
%TO.P,D33,2,A*%
%TO.N,Net-(D33-A)*%
X53975700Y-73340694D03*
%TD*%
D14*
%TO.P,SW41,1,1*%
%TO.N,+3V3*%
X94143342Y-75475320D03*
X94143342Y-81675320D03*
%TO.P,SW41,2,2*%
%TO.N,BOOT0*%
X97843342Y-75475320D03*
X97843342Y-81675320D03*
%TD*%
D13*
%TO.P,D23,1,K*%
%TO.N,ROW3*%
X55469076Y-64871348D03*
%TO.P,D23,2,A*%
%TO.N,Net-(D23-A)*%
X55712184Y-63492618D03*
%TD*%
%TO.P,D17,1,K*%
%TO.N,ROW2*%
X76901710Y-58496234D03*
%TO.P,D17,2,A*%
%TO.N,Net-(D17-A)*%
X77144818Y-57117504D03*
%TD*%
D15*
%TO.P,C10,1*%
%TO.N,GND*%
X95160009Y-54761995D03*
%TO.P,C10,2*%
%TO.N,+3V3*%
X95160009Y-55721995D03*
%TD*%
D13*
%TO.P,D5,1,K*%
%TO.N,ROW1*%
X68790115Y-46911672D03*
%TO.P,D5,2,A*%
%TO.N,Net-(D5-A)*%
X69033223Y-45532942D03*
%TD*%
D16*
%TO.P,U1,1,I/O1*%
%TO.N,D_P*%
X93610012Y-48879498D03*
%TO.P,U1,2,GND*%
%TO.N,GND*%
X92660012Y-48879498D03*
%TO.P,U1,3,I/O2*%
%TO.N,D_N*%
X91710012Y-48879498D03*
%TO.P,U1,4,I/O2*%
%TO.N,D_USB_-*%
X91710012Y-46604498D03*
%TO.P,U1,5,VBUS*%
%TO.N,+5V*%
X92660012Y-46604498D03*
%TO.P,U1,6,I/O1*%
%TO.N,D_USB_+*%
X93610012Y-46604498D03*
%TD*%
D13*
%TO.P,D37,1,K*%
%TO.N,ROW4*%
X73428747Y-78192386D03*
%TO.P,D37,2,A*%
%TO.N,Net-(D37-A)*%
X73671855Y-76813656D03*
%TD*%
D17*
%TO.P,H3,1,1*%
%TO.N,GND*%
X46119592Y-66065976D03*
%TD*%
D18*
%TO.P,C7,1*%
%TO.N,+3V3*%
X99199459Y-64514764D03*
%TO.P,C7,2*%
%TO.N,GND*%
X98520637Y-63835942D03*
%TD*%
D17*
%TO.P,H6,1,1*%
%TO.N,GND*%
X135792617Y-46369820D03*
%TD*%
%TO.P,H2,1,1*%
%TO.N,GND*%
X79157630Y-51461058D03*
%TD*%
D13*
%TO.P,D1,1,K*%
%TO.N,ROW1*%
X49093959Y-43438711D03*
%TO.P,D1,2,A*%
%TO.N,Net-(D1-A)*%
X49337067Y-42059981D03*
%TD*%
D12*
%TO.P,D4,1,K*%
%TO.N,ROW1*%
X134321593Y-43786006D03*
%TO.P,D4,2,A*%
%TO.N,Net-(D4-A)*%
X134078485Y-42407276D03*
%TD*%
%TO.P,D18,1,K*%
%TO.N,ROW2*%
X116361924Y-57107044D03*
%TO.P,D18,2,A*%
%TO.N,Net-(D18-A)*%
X116118816Y-55728314D03*
%TD*%
D19*
%TO.P,R1,1*%
%TO.N,BOOT0*%
X100160008Y-74918655D03*
%TO.P,R1,2*%
%TO.N,GND*%
X100160008Y-73898655D03*
%TD*%
D12*
%TO.P,D12,1,K*%
%TO.N,ROW2*%
X145906151Y-51897605D03*
%TO.P,D12,2,A*%
%TO.N,Net-(D12-A)*%
X145663043Y-50518875D03*
%TD*%
D13*
%TO.P,D7,1,K*%
%TO.N,ROW1*%
X78638194Y-48648155D03*
%TO.P,D7,2,A*%
%TO.N,Net-(D7-A)*%
X78881302Y-47269425D03*
%TD*%
D12*
%TO.P,D22,1,K*%
%TO.N,ROW3*%
X147642634Y-61745678D03*
%TO.P,D22,2,A*%
%TO.N,Net-(D22-A)*%
X147399526Y-60366948D03*
%TD*%
D17*
%TO.P,H1,1,1*%
%TO.N,GND*%
X49613397Y-46251616D03*
%TD*%
D20*
%TO.P,C1,1*%
%TO.N,GND*%
X88846678Y-73575322D03*
%TO.P,C1,2*%
%TO.N,NRST*%
X89806678Y-73575322D03*
%TD*%
D18*
%TO.P,C2,1*%
%TO.N,+3V3*%
X92899460Y-59214760D03*
%TO.P,C2,2*%
%TO.N,GND*%
X92220638Y-58535938D03*
%TD*%
D12*
%TO.P,D6,1,K*%
%TO.N,ROW1*%
X124473517Y-45522486D03*
%TO.P,D6,2,A*%
%TO.N,Net-(D6-A)*%
X124230409Y-44143756D03*
%TD*%
D14*
%TO.P,SW42,1,1*%
%TO.N,GND*%
X87476682Y-75475320D03*
X87476682Y-81675320D03*
%TO.P,SW42,2,2*%
%TO.N,NRST*%
X91176682Y-75475320D03*
X91176682Y-81675320D03*
%TD*%
D12*
%TO.P,D2,1,K*%
%TO.N,ROW1*%
X144169671Y-42049527D03*
%TO.P,D2,2,A*%
%TO.N,Net-(D2-A)*%
X143926563Y-40670797D03*
%TD*%
%TO.P,D14,1,K*%
%TO.N,ROW2*%
X136058074Y-53634082D03*
%TO.P,D14,2,A*%
%TO.N,Net-(D14-A)*%
X135814966Y-52255352D03*
%TD*%
D13*
%TO.P,D11,1,K*%
%TO.N,ROW2*%
X47357480Y-53286790D03*
%TO.P,D11,2,A*%
%TO.N,Net-(D11-A)*%
X47600588Y-51908060D03*
%TD*%
%TO.P,D19,1,K*%
%TO.N,ROW2*%
X86749791Y-60232714D03*
%TO.P,D19,2,A*%
%TO.N,Net-(D19-A)*%
X86992899Y-58853984D03*
%TD*%
%TO.P,D39,1,K*%
%TO.N,ROW4*%
X83276824Y-79928869D03*
%TO.P,D39,2,A*%
%TO.N,Net-(D39-A)*%
X83519932Y-78550139D03*
%TD*%
%TO.P,D13,1,K*%
%TO.N,ROW2*%
X57205557Y-55023268D03*
%TO.P,D13,2,A*%
%TO.N,Net-(D13-A)*%
X57448665Y-53644538D03*
%TD*%
D21*
%TO.P,C3,1*%
%TO.N,+3V3*%
X95920639Y-71714762D03*
%TO.P,C3,2*%
%TO.N,GND*%
X96599461Y-71035940D03*
%TD*%
D13*
%TO.P,D31,1,K*%
%TO.N,ROW4*%
X43884517Y-72982944D03*
%TO.P,D31,2,A*%
%TO.N,Net-(D31-A)*%
X44127625Y-71604214D03*
%TD*%
D12*
%TO.P,D40,1,K*%
%TO.N,ROW4*%
X109986806Y-78539684D03*
%TO.P,D40,2,A*%
%TO.N,Net-(D40-A)*%
X109743698Y-77160954D03*
%TD*%
%TO.P,D16,1,K*%
%TO.N,ROW2*%
X126209997Y-55370562D03*
%TO.P,D16,2,A*%
%TO.N,Net-(D16-A)*%
X125966889Y-53991832D03*
%TD*%
D13*
%TO.P,D15,1,K*%
%TO.N,ROW2*%
X67053634Y-56759749D03*
%TO.P,D15,2,A*%
%TO.N,Net-(D15-A)*%
X67296742Y-55381019D03*
%TD*%
D22*
%TO.P,J1,*%
%TO.N,*%
X88910012Y-41184151D03*
X96410012Y-41184151D03*
D23*
%TO.P,J1,A1B12,GND*%
%TO.N,GND*%
X89460012Y-42384151D03*
%TO.P,J1,A4B9,VBUS*%
%TO.N,VBUS*%
X90210012Y-42384151D03*
D24*
%TO.P,J1,A5,CC1*%
%TO.N,Net-(J1-CC1)*%
X91410012Y-42384151D03*
%TO.P,J1,A6,D+*%
%TO.N,D_USB_+*%
X92410012Y-42384151D03*
%TO.P,J1,A7,D-*%
%TO.N,D_USB_-*%
X92910012Y-42384151D03*
%TO.P,J1,A8,SBU1*%
%TO.N,unconnected-(J1-SBU1-PadA8)*%
X93910012Y-42384151D03*
D23*
%TO.P,J1,B1A12,GND*%
%TO.N,GND*%
X95860012Y-42384151D03*
%TO.P,J1,B4A9,VBUS*%
%TO.N,VBUS*%
X95110012Y-42384151D03*
D24*
%TO.P,J1,B5,CC2*%
%TO.N,Net-(J1-CC2)*%
X94410012Y-42384151D03*
%TO.P,J1,B6,D+*%
%TO.N,D_USB_+*%
X93410012Y-42384151D03*
%TO.P,J1,B7,D-*%
%TO.N,D_USB_-*%
X91910012Y-42384151D03*
%TO.P,J1,B8,SBU2*%
%TO.N,unconnected-(J1-SBU2-PadB8)*%
X90910012Y-42384151D03*
D25*
%TO.P,J1,S1,Shield*%
%TO.N,GND*%
X87085012Y-41104151D03*
X98235012Y-41104151D03*
X87085012Y-36504151D03*
D26*
X87460012Y-36504151D03*
X97860012Y-36504151D03*
D25*
X98235012Y-36504151D03*
%TD*%
D13*
%TO.P,D29,1,K*%
%TO.N,ROW3*%
X85013309Y-70080790D03*
%TO.P,D29,2,A*%
%TO.N,Net-(D29-A)*%
X85256417Y-68702060D03*
%TD*%
D12*
%TO.P,D8,1,K*%
%TO.N,ROW1*%
X114625438Y-47258970D03*
%TO.P,D8,2,A*%
%TO.N,Net-(D8-A)*%
X114382330Y-45880240D03*
%TD*%
%TO.P,D38,1,K*%
%TO.N,ROW4*%
X119834880Y-76803201D03*
%TO.P,D38,2,A*%
%TO.N,Net-(D38-A)*%
X119591772Y-75424471D03*
%TD*%
%TO.P,D26,1,K*%
%TO.N,ROW3*%
X127946479Y-65218643D03*
%TO.P,D26,2,A*%
%TO.N,Net-(D26-A)*%
X127703371Y-63839913D03*
%TD*%
D13*
%TO.P,D27,1,K*%
%TO.N,ROW3*%
X75165228Y-68344309D03*
%TO.P,D27,2,A*%
%TO.N,Net-(D27-A)*%
X75408336Y-66965579D03*
%TD*%
D12*
%TO.P,D24,1,K*%
%TO.N,ROW3*%
X137794558Y-63482161D03*
%TO.P,D24,2,A*%
%TO.N,Net-(D24-A)*%
X137551450Y-62103431D03*
%TD*%
D27*
%TO.P,R2,1*%
%TO.N,Net-(J1-CC1)*%
X89003347Y-44166649D03*
%TO.P,R2,2*%
%TO.N,GND*%
X87983347Y-44166649D03*
%TD*%
D17*
%TO.P,H4,1,1*%
%TO.N,GND*%
X75663823Y-71275424D03*
%TD*%
D13*
%TO.P,D9,1,K*%
%TO.N,ROW1*%
X88486269Y-50384639D03*
%TO.P,D9,2,A*%
%TO.N,Net-(D9-A)*%
X88729377Y-49005909D03*
%TD*%
D17*
%TO.P,H7,1,1*%
%TO.N,GND*%
X109721346Y-71275421D03*
%TD*%
D12*
%TO.P,D30,1,K*%
%TO.N,ROW3*%
X108250326Y-68691607D03*
%TO.P,D30,2,A*%
%TO.N,Net-(D30-A)*%
X108007218Y-67312877D03*
%TD*%
D28*
%TO.P,U2,1,VBAT*%
%TO.N,+3V3*%
X97547888Y-67074113D03*
%TO.P,U2,2,PC13*%
%TO.N,COL2*%
X97194334Y-67427667D03*
%TO.P,U2,3,PC14*%
%TO.N,COL4*%
X96840781Y-67781220D03*
%TO.P,U2,4,PC15*%
%TO.N,COL6*%
X96487227Y-68134774D03*
%TO.P,U2,5,PF0*%
%TO.N,COL8*%
X96133674Y-68488327D03*
%TO.P,U2,6,PF1*%
%TO.N,COL10*%
X95780121Y-68841880D03*
%TO.P,U2,7,NRST*%
%TO.N,NRST*%
X95426567Y-69195434D03*
%TO.P,U2,8,VSSA*%
%TO.N,GND*%
X95073014Y-69548987D03*
%TO.P,U2,9,VDDA*%
%TO.N,+3V3*%
X94719461Y-69902540D03*
%TO.P,U2,10,PA0*%
%TO.N,unconnected-(U2-PA0-Pad10)*%
X94365907Y-70256094D03*
%TO.P,U2,11,PA1*%
%TO.N,unconnected-(U2-PA1-Pad11)*%
X94012354Y-70609647D03*
%TO.P,U2,12,PA2*%
%TO.N,unconnected-(U2-PA2-Pad12)*%
X93658800Y-70963201D03*
D29*
%TO.P,U2,13,PA3*%
%TO.N,unconnected-(U2-PA3-Pad13)*%
X91661224Y-70963201D03*
%TO.P,U2,14,PA4*%
%TO.N,unconnected-(U2-PA4-Pad14)*%
X91307670Y-70609647D03*
%TO.P,U2,15,PA5*%
%TO.N,unconnected-(U2-PA5-Pad15)*%
X90954117Y-70256094D03*
%TO.P,U2,16,PA6*%
%TO.N,unconnected-(U2-PA6-Pad16)*%
X90600563Y-69902540D03*
%TO.P,U2,17,PA7*%
%TO.N,unconnected-(U2-PA7-Pad17)*%
X90247010Y-69548987D03*
%TO.P,U2,18,PB0*%
%TO.N,COL9*%
X89893457Y-69195434D03*
%TO.P,U2,19,PB1*%
%TO.N,COL7*%
X89539903Y-68841880D03*
%TO.P,U2,20,PB2*%
%TO.N,COL5*%
X89186350Y-68488327D03*
%TO.P,U2,21,PB10*%
%TO.N,COL3*%
X88832797Y-68134774D03*
%TO.P,U2,22,PB11*%
%TO.N,COL1*%
X88479243Y-67781220D03*
%TO.P,U2,23,VSS*%
%TO.N,GND*%
X88125690Y-67427667D03*
%TO.P,U2,24,VDD*%
%TO.N,+3V3*%
X87772136Y-67074113D03*
D28*
%TO.P,U2,25,PB12*%
%TO.N,unconnected-(U2-PB12-Pad25)*%
X87772136Y-65076537D03*
%TO.P,U2,26,PB13*%
%TO.N,unconnected-(U2-PB13-Pad26)*%
X88125690Y-64722983D03*
%TO.P,U2,27,PB14*%
%TO.N,ROW4*%
X88479243Y-64369430D03*
%TO.P,U2,28,PB15*%
%TO.N,ROW3*%
X88832797Y-64015876D03*
%TO.P,U2,29,PA8*%
%TO.N,ROW2*%
X89186350Y-63662323D03*
%TO.P,U2,30,PA9*%
%TO.N,ROW1*%
X89539903Y-63308770D03*
%TO.P,U2,31,PA10*%
%TO.N,SWDCLK*%
X89893457Y-62955216D03*
%TO.P,U2,32,PA11*%
%TO.N,D_N*%
X90247010Y-62601663D03*
%TO.P,U2,33,PA12*%
%TO.N,D_P*%
X90600563Y-62248110D03*
%TO.P,U2,34,PA13*%
%TO.N,SWDIO*%
X90954117Y-61894556D03*
%TO.P,U2,35,VSS*%
%TO.N,GND*%
X91307670Y-61541003D03*
%TO.P,U2,36,VDDIO2*%
%TO.N,+3V3*%
X91661224Y-61187449D03*
D29*
%TO.P,U2,37,PA14*%
%TO.N,unconnected-(U2-PA14-Pad37)*%
X93658800Y-61187449D03*
%TO.P,U2,38,PA15*%
%TO.N,unconnected-(U2-PA15-Pad38)*%
X94012354Y-61541003D03*
%TO.P,U2,39,PB3*%
%TO.N,unconnected-(U2-PB3-Pad39)*%
X94365907Y-61894556D03*
%TO.P,U2,40,PB4*%
%TO.N,unconnected-(U2-PB4-Pad40)*%
X94719461Y-62248110D03*
%TO.P,U2,41,PB5*%
%TO.N,unconnected-(U2-PB5-Pad41)*%
X95073014Y-62601663D03*
%TO.P,U2,42,PB6*%
%TO.N,unconnected-(U2-PB6-Pad42)*%
X95426567Y-62955216D03*
%TO.P,U2,43,PB7*%
%TO.N,unconnected-(U2-PB7-Pad43)*%
X95780121Y-63308770D03*
%TO.P,U2,44,BOOT0*%
%TO.N,BOOT0*%
X96133674Y-63662323D03*
%TO.P,U2,45,PB8*%
%TO.N,unconnected-(U2-PB8-Pad45)*%
X96487227Y-64015876D03*
%TO.P,U2,46,PB9*%
%TO.N,unconnected-(U2-PB9-Pad46)*%
X96840781Y-64369430D03*
%TO.P,U2,47,VSS*%
%TO.N,GND*%
X97194334Y-64722983D03*
%TO.P,U2,48,VDD*%
%TO.N,+3V3*%
X97547888Y-65076537D03*
%TD*%
D13*
%TO.P,D25,1,K*%
%TO.N,ROW3*%
X65317151Y-66607831D03*
%TO.P,D25,2,A*%
%TO.N,Net-(D25-A)*%
X65560259Y-65229101D03*
%TD*%
D30*
%TO.P,U3,1,GND*%
%TO.N,GND*%
X93597512Y-54291994D03*
%TO.P,U3,2,VO*%
%TO.N,+3V3*%
X93597512Y-56191994D03*
%TO.P,U3,3,VI*%
%TO.N,+5V*%
X91722512Y-55241994D03*
%TD*%
D27*
%TO.P,R3,1*%
%TO.N,GND*%
X97499961Y-44166649D03*
%TO.P,R3,2*%
%TO.N,Net-(J1-CC2)*%
X96479961Y-44166649D03*
%TD*%
D31*
%TO.P,F1,1*%
%TO.N,VBUS*%
X83581317Y-52432244D03*
%TO.P,F1,2*%
%TO.N,+5V*%
X86338779Y-52918458D03*
%TD*%
D18*
%TO.P,C5,1*%
%TO.N,+3V3*%
X91999459Y-60114761D03*
%TO.P,C5,2*%
%TO.N,GND*%
X91320637Y-59435939D03*
%TD*%
D32*
%TO.P,C6,1*%
%TO.N,+3V3*%
X86120638Y-67635938D03*
%TO.P,C6,2*%
%TO.N,GND*%
X86799460Y-68314760D03*
%TD*%
D12*
%TO.P,D34,1,K*%
%TO.N,ROW4*%
X139531038Y-73330239D03*
%TO.P,D34,2,A*%
%TO.N,Net-(D34-A)*%
X139287930Y-71951509D03*
%TD*%
%TO.P,D32,1,K*%
%TO.N,ROW4*%
X149379115Y-71593758D03*
%TO.P,D32,2,A*%
%TO.N,Net-(D32-A)*%
X149136007Y-70215028D03*
%TD*%
D13*
%TO.P,D21,1,K*%
%TO.N,ROW3*%
X45620997Y-63134865D03*
%TO.P,D21,2,A*%
%TO.N,Net-(D21-A)*%
X45864105Y-61756135D03*
%TD*%
D17*
%TO.P,H8,1,1*%
%TO.N,GND*%
X139265580Y-66065975D03*
%TD*%
D12*
%TO.P,D28,1,K*%
%TO.N,ROW3*%
X118098403Y-66955123D03*
%TO.P,D28,2,A*%
%TO.N,Net-(D28-A)*%
X117855295Y-65576393D03*
%TD*%
D13*
%TO.P,D35,1,K*%
%TO.N,ROW4*%
X63580671Y-76455906D03*
%TO.P,D35,2,A*%
%TO.N,Net-(D35-A)*%
X63823779Y-75077176D03*
%TD*%
D12*
%TO.P,D20,1,K*%
%TO.N,ROW2*%
X106513841Y-58843527D03*
%TO.P,D20,2,A*%
%TO.N,Net-(D20-A)*%
X106270733Y-57464797D03*
%TD*%
D17*
%TO.P,H5,1,1*%
%TO.N,GND*%
X106248381Y-51579265D03*
%TD*%
D15*
%TO.P,C9,1*%
%TO.N,GND*%
X90160011Y-54281994D03*
%TO.P,C9,2*%
%TO.N,+5V*%
X90160011Y-55241994D03*
%TD*%
D13*
%TO.P,D3,1,K*%
%TO.N,ROW1*%
X58942035Y-45175193D03*
%TO.P,D3,2,A*%
%TO.N,Net-(D3-A)*%
X59185143Y-43796463D03*
%TD*%
D21*
%TO.P,C4,1*%
%TO.N,+3V3*%
X96820640Y-72514761D03*
%TO.P,C4,2*%
%TO.N,GND*%
X97499462Y-71835939D03*
%TD*%
D33*
%TO.N,GND*%
X90081655Y-46584957D03*
X86228081Y-69127136D03*
X93493345Y-65241990D03*
X86228081Y-73627137D03*
X95859116Y-46012026D03*
X91826681Y-66908655D03*
X93493343Y-66908657D03*
X91935511Y-65241992D03*
%TO.N,NRST*%
X99378390Y-72690274D03*
X92660012Y-75241986D03*
%TO.N,+5V*%
X92409602Y-47626409D03*
X90160050Y-56275350D03*
X86702372Y-56035710D03*
X87596316Y-50963390D03*
%TO.N,ROW1*%
X94860049Y-48975349D03*
X87245296Y-61331650D03*
X89875457Y-48995453D03*
X86964129Y-57477137D03*
%TO.N,ROW2*%
X104503082Y-61477136D03*
X91033135Y-64812200D03*
%TO.N,ROW3*%
X90103081Y-65177137D03*
X102428081Y-69702137D03*
%TO.N,ROW4*%
X110128037Y-79660437D03*
X85428081Y-63677136D03*
X85128047Y-79660439D03*
%TO.N,VBUS*%
X90260049Y-45575351D03*
X83560051Y-50275352D03*
X94960049Y-45575352D03*
%TO.N,Net-(J1-CC1)*%
X89385951Y-44801958D03*
X91360049Y-44575352D03*
%TO.N,Net-(J1-CC2)*%
X95833295Y-44999982D03*
X94185512Y-44575349D03*
%TO.N,BOOT0*%
X95135607Y-64464568D03*
X96211519Y-73793497D03*
%TO.N,COL1*%
X80028082Y-70252137D03*
X78003081Y-54177138D03*
%TO.N,COL2*%
X104053081Y-63152139D03*
X103953081Y-72485781D03*
%TO.N,COL3*%
X77028081Y-54727136D03*
X78578081Y-70302137D03*
%TO.N,COL4*%
X105703081Y-73210280D03*
X105028083Y-64177138D03*
%TO.N,COL5*%
X63556973Y-67952136D03*
%TO.N,COL7*%
X72626831Y-74415038D03*
%TO.N,COL9*%
X87153081Y-72850821D03*
X86327180Y-74627137D03*
%TO.N,D_P*%
X89085048Y-53275350D03*
X93710014Y-51200350D03*
%TO.N,D_N*%
X88035047Y-53275353D03*
X91660049Y-50200850D03*
%TD*%
D34*
%TO.N,GND*%
X89310013Y-42248667D02*
X87983347Y-43575334D01*
X93493345Y-65241990D02*
X93542274Y-65290920D01*
X90935049Y-47438351D02*
X90935049Y-50775016D01*
X91307671Y-61541001D02*
X90739733Y-60973066D01*
X97499460Y-71835941D02*
X97359966Y-71835941D01*
X97499961Y-43735383D02*
X97499961Y-44166649D01*
X92220639Y-58535941D02*
X92220639Y-56153120D01*
X91307671Y-61541001D02*
X91935511Y-62168843D01*
X93493347Y-67969317D02*
X95073014Y-69548987D01*
X92660012Y-53354496D02*
X93597511Y-54291993D01*
X98081376Y-63835940D02*
X98520640Y-63835940D01*
X97090012Y-44781130D02*
X95859116Y-46012026D01*
X97660011Y-43575333D02*
X98235012Y-43000332D01*
X95860012Y-42384151D02*
X97051194Y-43575333D01*
X51326521Y-45052073D02*
X49613397Y-46251616D01*
X109721346Y-71275421D02*
X139265580Y-66065975D01*
X86799461Y-68314763D02*
X86799460Y-68555757D01*
X91777750Y-66859729D02*
X88693628Y-66859729D01*
X77958090Y-49747938D02*
X51326521Y-45052073D01*
X88693628Y-66859729D02*
X88125690Y-67427666D01*
X87424863Y-75527138D02*
X87476681Y-75475322D01*
X97660011Y-43575333D02*
X97499961Y-43735383D01*
X91826681Y-66908655D02*
X91777750Y-66859729D01*
X91935511Y-62168843D02*
X91935511Y-65241992D01*
X97051194Y-43575333D02*
X97660011Y-43575333D01*
X93597513Y-54776250D02*
X93597511Y-54291993D01*
X90739735Y-60016844D02*
X91320638Y-59435940D01*
X92220639Y-56153120D02*
X93597513Y-54776250D01*
X98235012Y-43000332D02*
X98235012Y-41104151D01*
X90081655Y-46584957D02*
X90935049Y-47438351D01*
X100160009Y-73898654D02*
X99562174Y-73898653D01*
X87983348Y-44423955D02*
X87983347Y-43575334D01*
X86228081Y-73627137D02*
X86279897Y-73575321D01*
X106248381Y-51579265D02*
X135792617Y-46369820D01*
X91320638Y-59435940D02*
X92220639Y-58535941D01*
X89460012Y-42384151D02*
X88365012Y-42384151D01*
X92660012Y-51666646D02*
X92660012Y-53354496D01*
X87983347Y-44166649D02*
X87983347Y-44486649D01*
X95860012Y-42384151D02*
X97090012Y-43614151D01*
X87238595Y-68314764D02*
X88125690Y-67427666D01*
X86279897Y-73575321D02*
X88846679Y-73575321D01*
X93597511Y-54291993D02*
X94690011Y-54291996D01*
X92660012Y-48879496D02*
X92660012Y-51666646D01*
X90935049Y-50775016D02*
X91826679Y-51666646D01*
X86799460Y-68555757D02*
X86228081Y-69127136D01*
X88846680Y-73575319D02*
X87476682Y-74945323D01*
X87476681Y-75475320D02*
X87476681Y-81675319D01*
X99562174Y-73898653D02*
X97499460Y-71835941D01*
X90739733Y-60973066D02*
X90739735Y-60016844D01*
X46119592Y-66065976D02*
X48315403Y-64528454D01*
X86799460Y-68314762D02*
X87238595Y-68314764D01*
X91826679Y-51666646D02*
X92660012Y-51666646D01*
X97359966Y-71835941D02*
X95073014Y-69548987D01*
X79157630Y-51461058D02*
X77958090Y-49747938D01*
X97499961Y-44166649D02*
X97499961Y-44486649D01*
X87983347Y-44486649D02*
X90081655Y-46584957D01*
X97090012Y-43614151D02*
X97090012Y-44781130D01*
X90170015Y-54291997D02*
X90160011Y-54281995D01*
X48315403Y-64528454D02*
X74126300Y-69079610D01*
X74126300Y-69079610D02*
X75663823Y-71275424D01*
X93597511Y-54291993D02*
X90170015Y-54291997D01*
X88365012Y-42384151D02*
X87085012Y-41104151D01*
X97194333Y-64722983D02*
X98081376Y-63835940D01*
X94690011Y-54291996D02*
X95160012Y-54761995D01*
X87476682Y-74945323D02*
X87476681Y-75475320D01*
X93542274Y-65290920D02*
X96626397Y-65290920D01*
X96626397Y-65290920D02*
X97194333Y-64722983D01*
X93493343Y-66908657D02*
X93493347Y-67969317D01*
%TO.N,Net-(D1-A)*%
X49337067Y-42059983D02*
X44991298Y-42059982D01*
X44991298Y-42059982D02*
X43074739Y-40143421D01*
%TO.N,Net-(D2-A)*%
X143104205Y-41493151D02*
X143926563Y-40670795D01*
X137867885Y-41493153D02*
X143104205Y-41493151D01*
X137386396Y-41011661D02*
X137867885Y-41493153D01*
%TO.N,Net-(D3-A)*%
X54839376Y-43796459D02*
X52922817Y-41879902D01*
X59185146Y-43796461D02*
X54839376Y-43796459D01*
%TO.N,Net-(D4-A)*%
X133256128Y-43229635D02*
X134078483Y-42407276D01*
X128019804Y-43229635D02*
X133256128Y-43229635D01*
X127538316Y-42748142D02*
X128019804Y-43229635D01*
%TO.N,Net-(D5-A)*%
X64687450Y-45532944D02*
X62770894Y-43616385D01*
X69033221Y-45532945D02*
X64687450Y-45532944D01*
%TO.N,Net-(D6-A)*%
X118171732Y-44966117D02*
X123408048Y-44966116D01*
X117690241Y-44484626D02*
X118171732Y-44966117D01*
X123408048Y-44966116D02*
X124230409Y-44143756D01*
%TO.N,Net-(D7-A)*%
X72618972Y-45352865D02*
X74535528Y-47269424D01*
X74535528Y-47269424D02*
X78881302Y-47269424D01*
%TO.N,Net-(D8-A)*%
X108323655Y-46702596D02*
X113559972Y-46702595D01*
X113559972Y-46702595D02*
X114382330Y-45880241D01*
X107842163Y-46221105D02*
X108323655Y-46702596D01*
%TO.N,Net-(D9-A)*%
X84383607Y-49005908D02*
X88729378Y-49005907D01*
X82467047Y-47089350D02*
X84383607Y-49005908D01*
%TO.N,Net-(D10-A)*%
X97994083Y-47957589D02*
X98475575Y-48439080D01*
X98475575Y-48439080D02*
X103711891Y-48439081D01*
X103711891Y-48439081D02*
X104534252Y-47616722D01*
%TO.N,NRST*%
X95426567Y-69195434D02*
X95994506Y-69763369D01*
X91410011Y-75241985D02*
X91176680Y-75475319D01*
X97039854Y-70351739D02*
X97371668Y-70683550D01*
X91176681Y-81675320D02*
X91176680Y-75475319D01*
X92660012Y-75241986D02*
X91410011Y-75241985D01*
X91176681Y-74945320D02*
X91176680Y-75475319D01*
X95426567Y-69195433D02*
X96582872Y-70351737D01*
X97371668Y-70683550D02*
X99378390Y-72690274D01*
X96582872Y-70351737D02*
X97039854Y-70351739D01*
X89806682Y-73575322D02*
X91176681Y-74945320D01*
%TO.N,Net-(D11-A)*%
X43254814Y-51908058D02*
X47600584Y-51908060D01*
X41338256Y-49991495D02*
X43254814Y-51908058D01*
%TO.N,Net-(D12-A)*%
X139604367Y-51341231D02*
X144840687Y-51341227D01*
X139122878Y-50859740D02*
X139604367Y-51341231D01*
X144840687Y-51341227D02*
X145663046Y-50518872D01*
%TO.N,Net-(D13-A)*%
X51186336Y-51727979D02*
X53102895Y-53644538D01*
X53102895Y-53644538D02*
X57448667Y-53644537D01*
%TO.N,Net-(D14-A)*%
X134992609Y-53077712D02*
X135814965Y-52255353D01*
X129756291Y-53077709D02*
X134992609Y-53077712D01*
X129274800Y-52596217D02*
X129756291Y-53077709D01*
%TO.N,Net-(D15-A)*%
X62950968Y-55381018D02*
X67296742Y-55381023D01*
X61034410Y-53464461D02*
X62950968Y-55381018D01*
%TO.N,Net-(D16-A)*%
X125144533Y-54814194D02*
X125966889Y-53991834D01*
X119426721Y-54332704D02*
X119908212Y-54814194D01*
X119908212Y-54814194D02*
X125144533Y-54814194D01*
%TO.N,Net-(D17-A)*%
X77144820Y-57117504D02*
X72799048Y-57117501D01*
X72799048Y-57117501D02*
X70882487Y-55200943D01*
%TO.N,Net-(D18-A)*%
X115296453Y-56550677D02*
X116118811Y-55728318D01*
X109578644Y-56069180D02*
X110060136Y-56550675D01*
X110060136Y-56550675D02*
X115296453Y-56550677D01*
%TO.N,Net-(D19-A)*%
X82647127Y-58853984D02*
X86992897Y-58853983D01*
X80730568Y-56937427D02*
X82647127Y-58853984D01*
%TO.N,Net-(D20-A)*%
X100212058Y-58287157D02*
X105448375Y-58287158D01*
X105448375Y-58287158D02*
X106270736Y-57464797D01*
X99730566Y-57805663D02*
X100212058Y-58287157D01*
%TO.N,+3V3*%
X95993344Y-66075326D02*
X96549100Y-66075326D01*
X94143342Y-74837074D02*
X94143343Y-75475320D01*
X96465657Y-72514762D02*
X94143342Y-74837074D01*
X91661224Y-61187446D02*
X91661224Y-60452996D01*
X91999461Y-60114762D02*
X92899460Y-59214760D01*
X96549100Y-66075326D02*
X97547889Y-67074111D01*
X86682467Y-67074114D02*
X87772136Y-67074112D01*
X97547885Y-65076536D02*
X98637688Y-65076536D01*
X92660012Y-66075325D02*
X92660012Y-67843089D01*
X93597511Y-58516709D02*
X93597512Y-56191993D01*
X91661224Y-60452996D02*
X91999461Y-60114762D01*
X95287400Y-70470476D02*
X95287399Y-70981523D01*
X94143343Y-75475320D02*
X94143344Y-81675318D01*
X98637688Y-65076536D02*
X99199460Y-64514763D01*
X92660012Y-66075325D02*
X88770924Y-66075327D01*
X95160010Y-55721994D02*
X94067512Y-55721995D01*
X92660012Y-67843089D02*
X94719462Y-69902539D01*
X92899460Y-59214760D02*
X93597511Y-58516709D01*
X94719462Y-69902539D02*
X95287400Y-70470476D01*
X91661224Y-61187446D02*
X92660013Y-62186237D01*
X86120640Y-67635941D02*
X86682467Y-67074114D01*
X92660012Y-66075325D02*
X95993344Y-66075326D01*
X95287399Y-70981523D02*
X96820640Y-72514764D01*
X94067512Y-55721995D02*
X93597512Y-56191993D01*
X92660013Y-62186237D02*
X92660012Y-66075325D01*
X96549100Y-66075326D02*
X97547885Y-65076536D01*
X96820640Y-72514764D02*
X96465657Y-72514762D01*
X88770924Y-66075327D02*
X87772136Y-67074112D01*
%TO.N,Net-(D21-A)*%
X41518333Y-61756135D02*
X45864105Y-61756136D01*
X39601774Y-59839578D02*
X41518333Y-61756135D01*
%TO.N,Net-(D22-A)*%
X140859357Y-60707819D02*
X141340849Y-61189308D01*
X141340849Y-61189308D02*
X146577169Y-61189308D01*
X146577169Y-61189308D02*
X147399527Y-60366953D01*
%TO.N,Net-(D23-A)*%
X49449852Y-61576057D02*
X51366412Y-63492616D01*
X51366412Y-63492616D02*
X55712184Y-63492614D01*
%TO.N,Net-(D24-A)*%
X131492771Y-62925786D02*
X136729092Y-62925788D01*
X136729092Y-62925788D02*
X137551449Y-62103430D01*
X131011281Y-62444295D02*
X131492771Y-62925786D01*
%TO.N,Net-(D25-A)*%
X61214489Y-65229099D02*
X65560262Y-65229097D01*
X59297930Y-63312538D02*
X61214489Y-65229099D01*
%TO.N,Net-(D26-A)*%
X121163205Y-64180780D02*
X121644695Y-64662270D01*
X126881012Y-64662269D02*
X127703373Y-63839913D01*
X121644695Y-64662270D02*
X126881012Y-64662269D01*
%TO.N,Net-(D27-A)*%
X71062566Y-66965583D02*
X75408338Y-66965580D01*
X69146008Y-65049021D02*
X71062566Y-66965583D01*
%TO.N,Net-(D28-A)*%
X111796617Y-66398754D02*
X117032936Y-66398753D01*
X117032936Y-66398753D02*
X117855292Y-65576393D01*
X111315127Y-65917262D02*
X111796617Y-66398754D01*
%TO.N,Net-(D29-A)*%
X78994084Y-66785503D02*
X80910643Y-68702059D01*
X80910643Y-68702059D02*
X85256413Y-68702061D01*
%TO.N,Net-(D30-A)*%
X101948539Y-68135235D02*
X107184860Y-68135234D01*
X101467048Y-67653744D02*
X101948539Y-68135235D01*
X107184860Y-68135234D02*
X108007214Y-67312874D01*
%TO.N,+5V*%
X87596316Y-51660921D02*
X86338779Y-52918458D01*
X86338780Y-55672119D02*
X86338782Y-52918456D01*
X87596316Y-50963390D02*
X87596316Y-51660921D01*
X90160014Y-55241993D02*
X90160013Y-56275316D01*
X86702372Y-56035710D02*
X86338780Y-55672119D01*
X91722514Y-55241996D02*
X90160014Y-55241993D01*
X90160013Y-56275316D02*
X90160050Y-56275350D01*
X92660012Y-47375999D02*
X92409602Y-47626409D01*
X92660012Y-46604498D02*
X92660012Y-47375999D01*
%TO.N,Net-(D31-A)*%
X39781855Y-71604210D02*
X44127626Y-71604211D01*
X37865294Y-69687651D02*
X39781855Y-71604210D01*
%TO.N,Net-(D32-A)*%
X142595841Y-70555893D02*
X143077330Y-71037384D01*
X143077330Y-71037384D02*
X148313650Y-71037386D01*
X148313650Y-71037386D02*
X149136010Y-70215026D01*
%TO.N,Net-(D33-A)*%
X47713369Y-71424136D02*
X49629929Y-73340695D01*
X49629929Y-73340695D02*
X53975700Y-73340691D01*
%TO.N,Net-(D34-A)*%
X133229252Y-72773868D02*
X138465570Y-72773869D01*
X138465570Y-72773869D02*
X139287930Y-71951507D01*
X132747763Y-72292379D02*
X133229252Y-72773868D01*
%TO.N,Net-(D35-A)*%
X57561448Y-73160621D02*
X59478007Y-75077176D01*
X59478007Y-75077176D02*
X63823779Y-75077177D01*
%TO.N,Net-(D36-A)*%
X122899684Y-74028859D02*
X123381179Y-74510345D01*
X123381179Y-74510345D02*
X128617496Y-74510350D01*
X128617496Y-74510350D02*
X129439852Y-73687992D01*
%TO.N,Net-(D37-A)*%
X67409525Y-74897098D02*
X69326081Y-76813659D01*
X69326081Y-76813659D02*
X73671856Y-76813657D01*
%TO.N,Net-(D38-A)*%
X113533098Y-76246827D02*
X118769415Y-76246829D01*
X113051607Y-75765337D02*
X113533098Y-76246827D01*
X118769415Y-76246829D02*
X119591777Y-75424468D01*
%TO.N,Net-(D39-A)*%
X79174162Y-78550138D02*
X83519935Y-78550139D01*
X77257604Y-76633580D02*
X79174162Y-78550138D01*
%TO.N,Net-(D40-A)*%
X108921341Y-77983311D02*
X109743697Y-77160952D01*
X103203531Y-77501823D02*
X103685022Y-77983311D01*
X103685022Y-77983311D02*
X108921341Y-77983311D01*
%TO.N,ROW1*%
X88486269Y-50384636D02*
X88486268Y-50384639D01*
X87562787Y-61331652D02*
X87245296Y-61331650D01*
X124473518Y-45522485D02*
X124473516Y-45522488D01*
X85289744Y-55913802D02*
X85289744Y-49830608D01*
X78638192Y-48648156D02*
X85278082Y-49818945D01*
X114625438Y-47258971D02*
X114625437Y-47258970D01*
X97339949Y-48995451D02*
X104777359Y-48995452D01*
X49093960Y-43438710D02*
X58942037Y-45175192D01*
X78638192Y-48648156D02*
X88486269Y-50384636D01*
X88486269Y-50384636D02*
X88486268Y-50384639D01*
X68790118Y-46911672D02*
X68790112Y-46911674D01*
X114625438Y-47258971D02*
X124473518Y-45522485D01*
X58942038Y-45175190D02*
X68790118Y-46911670D01*
X87028080Y-57652137D02*
X85289744Y-55913802D01*
X104777360Y-48995451D02*
X114625436Y-47258967D01*
X49093960Y-43438710D02*
X58942037Y-45175192D01*
X97319848Y-48975350D02*
X97339949Y-48995451D01*
X134321597Y-43786003D02*
X144169667Y-42049521D01*
X58942037Y-45175192D02*
X58942038Y-45175190D01*
X58942037Y-45175192D02*
X58942038Y-45175190D01*
X114625436Y-47258967D02*
X114625438Y-47258971D01*
X85278082Y-49818945D02*
X88486269Y-50384636D01*
X85289744Y-49830608D02*
X85278082Y-49818945D01*
X68790118Y-46911670D02*
X68790118Y-46911672D01*
X94860049Y-48975349D02*
X97319848Y-48975350D01*
X124473516Y-45522488D02*
X134321595Y-43786005D01*
X68790112Y-46911674D02*
X78638192Y-48648156D01*
X58942038Y-45175190D02*
X68790118Y-46911670D01*
X114625436Y-47258967D02*
X114625438Y-47258971D01*
X144169667Y-42049521D02*
X144169670Y-42049523D01*
X89539903Y-63308769D02*
X87562787Y-61331652D01*
X68790118Y-46911670D02*
X68790118Y-46911672D01*
X88486268Y-50384639D02*
X89875457Y-48995453D01*
X134321595Y-43786005D02*
X134321597Y-43786003D01*
X104777360Y-48995451D02*
X114625436Y-47258967D01*
X68790118Y-46911672D02*
X68790112Y-46911674D01*
%TO.N,ROW2*%
X86520297Y-61631955D02*
X86520296Y-60462209D01*
X136058074Y-53634085D02*
X136058075Y-53634084D01*
X90673073Y-64452136D02*
X91033135Y-64812200D01*
X126209999Y-55370565D02*
X136058074Y-53634085D01*
X57205556Y-55023273D02*
X57205555Y-55023270D01*
X86944991Y-62056651D02*
X86520297Y-61631955D01*
X126209997Y-55370564D02*
X126209999Y-55370565D01*
X67053632Y-56759753D02*
X76901711Y-58496231D01*
X89186351Y-63662322D02*
X89976166Y-64452137D01*
X57205555Y-55023270D02*
X67053632Y-56759753D01*
X89186351Y-63662322D02*
X87580680Y-62056651D01*
X106513842Y-58843528D02*
X116361921Y-57107046D01*
X116361917Y-57107048D02*
X116361917Y-57107046D01*
X116361917Y-57107048D02*
X126209997Y-55370564D01*
X106513842Y-58843528D02*
X116361921Y-57107046D01*
X86749787Y-60232714D02*
X86749790Y-60232712D01*
X76901712Y-58496232D02*
X86749787Y-60232714D01*
X67053632Y-56759753D02*
X76901711Y-58496231D01*
X116361921Y-57107046D02*
X116361917Y-57107048D01*
X57205554Y-55023268D02*
X57205556Y-55023273D01*
X104503082Y-61477136D02*
X106513841Y-59466377D01*
X47357480Y-53286786D02*
X57205554Y-55023268D01*
X87580680Y-62056651D02*
X86944991Y-62056651D01*
X86520296Y-60462209D02*
X86749791Y-60232714D01*
X89976166Y-64452137D02*
X90673073Y-64452136D01*
X136058075Y-53634084D02*
X145906152Y-51897599D01*
X106513841Y-59466377D02*
X106513841Y-58843528D01*
X116361921Y-57107046D02*
X116361917Y-57107048D01*
X145906152Y-51897599D02*
X145906150Y-51897599D01*
X76901711Y-58496231D02*
X76901712Y-58496232D01*
%TO.N,ROW3*%
X55469075Y-64871348D02*
X65317152Y-66607828D01*
X75165231Y-68344309D02*
X85013306Y-70080788D01*
X75165228Y-68344311D02*
X75165231Y-68344309D01*
X81002887Y-62506651D02*
X75165228Y-68344311D01*
X127946478Y-65218638D02*
X127946478Y-65218641D01*
X55469075Y-64871348D02*
X65317152Y-66607828D01*
X65317153Y-66607827D02*
X75165228Y-68344311D01*
X88832798Y-64015874D02*
X89994060Y-65177138D01*
X137794557Y-63482156D02*
X137794557Y-63482158D01*
X87323575Y-62506652D02*
X81002887Y-62506651D01*
X85013306Y-70080788D02*
X85013307Y-70080793D01*
X45620997Y-63134867D02*
X55469075Y-64871345D01*
X45620997Y-63134867D02*
X55469075Y-64871345D01*
X89994060Y-65177138D02*
X90103081Y-65177137D01*
X108250324Y-68691608D02*
X118098403Y-66955124D01*
X75165231Y-68344309D02*
X75165227Y-68344308D01*
X102428081Y-69702137D02*
X103438613Y-68691604D01*
X75165228Y-68344311D02*
X75165231Y-68344309D01*
X147642632Y-61745681D02*
X147642637Y-61745678D01*
X65317152Y-66607828D02*
X65317153Y-66607827D01*
X118098403Y-66955124D02*
X118098403Y-66955124D01*
X65317153Y-66607827D02*
X75165228Y-68344311D01*
X55469075Y-64871345D02*
X55469075Y-64871348D01*
X55469075Y-64871345D02*
X55469075Y-64871348D01*
X137794557Y-63482158D02*
X147642632Y-61745681D01*
X118098403Y-66955124D02*
X118098401Y-66955122D01*
X65317152Y-66607828D02*
X65317153Y-66607827D01*
X88832798Y-64015874D02*
X87323575Y-62506652D01*
X118098403Y-66955124D02*
X127946478Y-65218638D01*
X127946478Y-65218641D02*
X137794557Y-63482156D01*
X118098403Y-66955124D02*
X118098403Y-66955124D01*
X103438613Y-68691604D02*
X108250324Y-68691605D01*
X108250324Y-68691608D02*
X118098403Y-66955124D01*
%TO.N,ROW4*%
X119834881Y-76803201D02*
X119834885Y-76803200D01*
X129682960Y-75066724D02*
X129682959Y-75066721D01*
X84859616Y-79928870D02*
X85128047Y-79660439D01*
X88479243Y-64369427D02*
X87786952Y-63677137D01*
X43884517Y-72982941D02*
X43884512Y-72982941D01*
X43884517Y-72982941D02*
X43884512Y-72982941D01*
X63580670Y-76455907D02*
X63580672Y-76455909D01*
X110128037Y-79660437D02*
X110128037Y-78680914D01*
X83276823Y-79928872D02*
X84859616Y-79928870D01*
X63580672Y-76455909D02*
X73428745Y-78192388D01*
X83276825Y-79928866D02*
X83276826Y-79928867D01*
X119834881Y-76803201D02*
X119834885Y-76803200D01*
X73428747Y-78192386D02*
X83276825Y-79928866D01*
X119834885Y-76803200D02*
X119834881Y-76803201D01*
X110128037Y-78680914D02*
X109986806Y-78539684D01*
X53732595Y-74719424D02*
X63580670Y-76455907D01*
X139531038Y-73330237D02*
X139531037Y-73330239D01*
X129682959Y-75066721D02*
X139531038Y-73330237D01*
X63580670Y-76455907D02*
X63580672Y-76455909D01*
X73428745Y-78192388D02*
X73428747Y-78192386D01*
X43884512Y-72982941D02*
X53732595Y-74719424D01*
X63580672Y-76455909D02*
X73428745Y-78192388D01*
X149379113Y-71593752D02*
X149379115Y-71593756D01*
X139531037Y-73330239D02*
X149379113Y-71593752D01*
X53732595Y-74719424D02*
X63580670Y-76455907D01*
X43884512Y-72982941D02*
X53732595Y-74719424D01*
X109986806Y-78539686D02*
X119834881Y-76803201D01*
X87786952Y-63677137D02*
X85428081Y-63677136D01*
X109986806Y-78539686D02*
X119834881Y-76803201D01*
X119834885Y-76803200D02*
X129682960Y-75066724D01*
%TO.N,VBUS*%
X90210012Y-45525314D02*
X90260049Y-45575351D01*
X94960049Y-45575352D02*
X94910011Y-45525314D01*
X94960049Y-42534114D02*
X94960049Y-45575352D01*
X95110012Y-42384151D02*
X94960049Y-42534114D01*
X90210012Y-42384151D02*
X90210012Y-45525314D01*
X90260049Y-45575351D02*
X90110010Y-45425315D01*
X83581318Y-50296618D02*
X83560051Y-50275352D01*
X83581317Y-52432242D02*
X83581318Y-50296618D01*
%TO.N,Net-(J1-CC1)*%
X91410012Y-42384151D02*
X91410012Y-44525389D01*
X89003347Y-44166649D02*
X89003347Y-44419354D01*
X91410012Y-44525389D02*
X91360049Y-44575352D01*
X89003347Y-44419354D02*
X89385951Y-44801958D01*
X91360049Y-44575352D02*
X91410012Y-44525388D01*
X89003345Y-44418649D02*
X89060048Y-44475351D01*
D35*
%TO.N,D_USB_+*%
X93410012Y-41743366D02*
X93410012Y-42384151D01*
X92410012Y-41759887D02*
X92635748Y-41534151D01*
X92635748Y-41534151D02*
X93200797Y-41534151D01*
X92410012Y-42384151D02*
X92410012Y-41759887D01*
X93610012Y-46241998D02*
X93610012Y-46604498D01*
X93410012Y-46404498D02*
X93610012Y-46604498D01*
X93385012Y-43234152D02*
X93385012Y-44433133D01*
X93410012Y-43209152D02*
X93385012Y-43234152D01*
X92885012Y-44933133D02*
X92885012Y-45516998D01*
X93200797Y-41534151D02*
X93410012Y-41743366D01*
X93410012Y-42384151D02*
X93410012Y-43209152D01*
X93385012Y-44433133D02*
X92885012Y-44933133D01*
X92885012Y-45516998D02*
X93610012Y-46241998D01*
%TO.N,D_USB_-*%
X92935012Y-43234152D02*
X92935012Y-44246733D01*
X92910012Y-43209152D02*
X92935012Y-43234152D01*
X92435012Y-45516998D02*
X91710012Y-46241998D01*
X92935012Y-44246733D02*
X92435012Y-44746733D01*
X92435012Y-44746733D02*
X92435012Y-45516998D01*
X91710012Y-46241998D02*
X91710012Y-46604498D01*
X92234913Y-43333316D02*
X92785848Y-43333316D01*
X91910012Y-43008415D02*
X92234913Y-43333316D01*
X91910012Y-42384151D02*
X91910012Y-43008415D01*
X92785848Y-43333316D02*
X92910012Y-43209152D01*
X92910012Y-43209152D02*
X92910012Y-42384151D01*
D34*
%TO.N,Net-(J1-CC2)*%
X94410012Y-44350852D02*
X94185512Y-44575349D01*
X95833295Y-44973366D02*
X96640012Y-44166649D01*
X94410012Y-42384151D02*
X94410012Y-44350849D01*
X94410012Y-44350849D02*
X94185512Y-44575349D01*
X95833295Y-44999982D02*
X95833295Y-44973366D01*
%TO.N,BOOT0*%
X95331425Y-64464571D02*
X96133674Y-63662322D01*
X99520780Y-74493654D02*
X98820620Y-73793495D01*
X98400008Y-74918657D02*
X97843344Y-75475318D01*
X100585011Y-74493656D02*
X99520780Y-74493654D01*
X95135607Y-64464568D02*
X95331425Y-64464571D01*
X100160010Y-74918655D02*
X100585011Y-74493656D01*
X98820620Y-73793495D02*
X96211519Y-73793497D01*
X100160010Y-74918655D02*
X98400008Y-74918657D01*
X97843344Y-81675319D02*
X97843344Y-75475318D01*
%TO.N,COL1*%
X78003081Y-54177138D02*
X74202422Y-50376478D01*
X74202422Y-50376478D02*
X46745555Y-50376478D01*
X80511906Y-70735963D02*
X80028082Y-70252137D01*
X46745555Y-50376478D02*
X46262294Y-50859739D01*
X86953081Y-69427444D02*
X85644561Y-70735961D01*
X85644561Y-70735961D02*
X80511906Y-70735963D01*
X86953081Y-69307383D02*
X86953081Y-69427444D01*
X88479244Y-67781218D02*
X86953081Y-69307383D01*
%TO.N,COL2*%
X144989282Y-59045463D02*
X145783396Y-59839578D01*
X97194334Y-67427665D02*
X97824401Y-68057733D01*
X101511680Y-70044378D02*
X103953081Y-72485781D01*
X108159757Y-59045463D02*
X144989282Y-59045463D01*
X104053081Y-63152139D02*
X108159757Y-59045463D01*
X97824401Y-68057733D02*
X97927830Y-68057733D01*
X97927830Y-68057733D02*
X99914478Y-70044379D01*
X99914478Y-70044379D02*
X101511680Y-70044378D01*
%TO.N,COL3*%
X88832797Y-68134772D02*
X88264859Y-68702711D01*
X77028081Y-54727136D02*
X74413902Y-52112958D01*
X74413902Y-52112958D02*
X56593632Y-52112959D01*
X56593632Y-52112959D02*
X56110369Y-52596217D01*
X88264858Y-68752061D02*
X85830955Y-71185964D01*
X79461907Y-71185962D02*
X78578081Y-70302137D01*
X88264859Y-68702711D02*
X88264858Y-68752061D01*
X85830955Y-71185964D02*
X79461907Y-71185962D01*
%TO.N,COL4*%
X107723237Y-61481983D02*
X135841241Y-61481983D01*
X99728081Y-70494379D02*
X100116988Y-70494379D01*
X103107391Y-73484781D02*
X103381891Y-73210282D01*
X100116988Y-70494379D02*
X103107391Y-73484781D01*
X97741433Y-68507733D02*
X98005036Y-68771336D01*
X105028083Y-64177138D02*
X107723237Y-61481983D01*
X98005036Y-68771336D02*
X99728081Y-70494379D01*
X135841241Y-61481983D02*
X135935320Y-61576058D01*
X96840781Y-67781218D02*
X97567296Y-68507731D01*
X97567296Y-68507731D02*
X97741433Y-68507733D01*
X103381891Y-73210282D02*
X105703081Y-73210280D01*
%TO.N,COL5*%
X89186351Y-68488327D02*
X83984137Y-73690538D01*
X83984137Y-73690538D02*
X69295376Y-73690538D01*
X69295376Y-73690538D02*
X63556973Y-67952136D01*
%TO.N,COL6*%
X96487227Y-68134771D02*
X97310187Y-68957732D01*
X102920995Y-73934781D02*
X121552029Y-73934782D01*
X121552029Y-73934782D02*
X123059673Y-72427139D01*
X127090244Y-72427138D02*
X127823723Y-73160616D01*
X99553082Y-70955777D02*
X99941989Y-70955776D01*
X123059673Y-72427139D02*
X127090244Y-72427138D01*
X97310187Y-68957732D02*
X97555038Y-68957732D01*
X97555038Y-68957732D02*
X99553082Y-70955777D01*
X99941989Y-70955776D02*
X102920995Y-73934781D01*
%TO.N,COL7*%
X89539902Y-68841878D02*
X83966743Y-74415039D01*
X83966743Y-74415039D02*
X72626831Y-74415038D01*
%TO.N,COL8*%
X99771971Y-71422154D02*
X103152839Y-74803021D01*
X99383064Y-71422155D02*
X99771971Y-71422154D01*
X103152839Y-74803021D02*
X117881570Y-74803023D01*
X97368642Y-69407732D02*
X99383064Y-71422155D01*
X96133674Y-68488324D02*
X97053081Y-69407733D01*
X97053081Y-69407733D02*
X97368642Y-69407732D01*
X117881570Y-74803023D02*
X117975647Y-74897097D01*
%TO.N,COL9*%
X87153081Y-71935808D02*
X87153081Y-72850821D01*
X86327180Y-74627137D02*
X83452497Y-77501822D01*
X83452497Y-77501822D02*
X82181640Y-77501821D01*
X89893457Y-69195431D02*
X87153081Y-71935808D01*
%TO.N,COL10*%
X107914195Y-76420209D02*
X108127569Y-76633580D01*
X101035010Y-76420208D02*
X107914195Y-76420209D01*
X99202365Y-71877852D02*
X99591275Y-71877853D01*
X95780121Y-68841877D02*
X96802681Y-69864440D01*
X101035011Y-73321587D02*
X101035010Y-76420208D01*
X96802681Y-69864440D02*
X96802681Y-69876739D01*
X99591275Y-71877853D02*
X101035011Y-73321587D01*
X96827681Y-69901737D02*
X97226251Y-69901736D01*
X97226251Y-69901736D02*
X99202365Y-71877852D01*
X96802681Y-69876739D02*
X96827681Y-69901737D01*
D35*
%TO.N,D_P*%
X93710014Y-51200350D02*
X93610011Y-51100350D01*
X89932531Y-61615433D02*
X88785050Y-60467952D01*
X90600564Y-62248108D02*
X89967886Y-61615432D01*
X93610011Y-51100350D02*
X93610012Y-48879499D01*
X88785050Y-53575349D02*
X89085048Y-53275350D01*
X88785050Y-60467952D02*
X88785050Y-53575349D01*
X89967886Y-61615432D02*
X89932531Y-61615433D01*
%TO.N,D_N*%
X88335047Y-60654343D02*
X88335048Y-53575350D01*
X91660046Y-48929460D02*
X91710013Y-48879499D01*
X89614335Y-61933630D02*
X88335047Y-60654343D01*
X88335048Y-53575350D02*
X88035047Y-53275353D01*
X90247010Y-62601662D02*
X89614334Y-61968989D01*
X91660049Y-50200850D02*
X91660046Y-48929460D01*
X89614334Y-61968989D02*
X89614335Y-61933630D01*
%TD*%
M02*
