%TF.GenerationSoftware,KiCad,Pcbnew,7.0.8*%
%TF.CreationDate,2023-12-09T20:05:49-06:00*%
%TF.ProjectId,lemmingz40,6c656d6d-696e-4677-9a34-302e6b696361,rev?*%
%TF.SameCoordinates,Original*%
%TF.FileFunction,Legend,Bot*%
%TF.FilePolarity,Positive*%
%FSLAX46Y46*%
G04 Gerber Fmt 4.6, Leading zero omitted, Abs format (unit mm)*
G04 Created by KiCad (PCBNEW 7.0.8) date 2023-12-09 20:05:49*
%MOMM*%
%LPD*%
G01*
G04 APERTURE LIST*
%ADD10C,0.000000*%
%ADD11C,0.100000*%
%ADD12C,0.180000*%
%ADD13C,0.250000*%
%ADD14C,0.150000*%
%ADD15C,0.120000*%
G04 APERTURE END LIST*
D10*
G36*
X106615679Y-39124768D02*
G01*
X104454917Y-40372284D01*
X102294153Y-39124767D01*
X102294153Y-37915984D01*
X102657134Y-37915984D01*
X102658776Y-37993447D01*
X102663656Y-38070076D01*
X102671708Y-38145805D01*
X102682866Y-38220568D01*
X102697064Y-38294298D01*
X102714235Y-38366929D01*
X102734313Y-38438395D01*
X102757231Y-38508629D01*
X102782923Y-38577564D01*
X102811323Y-38645135D01*
X102842365Y-38711276D01*
X102875981Y-38775919D01*
X102912106Y-38838998D01*
X102950673Y-38900447D01*
X102991616Y-38960200D01*
X103034868Y-39018190D01*
X103041124Y-38974951D01*
X103048660Y-38932136D01*
X103057455Y-38889768D01*
X103067489Y-38847865D01*
X103078743Y-38806449D01*
X103091196Y-38765539D01*
X103104515Y-38726081D01*
X103711990Y-38726081D01*
X103712124Y-38729247D01*
X103712406Y-38732405D01*
X103712835Y-38735549D01*
X103713412Y-38738674D01*
X103714135Y-38741775D01*
X103715006Y-38744846D01*
X103716023Y-38747880D01*
X103717188Y-38750874D01*
X103718500Y-38753820D01*
X103719960Y-38756713D01*
X103721566Y-38759549D01*
X103723320Y-38762320D01*
X103725220Y-38765023D01*
X103727268Y-38767650D01*
X103729463Y-38770197D01*
X103731805Y-38772657D01*
X103734266Y-38775000D01*
X103736813Y-38777195D01*
X103739440Y-38779242D01*
X103742142Y-38781143D01*
X103744914Y-38782897D01*
X103747749Y-38784503D01*
X103750643Y-38785962D01*
X103753589Y-38787274D01*
X103756582Y-38788439D01*
X103759617Y-38789457D01*
X103762687Y-38790327D01*
X103765788Y-38791051D01*
X103768913Y-38791627D01*
X103772058Y-38792056D01*
X103775216Y-38792338D01*
X103778382Y-38792473D01*
X103781550Y-38792460D01*
X103784715Y-38792301D01*
X103787871Y-38791994D01*
X103791013Y-38791540D01*
X103794134Y-38790939D01*
X103797231Y-38790191D01*
X103800295Y-38789296D01*
X103803324Y-38788253D01*
X103806309Y-38787064D01*
X103809247Y-38785727D01*
X103812131Y-38784243D01*
X103814956Y-38782612D01*
X103817717Y-38780833D01*
X103820407Y-38778908D01*
X103823021Y-38776835D01*
X103825554Y-38774616D01*
X103825559Y-38774621D01*
X103825564Y-38774626D01*
X103825574Y-38774636D01*
X103825584Y-38774647D01*
X103825595Y-38774657D01*
X103827594Y-38772657D01*
X103977608Y-38622644D01*
X104129622Y-38774657D01*
X104129642Y-38774636D01*
X104129652Y-38774626D01*
X104129663Y-38774616D01*
X104132196Y-38776835D01*
X104134810Y-38778908D01*
X104137500Y-38780833D01*
X104140260Y-38782612D01*
X104143085Y-38784243D01*
X104145969Y-38785727D01*
X104148907Y-38787064D01*
X104151893Y-38788253D01*
X104154921Y-38789296D01*
X104157986Y-38790191D01*
X104161082Y-38790939D01*
X104164203Y-38791540D01*
X104167345Y-38791994D01*
X104170501Y-38792301D01*
X104173666Y-38792460D01*
X104176834Y-38792473D01*
X104180000Y-38792338D01*
X104183158Y-38792056D01*
X104186303Y-38791627D01*
X104189428Y-38791051D01*
X104192529Y-38790327D01*
X104195599Y-38789457D01*
X104198634Y-38788439D01*
X104201627Y-38787274D01*
X104204573Y-38785962D01*
X104207467Y-38784503D01*
X104210302Y-38782897D01*
X104213074Y-38781143D01*
X104215776Y-38779242D01*
X104218404Y-38777195D01*
X104220950Y-38775000D01*
X104223411Y-38772657D01*
X104225753Y-38770197D01*
X104227948Y-38767650D01*
X104229996Y-38765023D01*
X104231897Y-38762320D01*
X104233650Y-38759549D01*
X104235257Y-38756713D01*
X104236716Y-38753820D01*
X104238028Y-38750874D01*
X104239193Y-38747880D01*
X104240211Y-38744846D01*
X104241081Y-38741775D01*
X104241805Y-38738674D01*
X104242381Y-38735549D01*
X104242810Y-38732405D01*
X104243092Y-38729247D01*
X104243227Y-38726081D01*
X104243215Y-38722912D01*
X104243055Y-38719748D01*
X104242748Y-38716591D01*
X104242295Y-38713450D01*
X104241694Y-38710328D01*
X104240945Y-38707232D01*
X104240050Y-38704167D01*
X104239008Y-38701139D01*
X104237818Y-38698153D01*
X104236481Y-38695216D01*
X104234997Y-38692332D01*
X104233366Y-38689506D01*
X104231588Y-38686746D01*
X104229663Y-38684056D01*
X104227590Y-38681442D01*
X104225370Y-38678909D01*
X104225411Y-38678868D01*
X104073398Y-38526854D01*
X104584607Y-38526854D01*
X104584691Y-38530250D01*
X104584940Y-38533603D01*
X104585350Y-38536909D01*
X104585916Y-38540164D01*
X104586636Y-38543363D01*
X104587505Y-38546504D01*
X104588520Y-38549582D01*
X104589675Y-38552593D01*
X104590968Y-38555533D01*
X104592394Y-38558399D01*
X104593950Y-38561186D01*
X104595631Y-38563890D01*
X104597433Y-38566507D01*
X104599353Y-38569034D01*
X104601387Y-38571467D01*
X104603530Y-38573801D01*
X104605779Y-38576032D01*
X104608130Y-38578157D01*
X104610579Y-38580172D01*
X104613121Y-38582073D01*
X104615753Y-38583855D01*
X104618472Y-38585515D01*
X104621272Y-38587049D01*
X104624150Y-38588453D01*
X104627103Y-38589723D01*
X104630125Y-38590855D01*
X104633214Y-38591846D01*
X104636365Y-38592690D01*
X104639574Y-38593384D01*
X104642838Y-38593925D01*
X104646152Y-38594308D01*
X104649512Y-38594529D01*
X104649512Y-38594587D01*
X104864492Y-38594587D01*
X104864492Y-38726081D01*
X104864492Y-38809567D01*
X104864550Y-38809567D01*
X104864771Y-38812927D01*
X104865154Y-38816241D01*
X104865695Y-38819505D01*
X104866389Y-38822714D01*
X104867234Y-38825865D01*
X104868224Y-38828954D01*
X104869356Y-38831976D01*
X104870626Y-38834929D01*
X104872030Y-38837807D01*
X104873564Y-38840607D01*
X104875224Y-38843326D01*
X104877007Y-38845958D01*
X104878907Y-38848500D01*
X104880922Y-38850949D01*
X104883047Y-38853300D01*
X104885279Y-38855549D01*
X104887613Y-38857692D01*
X104890045Y-38859726D01*
X104892572Y-38861646D01*
X104895189Y-38863448D01*
X104897893Y-38865129D01*
X104900680Y-38866685D01*
X104903546Y-38868111D01*
X104906486Y-38869404D01*
X104909497Y-38870559D01*
X104912575Y-38871573D01*
X104915715Y-38872442D01*
X104918915Y-38873162D01*
X104922170Y-38873729D01*
X104925476Y-38874139D01*
X104928828Y-38874388D01*
X104932225Y-38874471D01*
X104935621Y-38874388D01*
X104938974Y-38874139D01*
X104942279Y-38873729D01*
X104945534Y-38873162D01*
X104948734Y-38872442D01*
X104951875Y-38871573D01*
X104954953Y-38870559D01*
X104957964Y-38869404D01*
X104960904Y-38868111D01*
X104963770Y-38866685D01*
X104966556Y-38865129D01*
X104969261Y-38863448D01*
X104971878Y-38861646D01*
X104974405Y-38859726D01*
X104976837Y-38857692D01*
X104979171Y-38855549D01*
X104981403Y-38853300D01*
X104983528Y-38850949D01*
X104985543Y-38848500D01*
X104987444Y-38845958D01*
X104989226Y-38843326D01*
X104990886Y-38840607D01*
X104992420Y-38837807D01*
X104993824Y-38834929D01*
X104995094Y-38831976D01*
X104996226Y-38828954D01*
X104997217Y-38825865D01*
X104998061Y-38822714D01*
X104998755Y-38819505D01*
X104999296Y-38816241D01*
X104999679Y-38812927D01*
X104999900Y-38809567D01*
X104999958Y-38809567D01*
X104999958Y-38594587D01*
X105214938Y-38594587D01*
X105214938Y-38594529D01*
X105218298Y-38594308D01*
X105221612Y-38593925D01*
X105224876Y-38593384D01*
X105228085Y-38592690D01*
X105231236Y-38591846D01*
X105234325Y-38590855D01*
X105237347Y-38589723D01*
X105240300Y-38588453D01*
X105243178Y-38587049D01*
X105245978Y-38585515D01*
X105248696Y-38583855D01*
X105251329Y-38582073D01*
X105253871Y-38580172D01*
X105256320Y-38578157D01*
X105258670Y-38576032D01*
X105260919Y-38573801D01*
X105263063Y-38571467D01*
X105265096Y-38569034D01*
X105267016Y-38566507D01*
X105268819Y-38563890D01*
X105270500Y-38561186D01*
X105272055Y-38558399D01*
X105273482Y-38555533D01*
X105274774Y-38552593D01*
X105275930Y-38549582D01*
X105276944Y-38546504D01*
X105277813Y-38543363D01*
X105278533Y-38540164D01*
X105279100Y-38536909D01*
X105279510Y-38533603D01*
X105279759Y-38530250D01*
X105279842Y-38526854D01*
X105279759Y-38523458D01*
X105279510Y-38520105D01*
X105279100Y-38516799D01*
X105278533Y-38513544D01*
X105277813Y-38510344D01*
X105276944Y-38507204D01*
X105275930Y-38504126D01*
X105274775Y-38501115D01*
X105273482Y-38498175D01*
X105272056Y-38495309D01*
X105270500Y-38492522D01*
X105268819Y-38489818D01*
X105267017Y-38487201D01*
X105265097Y-38484674D01*
X105263063Y-38482242D01*
X105260920Y-38479908D01*
X105258671Y-38477676D01*
X105256320Y-38475551D01*
X105253871Y-38473536D01*
X105251329Y-38471636D01*
X105248697Y-38469853D01*
X105245978Y-38468193D01*
X105243178Y-38466659D01*
X105240300Y-38465255D01*
X105237347Y-38463985D01*
X105234325Y-38462853D01*
X105231236Y-38461863D01*
X105228085Y-38461018D01*
X105224876Y-38460324D01*
X105221612Y-38459783D01*
X105218298Y-38459400D01*
X105214938Y-38459179D01*
X105214938Y-38459121D01*
X104999958Y-38459121D01*
X104999958Y-38244141D01*
X104999900Y-38244141D01*
X104999679Y-38240781D01*
X104999296Y-38237467D01*
X104998755Y-38234203D01*
X104998061Y-38230994D01*
X104997217Y-38227843D01*
X104996226Y-38224754D01*
X104995094Y-38221731D01*
X104993824Y-38218779D01*
X104992420Y-38215901D01*
X104990886Y-38213101D01*
X104989226Y-38210382D01*
X104987444Y-38207750D01*
X104985543Y-38205208D01*
X104983528Y-38202759D01*
X104981403Y-38200408D01*
X104979171Y-38198159D01*
X104976837Y-38196016D01*
X104974405Y-38193982D01*
X104971878Y-38192062D01*
X104969261Y-38190260D01*
X104966556Y-38188578D01*
X104963770Y-38187023D01*
X104960904Y-38185597D01*
X104957964Y-38184304D01*
X104954953Y-38183148D01*
X104951875Y-38182134D01*
X104948734Y-38181265D01*
X104945534Y-38180545D01*
X104942279Y-38179978D01*
X104938974Y-38179569D01*
X104935621Y-38179320D01*
X104932225Y-38179236D01*
X104928828Y-38179320D01*
X104925476Y-38179569D01*
X104922170Y-38179978D01*
X104918915Y-38180545D01*
X104915715Y-38181265D01*
X104912575Y-38182134D01*
X104909497Y-38183148D01*
X104906486Y-38184304D01*
X104903545Y-38185597D01*
X104900680Y-38187023D01*
X104897893Y-38188578D01*
X104895189Y-38190260D01*
X104892572Y-38192062D01*
X104890045Y-38193982D01*
X104887612Y-38196016D01*
X104885278Y-38198159D01*
X104883047Y-38200408D01*
X104880922Y-38202759D01*
X104878907Y-38205208D01*
X104877006Y-38207750D01*
X104875224Y-38210382D01*
X104873564Y-38213101D01*
X104872029Y-38215901D01*
X104870625Y-38218779D01*
X104869355Y-38221731D01*
X104868223Y-38224754D01*
X104867233Y-38227843D01*
X104866389Y-38230994D01*
X104865694Y-38234203D01*
X104865154Y-38237467D01*
X104864771Y-38240781D01*
X104864549Y-38244141D01*
X104864492Y-38244141D01*
X104864492Y-38459122D01*
X104652257Y-38459122D01*
X104649512Y-38459121D01*
X104649512Y-38459178D01*
X104646152Y-38459400D01*
X104642838Y-38459783D01*
X104639574Y-38460323D01*
X104636365Y-38461018D01*
X104633214Y-38461862D01*
X104630125Y-38462852D01*
X104627103Y-38463984D01*
X104624150Y-38465254D01*
X104621272Y-38466658D01*
X104618472Y-38468192D01*
X104615753Y-38469853D01*
X104613121Y-38471635D01*
X104610579Y-38473536D01*
X104608130Y-38475550D01*
X104605779Y-38477676D01*
X104603530Y-38479907D01*
X104601387Y-38482241D01*
X104599353Y-38484673D01*
X104597433Y-38487200D01*
X104595631Y-38489818D01*
X104593950Y-38492522D01*
X104592394Y-38495309D01*
X104590968Y-38498174D01*
X104589675Y-38501114D01*
X104588520Y-38504126D01*
X104587505Y-38507203D01*
X104586636Y-38510344D01*
X104585916Y-38513544D01*
X104585350Y-38516799D01*
X104584940Y-38520105D01*
X104584691Y-38523458D01*
X104584607Y-38526854D01*
X104073398Y-38526854D01*
X104223411Y-38376840D01*
X104225411Y-38374841D01*
X104225370Y-38374800D01*
X104227590Y-38372267D01*
X104229663Y-38369653D01*
X104231588Y-38366963D01*
X104233366Y-38364202D01*
X104234997Y-38361377D01*
X104236481Y-38358493D01*
X104237818Y-38355555D01*
X104239008Y-38352569D01*
X104240050Y-38349541D01*
X104240945Y-38346477D01*
X104241694Y-38343380D01*
X104242295Y-38340259D01*
X104242748Y-38337117D01*
X104243055Y-38333961D01*
X104243215Y-38330796D01*
X104243227Y-38327628D01*
X104243092Y-38324462D01*
X104242810Y-38321304D01*
X104242381Y-38318159D01*
X104241805Y-38315034D01*
X104241081Y-38311933D01*
X104240211Y-38308863D01*
X104239193Y-38305828D01*
X104238028Y-38302835D01*
X104236716Y-38299889D01*
X104235257Y-38296995D01*
X104233650Y-38294160D01*
X104231897Y-38291388D01*
X104229996Y-38288686D01*
X104227948Y-38286058D01*
X104225753Y-38283512D01*
X104223411Y-38281051D01*
X104220950Y-38278709D01*
X104218404Y-38276514D01*
X104215776Y-38274466D01*
X104213074Y-38272565D01*
X104210302Y-38270812D01*
X104207467Y-38269205D01*
X104204573Y-38267746D01*
X104201627Y-38266434D01*
X104198634Y-38265269D01*
X104195599Y-38264251D01*
X104192529Y-38263381D01*
X104189428Y-38262657D01*
X104186303Y-38262081D01*
X104183158Y-38261652D01*
X104180000Y-38261370D01*
X104176834Y-38261235D01*
X104173666Y-38261248D01*
X104170501Y-38261407D01*
X104167345Y-38261714D01*
X104164203Y-38262168D01*
X104161082Y-38262769D01*
X104157986Y-38263517D01*
X104154921Y-38264412D01*
X104151893Y-38265455D01*
X104148907Y-38266644D01*
X104145969Y-38267981D01*
X104143085Y-38269465D01*
X104140260Y-38271096D01*
X104137500Y-38272874D01*
X104134810Y-38274800D01*
X104132196Y-38276873D01*
X104129663Y-38279092D01*
X104129622Y-38279051D01*
X104127621Y-38281051D01*
X103977608Y-38431065D01*
X103827594Y-38281052D01*
X103827565Y-38281022D01*
X103827550Y-38281007D01*
X103827535Y-38280992D01*
X103825595Y-38279051D01*
X103825590Y-38279056D01*
X103825585Y-38279061D01*
X103825579Y-38279066D01*
X103825574Y-38279072D01*
X103825554Y-38279092D01*
X103823021Y-38276873D01*
X103820407Y-38274800D01*
X103817717Y-38272875D01*
X103814956Y-38271096D01*
X103812131Y-38269465D01*
X103809247Y-38267981D01*
X103806309Y-38266645D01*
X103803324Y-38265455D01*
X103800296Y-38264412D01*
X103797231Y-38263517D01*
X103794135Y-38262769D01*
X103791013Y-38262168D01*
X103787871Y-38261714D01*
X103784715Y-38261408D01*
X103781550Y-38261248D01*
X103778382Y-38261236D01*
X103775216Y-38261370D01*
X103772058Y-38261652D01*
X103768914Y-38262081D01*
X103765788Y-38262658D01*
X103762688Y-38263381D01*
X103759617Y-38264252D01*
X103756582Y-38265269D01*
X103753589Y-38266434D01*
X103750643Y-38267746D01*
X103747749Y-38269206D01*
X103744914Y-38270812D01*
X103742142Y-38272566D01*
X103739440Y-38274466D01*
X103736813Y-38276514D01*
X103734266Y-38278709D01*
X103731805Y-38281052D01*
X103729463Y-38283512D01*
X103727268Y-38286059D01*
X103725220Y-38288686D01*
X103723320Y-38291389D01*
X103721566Y-38294160D01*
X103719960Y-38296996D01*
X103718500Y-38299889D01*
X103717188Y-38302835D01*
X103716023Y-38305829D01*
X103715006Y-38308863D01*
X103714135Y-38311934D01*
X103713412Y-38315034D01*
X103712835Y-38318160D01*
X103712406Y-38321304D01*
X103712124Y-38324462D01*
X103711990Y-38327628D01*
X103712002Y-38330796D01*
X103712161Y-38333961D01*
X103712468Y-38337117D01*
X103712922Y-38340259D01*
X103713523Y-38343381D01*
X103714271Y-38346477D01*
X103715166Y-38349542D01*
X103716209Y-38352570D01*
X103717399Y-38355555D01*
X103718735Y-38358493D01*
X103720219Y-38361377D01*
X103721850Y-38364202D01*
X103723629Y-38366963D01*
X103725554Y-38369653D01*
X103727627Y-38372267D01*
X103729847Y-38374800D01*
X103729836Y-38374810D01*
X103729826Y-38374820D01*
X103729816Y-38374831D01*
X103729805Y-38374841D01*
X103731805Y-38376841D01*
X103881819Y-38526854D01*
X103731805Y-38676868D01*
X103729805Y-38678868D01*
X103729847Y-38678909D01*
X103727627Y-38681442D01*
X103725554Y-38684056D01*
X103723629Y-38686746D01*
X103721850Y-38689506D01*
X103720219Y-38692332D01*
X103718735Y-38695216D01*
X103717399Y-38698153D01*
X103716209Y-38701139D01*
X103715166Y-38704167D01*
X103714271Y-38707232D01*
X103713523Y-38710328D01*
X103712922Y-38713450D01*
X103712468Y-38716591D01*
X103712161Y-38719748D01*
X103712002Y-38722912D01*
X103711990Y-38726081D01*
X103104515Y-38726081D01*
X103104827Y-38725156D01*
X103119618Y-38685319D01*
X103135546Y-38646048D01*
X103152594Y-38607365D01*
X103170740Y-38569289D01*
X103189963Y-38531840D01*
X103210245Y-38495038D01*
X103231565Y-38458904D01*
X103253902Y-38423458D01*
X103277237Y-38388719D01*
X103248940Y-38365944D01*
X103221989Y-38341635D01*
X103196452Y-38315859D01*
X103172393Y-38288680D01*
X103149879Y-38260166D01*
X103128976Y-38230382D01*
X103109750Y-38199394D01*
X103092268Y-38167269D01*
X103076594Y-38134072D01*
X103062797Y-38099871D01*
X103050940Y-38064730D01*
X103041091Y-38028715D01*
X103033316Y-37991894D01*
X103027680Y-37954332D01*
X103024250Y-37916095D01*
X103023092Y-37877249D01*
X103023928Y-37844234D01*
X103026408Y-37811650D01*
X103030493Y-37779538D01*
X103036141Y-37747939D01*
X103043312Y-37716893D01*
X103051966Y-37686440D01*
X103062062Y-37656621D01*
X103073561Y-37627476D01*
X103086420Y-37599045D01*
X103100601Y-37571370D01*
X103116063Y-37544490D01*
X103132764Y-37518446D01*
X103150666Y-37493278D01*
X103169727Y-37469027D01*
X103189906Y-37445733D01*
X103211164Y-37423437D01*
X103233461Y-37402179D01*
X103256754Y-37381999D01*
X103281005Y-37362938D01*
X103306173Y-37345037D01*
X103332217Y-37328335D01*
X103359097Y-37312874D01*
X103386773Y-37298693D01*
X103415203Y-37285833D01*
X103444348Y-37274335D01*
X103474167Y-37264238D01*
X103504620Y-37255584D01*
X103535667Y-37248413D01*
X103567266Y-37242765D01*
X103599377Y-37238681D01*
X103631961Y-37236201D01*
X103664976Y-37235365D01*
X103694914Y-37236052D01*
X103724501Y-37238093D01*
X103753707Y-37241457D01*
X103782501Y-37246115D01*
X103810853Y-37252036D01*
X103838734Y-37259191D01*
X103866113Y-37267550D01*
X103892960Y-37277081D01*
X103919245Y-37287756D01*
X103944937Y-37299543D01*
X103970008Y-37312414D01*
X103994426Y-37326337D01*
X104018162Y-37341283D01*
X104041185Y-37357222D01*
X104063466Y-37374124D01*
X104084974Y-37391958D01*
X104105680Y-37410694D01*
X104125552Y-37430302D01*
X104144562Y-37450753D01*
X104162678Y-37472016D01*
X104179871Y-37494061D01*
X104196111Y-37516857D01*
X104211368Y-37540376D01*
X104225612Y-37564586D01*
X104238811Y-37589458D01*
X104250938Y-37614961D01*
X104261960Y-37641066D01*
X104271849Y-37667742D01*
X104280573Y-37694959D01*
X104288104Y-37722688D01*
X104294411Y-37750897D01*
X104299463Y-37779558D01*
X104318650Y-37777614D01*
X104337909Y-37775923D01*
X104357241Y-37774488D01*
X104376642Y-37773311D01*
X104396113Y-37772392D01*
X104415649Y-37771733D01*
X104435251Y-37771337D01*
X104454916Y-37771204D01*
X104454917Y-37771204D01*
X104476005Y-37771356D01*
X104497021Y-37771812D01*
X104517961Y-37772569D01*
X104538825Y-37773626D01*
X104559608Y-37774979D01*
X104580311Y-37776627D01*
X104600930Y-37778568D01*
X104621463Y-37780800D01*
X104626833Y-37752531D01*
X104633425Y-37724712D01*
X104641211Y-37697373D01*
X104650161Y-37670545D01*
X104660246Y-37644255D01*
X104671437Y-37618533D01*
X104683704Y-37593409D01*
X104697018Y-37568912D01*
X104711350Y-37545071D01*
X104726671Y-37521915D01*
X104742950Y-37499473D01*
X104760160Y-37477776D01*
X104778271Y-37456851D01*
X104797253Y-37436729D01*
X104817078Y-37417438D01*
X104837715Y-37399009D01*
X104859137Y-37381469D01*
X104881312Y-37364849D01*
X104904213Y-37349178D01*
X104927809Y-37334484D01*
X104952073Y-37320798D01*
X104976973Y-37308149D01*
X105002482Y-37296565D01*
X105028569Y-37286076D01*
X105055206Y-37276712D01*
X105082364Y-37268501D01*
X105110012Y-37261474D01*
X105138122Y-37255658D01*
X105166664Y-37251084D01*
X105195610Y-37247780D01*
X105224929Y-37245776D01*
X105254593Y-37245102D01*
X105287608Y-37245938D01*
X105320192Y-37248418D01*
X105352304Y-37252502D01*
X105383903Y-37258150D01*
X105414949Y-37265322D01*
X105445402Y-37273976D01*
X105475221Y-37284072D01*
X105504366Y-37295570D01*
X105532797Y-37308430D01*
X105560472Y-37322611D01*
X105587352Y-37338072D01*
X105613396Y-37354774D01*
X105638564Y-37372675D01*
X105662815Y-37391736D01*
X105686109Y-37411916D01*
X105708405Y-37433174D01*
X105729663Y-37455470D01*
X105749843Y-37478764D01*
X105768904Y-37503015D01*
X105786805Y-37528183D01*
X105803507Y-37554227D01*
X105818968Y-37581107D01*
X105833149Y-37608782D01*
X105846009Y-37637213D01*
X105857507Y-37666358D01*
X105867604Y-37696177D01*
X105876258Y-37726630D01*
X105883429Y-37757676D01*
X105889077Y-37789276D01*
X105893161Y-37821387D01*
X105895641Y-37853971D01*
X105896477Y-37886986D01*
X105895309Y-37925999D01*
X105891850Y-37964398D01*
X105886166Y-38002115D01*
X105878325Y-38039084D01*
X105868393Y-38075238D01*
X105856438Y-38110510D01*
X105842526Y-38144832D01*
X105826725Y-38178139D01*
X105809101Y-38210362D01*
X105789721Y-38241436D01*
X105768652Y-38271292D01*
X105745962Y-38299865D01*
X105721716Y-38327087D01*
X105695983Y-38352891D01*
X105668829Y-38377210D01*
X105640320Y-38399978D01*
X105662872Y-38434229D01*
X105684461Y-38469154D01*
X105705068Y-38504733D01*
X105717044Y-38526854D01*
X105724673Y-38540947D01*
X105743259Y-38577778D01*
X105760806Y-38615207D01*
X105777295Y-38653214D01*
X105792707Y-38691781D01*
X105807023Y-38730888D01*
X105820225Y-38770518D01*
X105832293Y-38810650D01*
X105843208Y-38851266D01*
X105852952Y-38892347D01*
X105861505Y-38933874D01*
X105868849Y-38975828D01*
X105874965Y-39018190D01*
X105918217Y-38960200D01*
X105959160Y-38900447D01*
X105997727Y-38838997D01*
X106033852Y-38775918D01*
X106067468Y-38711275D01*
X106098509Y-38645135D01*
X106126909Y-38577564D01*
X106152601Y-38508628D01*
X106175520Y-38438395D01*
X106195597Y-38366929D01*
X106212768Y-38294298D01*
X106226966Y-38220568D01*
X106238124Y-38145805D01*
X106246177Y-38070076D01*
X106251057Y-37993447D01*
X106252698Y-37915984D01*
X106250357Y-37823515D01*
X106243411Y-37732256D01*
X106231971Y-37642318D01*
X106216153Y-37553815D01*
X106196068Y-37466861D01*
X106171830Y-37381569D01*
X106143552Y-37298051D01*
X106111348Y-37216422D01*
X106075330Y-37136794D01*
X106035612Y-37059281D01*
X105992308Y-36983996D01*
X105945530Y-36911052D01*
X105895392Y-36840562D01*
X105842007Y-36772640D01*
X105785488Y-36707399D01*
X105725948Y-36644952D01*
X105663501Y-36585412D01*
X105598260Y-36528893D01*
X105530338Y-36475508D01*
X105459848Y-36425370D01*
X105386904Y-36378592D01*
X105311619Y-36335288D01*
X105234106Y-36295570D01*
X105154478Y-36259553D01*
X105072849Y-36227348D01*
X104989331Y-36199071D01*
X104904039Y-36174833D01*
X104817085Y-36154748D01*
X104728582Y-36138929D01*
X104638645Y-36127489D01*
X104547385Y-36120543D01*
X104454916Y-36118202D01*
X104362448Y-36120543D01*
X104271188Y-36127489D01*
X104181250Y-36138929D01*
X104092747Y-36154748D01*
X104005793Y-36174833D01*
X103920501Y-36199071D01*
X103836984Y-36227348D01*
X103755354Y-36259553D01*
X103675727Y-36295570D01*
X103598213Y-36335288D01*
X103522928Y-36378592D01*
X103449984Y-36425370D01*
X103379495Y-36475508D01*
X103311573Y-36528893D01*
X103246331Y-36585412D01*
X103183884Y-36644952D01*
X103124345Y-36707399D01*
X103067826Y-36772640D01*
X103014440Y-36840562D01*
X102964302Y-36911052D01*
X102917524Y-36983996D01*
X102874220Y-37059281D01*
X102834502Y-37136794D01*
X102798485Y-37216422D01*
X102766281Y-37298051D01*
X102738003Y-37381569D01*
X102713765Y-37466861D01*
X102693680Y-37553815D01*
X102677861Y-37642318D01*
X102666422Y-37732256D01*
X102659475Y-37823515D01*
X102657134Y-37915984D01*
X102294153Y-37915984D01*
X102294154Y-36629731D01*
X104454916Y-35382215D01*
X106615680Y-36629732D01*
X106615680Y-37915984D01*
X106615679Y-39124768D01*
G37*
D11*
X102196074Y-82372386D02*
X102196074Y-81372386D01*
X102196074Y-81753338D02*
X102100836Y-81705719D01*
X102100836Y-81705719D02*
X101910360Y-81705719D01*
X101910360Y-81705719D02*
X101815122Y-81753338D01*
X101815122Y-81753338D02*
X101767503Y-81800957D01*
X101767503Y-81800957D02*
X101719884Y-81896195D01*
X101719884Y-81896195D02*
X101719884Y-82181909D01*
X101719884Y-82181909D02*
X101767503Y-82277147D01*
X101767503Y-82277147D02*
X101815122Y-82324767D01*
X101815122Y-82324767D02*
X101910360Y-82372386D01*
X101910360Y-82372386D02*
X102100836Y-82372386D01*
X102100836Y-82372386D02*
X102196074Y-82324767D01*
X101148455Y-82372386D02*
X101243693Y-82324767D01*
X101243693Y-82324767D02*
X101291312Y-82277147D01*
X101291312Y-82277147D02*
X101338931Y-82181909D01*
X101338931Y-82181909D02*
X101338931Y-81896195D01*
X101338931Y-81896195D02*
X101291312Y-81800957D01*
X101291312Y-81800957D02*
X101243693Y-81753338D01*
X101243693Y-81753338D02*
X101148455Y-81705719D01*
X101148455Y-81705719D02*
X101005598Y-81705719D01*
X101005598Y-81705719D02*
X100910360Y-81753338D01*
X100910360Y-81753338D02*
X100862741Y-81800957D01*
X100862741Y-81800957D02*
X100815122Y-81896195D01*
X100815122Y-81896195D02*
X100815122Y-82181909D01*
X100815122Y-82181909D02*
X100862741Y-82277147D01*
X100862741Y-82277147D02*
X100910360Y-82324767D01*
X100910360Y-82324767D02*
X101005598Y-82372386D01*
X101005598Y-82372386D02*
X101148455Y-82372386D01*
X100243693Y-82372386D02*
X100338931Y-82324767D01*
X100338931Y-82324767D02*
X100386550Y-82277147D01*
X100386550Y-82277147D02*
X100434169Y-82181909D01*
X100434169Y-82181909D02*
X100434169Y-81896195D01*
X100434169Y-81896195D02*
X100386550Y-81800957D01*
X100386550Y-81800957D02*
X100338931Y-81753338D01*
X100338931Y-81753338D02*
X100243693Y-81705719D01*
X100243693Y-81705719D02*
X100100836Y-81705719D01*
X100100836Y-81705719D02*
X100005598Y-81753338D01*
X100005598Y-81753338D02*
X99957979Y-81800957D01*
X99957979Y-81800957D02*
X99910360Y-81896195D01*
X99910360Y-81896195D02*
X99910360Y-82181909D01*
X99910360Y-82181909D02*
X99957979Y-82277147D01*
X99957979Y-82277147D02*
X100005598Y-82324767D01*
X100005598Y-82324767D02*
X100100836Y-82372386D01*
X100100836Y-82372386D02*
X100243693Y-82372386D01*
X99624645Y-81705719D02*
X99243693Y-81705719D01*
X99481788Y-81372386D02*
X99481788Y-82229528D01*
X99481788Y-82229528D02*
X99434169Y-82324767D01*
X99434169Y-82324767D02*
X99338931Y-82372386D01*
X99338931Y-82372386D02*
X99243693Y-82372386D01*
D12*
X84033305Y-37331957D02*
X83299972Y-37331957D01*
X83633305Y-36931957D02*
X83633305Y-38398623D01*
X82566639Y-36798623D02*
X82566639Y-38398623D01*
X83633305Y-37398623D02*
X83499972Y-37598623D01*
X83499972Y-37598623D02*
X83366639Y-37731957D01*
X83099972Y-36998623D02*
X82833305Y-37065290D01*
X83166639Y-37465290D02*
X82899972Y-37598623D01*
X83633305Y-37331957D02*
X83966639Y-37931957D01*
X83433305Y-36865290D02*
X84033305Y-36931957D01*
X82366639Y-37865290D02*
X83233305Y-37998623D01*
X81966638Y-37865290D02*
X80233305Y-37865290D01*
X81499972Y-38398623D02*
X81099972Y-38398623D01*
X81899972Y-37131957D02*
X81899972Y-37465290D01*
X81099972Y-37731957D02*
X81099972Y-38398623D01*
X81899972Y-37131957D02*
X80299972Y-37131957D01*
X80299972Y-37131957D02*
X80299972Y-37465290D01*
X81766638Y-36865290D02*
X81566638Y-37065290D01*
X80433305Y-36865290D02*
X80699972Y-37131957D01*
X81166638Y-36798623D02*
X81099972Y-37065290D01*
X81633305Y-37465290D02*
X80566638Y-37465290D01*
X80566638Y-37465290D02*
X81099972Y-37665290D01*
X79433305Y-37198623D02*
X78899971Y-37198623D01*
X79099971Y-36931957D02*
X79099971Y-38265290D01*
X79099971Y-38265290D02*
X79433305Y-38198623D01*
X79433305Y-38198623D02*
X79433305Y-37931957D01*
X79433305Y-37931957D02*
X79233305Y-37865290D01*
X79233305Y-37865290D02*
X78899971Y-38131957D01*
X79699971Y-36931957D02*
X79766638Y-37331957D01*
X79766638Y-37331957D02*
X79766638Y-37731957D01*
X79766638Y-37731957D02*
X79699971Y-38265290D01*
X79699971Y-38265290D02*
X79633305Y-37798623D01*
X77699971Y-36931957D02*
X76766638Y-36931957D01*
X77766638Y-37398623D02*
X76699971Y-37398623D01*
X77433304Y-38398623D02*
X77033304Y-38398623D01*
X78033304Y-37398623D02*
X78033304Y-38398623D01*
X77033304Y-37398623D02*
X77033304Y-38398623D01*
X78033304Y-36798623D02*
X78366638Y-37198623D01*
X77899971Y-37198623D02*
X78433304Y-37731957D01*
X76099971Y-37198623D02*
X75566637Y-37065290D01*
X76166637Y-37531957D02*
X75366637Y-37331957D01*
X75899971Y-36865290D02*
X75633304Y-37865290D01*
X75633304Y-37865290D02*
X75833304Y-37865290D01*
X76099971Y-37931957D02*
X76099971Y-38131957D01*
X76099971Y-38131957D02*
X75966637Y-38265290D01*
X75966637Y-38265290D02*
X75699971Y-38331957D01*
X73833304Y-37131957D02*
X73433304Y-37131957D01*
X74033304Y-37998623D02*
X73566637Y-37998623D01*
X73499970Y-38198623D02*
X73233304Y-38198623D01*
X74299970Y-37465290D02*
X74299970Y-38198623D01*
X74033304Y-37665290D02*
X74033304Y-38065290D01*
X73833304Y-37131957D02*
X73833304Y-37465290D01*
X74033304Y-37665290D02*
X73566637Y-37665290D01*
X73566637Y-37665290D02*
X73566637Y-37998623D01*
X74166637Y-36865290D02*
X73433304Y-36865290D01*
X73433304Y-36865290D02*
X73433304Y-37465290D01*
X74166637Y-36865290D02*
X74233304Y-37465290D01*
X74233304Y-37465290D02*
X73233304Y-37465290D01*
X73233304Y-37465290D02*
X73233304Y-38198623D01*
X74833304Y-36865290D02*
X74566637Y-37131957D01*
X74899970Y-37531957D02*
X74633304Y-37531957D01*
X74633304Y-37531957D02*
X74633304Y-38131957D01*
X74633304Y-38131957D02*
X74899970Y-38398623D01*
X74699970Y-38198623D02*
X74033304Y-38398623D01*
X74033304Y-38398623D02*
X73166637Y-38398623D01*
X72566637Y-37198623D02*
X72033303Y-37065290D01*
X72633303Y-37531957D02*
X71833303Y-37331957D01*
X72366637Y-36865290D02*
X72099970Y-37865290D01*
X72099970Y-37865290D02*
X72299970Y-37865290D01*
X72566637Y-37931957D02*
X72566637Y-38131957D01*
X72566637Y-38131957D02*
X72433303Y-38265290D01*
X72433303Y-38265290D02*
X72166637Y-38331957D01*
X71966637Y-36865290D02*
X71833303Y-37065290D01*
X71766637Y-36798623D02*
X71633303Y-36998623D01*
X71233303Y-37198623D02*
X70366636Y-37065290D01*
X70499970Y-37131957D02*
X70766636Y-37331957D01*
X70766636Y-37331957D02*
X70899970Y-37665290D01*
X70899970Y-37665290D02*
X70899970Y-38065290D01*
X70899970Y-38065290D02*
X70766636Y-38265290D01*
X70766636Y-38265290D02*
X70566636Y-38331957D01*
X69566636Y-36931957D02*
X69566636Y-38065290D01*
X69566636Y-38065290D02*
X69499969Y-38265290D01*
X69499969Y-38265290D02*
X69366636Y-38398623D01*
X69366636Y-38398623D02*
X69166636Y-38398623D01*
X69166636Y-38398623D02*
X68966636Y-38265290D01*
X68966636Y-38265290D02*
X68899969Y-37998623D01*
X68299969Y-37131957D02*
X67499969Y-37131957D01*
X68166636Y-37465290D02*
X67633302Y-37465290D01*
X67833302Y-36865290D02*
X67833302Y-38265290D01*
X67833302Y-38265290D02*
X68033302Y-38265290D01*
X68033302Y-38265290D02*
X68233302Y-38131957D01*
X68233302Y-38131957D02*
X68166636Y-37998623D01*
X68166636Y-37998623D02*
X67899969Y-37931957D01*
X67899969Y-37931957D02*
X67499969Y-38131957D01*
X66833302Y-37598623D02*
X66233302Y-37465290D01*
X66233302Y-37465290D02*
X66033302Y-37531957D01*
X66033302Y-37531957D02*
X65966635Y-37798623D01*
X65966635Y-37798623D02*
X66099969Y-37998623D01*
X66099969Y-37998623D02*
X66499969Y-38198623D01*
X65366635Y-37198623D02*
X64899968Y-37198623D01*
X65033302Y-36865290D02*
X65366635Y-38265290D01*
X64966635Y-37531957D02*
X64566635Y-37531957D01*
X65033302Y-37865290D02*
X64966635Y-38131957D01*
X64966635Y-38131957D02*
X64833302Y-38265290D01*
X64833302Y-38265290D02*
X64499968Y-38265290D01*
X79299971Y-39319290D02*
X79566638Y-40385957D01*
X79566638Y-40385957D02*
X79766638Y-40185957D01*
X79766638Y-40185957D02*
X79766638Y-39652623D01*
X79766638Y-39652623D02*
X79633305Y-39385957D01*
X79633305Y-39385957D02*
X79299971Y-39252623D01*
X79299971Y-39252623D02*
X79033305Y-39319290D01*
X79033305Y-39319290D02*
X78833305Y-39652623D01*
X78833305Y-39652623D02*
X78833305Y-40052623D01*
X78833305Y-40052623D02*
X78899971Y-40319290D01*
X78899971Y-40319290D02*
X79233305Y-40519290D01*
X78299971Y-39452623D02*
X77433304Y-39319290D01*
X77566638Y-39385957D02*
X77833304Y-39585957D01*
X77833304Y-39585957D02*
X77966638Y-39919290D01*
X77966638Y-39919290D02*
X77966638Y-40319290D01*
X77966638Y-40319290D02*
X77833304Y-40519290D01*
X77833304Y-40519290D02*
X77633304Y-40585957D01*
X77499971Y-39052623D02*
X77366638Y-39252623D01*
X77299971Y-38985957D02*
X77166638Y-39185957D01*
X76633304Y-39185957D02*
X76633304Y-40319290D01*
X76633304Y-40319290D02*
X76566637Y-40519290D01*
X76566637Y-40519290D02*
X76433304Y-40652623D01*
X76433304Y-40652623D02*
X76233304Y-40652623D01*
X76233304Y-40652623D02*
X76033304Y-40519290D01*
X76033304Y-40519290D02*
X75966637Y-40252623D01*
X74899970Y-39785957D02*
X74899970Y-40585957D01*
X74899970Y-40585957D02*
X75233304Y-40519290D01*
X75233304Y-40519290D02*
X75233304Y-40319290D01*
X75233304Y-40319290D02*
X75033304Y-40252623D01*
X75033304Y-40252623D02*
X74566637Y-40452623D01*
X74899970Y-39985957D02*
X74633304Y-39985957D01*
X73633303Y-39119290D02*
X73299970Y-39252623D01*
X73833303Y-39719290D02*
X73366637Y-39519290D01*
X73366637Y-39519290D02*
X73166637Y-39719290D01*
X73166637Y-39719290D02*
X73166637Y-40119290D01*
X73166637Y-40119290D02*
X73299970Y-40452623D01*
X73299970Y-40452623D02*
X73633303Y-40585957D01*
X72499970Y-39652623D02*
X72033303Y-39585957D01*
X72033303Y-39585957D02*
X71899970Y-39852623D01*
X71899970Y-39852623D02*
X72033303Y-40585957D01*
X72033303Y-40585957D02*
X72233303Y-40519290D01*
X72166636Y-39119290D02*
X72433303Y-40585957D01*
X71833303Y-39452623D02*
X71566636Y-39985957D01*
X70499969Y-40452623D02*
X70433303Y-40519290D01*
X70433303Y-40519290D02*
X70499969Y-40585957D01*
X70499969Y-40585957D02*
X70566636Y-40519290D01*
X70566636Y-40519290D02*
X70499969Y-40452623D01*
X70499969Y-40452623D02*
X70499969Y-40585957D01*
X70766636Y-39252623D02*
X70633303Y-39185957D01*
X70633303Y-39185957D02*
X70299969Y-39185957D01*
X70299969Y-39185957D02*
X70166636Y-39252623D01*
X70166636Y-39252623D02*
X70099969Y-39385957D01*
X70099969Y-39385957D02*
X70099969Y-39519290D01*
X70099969Y-39519290D02*
X70166636Y-39652623D01*
X70166636Y-39652623D02*
X70233303Y-39719290D01*
X70233303Y-39719290D02*
X70366636Y-39785957D01*
X70366636Y-39785957D02*
X70433303Y-39852623D01*
X70433303Y-39852623D02*
X70499969Y-39985957D01*
X70499969Y-39985957D02*
X70499969Y-40052623D01*
X69033302Y-40452623D02*
X68966636Y-40519290D01*
X68966636Y-40519290D02*
X69033302Y-40585957D01*
X69033302Y-40585957D02*
X69099969Y-40519290D01*
X69099969Y-40519290D02*
X69033302Y-40452623D01*
X69033302Y-40452623D02*
X69033302Y-40585957D01*
X69299969Y-39252623D02*
X69166636Y-39185957D01*
X69166636Y-39185957D02*
X68833302Y-39185957D01*
X68833302Y-39185957D02*
X68699969Y-39252623D01*
X68699969Y-39252623D02*
X68633302Y-39385957D01*
X68633302Y-39385957D02*
X68633302Y-39519290D01*
X68633302Y-39519290D02*
X68699969Y-39652623D01*
X68699969Y-39652623D02*
X68766636Y-39719290D01*
X68766636Y-39719290D02*
X68899969Y-39785957D01*
X68899969Y-39785957D02*
X68966636Y-39852623D01*
X68966636Y-39852623D02*
X69033302Y-39985957D01*
X69033302Y-39985957D02*
X69033302Y-40052623D01*
D11*
X86362747Y-82372386D02*
X86362747Y-81705719D01*
X86362747Y-81896195D02*
X86315128Y-81800957D01*
X86315128Y-81800957D02*
X86267509Y-81753338D01*
X86267509Y-81753338D02*
X86172271Y-81705719D01*
X86172271Y-81705719D02*
X86077033Y-81705719D01*
X85362747Y-82324767D02*
X85457985Y-82372386D01*
X85457985Y-82372386D02*
X85648461Y-82372386D01*
X85648461Y-82372386D02*
X85743699Y-82324767D01*
X85743699Y-82324767D02*
X85791318Y-82229528D01*
X85791318Y-82229528D02*
X85791318Y-81848576D01*
X85791318Y-81848576D02*
X85743699Y-81753338D01*
X85743699Y-81753338D02*
X85648461Y-81705719D01*
X85648461Y-81705719D02*
X85457985Y-81705719D01*
X85457985Y-81705719D02*
X85362747Y-81753338D01*
X85362747Y-81753338D02*
X85315128Y-81848576D01*
X85315128Y-81848576D02*
X85315128Y-81943814D01*
X85315128Y-81943814D02*
X85791318Y-82039052D01*
X84934175Y-82324767D02*
X84838937Y-82372386D01*
X84838937Y-82372386D02*
X84648461Y-82372386D01*
X84648461Y-82372386D02*
X84553223Y-82324767D01*
X84553223Y-82324767D02*
X84505604Y-82229528D01*
X84505604Y-82229528D02*
X84505604Y-82181909D01*
X84505604Y-82181909D02*
X84553223Y-82086671D01*
X84553223Y-82086671D02*
X84648461Y-82039052D01*
X84648461Y-82039052D02*
X84791318Y-82039052D01*
X84791318Y-82039052D02*
X84886556Y-81991433D01*
X84886556Y-81991433D02*
X84934175Y-81896195D01*
X84934175Y-81896195D02*
X84934175Y-81848576D01*
X84934175Y-81848576D02*
X84886556Y-81753338D01*
X84886556Y-81753338D02*
X84791318Y-81705719D01*
X84791318Y-81705719D02*
X84648461Y-81705719D01*
X84648461Y-81705719D02*
X84553223Y-81753338D01*
X83696080Y-82324767D02*
X83791318Y-82372386D01*
X83791318Y-82372386D02*
X83981794Y-82372386D01*
X83981794Y-82372386D02*
X84077032Y-82324767D01*
X84077032Y-82324767D02*
X84124651Y-82229528D01*
X84124651Y-82229528D02*
X84124651Y-81848576D01*
X84124651Y-81848576D02*
X84077032Y-81753338D01*
X84077032Y-81753338D02*
X83981794Y-81705719D01*
X83981794Y-81705719D02*
X83791318Y-81705719D01*
X83791318Y-81705719D02*
X83696080Y-81753338D01*
X83696080Y-81753338D02*
X83648461Y-81848576D01*
X83648461Y-81848576D02*
X83648461Y-81943814D01*
X83648461Y-81943814D02*
X84124651Y-82039052D01*
X83362746Y-81705719D02*
X82981794Y-81705719D01*
X83219889Y-81372386D02*
X83219889Y-82229528D01*
X83219889Y-82229528D02*
X83172270Y-82324767D01*
X83172270Y-82324767D02*
X83077032Y-82372386D01*
X83077032Y-82372386D02*
X82981794Y-82372386D01*
D13*
X117119001Y-36644603D02*
X117119001Y-35977936D01*
X117119001Y-36073174D02*
X117071382Y-36025555D01*
X117071382Y-36025555D02*
X116976144Y-35977936D01*
X116976144Y-35977936D02*
X116833287Y-35977936D01*
X116833287Y-35977936D02*
X116738049Y-36025555D01*
X116738049Y-36025555D02*
X116690430Y-36120793D01*
X116690430Y-36120793D02*
X116690430Y-36644603D01*
X116690430Y-36120793D02*
X116642811Y-36025555D01*
X116642811Y-36025555D02*
X116547573Y-35977936D01*
X116547573Y-35977936D02*
X116404716Y-35977936D01*
X116404716Y-35977936D02*
X116309477Y-36025555D01*
X116309477Y-36025555D02*
X116261858Y-36120793D01*
X116261858Y-36120793D02*
X116261858Y-36644603D01*
X115642811Y-36644603D02*
X115738049Y-36596984D01*
X115738049Y-36596984D02*
X115785668Y-36549364D01*
X115785668Y-36549364D02*
X115833287Y-36454126D01*
X115833287Y-36454126D02*
X115833287Y-36168412D01*
X115833287Y-36168412D02*
X115785668Y-36073174D01*
X115785668Y-36073174D02*
X115738049Y-36025555D01*
X115738049Y-36025555D02*
X115642811Y-35977936D01*
X115642811Y-35977936D02*
X115499954Y-35977936D01*
X115499954Y-35977936D02*
X115404716Y-36025555D01*
X115404716Y-36025555D02*
X115357097Y-36073174D01*
X115357097Y-36073174D02*
X115309478Y-36168412D01*
X115309478Y-36168412D02*
X115309478Y-36454126D01*
X115309478Y-36454126D02*
X115357097Y-36549364D01*
X115357097Y-36549364D02*
X115404716Y-36596984D01*
X115404716Y-36596984D02*
X115499954Y-36644603D01*
X115499954Y-36644603D02*
X115642811Y-36644603D01*
X114452335Y-36644603D02*
X114452335Y-35644603D01*
X114452335Y-36596984D02*
X114547573Y-36644603D01*
X114547573Y-36644603D02*
X114738049Y-36644603D01*
X114738049Y-36644603D02*
X114833287Y-36596984D01*
X114833287Y-36596984D02*
X114880906Y-36549364D01*
X114880906Y-36549364D02*
X114928525Y-36454126D01*
X114928525Y-36454126D02*
X114928525Y-36168412D01*
X114928525Y-36168412D02*
X114880906Y-36073174D01*
X114880906Y-36073174D02*
X114833287Y-36025555D01*
X114833287Y-36025555D02*
X114738049Y-35977936D01*
X114738049Y-35977936D02*
X114547573Y-35977936D01*
X114547573Y-35977936D02*
X114452335Y-36025555D01*
X113976144Y-36644603D02*
X113976144Y-35644603D01*
X113880906Y-36263650D02*
X113595192Y-36644603D01*
X113595192Y-35977936D02*
X113976144Y-36358888D01*
X113166620Y-36644603D02*
X113166620Y-35977936D01*
X113166620Y-35644603D02*
X113214239Y-35692222D01*
X113214239Y-35692222D02*
X113166620Y-35739841D01*
X113166620Y-35739841D02*
X113119001Y-35692222D01*
X113119001Y-35692222D02*
X113166620Y-35644603D01*
X113166620Y-35644603D02*
X113166620Y-35739841D01*
X112690430Y-35977936D02*
X112690430Y-36977936D01*
X112690430Y-36025555D02*
X112595192Y-35977936D01*
X112595192Y-35977936D02*
X112404716Y-35977936D01*
X112404716Y-35977936D02*
X112309478Y-36025555D01*
X112309478Y-36025555D02*
X112261859Y-36073174D01*
X112261859Y-36073174D02*
X112214240Y-36168412D01*
X112214240Y-36168412D02*
X112214240Y-36454126D01*
X112214240Y-36454126D02*
X112261859Y-36549364D01*
X112261859Y-36549364D02*
X112309478Y-36596984D01*
X112309478Y-36596984D02*
X112404716Y-36644603D01*
X112404716Y-36644603D02*
X112595192Y-36644603D01*
X112595192Y-36644603D02*
X112690430Y-36596984D01*
X111880906Y-35977936D02*
X111357097Y-35977936D01*
X111357097Y-35977936D02*
X111880906Y-36644603D01*
X111880906Y-36644603D02*
X111357097Y-36644603D01*
X110547573Y-35977936D02*
X110547573Y-36644603D01*
X110785668Y-35596984D02*
X111023763Y-36311269D01*
X111023763Y-36311269D02*
X110404716Y-36311269D01*
X109833287Y-35644603D02*
X109738049Y-35644603D01*
X109738049Y-35644603D02*
X109642811Y-35692222D01*
X109642811Y-35692222D02*
X109595192Y-35739841D01*
X109595192Y-35739841D02*
X109547573Y-35835079D01*
X109547573Y-35835079D02*
X109499954Y-36025555D01*
X109499954Y-36025555D02*
X109499954Y-36263650D01*
X109499954Y-36263650D02*
X109547573Y-36454126D01*
X109547573Y-36454126D02*
X109595192Y-36549364D01*
X109595192Y-36549364D02*
X109642811Y-36596984D01*
X109642811Y-36596984D02*
X109738049Y-36644603D01*
X109738049Y-36644603D02*
X109833287Y-36644603D01*
X109833287Y-36644603D02*
X109928525Y-36596984D01*
X109928525Y-36596984D02*
X109976144Y-36549364D01*
X109976144Y-36549364D02*
X110023763Y-36454126D01*
X110023763Y-36454126D02*
X110071382Y-36263650D01*
X110071382Y-36263650D02*
X110071382Y-36025555D01*
X110071382Y-36025555D02*
X110023763Y-35835079D01*
X110023763Y-35835079D02*
X109976144Y-35739841D01*
X109976144Y-35739841D02*
X109928525Y-35692222D01*
X109928525Y-35692222D02*
X109833287Y-35644603D01*
X114761858Y-37587936D02*
X114523763Y-38254603D01*
X114523763Y-38254603D02*
X114285668Y-37587936D01*
X113714239Y-37254603D02*
X113619001Y-37254603D01*
X113619001Y-37254603D02*
X113523763Y-37302222D01*
X113523763Y-37302222D02*
X113476144Y-37349841D01*
X113476144Y-37349841D02*
X113428525Y-37445079D01*
X113428525Y-37445079D02*
X113380906Y-37635555D01*
X113380906Y-37635555D02*
X113380906Y-37873650D01*
X113380906Y-37873650D02*
X113428525Y-38064126D01*
X113428525Y-38064126D02*
X113476144Y-38159364D01*
X113476144Y-38159364D02*
X113523763Y-38206984D01*
X113523763Y-38206984D02*
X113619001Y-38254603D01*
X113619001Y-38254603D02*
X113714239Y-38254603D01*
X113714239Y-38254603D02*
X113809477Y-38206984D01*
X113809477Y-38206984D02*
X113857096Y-38159364D01*
X113857096Y-38159364D02*
X113904715Y-38064126D01*
X113904715Y-38064126D02*
X113952334Y-37873650D01*
X113952334Y-37873650D02*
X113952334Y-37635555D01*
X113952334Y-37635555D02*
X113904715Y-37445079D01*
X113904715Y-37445079D02*
X113857096Y-37349841D01*
X113857096Y-37349841D02*
X113809477Y-37302222D01*
X113809477Y-37302222D02*
X113714239Y-37254603D01*
X112952334Y-38159364D02*
X112904715Y-38206984D01*
X112904715Y-38206984D02*
X112952334Y-38254603D01*
X112952334Y-38254603D02*
X112999953Y-38206984D01*
X112999953Y-38206984D02*
X112952334Y-38159364D01*
X112952334Y-38159364D02*
X112952334Y-38254603D01*
X111952335Y-38254603D02*
X112523763Y-38254603D01*
X112238049Y-38254603D02*
X112238049Y-37254603D01*
X112238049Y-37254603D02*
X112333287Y-37397460D01*
X112333287Y-37397460D02*
X112428525Y-37492698D01*
X112428525Y-37492698D02*
X112523763Y-37540317D01*
X117785669Y-39864603D02*
X117785669Y-38864603D01*
X117785669Y-39245555D02*
X117690431Y-39197936D01*
X117690431Y-39197936D02*
X117499955Y-39197936D01*
X117499955Y-39197936D02*
X117404717Y-39245555D01*
X117404717Y-39245555D02*
X117357098Y-39293174D01*
X117357098Y-39293174D02*
X117309479Y-39388412D01*
X117309479Y-39388412D02*
X117309479Y-39674126D01*
X117309479Y-39674126D02*
X117357098Y-39769364D01*
X117357098Y-39769364D02*
X117404717Y-39816984D01*
X117404717Y-39816984D02*
X117499955Y-39864603D01*
X117499955Y-39864603D02*
X117690431Y-39864603D01*
X117690431Y-39864603D02*
X117785669Y-39816984D01*
X116976145Y-39197936D02*
X116738050Y-39864603D01*
X116499955Y-39197936D02*
X116738050Y-39864603D01*
X116738050Y-39864603D02*
X116833288Y-40102698D01*
X116833288Y-40102698D02*
X116880907Y-40150317D01*
X116880907Y-40150317D02*
X116976145Y-40197936D01*
X115404716Y-39816984D02*
X115309478Y-39864603D01*
X115309478Y-39864603D02*
X115119002Y-39864603D01*
X115119002Y-39864603D02*
X115023764Y-39816984D01*
X115023764Y-39816984D02*
X114976145Y-39721745D01*
X114976145Y-39721745D02*
X114976145Y-39674126D01*
X114976145Y-39674126D02*
X115023764Y-39578888D01*
X115023764Y-39578888D02*
X115119002Y-39531269D01*
X115119002Y-39531269D02*
X115261859Y-39531269D01*
X115261859Y-39531269D02*
X115357097Y-39483650D01*
X115357097Y-39483650D02*
X115404716Y-39388412D01*
X115404716Y-39388412D02*
X115404716Y-39340793D01*
X115404716Y-39340793D02*
X115357097Y-39245555D01*
X115357097Y-39245555D02*
X115261859Y-39197936D01*
X115261859Y-39197936D02*
X115119002Y-39197936D01*
X115119002Y-39197936D02*
X115023764Y-39245555D01*
X114547573Y-39197936D02*
X114547573Y-40197936D01*
X114547573Y-39245555D02*
X114452335Y-39197936D01*
X114452335Y-39197936D02*
X114261859Y-39197936D01*
X114261859Y-39197936D02*
X114166621Y-39245555D01*
X114166621Y-39245555D02*
X114119002Y-39293174D01*
X114119002Y-39293174D02*
X114071383Y-39388412D01*
X114071383Y-39388412D02*
X114071383Y-39674126D01*
X114071383Y-39674126D02*
X114119002Y-39769364D01*
X114119002Y-39769364D02*
X114166621Y-39816984D01*
X114166621Y-39816984D02*
X114261859Y-39864603D01*
X114261859Y-39864603D02*
X114452335Y-39864603D01*
X114452335Y-39864603D02*
X114547573Y-39816984D01*
X113499954Y-39864603D02*
X113595192Y-39816984D01*
X113595192Y-39816984D02*
X113642811Y-39769364D01*
X113642811Y-39769364D02*
X113690430Y-39674126D01*
X113690430Y-39674126D02*
X113690430Y-39388412D01*
X113690430Y-39388412D02*
X113642811Y-39293174D01*
X113642811Y-39293174D02*
X113595192Y-39245555D01*
X113595192Y-39245555D02*
X113499954Y-39197936D01*
X113499954Y-39197936D02*
X113357097Y-39197936D01*
X113357097Y-39197936D02*
X113261859Y-39245555D01*
X113261859Y-39245555D02*
X113214240Y-39293174D01*
X113214240Y-39293174D02*
X113166621Y-39388412D01*
X113166621Y-39388412D02*
X113166621Y-39674126D01*
X113166621Y-39674126D02*
X113214240Y-39769364D01*
X113214240Y-39769364D02*
X113261859Y-39816984D01*
X113261859Y-39816984D02*
X113357097Y-39864603D01*
X113357097Y-39864603D02*
X113499954Y-39864603D01*
X112738049Y-39864603D02*
X112738049Y-39197936D01*
X112738049Y-39388412D02*
X112690430Y-39293174D01*
X112690430Y-39293174D02*
X112642811Y-39245555D01*
X112642811Y-39245555D02*
X112547573Y-39197936D01*
X112547573Y-39197936D02*
X112452335Y-39197936D01*
X111738049Y-39816984D02*
X111833287Y-39864603D01*
X111833287Y-39864603D02*
X112023763Y-39864603D01*
X112023763Y-39864603D02*
X112119001Y-39816984D01*
X112119001Y-39816984D02*
X112166620Y-39721745D01*
X112166620Y-39721745D02*
X112166620Y-39340793D01*
X112166620Y-39340793D02*
X112119001Y-39245555D01*
X112119001Y-39245555D02*
X112023763Y-39197936D01*
X112023763Y-39197936D02*
X111833287Y-39197936D01*
X111833287Y-39197936D02*
X111738049Y-39245555D01*
X111738049Y-39245555D02*
X111690430Y-39340793D01*
X111690430Y-39340793D02*
X111690430Y-39436031D01*
X111690430Y-39436031D02*
X112166620Y-39531269D01*
X111357096Y-39197936D02*
X111166620Y-39864603D01*
X111166620Y-39864603D02*
X110976144Y-39388412D01*
X110976144Y-39388412D02*
X110785668Y-39864603D01*
X110785668Y-39864603D02*
X110595192Y-39197936D01*
X110071382Y-39864603D02*
X110166620Y-39816984D01*
X110166620Y-39816984D02*
X110214239Y-39769364D01*
X110214239Y-39769364D02*
X110261858Y-39674126D01*
X110261858Y-39674126D02*
X110261858Y-39388412D01*
X110261858Y-39388412D02*
X110214239Y-39293174D01*
X110214239Y-39293174D02*
X110166620Y-39245555D01*
X110166620Y-39245555D02*
X110071382Y-39197936D01*
X110071382Y-39197936D02*
X109928525Y-39197936D01*
X109928525Y-39197936D02*
X109833287Y-39245555D01*
X109833287Y-39245555D02*
X109785668Y-39293174D01*
X109785668Y-39293174D02*
X109738049Y-39388412D01*
X109738049Y-39388412D02*
X109738049Y-39674126D01*
X109738049Y-39674126D02*
X109785668Y-39769364D01*
X109785668Y-39769364D02*
X109833287Y-39816984D01*
X109833287Y-39816984D02*
X109928525Y-39864603D01*
X109928525Y-39864603D02*
X110071382Y-39864603D01*
X109309477Y-39864603D02*
X109309477Y-38864603D01*
X108880906Y-39864603D02*
X108880906Y-39340793D01*
X108880906Y-39340793D02*
X108928525Y-39245555D01*
X108928525Y-39245555D02*
X109023763Y-39197936D01*
X109023763Y-39197936D02*
X109166620Y-39197936D01*
X109166620Y-39197936D02*
X109261858Y-39245555D01*
X109261858Y-39245555D02*
X109309477Y-39293174D01*
D14*
X130604608Y-75426428D02*
X131589415Y-75252780D01*
X131589415Y-75252780D02*
X131548071Y-75018302D01*
X131548071Y-75018302D02*
X131476368Y-74885884D01*
X131476368Y-74885884D02*
X131366039Y-74808631D01*
X131366039Y-74808631D02*
X131263979Y-74778273D01*
X131263979Y-74778273D02*
X131068127Y-74764453D01*
X131068127Y-74764453D02*
X130927441Y-74789260D01*
X130927441Y-74789260D02*
X130748127Y-74869232D01*
X130748127Y-74869232D02*
X130662605Y-74932665D01*
X130662605Y-74932665D02*
X130585352Y-75042994D01*
X130585352Y-75042994D02*
X130563263Y-75191950D01*
X130563263Y-75191950D02*
X130604608Y-75426428D01*
X131432305Y-74361763D02*
X131324809Y-73752120D01*
X131324809Y-73752120D02*
X131007527Y-74146541D01*
X131007527Y-74146541D02*
X130982720Y-74005855D01*
X130982720Y-74005855D02*
X130919286Y-73920332D01*
X130919286Y-73920332D02*
X130864122Y-73881706D01*
X130864122Y-73881706D02*
X130762061Y-73851348D01*
X130762061Y-73851348D02*
X130527583Y-73892693D01*
X130527583Y-73892693D02*
X130442061Y-73956126D01*
X130442061Y-73956126D02*
X130403434Y-74011291D01*
X130403434Y-74011291D02*
X130373077Y-74113351D01*
X130373077Y-74113351D02*
X130422691Y-74394725D01*
X130422691Y-74394725D02*
X130486124Y-74480247D01*
X130486124Y-74480247D02*
X130541289Y-74518874D01*
X131175967Y-72907999D02*
X131209043Y-73095582D01*
X131209043Y-73095582D02*
X131178686Y-73197642D01*
X131178686Y-73197642D02*
X131140059Y-73252807D01*
X131140059Y-73252807D02*
X131015910Y-73371405D01*
X131015910Y-73371405D02*
X130836597Y-73451376D01*
X130836597Y-73451376D02*
X130461432Y-73517528D01*
X130461432Y-73517528D02*
X130359371Y-73487170D01*
X130359371Y-73487170D02*
X130304207Y-73448544D01*
X130304207Y-73448544D02*
X130240773Y-73363021D01*
X130240773Y-73363021D02*
X130207698Y-73175439D01*
X130207698Y-73175439D02*
X130238055Y-73073379D01*
X130238055Y-73073379D02*
X130276682Y-73018214D01*
X130276682Y-73018214D02*
X130362204Y-72954781D01*
X130362204Y-72954781D02*
X130596682Y-72913436D01*
X130596682Y-72913436D02*
X130698742Y-72943793D01*
X130698742Y-72943793D02*
X130753907Y-72982420D01*
X130753907Y-72982420D02*
X130817340Y-73067942D01*
X130817340Y-73067942D02*
X130850416Y-73255525D01*
X130850416Y-73255525D02*
X130820059Y-73357585D01*
X130820059Y-73357585D02*
X130781432Y-73412750D01*
X130781432Y-73412750D02*
X130695910Y-73476183D01*
X105699003Y-49355159D02*
X106683810Y-49181511D01*
X106683810Y-49181511D02*
X106642466Y-48947033D01*
X106642466Y-48947033D02*
X106570763Y-48814615D01*
X106570763Y-48814615D02*
X106460434Y-48737362D01*
X106460434Y-48737362D02*
X106358374Y-48707004D01*
X106358374Y-48707004D02*
X106162522Y-48693184D01*
X106162522Y-48693184D02*
X106021836Y-48717991D01*
X106021836Y-48717991D02*
X105842522Y-48797963D01*
X105842522Y-48797963D02*
X105757000Y-48861396D01*
X105757000Y-48861396D02*
X105679747Y-48971725D01*
X105679747Y-48971725D02*
X105657658Y-49120681D01*
X105657658Y-49120681D02*
X105699003Y-49355159D01*
X105434396Y-47854500D02*
X105533623Y-48417247D01*
X105484010Y-48135873D02*
X106468817Y-47962225D01*
X106468817Y-47962225D02*
X106344669Y-48080823D01*
X106344669Y-48080823D02*
X106267415Y-48191152D01*
X106267415Y-48191152D02*
X106237058Y-48293212D01*
X106311707Y-47071208D02*
X106295169Y-46977417D01*
X106295169Y-46977417D02*
X106231736Y-46891895D01*
X106231736Y-46891895D02*
X106176571Y-46853268D01*
X106176571Y-46853268D02*
X106074511Y-46822911D01*
X106074511Y-46822911D02*
X105878660Y-46809091D01*
X105878660Y-46809091D02*
X105644182Y-46850436D01*
X105644182Y-46850436D02*
X105464868Y-46930407D01*
X105464868Y-46930407D02*
X105379346Y-46993841D01*
X105379346Y-46993841D02*
X105340719Y-47049005D01*
X105340719Y-47049005D02*
X105310362Y-47151065D01*
X105310362Y-47151065D02*
X105326899Y-47244857D01*
X105326899Y-47244857D02*
X105390333Y-47330379D01*
X105390333Y-47330379D02*
X105445498Y-47369006D01*
X105445498Y-47369006D02*
X105547558Y-47399363D01*
X105547558Y-47399363D02*
X105743409Y-47413183D01*
X105743409Y-47413183D02*
X105977887Y-47371838D01*
X105977887Y-47371838D02*
X106157201Y-47291867D01*
X106157201Y-47291867D02*
X106242723Y-47228433D01*
X106242723Y-47228433D02*
X106281350Y-47173269D01*
X106281350Y-47173269D02*
X106311707Y-47071208D01*
X55793163Y-73138942D02*
X54808356Y-72965294D01*
X54808356Y-72965294D02*
X54767011Y-73199772D01*
X54767011Y-73199772D02*
X54789100Y-73348728D01*
X54789100Y-73348728D02*
X54866353Y-73459057D01*
X54866353Y-73459057D02*
X54951875Y-73522490D01*
X54951875Y-73522490D02*
X55131189Y-73602462D01*
X55131189Y-73602462D02*
X55271875Y-73627269D01*
X55271875Y-73627269D02*
X55467727Y-73613449D01*
X55467727Y-73613449D02*
X55569787Y-73583091D01*
X55569787Y-73583091D02*
X55680116Y-73505838D01*
X55680116Y-73505838D02*
X55751819Y-73373420D01*
X55751819Y-73373420D02*
X55793163Y-73138942D01*
X54651245Y-73856310D02*
X54543749Y-74465953D01*
X54543749Y-74465953D02*
X54976796Y-74203836D01*
X54976796Y-74203836D02*
X54951990Y-74344522D01*
X54951990Y-74344522D02*
X54982347Y-74446583D01*
X54982347Y-74446583D02*
X55020974Y-74501747D01*
X55020974Y-74501747D02*
X55106496Y-74565181D01*
X55106496Y-74565181D02*
X55340974Y-74606526D01*
X55340974Y-74606526D02*
X55443034Y-74576168D01*
X55443034Y-74576168D02*
X55498199Y-74537541D01*
X55498199Y-74537541D02*
X55561632Y-74452019D01*
X55561632Y-74452019D02*
X55611246Y-74170645D01*
X55611246Y-74170645D02*
X55580889Y-74068585D01*
X55580889Y-74068585D02*
X55542262Y-74013421D01*
X54485866Y-74794223D02*
X54378370Y-75403865D01*
X54378370Y-75403865D02*
X54811417Y-75141748D01*
X54811417Y-75141748D02*
X54786610Y-75282435D01*
X54786610Y-75282435D02*
X54816968Y-75384495D01*
X54816968Y-75384495D02*
X54855595Y-75439659D01*
X54855595Y-75439659D02*
X54941117Y-75503093D01*
X54941117Y-75503093D02*
X55175595Y-75544438D01*
X55175595Y-75544438D02*
X55277655Y-75514080D01*
X55277655Y-75514080D02*
X55332820Y-75475453D01*
X55332820Y-75475453D02*
X55396253Y-75389931D01*
X55396253Y-75389931D02*
X55445867Y-75108558D01*
X55445867Y-75108558D02*
X55415509Y-75006497D01*
X55415509Y-75006497D02*
X55376883Y-74951333D01*
X92800542Y-76765796D02*
X92848161Y-76908653D01*
X92848161Y-76908653D02*
X92848161Y-77146748D01*
X92848161Y-77146748D02*
X92800542Y-77241986D01*
X92800542Y-77241986D02*
X92752922Y-77289605D01*
X92752922Y-77289605D02*
X92657684Y-77337224D01*
X92657684Y-77337224D02*
X92562446Y-77337224D01*
X92562446Y-77337224D02*
X92467208Y-77289605D01*
X92467208Y-77289605D02*
X92419589Y-77241986D01*
X92419589Y-77241986D02*
X92371970Y-77146748D01*
X92371970Y-77146748D02*
X92324351Y-76956272D01*
X92324351Y-76956272D02*
X92276732Y-76861034D01*
X92276732Y-76861034D02*
X92229113Y-76813415D01*
X92229113Y-76813415D02*
X92133875Y-76765796D01*
X92133875Y-76765796D02*
X92038637Y-76765796D01*
X92038637Y-76765796D02*
X91943399Y-76813415D01*
X91943399Y-76813415D02*
X91895780Y-76861034D01*
X91895780Y-76861034D02*
X91848161Y-76956272D01*
X91848161Y-76956272D02*
X91848161Y-77194367D01*
X91848161Y-77194367D02*
X91895780Y-77337224D01*
X91848161Y-77670558D02*
X92848161Y-77908653D01*
X92848161Y-77908653D02*
X92133875Y-78099129D01*
X92133875Y-78099129D02*
X92848161Y-78289605D01*
X92848161Y-78289605D02*
X91848161Y-78527701D01*
X92181494Y-79337224D02*
X92848161Y-79337224D01*
X91800542Y-79099129D02*
X92514827Y-78861034D01*
X92514827Y-78861034D02*
X92514827Y-79480081D01*
X92848161Y-80384843D02*
X92848161Y-79813415D01*
X92848161Y-80099129D02*
X91848161Y-80099129D01*
X91848161Y-80099129D02*
X91991018Y-80003891D01*
X91991018Y-80003891D02*
X92086256Y-79908653D01*
X92086256Y-79908653D02*
X92133875Y-79813415D01*
X57529647Y-63290866D02*
X56544840Y-63117218D01*
X56544840Y-63117218D02*
X56503495Y-63351696D01*
X56503495Y-63351696D02*
X56525584Y-63500652D01*
X56525584Y-63500652D02*
X56602837Y-63610981D01*
X56602837Y-63610981D02*
X56688359Y-63674414D01*
X56688359Y-63674414D02*
X56867673Y-63754386D01*
X56867673Y-63754386D02*
X57008359Y-63779193D01*
X57008359Y-63779193D02*
X57204211Y-63765373D01*
X57204211Y-63765373D02*
X57306271Y-63735015D01*
X57306271Y-63735015D02*
X57416600Y-63657762D01*
X57416600Y-63657762D02*
X57488303Y-63525344D01*
X57488303Y-63525344D02*
X57529647Y-63290866D01*
X56473252Y-64071668D02*
X56418087Y-64110295D01*
X56418087Y-64110295D02*
X56354653Y-64195817D01*
X56354653Y-64195817D02*
X56313309Y-64430295D01*
X56313309Y-64430295D02*
X56343666Y-64532355D01*
X56343666Y-64532355D02*
X56382293Y-64587520D01*
X56382293Y-64587520D02*
X56467815Y-64650953D01*
X56467815Y-64650953D02*
X56561606Y-64667491D01*
X56561606Y-64667491D02*
X56710562Y-64645402D01*
X56710562Y-64645402D02*
X57372537Y-64181883D01*
X57372537Y-64181883D02*
X57265041Y-64791525D01*
X56222350Y-64946147D02*
X56114854Y-65555789D01*
X56114854Y-65555789D02*
X56547901Y-65293672D01*
X56547901Y-65293672D02*
X56523094Y-65434359D01*
X56523094Y-65434359D02*
X56553452Y-65536419D01*
X56553452Y-65536419D02*
X56592079Y-65591583D01*
X56592079Y-65591583D02*
X56677601Y-65655017D01*
X56677601Y-65655017D02*
X56912079Y-65696362D01*
X56912079Y-65696362D02*
X57014139Y-65666004D01*
X57014139Y-65666004D02*
X57069304Y-65627377D01*
X57069304Y-65627377D02*
X57132737Y-65541855D01*
X57132737Y-65541855D02*
X57182351Y-65260482D01*
X57182351Y-65260482D02*
X57151993Y-65158421D01*
X57151993Y-65158421D02*
X57113367Y-65103257D01*
X78962281Y-56915752D02*
X77977474Y-56742104D01*
X77977474Y-56742104D02*
X77936129Y-56976582D01*
X77936129Y-56976582D02*
X77958218Y-57125538D01*
X77958218Y-57125538D02*
X78035471Y-57235867D01*
X78035471Y-57235867D02*
X78120993Y-57299300D01*
X78120993Y-57299300D02*
X78300307Y-57379272D01*
X78300307Y-57379272D02*
X78440993Y-57404079D01*
X78440993Y-57404079D02*
X78636845Y-57390259D01*
X78636845Y-57390259D02*
X78738905Y-57359901D01*
X78738905Y-57359901D02*
X78849234Y-57282648D01*
X78849234Y-57282648D02*
X78920937Y-57150230D01*
X78920937Y-57150230D02*
X78962281Y-56915752D01*
X78697675Y-58416411D02*
X78796902Y-57853664D01*
X78747288Y-58135038D02*
X77762481Y-57961390D01*
X77762481Y-57961390D02*
X77919705Y-57892405D01*
X77919705Y-57892405D02*
X78030034Y-57815152D01*
X78030034Y-57815152D02*
X78093468Y-57729630D01*
X77654984Y-58571033D02*
X77539219Y-59227571D01*
X77539219Y-59227571D02*
X78598447Y-58979159D01*
X94359589Y-54599137D02*
X94407209Y-54551518D01*
X94407209Y-54551518D02*
X94454828Y-54408661D01*
X94454828Y-54408661D02*
X94454828Y-54313423D01*
X94454828Y-54313423D02*
X94407209Y-54170566D01*
X94407209Y-54170566D02*
X94311970Y-54075328D01*
X94311970Y-54075328D02*
X94216732Y-54027709D01*
X94216732Y-54027709D02*
X94026256Y-53980090D01*
X94026256Y-53980090D02*
X93883399Y-53980090D01*
X93883399Y-53980090D02*
X93692923Y-54027709D01*
X93692923Y-54027709D02*
X93597685Y-54075328D01*
X93597685Y-54075328D02*
X93502447Y-54170566D01*
X93502447Y-54170566D02*
X93454828Y-54313423D01*
X93454828Y-54313423D02*
X93454828Y-54408661D01*
X93454828Y-54408661D02*
X93502447Y-54551518D01*
X93502447Y-54551518D02*
X93550066Y-54599137D01*
X94454828Y-55551518D02*
X94454828Y-54980090D01*
X94454828Y-55265804D02*
X93454828Y-55265804D01*
X93454828Y-55265804D02*
X93597685Y-55170566D01*
X93597685Y-55170566D02*
X93692923Y-55075328D01*
X93692923Y-55075328D02*
X93740542Y-54980090D01*
X93454828Y-56170566D02*
X93454828Y-56265804D01*
X93454828Y-56265804D02*
X93502447Y-56361042D01*
X93502447Y-56361042D02*
X93550066Y-56408661D01*
X93550066Y-56408661D02*
X93645304Y-56456280D01*
X93645304Y-56456280D02*
X93835780Y-56503899D01*
X93835780Y-56503899D02*
X94073875Y-56503899D01*
X94073875Y-56503899D02*
X94264351Y-56456280D01*
X94264351Y-56456280D02*
X94359589Y-56408661D01*
X94359589Y-56408661D02*
X94407209Y-56361042D01*
X94407209Y-56361042D02*
X94454828Y-56265804D01*
X94454828Y-56265804D02*
X94454828Y-56170566D01*
X94454828Y-56170566D02*
X94407209Y-56075328D01*
X94407209Y-56075328D02*
X94359589Y-56027709D01*
X94359589Y-56027709D02*
X94264351Y-55980090D01*
X94264351Y-55980090D02*
X94073875Y-55932471D01*
X94073875Y-55932471D02*
X93835780Y-55932471D01*
X93835780Y-55932471D02*
X93645304Y-55980090D01*
X93645304Y-55980090D02*
X93550066Y-56027709D01*
X93550066Y-56027709D02*
X93502447Y-56075328D01*
X93502447Y-56075328D02*
X93454828Y-56170566D01*
X70767997Y-45800147D02*
X69783189Y-45626498D01*
X69783189Y-45626498D02*
X69741844Y-45860976D01*
X69741844Y-45860976D02*
X69763933Y-46009932D01*
X69763933Y-46009932D02*
X69841186Y-46120261D01*
X69841186Y-46120261D02*
X69926708Y-46183695D01*
X69926708Y-46183695D02*
X70106022Y-46263666D01*
X70106022Y-46263666D02*
X70246709Y-46288473D01*
X70246709Y-46288473D02*
X70442560Y-46274653D01*
X70442560Y-46274653D02*
X70544620Y-46244296D01*
X70544620Y-46244296D02*
X70654949Y-46167042D01*
X70654949Y-46167042D02*
X70726652Y-46034625D01*
X70726652Y-46034625D02*
X70767997Y-45800147D01*
X69526851Y-47080262D02*
X69609541Y-46611306D01*
X69609541Y-46611306D02*
X70086766Y-46647100D01*
X70086766Y-46647100D02*
X70031601Y-46685727D01*
X70031601Y-46685727D02*
X69968168Y-46771249D01*
X69968168Y-46771249D02*
X69926823Y-47005727D01*
X69926823Y-47005727D02*
X69957181Y-47107787D01*
X69957181Y-47107787D02*
X69995807Y-47162952D01*
X69995807Y-47162952D02*
X70081329Y-47226385D01*
X70081329Y-47226385D02*
X70315807Y-47267730D01*
X70315807Y-47267730D02*
X70417868Y-47237372D01*
X70417868Y-47237372D02*
X70473032Y-47198746D01*
X70473032Y-47198746D02*
X70536466Y-47113224D01*
X70536466Y-47113224D02*
X70577811Y-46878746D01*
X70577811Y-46878746D02*
X70547453Y-46776685D01*
X70547453Y-46776685D02*
X70508826Y-46721521D01*
X94514831Y-46980093D02*
X95324354Y-46980093D01*
X95324354Y-46980093D02*
X95419592Y-47027712D01*
X95419592Y-47027712D02*
X95467212Y-47075331D01*
X95467212Y-47075331D02*
X95514831Y-47170569D01*
X95514831Y-47170569D02*
X95514831Y-47361045D01*
X95514831Y-47361045D02*
X95467212Y-47456283D01*
X95467212Y-47456283D02*
X95419592Y-47503902D01*
X95419592Y-47503902D02*
X95324354Y-47551521D01*
X95324354Y-47551521D02*
X94514831Y-47551521D01*
X95514831Y-48551521D02*
X95514831Y-47980093D01*
X95514831Y-48265807D02*
X94514831Y-48265807D01*
X94514831Y-48265807D02*
X94657688Y-48170569D01*
X94657688Y-48170569D02*
X94752926Y-48075331D01*
X94752926Y-48075331D02*
X94800545Y-47980093D01*
X75489318Y-76611904D02*
X74504511Y-76438256D01*
X74504511Y-76438256D02*
X74463166Y-76672734D01*
X74463166Y-76672734D02*
X74485255Y-76821690D01*
X74485255Y-76821690D02*
X74562508Y-76932019D01*
X74562508Y-76932019D02*
X74648030Y-76995452D01*
X74648030Y-76995452D02*
X74827344Y-77075424D01*
X74827344Y-77075424D02*
X74968030Y-77100231D01*
X74968030Y-77100231D02*
X75163882Y-77086411D01*
X75163882Y-77086411D02*
X75265942Y-77056053D01*
X75265942Y-77056053D02*
X75376271Y-76978800D01*
X75376271Y-76978800D02*
X75447974Y-76846382D01*
X75447974Y-76846382D02*
X75489318Y-76611904D01*
X74347400Y-77329272D02*
X74239904Y-77938915D01*
X74239904Y-77938915D02*
X74672951Y-77676798D01*
X74672951Y-77676798D02*
X74648145Y-77817484D01*
X74648145Y-77817484D02*
X74678502Y-77919545D01*
X74678502Y-77919545D02*
X74717129Y-77974709D01*
X74717129Y-77974709D02*
X74802651Y-78038143D01*
X74802651Y-78038143D02*
X75037129Y-78079488D01*
X75037129Y-78079488D02*
X75139189Y-78049130D01*
X75139189Y-78049130D02*
X75194354Y-78010503D01*
X75194354Y-78010503D02*
X75257787Y-77924981D01*
X75257787Y-77924981D02*
X75307401Y-77643607D01*
X75307401Y-77643607D02*
X75277044Y-77541547D01*
X75277044Y-77541547D02*
X75238417Y-77486383D01*
X74182021Y-78267185D02*
X74066256Y-78923723D01*
X74066256Y-78923723D02*
X75125484Y-78675311D01*
X47342276Y-63519423D02*
X47515924Y-62534615D01*
X47433234Y-63003572D02*
X46870487Y-62904344D01*
X46779528Y-63420196D02*
X46953177Y-62435388D01*
X46578012Y-62369236D02*
X45968369Y-62261740D01*
X45968369Y-62261740D02*
X46230486Y-62694787D01*
X46230486Y-62694787D02*
X46089800Y-62669980D01*
X46089800Y-62669980D02*
X45987739Y-62700338D01*
X45987739Y-62700338D02*
X45932575Y-62738965D01*
X45932575Y-62738965D02*
X45869141Y-62824487D01*
X45869141Y-62824487D02*
X45827797Y-63058965D01*
X45827797Y-63058965D02*
X45858154Y-63161025D01*
X45858154Y-63161025D02*
X45896781Y-63216190D01*
X45896781Y-63216190D02*
X45982303Y-63279623D01*
X45982303Y-63279623D02*
X46263677Y-63329237D01*
X46263677Y-63329237D02*
X46365737Y-63298879D01*
X46365737Y-63298879D02*
X46420902Y-63260253D01*
X99543880Y-63727221D02*
X99543880Y-63794565D01*
X99543880Y-63794565D02*
X99611224Y-63929252D01*
X99611224Y-63929252D02*
X99678567Y-63996595D01*
X99678567Y-63996595D02*
X99813254Y-64063939D01*
X99813254Y-64063939D02*
X99947941Y-64063939D01*
X99947941Y-64063939D02*
X100048956Y-64030267D01*
X100048956Y-64030267D02*
X100217315Y-63929252D01*
X100217315Y-63929252D02*
X100318330Y-63828237D01*
X100318330Y-63828237D02*
X100419346Y-63659878D01*
X100419346Y-63659878D02*
X100453017Y-63558863D01*
X100453017Y-63558863D02*
X100453017Y-63424176D01*
X100453017Y-63424176D02*
X100385674Y-63289489D01*
X100385674Y-63289489D02*
X100318330Y-63222145D01*
X100318330Y-63222145D02*
X100183643Y-63154802D01*
X100183643Y-63154802D02*
X100116300Y-63154802D01*
X99947941Y-62851756D02*
X99476537Y-62380351D01*
X99476537Y-62380351D02*
X99072476Y-63390504D01*
X136070592Y-43558660D02*
X135896944Y-42573853D01*
X135979633Y-43042809D02*
X135416886Y-43142036D01*
X135507844Y-43657888D02*
X135334196Y-42673080D01*
X134443180Y-42830190D02*
X134630762Y-42797115D01*
X134630762Y-42797115D02*
X134732822Y-42827472D01*
X134732822Y-42827472D02*
X134787987Y-42866099D01*
X134787987Y-42866099D02*
X134906585Y-42990248D01*
X134906585Y-42990248D02*
X134986556Y-43169561D01*
X134986556Y-43169561D02*
X135052708Y-43544726D01*
X135052708Y-43544726D02*
X135022350Y-43646786D01*
X135022350Y-43646786D02*
X134983724Y-43701951D01*
X134983724Y-43701951D02*
X134898202Y-43765384D01*
X134898202Y-43765384D02*
X134710619Y-43798460D01*
X134710619Y-43798460D02*
X134608559Y-43768103D01*
X134608559Y-43768103D02*
X134553394Y-43729476D01*
X134553394Y-43729476D02*
X134489961Y-43643954D01*
X134489961Y-43643954D02*
X134448616Y-43409476D01*
X134448616Y-43409476D02*
X134478974Y-43307416D01*
X134478974Y-43307416D02*
X134517600Y-43252251D01*
X134517600Y-43252251D02*
X134603123Y-43188817D01*
X134603123Y-43188817D02*
X134790705Y-43155742D01*
X134790705Y-43155742D02*
X134892765Y-43186099D01*
X134892765Y-43186099D02*
X134947930Y-43224726D01*
X134947930Y-43224726D02*
X135011363Y-43310248D01*
X80380314Y-48914505D02*
X80553962Y-47929697D01*
X80471272Y-48398654D02*
X79908525Y-48299426D01*
X79817566Y-48815278D02*
X79991215Y-47830470D01*
X79552616Y-47849840D02*
X79513990Y-47794676D01*
X79513990Y-47794676D02*
X79428467Y-47731242D01*
X79428467Y-47731242D02*
X79193989Y-47689898D01*
X79193989Y-47689898D02*
X79091929Y-47720255D01*
X79091929Y-47720255D02*
X79036765Y-47758882D01*
X79036765Y-47758882D02*
X78973331Y-47844404D01*
X78973331Y-47844404D02*
X78956793Y-47938195D01*
X78956793Y-47938195D02*
X78978882Y-48087151D01*
X78978882Y-48087151D02*
X79442402Y-48749126D01*
X79442402Y-48749126D02*
X78832759Y-48641629D01*
X51071841Y-42327186D02*
X50087033Y-42153537D01*
X50087033Y-42153537D02*
X50045688Y-42388015D01*
X50045688Y-42388015D02*
X50067777Y-42536971D01*
X50067777Y-42536971D02*
X50145030Y-42647300D01*
X50145030Y-42647300D02*
X50230552Y-42710734D01*
X50230552Y-42710734D02*
X50409866Y-42790705D01*
X50409866Y-42790705D02*
X50550553Y-42815512D01*
X50550553Y-42815512D02*
X50746404Y-42801692D01*
X50746404Y-42801692D02*
X50848464Y-42771335D01*
X50848464Y-42771335D02*
X50958793Y-42694081D01*
X50958793Y-42694081D02*
X51030496Y-42561664D01*
X51030496Y-42561664D02*
X51071841Y-42327186D01*
X50807234Y-43827845D02*
X50906461Y-43265098D01*
X50856848Y-43546471D02*
X49872040Y-43372823D01*
X49872040Y-43372823D02*
X50029265Y-43303839D01*
X50029265Y-43303839D02*
X50139594Y-43226586D01*
X50139594Y-43226586D02*
X50203027Y-43141063D01*
X135160548Y-43676757D02*
X136145356Y-43503109D01*
X136145356Y-43503109D02*
X136104011Y-43268631D01*
X136104011Y-43268631D02*
X136032308Y-43136213D01*
X136032308Y-43136213D02*
X135921979Y-43058960D01*
X135921979Y-43058960D02*
X135819919Y-43028602D01*
X135819919Y-43028602D02*
X135624068Y-43014783D01*
X135624068Y-43014783D02*
X135483381Y-43039590D01*
X135483381Y-43039590D02*
X135304067Y-43119561D01*
X135304067Y-43119561D02*
X135218545Y-43182994D01*
X135218545Y-43182994D02*
X135141292Y-43293324D01*
X135141292Y-43293324D02*
X135119203Y-43442279D01*
X135119203Y-43442279D02*
X135160548Y-43676757D01*
X135569018Y-42154124D02*
X134912479Y-42269889D01*
X135985527Y-42322450D02*
X135323438Y-42680963D01*
X135323438Y-42680963D02*
X135215942Y-42071320D01*
X117283569Y-57466752D02*
X118268376Y-57293104D01*
X118268376Y-57293104D02*
X118227032Y-57058626D01*
X118227032Y-57058626D02*
X118155329Y-56926208D01*
X118155329Y-56926208D02*
X118045000Y-56848955D01*
X118045000Y-56848955D02*
X117942940Y-56818597D01*
X117942940Y-56818597D02*
X117747088Y-56804777D01*
X117747088Y-56804777D02*
X117606402Y-56829584D01*
X117606402Y-56829584D02*
X117427088Y-56909556D01*
X117427088Y-56909556D02*
X117341566Y-56972989D01*
X117341566Y-56972989D02*
X117264313Y-57083318D01*
X117264313Y-57083318D02*
X117242224Y-57232274D01*
X117242224Y-57232274D02*
X117283569Y-57466752D01*
X117018962Y-55966093D02*
X117118189Y-56528840D01*
X117068576Y-56247466D02*
X118053383Y-56073818D01*
X118053383Y-56073818D02*
X117929235Y-56192416D01*
X117929235Y-56192416D02*
X117851981Y-56302745D01*
X117851981Y-56302745D02*
X117821624Y-56404805D01*
X117482482Y-55304118D02*
X117545915Y-55389640D01*
X117545915Y-55389640D02*
X117601080Y-55428267D01*
X117601080Y-55428267D02*
X117703140Y-55458624D01*
X117703140Y-55458624D02*
X117750036Y-55450355D01*
X117750036Y-55450355D02*
X117835558Y-55386922D01*
X117835558Y-55386922D02*
X117874184Y-55331757D01*
X117874184Y-55331757D02*
X117904542Y-55229697D01*
X117904542Y-55229697D02*
X117871466Y-55042115D01*
X117871466Y-55042115D02*
X117808033Y-54956592D01*
X117808033Y-54956592D02*
X117752868Y-54917966D01*
X117752868Y-54917966D02*
X117650808Y-54887608D01*
X117650808Y-54887608D02*
X117603912Y-54895877D01*
X117603912Y-54895877D02*
X117518390Y-54959311D01*
X117518390Y-54959311D02*
X117479764Y-55014475D01*
X117479764Y-55014475D02*
X117449406Y-55116535D01*
X117449406Y-55116535D02*
X117482482Y-55304118D01*
X117482482Y-55304118D02*
X117452124Y-55406178D01*
X117452124Y-55406178D02*
X117413497Y-55461342D01*
X117413497Y-55461342D02*
X117327975Y-55524776D01*
X117327975Y-55524776D02*
X117140393Y-55557852D01*
X117140393Y-55557852D02*
X117038332Y-55527494D01*
X117038332Y-55527494D02*
X116983168Y-55488868D01*
X116983168Y-55488868D02*
X116919734Y-55403345D01*
X116919734Y-55403345D02*
X116886659Y-55215763D01*
X116886659Y-55215763D02*
X116917016Y-55113703D01*
X116917016Y-55113703D02*
X116955643Y-55058538D01*
X116955643Y-55058538D02*
X117041165Y-54995105D01*
X117041165Y-54995105D02*
X117228748Y-54962029D01*
X117228748Y-54962029D02*
X117330808Y-54992386D01*
X117330808Y-54992386D02*
X117385972Y-55031013D01*
X117385972Y-55031013D02*
X117449406Y-55116535D01*
X101784827Y-74241988D02*
X101308636Y-73908655D01*
X101784827Y-73670560D02*
X100784827Y-73670560D01*
X100784827Y-73670560D02*
X100784827Y-74051512D01*
X100784827Y-74051512D02*
X100832446Y-74146750D01*
X100832446Y-74146750D02*
X100880065Y-74194369D01*
X100880065Y-74194369D02*
X100975303Y-74241988D01*
X100975303Y-74241988D02*
X101118160Y-74241988D01*
X101118160Y-74241988D02*
X101213398Y-74194369D01*
X101213398Y-74194369D02*
X101261017Y-74146750D01*
X101261017Y-74146750D02*
X101308636Y-74051512D01*
X101308636Y-74051512D02*
X101308636Y-73670560D01*
X101784827Y-75194369D02*
X101784827Y-74622941D01*
X101784827Y-74908655D02*
X100784827Y-74908655D01*
X100784827Y-74908655D02*
X100927684Y-74813417D01*
X100927684Y-74813417D02*
X101022922Y-74718179D01*
X101022922Y-74718179D02*
X101070541Y-74622941D01*
X146827796Y-52257313D02*
X147812603Y-52083665D01*
X147812603Y-52083665D02*
X147771259Y-51849187D01*
X147771259Y-51849187D02*
X147699556Y-51716769D01*
X147699556Y-51716769D02*
X147589227Y-51639516D01*
X147589227Y-51639516D02*
X147487167Y-51609158D01*
X147487167Y-51609158D02*
X147291315Y-51595338D01*
X147291315Y-51595338D02*
X147150629Y-51620145D01*
X147150629Y-51620145D02*
X146971315Y-51700117D01*
X146971315Y-51700117D02*
X146885793Y-51763550D01*
X146885793Y-51763550D02*
X146808540Y-51873879D01*
X146808540Y-51873879D02*
X146786451Y-52022835D01*
X146786451Y-52022835D02*
X146827796Y-52257313D01*
X146563189Y-50756654D02*
X146662416Y-51319401D01*
X146612803Y-51038027D02*
X147597610Y-50864379D01*
X147597610Y-50864379D02*
X147473462Y-50982977D01*
X147473462Y-50982977D02*
X147396208Y-51093306D01*
X147396208Y-51093306D02*
X147365851Y-51195366D01*
X147388054Y-50224378D02*
X147426680Y-50169214D01*
X147426680Y-50169214D02*
X147457038Y-50067154D01*
X147457038Y-50067154D02*
X147415693Y-49832676D01*
X147415693Y-49832676D02*
X147352260Y-49747153D01*
X147352260Y-49747153D02*
X147297095Y-49708527D01*
X147297095Y-49708527D02*
X147195035Y-49678169D01*
X147195035Y-49678169D02*
X147101244Y-49694707D01*
X147101244Y-49694707D02*
X146968826Y-49766409D01*
X146968826Y-49766409D02*
X146505306Y-50428384D01*
X146505306Y-50428384D02*
X146397810Y-49818741D01*
X80616076Y-47536630D02*
X79631268Y-47362981D01*
X79631268Y-47362981D02*
X79589923Y-47597459D01*
X79589923Y-47597459D02*
X79612012Y-47746415D01*
X79612012Y-47746415D02*
X79689265Y-47856744D01*
X79689265Y-47856744D02*
X79774787Y-47920178D01*
X79774787Y-47920178D02*
X79954101Y-48000149D01*
X79954101Y-48000149D02*
X80094788Y-48024956D01*
X80094788Y-48024956D02*
X80290639Y-48011136D01*
X80290639Y-48011136D02*
X80392699Y-47980779D01*
X80392699Y-47980779D02*
X80503028Y-47903525D01*
X80503028Y-47903525D02*
X80574731Y-47771108D01*
X80574731Y-47771108D02*
X80616076Y-47536630D01*
X79474158Y-48253998D02*
X79358392Y-48910536D01*
X79358392Y-48910536D02*
X80417621Y-48662124D01*
X148564279Y-62105386D02*
X149549086Y-61931738D01*
X149549086Y-61931738D02*
X149507742Y-61697260D01*
X149507742Y-61697260D02*
X149436039Y-61564842D01*
X149436039Y-61564842D02*
X149325710Y-61487589D01*
X149325710Y-61487589D02*
X149223650Y-61457231D01*
X149223650Y-61457231D02*
X149027798Y-61443411D01*
X149027798Y-61443411D02*
X148887112Y-61468218D01*
X148887112Y-61468218D02*
X148707798Y-61548190D01*
X148707798Y-61548190D02*
X148622276Y-61611623D01*
X148622276Y-61611623D02*
X148545023Y-61721952D01*
X148545023Y-61721952D02*
X148522934Y-61870908D01*
X148522934Y-61870908D02*
X148564279Y-62105386D01*
X149289916Y-61010364D02*
X149328543Y-60955199D01*
X149328543Y-60955199D02*
X149358900Y-60853139D01*
X149358900Y-60853139D02*
X149317556Y-60618661D01*
X149317556Y-60618661D02*
X149254122Y-60533139D01*
X149254122Y-60533139D02*
X149198957Y-60494512D01*
X149198957Y-60494512D02*
X149096897Y-60464154D01*
X149096897Y-60464154D02*
X149003106Y-60480692D01*
X149003106Y-60480692D02*
X148870688Y-60552395D01*
X148870688Y-60552395D02*
X148407168Y-61214369D01*
X148407168Y-61214369D02*
X148299672Y-60604727D01*
X149124537Y-60072451D02*
X149163163Y-60017287D01*
X149163163Y-60017287D02*
X149193521Y-59915227D01*
X149193521Y-59915227D02*
X149152176Y-59680749D01*
X149152176Y-59680749D02*
X149088743Y-59595226D01*
X149088743Y-59595226D02*
X149033578Y-59556600D01*
X149033578Y-59556600D02*
X148931518Y-59526242D01*
X148931518Y-59526242D02*
X148837727Y-59542780D01*
X148837727Y-59542780D02*
X148705309Y-59614482D01*
X148705309Y-59614482D02*
X148241789Y-60276457D01*
X148241789Y-60276457D02*
X148134293Y-59666814D01*
X50836081Y-43705063D02*
X51009729Y-42720255D01*
X50927039Y-43189212D02*
X50364292Y-43089984D01*
X50273333Y-43605836D02*
X50446982Y-42621028D01*
X49288526Y-43432187D02*
X49851273Y-43531415D01*
X49569899Y-43481801D02*
X49743548Y-42496994D01*
X49743548Y-42496994D02*
X49812532Y-42654218D01*
X49812532Y-42654218D02*
X49889785Y-42764547D01*
X49889785Y-42764547D02*
X49975307Y-42827981D01*
X89493344Y-75094902D02*
X89540963Y-75142522D01*
X89540963Y-75142522D02*
X89683820Y-75190141D01*
X89683820Y-75190141D02*
X89779058Y-75190141D01*
X89779058Y-75190141D02*
X89921915Y-75142522D01*
X89921915Y-75142522D02*
X90017153Y-75047283D01*
X90017153Y-75047283D02*
X90064772Y-74952045D01*
X90064772Y-74952045D02*
X90112391Y-74761569D01*
X90112391Y-74761569D02*
X90112391Y-74618712D01*
X90112391Y-74618712D02*
X90064772Y-74428236D01*
X90064772Y-74428236D02*
X90017153Y-74332998D01*
X90017153Y-74332998D02*
X89921915Y-74237760D01*
X89921915Y-74237760D02*
X89779058Y-74190141D01*
X89779058Y-74190141D02*
X89683820Y-74190141D01*
X89683820Y-74190141D02*
X89540963Y-74237760D01*
X89540963Y-74237760D02*
X89493344Y-74285379D01*
X88540963Y-75190141D02*
X89112391Y-75190141D01*
X88826677Y-75190141D02*
X88826677Y-74190141D01*
X88826677Y-74190141D02*
X88921915Y-74332998D01*
X88921915Y-74332998D02*
X89017153Y-74428236D01*
X89017153Y-74428236D02*
X89112391Y-74475855D01*
X93243881Y-58427217D02*
X93243881Y-58494561D01*
X93243881Y-58494561D02*
X93311225Y-58629248D01*
X93311225Y-58629248D02*
X93378568Y-58696591D01*
X93378568Y-58696591D02*
X93513255Y-58763935D01*
X93513255Y-58763935D02*
X93647942Y-58763935D01*
X93647942Y-58763935D02*
X93748957Y-58730263D01*
X93748957Y-58730263D02*
X93917316Y-58629248D01*
X93917316Y-58629248D02*
X94018331Y-58528233D01*
X94018331Y-58528233D02*
X94119347Y-58359874D01*
X94119347Y-58359874D02*
X94153018Y-58258859D01*
X94153018Y-58258859D02*
X94153018Y-58124172D01*
X94153018Y-58124172D02*
X94085675Y-57989485D01*
X94085675Y-57989485D02*
X94018331Y-57922141D01*
X94018331Y-57922141D02*
X93883644Y-57854798D01*
X93883644Y-57854798D02*
X93816301Y-57854798D01*
X93546927Y-57585424D02*
X93546927Y-57518080D01*
X93546927Y-57518080D02*
X93513255Y-57417065D01*
X93513255Y-57417065D02*
X93344896Y-57248706D01*
X93344896Y-57248706D02*
X93243881Y-57215034D01*
X93243881Y-57215034D02*
X93176538Y-57215034D01*
X93176538Y-57215034D02*
X93075522Y-57248706D01*
X93075522Y-57248706D02*
X93008179Y-57316050D01*
X93008179Y-57316050D02*
X92940835Y-57450737D01*
X92940835Y-57450737D02*
X92940835Y-58258859D01*
X92940835Y-58258859D02*
X92503103Y-57821126D01*
X125312472Y-45413237D02*
X126297280Y-45239589D01*
X126297280Y-45239589D02*
X126255935Y-45005111D01*
X126255935Y-45005111D02*
X126184232Y-44872693D01*
X126184232Y-44872693D02*
X126073903Y-44795440D01*
X126073903Y-44795440D02*
X125971843Y-44765082D01*
X125971843Y-44765082D02*
X125775992Y-44751263D01*
X125775992Y-44751263D02*
X125635305Y-44776070D01*
X125635305Y-44776070D02*
X125455991Y-44856041D01*
X125455991Y-44856041D02*
X125370469Y-44919474D01*
X125370469Y-44919474D02*
X125293216Y-45029804D01*
X125293216Y-45029804D02*
X125271127Y-45178759D01*
X125271127Y-45178759D02*
X125312472Y-45413237D01*
X126049211Y-43832721D02*
X126082287Y-44020303D01*
X126082287Y-44020303D02*
X126051929Y-44122364D01*
X126051929Y-44122364D02*
X126013302Y-44177528D01*
X126013302Y-44177528D02*
X125889154Y-44296126D01*
X125889154Y-44296126D02*
X125709840Y-44376098D01*
X125709840Y-44376098D02*
X125334675Y-44442249D01*
X125334675Y-44442249D02*
X125232615Y-44411892D01*
X125232615Y-44411892D02*
X125177450Y-44373265D01*
X125177450Y-44373265D02*
X125114017Y-44287743D01*
X125114017Y-44287743D02*
X125080941Y-44100160D01*
X125080941Y-44100160D02*
X125111299Y-43998100D01*
X125111299Y-43998100D02*
X125149925Y-43942936D01*
X125149925Y-43942936D02*
X125235448Y-43879502D01*
X125235448Y-43879502D02*
X125469926Y-43838157D01*
X125469926Y-43838157D02*
X125571986Y-43868515D01*
X125571986Y-43868515D02*
X125627150Y-43907142D01*
X125627150Y-43907142D02*
X125690584Y-43992664D01*
X125690584Y-43992664D02*
X125723660Y-44180246D01*
X125723660Y-44180246D02*
X125693302Y-44282307D01*
X125693302Y-44282307D02*
X125654675Y-44337471D01*
X125654675Y-44337471D02*
X125569153Y-44400905D01*
X86133882Y-76765796D02*
X86181501Y-76908653D01*
X86181501Y-76908653D02*
X86181501Y-77146748D01*
X86181501Y-77146748D02*
X86133882Y-77241986D01*
X86133882Y-77241986D02*
X86086262Y-77289605D01*
X86086262Y-77289605D02*
X85991024Y-77337224D01*
X85991024Y-77337224D02*
X85895786Y-77337224D01*
X85895786Y-77337224D02*
X85800548Y-77289605D01*
X85800548Y-77289605D02*
X85752929Y-77241986D01*
X85752929Y-77241986D02*
X85705310Y-77146748D01*
X85705310Y-77146748D02*
X85657691Y-76956272D01*
X85657691Y-76956272D02*
X85610072Y-76861034D01*
X85610072Y-76861034D02*
X85562453Y-76813415D01*
X85562453Y-76813415D02*
X85467215Y-76765796D01*
X85467215Y-76765796D02*
X85371977Y-76765796D01*
X85371977Y-76765796D02*
X85276739Y-76813415D01*
X85276739Y-76813415D02*
X85229120Y-76861034D01*
X85229120Y-76861034D02*
X85181501Y-76956272D01*
X85181501Y-76956272D02*
X85181501Y-77194367D01*
X85181501Y-77194367D02*
X85229120Y-77337224D01*
X85181501Y-77670558D02*
X86181501Y-77908653D01*
X86181501Y-77908653D02*
X85467215Y-78099129D01*
X85467215Y-78099129D02*
X86181501Y-78289605D01*
X86181501Y-78289605D02*
X85181501Y-78527701D01*
X85514834Y-79337224D02*
X86181501Y-79337224D01*
X85133882Y-79099129D02*
X85848167Y-78861034D01*
X85848167Y-78861034D02*
X85848167Y-79480081D01*
X85276739Y-79813415D02*
X85229120Y-79861034D01*
X85229120Y-79861034D02*
X85181501Y-79956272D01*
X85181501Y-79956272D02*
X85181501Y-80194367D01*
X85181501Y-80194367D02*
X85229120Y-80289605D01*
X85229120Y-80289605D02*
X85276739Y-80337224D01*
X85276739Y-80337224D02*
X85371977Y-80384843D01*
X85371977Y-80384843D02*
X85467215Y-80384843D01*
X85467215Y-80384843D02*
X85610072Y-80337224D01*
X85610072Y-80337224D02*
X86181501Y-79765796D01*
X86181501Y-79765796D02*
X86181501Y-80384843D01*
X145008626Y-41940278D02*
X145993434Y-41766630D01*
X145993434Y-41766630D02*
X145952089Y-41532152D01*
X145952089Y-41532152D02*
X145880386Y-41399734D01*
X145880386Y-41399734D02*
X145770057Y-41322481D01*
X145770057Y-41322481D02*
X145667997Y-41292123D01*
X145667997Y-41292123D02*
X145472146Y-41278304D01*
X145472146Y-41278304D02*
X145331459Y-41303111D01*
X145331459Y-41303111D02*
X145152145Y-41383082D01*
X145152145Y-41383082D02*
X145066623Y-41446515D01*
X145066623Y-41446515D02*
X144989370Y-41556845D01*
X144989370Y-41556845D02*
X144967281Y-41705800D01*
X144967281Y-41705800D02*
X145008626Y-41940278D01*
X145734263Y-40845256D02*
X145772890Y-40790091D01*
X145772890Y-40790091D02*
X145803248Y-40688031D01*
X145803248Y-40688031D02*
X145761903Y-40453553D01*
X145761903Y-40453553D02*
X145698469Y-40368031D01*
X145698469Y-40368031D02*
X145643305Y-40329404D01*
X145643305Y-40329404D02*
X145541245Y-40299047D01*
X145541245Y-40299047D02*
X145447453Y-40315585D01*
X145447453Y-40315585D02*
X145315035Y-40387287D01*
X145315035Y-40387287D02*
X144851516Y-41049262D01*
X144851516Y-41049262D02*
X144744019Y-40439619D01*
X136979719Y-53993790D02*
X137964526Y-53820142D01*
X137964526Y-53820142D02*
X137923182Y-53585664D01*
X137923182Y-53585664D02*
X137851479Y-53453246D01*
X137851479Y-53453246D02*
X137741150Y-53375993D01*
X137741150Y-53375993D02*
X137639090Y-53345635D01*
X137639090Y-53345635D02*
X137443238Y-53331815D01*
X137443238Y-53331815D02*
X137302552Y-53356622D01*
X137302552Y-53356622D02*
X137123238Y-53436594D01*
X137123238Y-53436594D02*
X137037716Y-53500027D01*
X137037716Y-53500027D02*
X136960463Y-53610356D01*
X136960463Y-53610356D02*
X136938374Y-53759312D01*
X136938374Y-53759312D02*
X136979719Y-53993790D01*
X136715112Y-52493131D02*
X136814339Y-53055878D01*
X136764726Y-52774504D02*
X137749533Y-52600856D01*
X137749533Y-52600856D02*
X137625385Y-52719454D01*
X137625385Y-52719454D02*
X137548131Y-52829783D01*
X137548131Y-52829783D02*
X137517774Y-52931843D01*
X137222809Y-51533244D02*
X136566271Y-51649010D01*
X137639319Y-51701571D02*
X136977229Y-52060083D01*
X136977229Y-52060083D02*
X136869733Y-51450440D01*
X49418051Y-51706308D02*
X48433244Y-51532660D01*
X48433244Y-51532660D02*
X48391899Y-51767138D01*
X48391899Y-51767138D02*
X48413988Y-51916094D01*
X48413988Y-51916094D02*
X48491241Y-52026423D01*
X48491241Y-52026423D02*
X48576763Y-52089856D01*
X48576763Y-52089856D02*
X48756077Y-52169828D01*
X48756077Y-52169828D02*
X48896763Y-52194635D01*
X48896763Y-52194635D02*
X49092615Y-52180815D01*
X49092615Y-52180815D02*
X49194675Y-52150457D01*
X49194675Y-52150457D02*
X49305004Y-52073204D01*
X49305004Y-52073204D02*
X49376707Y-51940786D01*
X49376707Y-51940786D02*
X49418051Y-51706308D01*
X49153445Y-53206967D02*
X49252672Y-52644220D01*
X49203058Y-52925594D02*
X48218251Y-52751946D01*
X48218251Y-52751946D02*
X48375475Y-52682961D01*
X48375475Y-52682961D02*
X48485804Y-52605708D01*
X48485804Y-52605708D02*
X48549238Y-52520186D01*
X48988065Y-54144880D02*
X49087293Y-53582132D01*
X49037679Y-53863506D02*
X48052871Y-53689858D01*
X48052871Y-53689858D02*
X48210096Y-53620873D01*
X48210096Y-53620873D02*
X48320425Y-53543620D01*
X48320425Y-53543620D02*
X48383859Y-53458098D01*
X88810362Y-58652232D02*
X87825555Y-58478584D01*
X87825555Y-58478584D02*
X87784210Y-58713062D01*
X87784210Y-58713062D02*
X87806299Y-58862018D01*
X87806299Y-58862018D02*
X87883552Y-58972347D01*
X87883552Y-58972347D02*
X87969074Y-59035780D01*
X87969074Y-59035780D02*
X88148388Y-59115752D01*
X88148388Y-59115752D02*
X88289074Y-59140559D01*
X88289074Y-59140559D02*
X88484926Y-59126739D01*
X88484926Y-59126739D02*
X88586986Y-59096381D01*
X88586986Y-59096381D02*
X88697315Y-59019128D01*
X88697315Y-59019128D02*
X88769018Y-58886710D01*
X88769018Y-58886710D02*
X88810362Y-58652232D01*
X88545756Y-60152891D02*
X88644983Y-59590144D01*
X88595369Y-59871518D02*
X87610562Y-59697870D01*
X87610562Y-59697870D02*
X87767786Y-59628885D01*
X87767786Y-59628885D02*
X87878115Y-59551632D01*
X87878115Y-59551632D02*
X87941549Y-59466110D01*
X88463066Y-60621848D02*
X88429990Y-60809430D01*
X88429990Y-60809430D02*
X88366557Y-60894952D01*
X88366557Y-60894952D02*
X88311392Y-60933579D01*
X88311392Y-60933579D02*
X88154167Y-61002563D01*
X88154167Y-61002563D02*
X87958316Y-61016383D01*
X87958316Y-61016383D02*
X87583151Y-60950231D01*
X87583151Y-60950231D02*
X87497629Y-60886798D01*
X87497629Y-60886798D02*
X87459002Y-60831633D01*
X87459002Y-60831633D02*
X87428644Y-60729573D01*
X87428644Y-60729573D02*
X87461720Y-60541991D01*
X87461720Y-60541991D02*
X87525154Y-60456468D01*
X87525154Y-60456468D02*
X87580318Y-60417842D01*
X87580318Y-60417842D02*
X87682379Y-60387484D01*
X87682379Y-60387484D02*
X87916857Y-60428829D01*
X87916857Y-60428829D02*
X88002379Y-60492262D01*
X88002379Y-60492262D02*
X88041006Y-60547427D01*
X88041006Y-60547427D02*
X88071363Y-60649487D01*
X88071363Y-60649487D02*
X88038287Y-60837069D01*
X88038287Y-60837069D02*
X87974854Y-60922592D01*
X87974854Y-60922592D02*
X87919689Y-60961218D01*
X87919689Y-60961218D02*
X87817629Y-60991576D01*
X85337395Y-78348387D02*
X84352588Y-78174739D01*
X84352588Y-78174739D02*
X84311243Y-78409217D01*
X84311243Y-78409217D02*
X84333332Y-78558173D01*
X84333332Y-78558173D02*
X84410585Y-78668502D01*
X84410585Y-78668502D02*
X84496107Y-78731935D01*
X84496107Y-78731935D02*
X84675421Y-78811907D01*
X84675421Y-78811907D02*
X84816107Y-78836714D01*
X84816107Y-78836714D02*
X85011959Y-78822894D01*
X85011959Y-78822894D02*
X85114019Y-78792536D01*
X85114019Y-78792536D02*
X85224348Y-78715283D01*
X85224348Y-78715283D02*
X85296051Y-78582865D01*
X85296051Y-78582865D02*
X85337395Y-78348387D01*
X84195477Y-79065755D02*
X84087981Y-79675398D01*
X84087981Y-79675398D02*
X84521028Y-79413281D01*
X84521028Y-79413281D02*
X84496222Y-79553967D01*
X84496222Y-79553967D02*
X84526579Y-79656028D01*
X84526579Y-79656028D02*
X84565206Y-79711192D01*
X84565206Y-79711192D02*
X84650728Y-79774626D01*
X84650728Y-79774626D02*
X84885206Y-79815971D01*
X84885206Y-79815971D02*
X84987266Y-79785613D01*
X84987266Y-79785613D02*
X85042431Y-79746986D01*
X85042431Y-79746986D02*
X85105864Y-79661464D01*
X85105864Y-79661464D02*
X85155478Y-79380090D01*
X85155478Y-79380090D02*
X85125121Y-79278030D01*
X85125121Y-79278030D02*
X85086494Y-79222866D01*
X84990099Y-80318003D02*
X84957023Y-80505585D01*
X84957023Y-80505585D02*
X84893590Y-80591107D01*
X84893590Y-80591107D02*
X84838425Y-80629734D01*
X84838425Y-80629734D02*
X84681200Y-80698718D01*
X84681200Y-80698718D02*
X84485349Y-80712538D01*
X84485349Y-80712538D02*
X84110184Y-80646386D01*
X84110184Y-80646386D02*
X84024662Y-80582953D01*
X84024662Y-80582953D02*
X83986035Y-80527788D01*
X83986035Y-80527788D02*
X83955677Y-80425728D01*
X83955677Y-80425728D02*
X83988753Y-80238146D01*
X83988753Y-80238146D02*
X84052187Y-80152623D01*
X84052187Y-80152623D02*
X84107351Y-80113997D01*
X84107351Y-80113997D02*
X84209412Y-80083639D01*
X84209412Y-80083639D02*
X84443890Y-80124984D01*
X84443890Y-80124984D02*
X84529412Y-80188417D01*
X84529412Y-80188417D02*
X84568039Y-80243582D01*
X84568039Y-80243582D02*
X84598396Y-80345642D01*
X84598396Y-80345642D02*
X84565320Y-80533224D01*
X84565320Y-80533224D02*
X84501887Y-80618747D01*
X84501887Y-80618747D02*
X84446722Y-80657373D01*
X84446722Y-80657373D02*
X84344662Y-80687731D01*
X59266128Y-53442786D02*
X58281321Y-53269138D01*
X58281321Y-53269138D02*
X58239976Y-53503616D01*
X58239976Y-53503616D02*
X58262065Y-53652572D01*
X58262065Y-53652572D02*
X58339318Y-53762901D01*
X58339318Y-53762901D02*
X58424840Y-53826334D01*
X58424840Y-53826334D02*
X58604154Y-53906306D01*
X58604154Y-53906306D02*
X58744840Y-53931113D01*
X58744840Y-53931113D02*
X58940692Y-53917293D01*
X58940692Y-53917293D02*
X59042752Y-53886935D01*
X59042752Y-53886935D02*
X59153081Y-53809682D01*
X59153081Y-53809682D02*
X59224784Y-53677264D01*
X59224784Y-53677264D02*
X59266128Y-53442786D01*
X59001522Y-54943445D02*
X59100749Y-54380698D01*
X59051135Y-54662072D02*
X58066328Y-54488424D01*
X58066328Y-54488424D02*
X58223552Y-54419439D01*
X58223552Y-54419439D02*
X58333881Y-54342186D01*
X58333881Y-54342186D02*
X58397315Y-54256664D01*
X57958831Y-55098067D02*
X57851335Y-55707709D01*
X57851335Y-55707709D02*
X58284382Y-55445592D01*
X58284382Y-55445592D02*
X58259575Y-55586279D01*
X58259575Y-55586279D02*
X58289933Y-55688339D01*
X58289933Y-55688339D02*
X58328560Y-55743503D01*
X58328560Y-55743503D02*
X58414082Y-55806937D01*
X58414082Y-55806937D02*
X58648560Y-55848282D01*
X58648560Y-55848282D02*
X58750620Y-55817924D01*
X58750620Y-55817924D02*
X58805785Y-55779297D01*
X58805785Y-55779297D02*
X58869218Y-55693775D01*
X58869218Y-55693775D02*
X58918832Y-55412402D01*
X58918832Y-55412402D02*
X58888474Y-55310341D01*
X58888474Y-55310341D02*
X58849848Y-55255177D01*
X97452406Y-72332006D02*
X97519750Y-72332006D01*
X97519750Y-72332006D02*
X97654437Y-72264662D01*
X97654437Y-72264662D02*
X97721780Y-72197319D01*
X97721780Y-72197319D02*
X97789124Y-72062632D01*
X97789124Y-72062632D02*
X97789124Y-71927945D01*
X97789124Y-71927945D02*
X97755452Y-71826930D01*
X97755452Y-71826930D02*
X97654437Y-71658571D01*
X97654437Y-71658571D02*
X97553422Y-71557556D01*
X97553422Y-71557556D02*
X97385063Y-71456540D01*
X97385063Y-71456540D02*
X97284048Y-71422869D01*
X97284048Y-71422869D02*
X97149361Y-71422869D01*
X97149361Y-71422869D02*
X97014674Y-71490212D01*
X97014674Y-71490212D02*
X96947330Y-71557556D01*
X96947330Y-71557556D02*
X96879987Y-71692243D01*
X96879987Y-71692243D02*
X96879987Y-71759586D01*
X96576941Y-71927945D02*
X96139208Y-72365678D01*
X96139208Y-72365678D02*
X96644284Y-72399349D01*
X96644284Y-72399349D02*
X96543269Y-72500365D01*
X96543269Y-72500365D02*
X96509597Y-72601380D01*
X96509597Y-72601380D02*
X96509597Y-72668723D01*
X96509597Y-72668723D02*
X96543269Y-72769739D01*
X96543269Y-72769739D02*
X96711628Y-72938097D01*
X96711628Y-72938097D02*
X96812643Y-72971769D01*
X96812643Y-72971769D02*
X96879987Y-72971769D01*
X96879987Y-72971769D02*
X96981002Y-72938097D01*
X96981002Y-72938097D02*
X97183032Y-72736067D01*
X97183032Y-72736067D02*
X97216704Y-72635052D01*
X97216704Y-72635052D02*
X97216704Y-72567708D01*
X45945088Y-71402462D02*
X44960281Y-71228814D01*
X44960281Y-71228814D02*
X44918936Y-71463292D01*
X44918936Y-71463292D02*
X44941025Y-71612248D01*
X44941025Y-71612248D02*
X45018278Y-71722577D01*
X45018278Y-71722577D02*
X45103800Y-71786010D01*
X45103800Y-71786010D02*
X45283114Y-71865982D01*
X45283114Y-71865982D02*
X45423800Y-71890789D01*
X45423800Y-71890789D02*
X45619652Y-71876969D01*
X45619652Y-71876969D02*
X45721712Y-71846611D01*
X45721712Y-71846611D02*
X45832041Y-71769358D01*
X45832041Y-71769358D02*
X45903744Y-71636940D01*
X45903744Y-71636940D02*
X45945088Y-71402462D01*
X44803170Y-72119830D02*
X44695674Y-72729473D01*
X44695674Y-72729473D02*
X45128721Y-72467356D01*
X45128721Y-72467356D02*
X45103915Y-72608042D01*
X45103915Y-72608042D02*
X45134272Y-72710103D01*
X45134272Y-72710103D02*
X45172899Y-72765267D01*
X45172899Y-72765267D02*
X45258421Y-72828701D01*
X45258421Y-72828701D02*
X45492899Y-72870046D01*
X45492899Y-72870046D02*
X45594959Y-72839688D01*
X45594959Y-72839688D02*
X45650124Y-72801061D01*
X45650124Y-72801061D02*
X45713557Y-72715539D01*
X45713557Y-72715539D02*
X45763171Y-72434165D01*
X45763171Y-72434165D02*
X45732814Y-72332105D01*
X45732814Y-72332105D02*
X45694187Y-72276941D01*
X45515102Y-73841034D02*
X45614330Y-73278286D01*
X45564716Y-73559660D02*
X44579908Y-73386012D01*
X44579908Y-73386012D02*
X44737133Y-73317027D01*
X44737133Y-73317027D02*
X44847462Y-73239774D01*
X44847462Y-73239774D02*
X44910896Y-73154252D01*
X110908451Y-78899392D02*
X111893258Y-78725744D01*
X111893258Y-78725744D02*
X111851914Y-78491266D01*
X111851914Y-78491266D02*
X111780211Y-78358848D01*
X111780211Y-78358848D02*
X111669882Y-78281595D01*
X111669882Y-78281595D02*
X111567822Y-78251237D01*
X111567822Y-78251237D02*
X111371970Y-78237417D01*
X111371970Y-78237417D02*
X111231284Y-78262224D01*
X111231284Y-78262224D02*
X111051970Y-78342196D01*
X111051970Y-78342196D02*
X110966448Y-78405629D01*
X110966448Y-78405629D02*
X110889195Y-78515958D01*
X110889195Y-78515958D02*
X110867106Y-78664914D01*
X110867106Y-78664914D02*
X110908451Y-78899392D01*
X111316920Y-77376758D02*
X110660382Y-77492524D01*
X111733430Y-77545085D02*
X111071341Y-77903597D01*
X111071341Y-77903597D02*
X110963844Y-77293954D01*
X111521155Y-76615441D02*
X111504617Y-76521650D01*
X111504617Y-76521650D02*
X111441184Y-76436128D01*
X111441184Y-76436128D02*
X111386019Y-76397501D01*
X111386019Y-76397501D02*
X111283959Y-76367144D01*
X111283959Y-76367144D02*
X111088108Y-76353324D01*
X111088108Y-76353324D02*
X110853630Y-76394669D01*
X110853630Y-76394669D02*
X110674316Y-76474640D01*
X110674316Y-76474640D02*
X110588794Y-76538074D01*
X110588794Y-76538074D02*
X110550167Y-76593238D01*
X110550167Y-76593238D02*
X110519810Y-76695298D01*
X110519810Y-76695298D02*
X110536347Y-76789090D01*
X110536347Y-76789090D02*
X110599781Y-76874612D01*
X110599781Y-76874612D02*
X110654946Y-76913239D01*
X110654946Y-76913239D02*
X110757006Y-76943596D01*
X110757006Y-76943596D02*
X110952857Y-76957416D01*
X110952857Y-76957416D02*
X111187335Y-76916071D01*
X111187335Y-76916071D02*
X111366649Y-76836100D01*
X111366649Y-76836100D02*
X111452171Y-76772666D01*
X111452171Y-76772666D02*
X111490798Y-76717502D01*
X111490798Y-76717502D02*
X111521155Y-76615441D01*
X127131642Y-55730270D02*
X128116449Y-55556622D01*
X128116449Y-55556622D02*
X128075105Y-55322144D01*
X128075105Y-55322144D02*
X128003402Y-55189726D01*
X128003402Y-55189726D02*
X127893073Y-55112473D01*
X127893073Y-55112473D02*
X127791013Y-55082115D01*
X127791013Y-55082115D02*
X127595161Y-55068295D01*
X127595161Y-55068295D02*
X127454475Y-55093102D01*
X127454475Y-55093102D02*
X127275161Y-55173074D01*
X127275161Y-55173074D02*
X127189639Y-55236507D01*
X127189639Y-55236507D02*
X127112386Y-55346836D01*
X127112386Y-55346836D02*
X127090297Y-55495792D01*
X127090297Y-55495792D02*
X127131642Y-55730270D01*
X126867035Y-54229611D02*
X126966262Y-54792358D01*
X126916649Y-54510984D02*
X127901456Y-54337336D01*
X127901456Y-54337336D02*
X127777308Y-54455934D01*
X127777308Y-54455934D02*
X127700054Y-54566263D01*
X127700054Y-54566263D02*
X127669697Y-54668323D01*
X127703001Y-53211841D02*
X127736077Y-53399424D01*
X127736077Y-53399424D02*
X127705720Y-53501484D01*
X127705720Y-53501484D02*
X127667093Y-53556649D01*
X127667093Y-53556649D02*
X127542944Y-53675247D01*
X127542944Y-53675247D02*
X127363631Y-53755218D01*
X127363631Y-53755218D02*
X126988466Y-53821370D01*
X126988466Y-53821370D02*
X126886405Y-53791012D01*
X126886405Y-53791012D02*
X126831241Y-53752386D01*
X126831241Y-53752386D02*
X126767807Y-53666863D01*
X126767807Y-53666863D02*
X126734732Y-53479281D01*
X126734732Y-53479281D02*
X126765089Y-53377221D01*
X126765089Y-53377221D02*
X126803716Y-53322056D01*
X126803716Y-53322056D02*
X126889238Y-53258623D01*
X126889238Y-53258623D02*
X127123716Y-53217278D01*
X127123716Y-53217278D02*
X127225776Y-53247635D01*
X127225776Y-53247635D02*
X127280941Y-53286262D01*
X127280941Y-53286262D02*
X127344374Y-53371784D01*
X127344374Y-53371784D02*
X127377450Y-53559367D01*
X127377450Y-53559367D02*
X127347093Y-53661427D01*
X127347093Y-53661427D02*
X127308466Y-53716592D01*
X127308466Y-53716592D02*
X127222944Y-53780025D01*
X69114205Y-55179267D02*
X68129398Y-55005619D01*
X68129398Y-55005619D02*
X68088053Y-55240097D01*
X68088053Y-55240097D02*
X68110142Y-55389053D01*
X68110142Y-55389053D02*
X68187395Y-55499382D01*
X68187395Y-55499382D02*
X68272917Y-55562815D01*
X68272917Y-55562815D02*
X68452231Y-55642787D01*
X68452231Y-55642787D02*
X68592917Y-55667594D01*
X68592917Y-55667594D02*
X68788769Y-55653774D01*
X68788769Y-55653774D02*
X68890829Y-55623416D01*
X68890829Y-55623416D02*
X69001158Y-55546163D01*
X69001158Y-55546163D02*
X69072861Y-55413745D01*
X69072861Y-55413745D02*
X69114205Y-55179267D01*
X68849599Y-56679926D02*
X68948826Y-56117179D01*
X68899212Y-56398553D02*
X67914405Y-56224905D01*
X67914405Y-56224905D02*
X68071629Y-56155920D01*
X68071629Y-56155920D02*
X68181958Y-56078667D01*
X68181958Y-56078667D02*
X68245392Y-55993145D01*
X67707681Y-57397295D02*
X67790370Y-56928339D01*
X67790370Y-56928339D02*
X68267595Y-56964133D01*
X68267595Y-56964133D02*
X68212431Y-57002759D01*
X68212431Y-57002759D02*
X68148997Y-57088282D01*
X68148997Y-57088282D02*
X68107652Y-57322760D01*
X68107652Y-57322760D02*
X68138010Y-57424820D01*
X68138010Y-57424820D02*
X68176637Y-57479984D01*
X68176637Y-57479984D02*
X68262159Y-57543418D01*
X68262159Y-57543418D02*
X68496637Y-57584763D01*
X68496637Y-57584763D02*
X68598697Y-57554405D01*
X68598697Y-57554405D02*
X68653862Y-57515778D01*
X68653862Y-57515778D02*
X68717295Y-57430256D01*
X68717295Y-57430256D02*
X68758640Y-57195778D01*
X68758640Y-57195778D02*
X68728282Y-57093718D01*
X68728282Y-57093718D02*
X68689656Y-57038553D01*
X99842307Y-35757484D02*
X100413735Y-35757484D01*
X100413735Y-35757484D02*
X100528021Y-35719389D01*
X100528021Y-35719389D02*
X100604212Y-35643198D01*
X100604212Y-35643198D02*
X100642307Y-35528913D01*
X100642307Y-35528913D02*
X100642307Y-35452722D01*
X100642307Y-36557484D02*
X100642307Y-36100341D01*
X100642307Y-36328913D02*
X99842307Y-36328913D01*
X99842307Y-36328913D02*
X99956592Y-36252722D01*
X99956592Y-36252722D02*
X100032783Y-36176532D01*
X100032783Y-36176532D02*
X100070878Y-36100341D01*
X87073880Y-68500308D02*
X86089073Y-68326660D01*
X86089073Y-68326660D02*
X86047728Y-68561138D01*
X86047728Y-68561138D02*
X86069817Y-68710094D01*
X86069817Y-68710094D02*
X86147070Y-68820423D01*
X86147070Y-68820423D02*
X86232592Y-68883856D01*
X86232592Y-68883856D02*
X86411906Y-68963828D01*
X86411906Y-68963828D02*
X86552592Y-68988635D01*
X86552592Y-68988635D02*
X86748444Y-68974815D01*
X86748444Y-68974815D02*
X86850504Y-68944457D01*
X86850504Y-68944457D02*
X86960833Y-68867204D01*
X86960833Y-68867204D02*
X87032536Y-68734786D01*
X87032536Y-68734786D02*
X87073880Y-68500308D01*
X86017485Y-69281110D02*
X85962320Y-69319737D01*
X85962320Y-69319737D02*
X85898886Y-69405259D01*
X85898886Y-69405259D02*
X85857542Y-69639737D01*
X85857542Y-69639737D02*
X85887899Y-69741797D01*
X85887899Y-69741797D02*
X85926526Y-69796962D01*
X85926526Y-69796962D02*
X86012048Y-69860395D01*
X86012048Y-69860395D02*
X86105839Y-69876933D01*
X86105839Y-69876933D02*
X86254795Y-69854844D01*
X86254795Y-69854844D02*
X86916770Y-69391325D01*
X86916770Y-69391325D02*
X86809274Y-70000967D01*
X86726584Y-70469924D02*
X86693508Y-70657506D01*
X86693508Y-70657506D02*
X86630075Y-70743028D01*
X86630075Y-70743028D02*
X86574910Y-70781655D01*
X86574910Y-70781655D02*
X86417685Y-70850639D01*
X86417685Y-70850639D02*
X86221834Y-70864459D01*
X86221834Y-70864459D02*
X85846669Y-70798307D01*
X85846669Y-70798307D02*
X85761147Y-70734874D01*
X85761147Y-70734874D02*
X85722520Y-70679709D01*
X85722520Y-70679709D02*
X85692162Y-70577649D01*
X85692162Y-70577649D02*
X85725238Y-70390067D01*
X85725238Y-70390067D02*
X85788672Y-70304544D01*
X85788672Y-70304544D02*
X85843836Y-70265918D01*
X85843836Y-70265918D02*
X85945897Y-70235560D01*
X85945897Y-70235560D02*
X86180375Y-70276905D01*
X86180375Y-70276905D02*
X86265897Y-70340338D01*
X86265897Y-70340338D02*
X86304524Y-70395503D01*
X86304524Y-70395503D02*
X86334881Y-70497563D01*
X86334881Y-70497563D02*
X86301805Y-70685145D01*
X86301805Y-70685145D02*
X86238372Y-70770668D01*
X86238372Y-70770668D02*
X86183207Y-70809294D01*
X86183207Y-70809294D02*
X86081147Y-70839652D01*
X115464393Y-47149721D02*
X116449201Y-46976073D01*
X116449201Y-46976073D02*
X116407856Y-46741595D01*
X116407856Y-46741595D02*
X116336153Y-46609177D01*
X116336153Y-46609177D02*
X116225824Y-46531924D01*
X116225824Y-46531924D02*
X116123764Y-46501566D01*
X116123764Y-46501566D02*
X115927913Y-46487747D01*
X115927913Y-46487747D02*
X115787226Y-46512554D01*
X115787226Y-46512554D02*
X115607912Y-46592525D01*
X115607912Y-46592525D02*
X115522390Y-46655958D01*
X115522390Y-46655958D02*
X115445137Y-46766288D01*
X115445137Y-46766288D02*
X115423048Y-46915243D01*
X115423048Y-46915243D02*
X115464393Y-47149721D01*
X115828685Y-45924999D02*
X115892119Y-46010522D01*
X115892119Y-46010522D02*
X115947283Y-46049148D01*
X115947283Y-46049148D02*
X116049343Y-46079506D01*
X116049343Y-46079506D02*
X116096239Y-46071237D01*
X116096239Y-46071237D02*
X116181761Y-46007803D01*
X116181761Y-46007803D02*
X116220388Y-45952639D01*
X116220388Y-45952639D02*
X116250746Y-45850579D01*
X116250746Y-45850579D02*
X116217670Y-45662996D01*
X116217670Y-45662996D02*
X116154236Y-45577474D01*
X116154236Y-45577474D02*
X116099072Y-45538847D01*
X116099072Y-45538847D02*
X115997012Y-45508490D01*
X115997012Y-45508490D02*
X115950116Y-45516759D01*
X115950116Y-45516759D02*
X115864594Y-45580192D01*
X115864594Y-45580192D02*
X115825967Y-45635357D01*
X115825967Y-45635357D02*
X115795609Y-45737417D01*
X115795609Y-45737417D02*
X115828685Y-45924999D01*
X115828685Y-45924999D02*
X115798328Y-46027060D01*
X115798328Y-46027060D02*
X115759701Y-46082224D01*
X115759701Y-46082224D02*
X115674179Y-46145658D01*
X115674179Y-46145658D02*
X115486596Y-46178733D01*
X115486596Y-46178733D02*
X115384536Y-46148376D01*
X115384536Y-46148376D02*
X115329371Y-46109749D01*
X115329371Y-46109749D02*
X115265938Y-46024227D01*
X115265938Y-46024227D02*
X115232862Y-45836644D01*
X115232862Y-45836644D02*
X115263220Y-45734584D01*
X115263220Y-45734584D02*
X115301846Y-45679420D01*
X115301846Y-45679420D02*
X115387369Y-45615986D01*
X115387369Y-45615986D02*
X115574951Y-45582910D01*
X115574951Y-45582910D02*
X115677011Y-45613268D01*
X115677011Y-45613268D02*
X115732176Y-45651895D01*
X115732176Y-45651895D02*
X115795609Y-45737417D01*
X120756525Y-77162909D02*
X121741332Y-76989261D01*
X121741332Y-76989261D02*
X121699988Y-76754783D01*
X121699988Y-76754783D02*
X121628285Y-76622365D01*
X121628285Y-76622365D02*
X121517956Y-76545112D01*
X121517956Y-76545112D02*
X121415896Y-76514754D01*
X121415896Y-76514754D02*
X121220044Y-76500934D01*
X121220044Y-76500934D02*
X121079358Y-76525741D01*
X121079358Y-76525741D02*
X120900044Y-76605713D01*
X120900044Y-76605713D02*
X120814522Y-76669146D01*
X120814522Y-76669146D02*
X120737269Y-76779475D01*
X120737269Y-76779475D02*
X120715180Y-76928431D01*
X120715180Y-76928431D02*
X120756525Y-77162909D01*
X121584222Y-76098244D02*
X121476726Y-75488601D01*
X121476726Y-75488601D02*
X121159444Y-75883022D01*
X121159444Y-75883022D02*
X121134637Y-75742336D01*
X121134637Y-75742336D02*
X121071203Y-75656813D01*
X121071203Y-75656813D02*
X121016039Y-75618187D01*
X121016039Y-75618187D02*
X120913978Y-75587829D01*
X120913978Y-75587829D02*
X120679500Y-75629174D01*
X120679500Y-75629174D02*
X120593978Y-75692607D01*
X120593978Y-75692607D02*
X120555351Y-75747772D01*
X120555351Y-75747772D02*
X120524994Y-75849832D01*
X120524994Y-75849832D02*
X120574608Y-76131206D01*
X120574608Y-76131206D02*
X120638041Y-76216728D01*
X120638041Y-76216728D02*
X120693206Y-76255355D01*
X120955438Y-75000275D02*
X121018871Y-75085797D01*
X121018871Y-75085797D02*
X121074036Y-75124424D01*
X121074036Y-75124424D02*
X121176096Y-75154781D01*
X121176096Y-75154781D02*
X121222992Y-75146512D01*
X121222992Y-75146512D02*
X121308514Y-75083079D01*
X121308514Y-75083079D02*
X121347140Y-75027914D01*
X121347140Y-75027914D02*
X121377498Y-74925854D01*
X121377498Y-74925854D02*
X121344422Y-74738272D01*
X121344422Y-74738272D02*
X121280989Y-74652749D01*
X121280989Y-74652749D02*
X121225824Y-74614123D01*
X121225824Y-74614123D02*
X121123764Y-74583765D01*
X121123764Y-74583765D02*
X121076868Y-74592034D01*
X121076868Y-74592034D02*
X120991346Y-74655468D01*
X120991346Y-74655468D02*
X120952720Y-74710632D01*
X120952720Y-74710632D02*
X120922362Y-74812692D01*
X120922362Y-74812692D02*
X120955438Y-75000275D01*
X120955438Y-75000275D02*
X120925080Y-75102335D01*
X120925080Y-75102335D02*
X120886453Y-75157499D01*
X120886453Y-75157499D02*
X120800931Y-75220933D01*
X120800931Y-75220933D02*
X120613349Y-75254009D01*
X120613349Y-75254009D02*
X120511288Y-75223651D01*
X120511288Y-75223651D02*
X120456124Y-75185025D01*
X120456124Y-75185025D02*
X120392690Y-75099502D01*
X120392690Y-75099502D02*
X120359615Y-74911920D01*
X120359615Y-74911920D02*
X120389972Y-74809860D01*
X120389972Y-74809860D02*
X120428599Y-74754695D01*
X120428599Y-74754695D02*
X120514121Y-74691262D01*
X120514121Y-74691262D02*
X120701704Y-74658186D01*
X120701704Y-74658186D02*
X120803764Y-74688543D01*
X120803764Y-74688543D02*
X120858928Y-74727170D01*
X120858928Y-74727170D02*
X120922362Y-74812692D01*
X128868124Y-65578351D02*
X129852931Y-65404703D01*
X129852931Y-65404703D02*
X129811587Y-65170225D01*
X129811587Y-65170225D02*
X129739884Y-65037807D01*
X129739884Y-65037807D02*
X129629555Y-64960554D01*
X129629555Y-64960554D02*
X129527495Y-64930196D01*
X129527495Y-64930196D02*
X129331643Y-64916376D01*
X129331643Y-64916376D02*
X129190957Y-64941183D01*
X129190957Y-64941183D02*
X129011643Y-65021155D01*
X129011643Y-65021155D02*
X128926121Y-65084588D01*
X128926121Y-65084588D02*
X128848868Y-65194917D01*
X128848868Y-65194917D02*
X128826779Y-65343873D01*
X128826779Y-65343873D02*
X128868124Y-65578351D01*
X129593761Y-64483329D02*
X129632388Y-64428164D01*
X129632388Y-64428164D02*
X129662745Y-64326104D01*
X129662745Y-64326104D02*
X129621401Y-64091626D01*
X129621401Y-64091626D02*
X129557967Y-64006104D01*
X129557967Y-64006104D02*
X129502802Y-63967477D01*
X129502802Y-63967477D02*
X129400742Y-63937119D01*
X129400742Y-63937119D02*
X129306951Y-63953657D01*
X129306951Y-63953657D02*
X129174533Y-64025360D01*
X129174533Y-64025360D02*
X128711013Y-64687334D01*
X128711013Y-64687334D02*
X128603517Y-64077692D01*
X129439483Y-63059922D02*
X129472559Y-63247505D01*
X129472559Y-63247505D02*
X129442202Y-63349565D01*
X129442202Y-63349565D02*
X129403575Y-63404730D01*
X129403575Y-63404730D02*
X129279426Y-63523328D01*
X129279426Y-63523328D02*
X129100113Y-63603299D01*
X129100113Y-63603299D02*
X128724948Y-63669451D01*
X128724948Y-63669451D02*
X128622887Y-63639093D01*
X128622887Y-63639093D02*
X128567723Y-63600467D01*
X128567723Y-63600467D02*
X128504289Y-63514944D01*
X128504289Y-63514944D02*
X128471214Y-63327362D01*
X128471214Y-63327362D02*
X128501571Y-63225302D01*
X128501571Y-63225302D02*
X128540198Y-63170137D01*
X128540198Y-63170137D02*
X128625720Y-63106704D01*
X128625720Y-63106704D02*
X128860198Y-63065359D01*
X128860198Y-63065359D02*
X128962258Y-63095716D01*
X128962258Y-63095716D02*
X129017423Y-63134343D01*
X129017423Y-63134343D02*
X129080856Y-63219865D01*
X129080856Y-63219865D02*
X129113932Y-63407448D01*
X129113932Y-63407448D02*
X129083575Y-63509508D01*
X129083575Y-63509508D02*
X129044948Y-63564673D01*
X129044948Y-63564673D02*
X128959426Y-63628106D01*
X77225799Y-66763827D02*
X76240992Y-66590179D01*
X76240992Y-66590179D02*
X76199647Y-66824657D01*
X76199647Y-66824657D02*
X76221736Y-66973613D01*
X76221736Y-66973613D02*
X76298989Y-67083942D01*
X76298989Y-67083942D02*
X76384511Y-67147375D01*
X76384511Y-67147375D02*
X76563825Y-67227347D01*
X76563825Y-67227347D02*
X76704511Y-67252154D01*
X76704511Y-67252154D02*
X76900363Y-67238334D01*
X76900363Y-67238334D02*
X77002423Y-67207976D01*
X77002423Y-67207976D02*
X77112752Y-67130723D01*
X77112752Y-67130723D02*
X77184455Y-66998305D01*
X77184455Y-66998305D02*
X77225799Y-66763827D01*
X76169404Y-67544629D02*
X76114239Y-67583256D01*
X76114239Y-67583256D02*
X76050805Y-67668778D01*
X76050805Y-67668778D02*
X76009461Y-67903256D01*
X76009461Y-67903256D02*
X76039818Y-68005316D01*
X76039818Y-68005316D02*
X76078445Y-68060481D01*
X76078445Y-68060481D02*
X76163967Y-68123914D01*
X76163967Y-68123914D02*
X76257758Y-68140452D01*
X76257758Y-68140452D02*
X76406714Y-68118363D01*
X76406714Y-68118363D02*
X77068689Y-67654844D01*
X77068689Y-67654844D02*
X76961193Y-68264486D01*
X75918502Y-68419108D02*
X75802737Y-69075646D01*
X75802737Y-69075646D02*
X76861965Y-68827234D01*
X138716203Y-63841869D02*
X139701010Y-63668221D01*
X139701010Y-63668221D02*
X139659666Y-63433743D01*
X139659666Y-63433743D02*
X139587963Y-63301325D01*
X139587963Y-63301325D02*
X139477634Y-63224072D01*
X139477634Y-63224072D02*
X139375574Y-63193714D01*
X139375574Y-63193714D02*
X139179722Y-63179894D01*
X139179722Y-63179894D02*
X139039036Y-63204701D01*
X139039036Y-63204701D02*
X138859722Y-63284673D01*
X138859722Y-63284673D02*
X138774200Y-63348106D01*
X138774200Y-63348106D02*
X138696947Y-63458435D01*
X138696947Y-63458435D02*
X138674858Y-63607391D01*
X138674858Y-63607391D02*
X138716203Y-63841869D01*
X139441840Y-62746847D02*
X139480467Y-62691682D01*
X139480467Y-62691682D02*
X139510824Y-62589622D01*
X139510824Y-62589622D02*
X139469480Y-62355144D01*
X139469480Y-62355144D02*
X139406046Y-62269622D01*
X139406046Y-62269622D02*
X139350881Y-62230995D01*
X139350881Y-62230995D02*
X139248821Y-62200637D01*
X139248821Y-62200637D02*
X139155030Y-62217175D01*
X139155030Y-62217175D02*
X139022612Y-62288878D01*
X139022612Y-62288878D02*
X138559092Y-62950852D01*
X138559092Y-62950852D02*
X138451596Y-62341210D01*
X138959293Y-61381323D02*
X138302755Y-61497089D01*
X139375803Y-61549650D02*
X138713713Y-61908162D01*
X138713713Y-61908162D02*
X138606217Y-61298519D01*
X88660013Y-43451468D02*
X88993346Y-42975277D01*
X89231441Y-43451468D02*
X89231441Y-42451468D01*
X89231441Y-42451468D02*
X88850489Y-42451468D01*
X88850489Y-42451468D02*
X88755251Y-42499087D01*
X88755251Y-42499087D02*
X88707632Y-42546706D01*
X88707632Y-42546706D02*
X88660013Y-42641944D01*
X88660013Y-42641944D02*
X88660013Y-42784801D01*
X88660013Y-42784801D02*
X88707632Y-42880039D01*
X88707632Y-42880039D02*
X88755251Y-42927658D01*
X88755251Y-42927658D02*
X88850489Y-42975277D01*
X88850489Y-42975277D02*
X89231441Y-42975277D01*
X88279060Y-42546706D02*
X88231441Y-42499087D01*
X88231441Y-42499087D02*
X88136203Y-42451468D01*
X88136203Y-42451468D02*
X87898108Y-42451468D01*
X87898108Y-42451468D02*
X87802870Y-42499087D01*
X87802870Y-42499087D02*
X87755251Y-42546706D01*
X87755251Y-42546706D02*
X87707632Y-42641944D01*
X87707632Y-42641944D02*
X87707632Y-42737182D01*
X87707632Y-42737182D02*
X87755251Y-42880039D01*
X87755251Y-42880039D02*
X88326679Y-43451468D01*
X88326679Y-43451468D02*
X87707632Y-43451468D01*
X76886507Y-68728871D02*
X77060155Y-67744063D01*
X76977465Y-68213020D02*
X76414718Y-68113792D01*
X76323759Y-68629644D02*
X76497408Y-67644836D01*
X75548508Y-67815995D02*
X75432743Y-68472533D01*
X75849138Y-67482175D02*
X75959582Y-68226954D01*
X75959582Y-68226954D02*
X75349939Y-68119457D01*
X90464151Y-49273114D02*
X89479343Y-49099465D01*
X89479343Y-49099465D02*
X89437998Y-49333943D01*
X89437998Y-49333943D02*
X89460087Y-49482899D01*
X89460087Y-49482899D02*
X89537340Y-49593228D01*
X89537340Y-49593228D02*
X89622862Y-49656662D01*
X89622862Y-49656662D02*
X89802176Y-49736633D01*
X89802176Y-49736633D02*
X89942863Y-49761440D01*
X89942863Y-49761440D02*
X90138714Y-49747620D01*
X90138714Y-49747620D02*
X90240774Y-49717263D01*
X90240774Y-49717263D02*
X90351103Y-49640009D01*
X90351103Y-49640009D02*
X90422806Y-49507592D01*
X90422806Y-49507592D02*
X90464151Y-49273114D01*
X90282233Y-50304817D02*
X90249158Y-50492399D01*
X90249158Y-50492399D02*
X90185724Y-50577922D01*
X90185724Y-50577922D02*
X90130560Y-50616548D01*
X90130560Y-50616548D02*
X89973335Y-50685533D01*
X89973335Y-50685533D02*
X89777483Y-50699352D01*
X89777483Y-50699352D02*
X89402319Y-50633201D01*
X89402319Y-50633201D02*
X89316796Y-50569767D01*
X89316796Y-50569767D02*
X89278170Y-50514603D01*
X89278170Y-50514603D02*
X89247812Y-50412542D01*
X89247812Y-50412542D02*
X89280888Y-50224960D01*
X89280888Y-50224960D02*
X89344321Y-50139438D01*
X89344321Y-50139438D02*
X89399486Y-50100811D01*
X89399486Y-50100811D02*
X89501546Y-50070453D01*
X89501546Y-50070453D02*
X89736024Y-50111798D01*
X89736024Y-50111798D02*
X89821546Y-50175232D01*
X89821546Y-50175232D02*
X89860173Y-50230396D01*
X89860173Y-50230396D02*
X89890531Y-50332456D01*
X89890531Y-50332456D02*
X89857455Y-50520039D01*
X89857455Y-50520039D02*
X89794021Y-50605561D01*
X89794021Y-50605561D02*
X89738857Y-50644188D01*
X89738857Y-50644188D02*
X89636797Y-50674545D01*
X109999321Y-68464261D02*
X109825673Y-67479454D01*
X109908362Y-67948410D02*
X109345615Y-68047637D01*
X109436573Y-68563489D02*
X109262925Y-67578681D01*
X108887760Y-67644833D02*
X108231222Y-67760598D01*
X108231222Y-67760598D02*
X108826931Y-68670985D01*
X109171971Y-69051315D02*
X110156778Y-68877667D01*
X110156778Y-68877667D02*
X110115434Y-68643189D01*
X110115434Y-68643189D02*
X110043731Y-68510771D01*
X110043731Y-68510771D02*
X109933402Y-68433518D01*
X109933402Y-68433518D02*
X109831342Y-68403160D01*
X109831342Y-68403160D02*
X109635490Y-68389340D01*
X109635490Y-68389340D02*
X109494804Y-68414147D01*
X109494804Y-68414147D02*
X109315490Y-68494119D01*
X109315490Y-68494119D02*
X109229968Y-68557552D01*
X109229968Y-68557552D02*
X109152715Y-68667881D01*
X109152715Y-68667881D02*
X109130626Y-68816837D01*
X109130626Y-68816837D02*
X109171971Y-69051315D01*
X109999668Y-67986650D02*
X109892172Y-67377007D01*
X109892172Y-67377007D02*
X109574890Y-67771428D01*
X109574890Y-67771428D02*
X109550083Y-67630742D01*
X109550083Y-67630742D02*
X109486649Y-67545219D01*
X109486649Y-67545219D02*
X109431485Y-67506593D01*
X109431485Y-67506593D02*
X109329424Y-67476235D01*
X109329424Y-67476235D02*
X109094946Y-67517580D01*
X109094946Y-67517580D02*
X109009424Y-67581013D01*
X109009424Y-67581013D02*
X108970797Y-67636178D01*
X108970797Y-67636178D02*
X108940440Y-67738238D01*
X108940440Y-67738238D02*
X108990054Y-68019612D01*
X108990054Y-68019612D02*
X109053487Y-68105134D01*
X109053487Y-68105134D02*
X109108652Y-68143761D01*
X109784675Y-66767364D02*
X109768137Y-66673573D01*
X109768137Y-66673573D02*
X109704704Y-66588051D01*
X109704704Y-66588051D02*
X109649539Y-66549424D01*
X109649539Y-66549424D02*
X109547479Y-66519067D01*
X109547479Y-66519067D02*
X109351628Y-66505247D01*
X109351628Y-66505247D02*
X109117150Y-66546592D01*
X109117150Y-66546592D02*
X108937836Y-66626563D01*
X108937836Y-66626563D02*
X108852314Y-66689997D01*
X108852314Y-66689997D02*
X108813687Y-66745161D01*
X108813687Y-66745161D02*
X108783330Y-66847221D01*
X108783330Y-66847221D02*
X108799867Y-66941013D01*
X108799867Y-66941013D02*
X108863301Y-67026535D01*
X108863301Y-67026535D02*
X108918466Y-67065162D01*
X108918466Y-67065162D02*
X109020526Y-67095519D01*
X109020526Y-67095519D02*
X109216377Y-67109339D01*
X109216377Y-67109339D02*
X109450855Y-67067994D01*
X109450855Y-67067994D02*
X109630169Y-66988023D01*
X109630169Y-66988023D02*
X109715691Y-66924589D01*
X109715691Y-66924589D02*
X109754318Y-66869425D01*
X109754318Y-66869425D02*
X109784675Y-66767364D01*
X97720836Y-62091996D02*
X97148416Y-62664416D01*
X97148416Y-62664416D02*
X97047401Y-62698088D01*
X97047401Y-62698088D02*
X96980057Y-62698088D01*
X96980057Y-62698088D02*
X96879042Y-62664416D01*
X96879042Y-62664416D02*
X96744355Y-62529729D01*
X96744355Y-62529729D02*
X96710683Y-62428714D01*
X96710683Y-62428714D02*
X96710683Y-62361370D01*
X96710683Y-62361370D02*
X96744355Y-62260355D01*
X96744355Y-62260355D02*
X97316775Y-61687935D01*
X96946385Y-61452233D02*
X96946385Y-61384890D01*
X96946385Y-61384890D02*
X96912714Y-61283874D01*
X96912714Y-61283874D02*
X96744355Y-61115516D01*
X96744355Y-61115516D02*
X96643340Y-61081844D01*
X96643340Y-61081844D02*
X96575996Y-61081844D01*
X96575996Y-61081844D02*
X96474981Y-61115516D01*
X96474981Y-61115516D02*
X96407637Y-61182859D01*
X96407637Y-61182859D02*
X96340294Y-61317546D01*
X96340294Y-61317546D02*
X96340294Y-62125668D01*
X96340294Y-62125668D02*
X95902561Y-61687935D01*
X67377722Y-65027349D02*
X66392915Y-64853701D01*
X66392915Y-64853701D02*
X66351570Y-65088179D01*
X66351570Y-65088179D02*
X66373659Y-65237135D01*
X66373659Y-65237135D02*
X66450912Y-65347464D01*
X66450912Y-65347464D02*
X66536434Y-65410897D01*
X66536434Y-65410897D02*
X66715748Y-65490869D01*
X66715748Y-65490869D02*
X66856434Y-65515676D01*
X66856434Y-65515676D02*
X67052286Y-65501856D01*
X67052286Y-65501856D02*
X67154346Y-65471498D01*
X67154346Y-65471498D02*
X67264675Y-65394245D01*
X67264675Y-65394245D02*
X67336378Y-65261827D01*
X67336378Y-65261827D02*
X67377722Y-65027349D01*
X66321327Y-65808151D02*
X66266162Y-65846778D01*
X66266162Y-65846778D02*
X66202728Y-65932300D01*
X66202728Y-65932300D02*
X66161384Y-66166778D01*
X66161384Y-66166778D02*
X66191741Y-66268838D01*
X66191741Y-66268838D02*
X66230368Y-66324003D01*
X66230368Y-66324003D02*
X66315890Y-66387436D01*
X66315890Y-66387436D02*
X66409681Y-66403974D01*
X66409681Y-66403974D02*
X66558637Y-66381885D01*
X66558637Y-66381885D02*
X67220612Y-65918366D01*
X67220612Y-65918366D02*
X67113116Y-66528008D01*
X65971198Y-67245377D02*
X66053887Y-66776421D01*
X66053887Y-66776421D02*
X66531112Y-66812215D01*
X66531112Y-66812215D02*
X66475948Y-66850841D01*
X66475948Y-66850841D02*
X66412514Y-66936364D01*
X66412514Y-66936364D02*
X66371169Y-67170842D01*
X66371169Y-67170842D02*
X66401527Y-67272902D01*
X66401527Y-67272902D02*
X66440154Y-67328066D01*
X66440154Y-67328066D02*
X66525676Y-67391500D01*
X66525676Y-67391500D02*
X66760154Y-67432845D01*
X66760154Y-67432845D02*
X66862214Y-67402487D01*
X66862214Y-67402487D02*
X66917379Y-67363860D01*
X66917379Y-67363860D02*
X66980812Y-67278338D01*
X66980812Y-67278338D02*
X67022157Y-67043860D01*
X67022157Y-67043860D02*
X66991799Y-66941800D01*
X66991799Y-66941800D02*
X66953173Y-66886635D01*
X93421916Y-52296813D02*
X93421916Y-53106336D01*
X93421916Y-53106336D02*
X93374297Y-53201574D01*
X93374297Y-53201574D02*
X93326678Y-53249194D01*
X93326678Y-53249194D02*
X93231440Y-53296813D01*
X93231440Y-53296813D02*
X93040964Y-53296813D01*
X93040964Y-53296813D02*
X92945726Y-53249194D01*
X92945726Y-53249194D02*
X92898107Y-53201574D01*
X92898107Y-53201574D02*
X92850488Y-53106336D01*
X92850488Y-53106336D02*
X92850488Y-52296813D01*
X92469535Y-52296813D02*
X91850488Y-52296813D01*
X91850488Y-52296813D02*
X92183821Y-52677765D01*
X92183821Y-52677765D02*
X92040964Y-52677765D01*
X92040964Y-52677765D02*
X91945726Y-52725384D01*
X91945726Y-52725384D02*
X91898107Y-52773003D01*
X91898107Y-52773003D02*
X91850488Y-52868241D01*
X91850488Y-52868241D02*
X91850488Y-53106336D01*
X91850488Y-53106336D02*
X91898107Y-53201574D01*
X91898107Y-53201574D02*
X91945726Y-53249194D01*
X91945726Y-53249194D02*
X92040964Y-53296813D01*
X92040964Y-53296813D02*
X92326678Y-53296813D01*
X92326678Y-53296813D02*
X92421916Y-53249194D01*
X92421916Y-53249194D02*
X92469535Y-53201574D01*
X97156627Y-43451468D02*
X97489960Y-42975277D01*
X97728055Y-43451468D02*
X97728055Y-42451468D01*
X97728055Y-42451468D02*
X97347103Y-42451468D01*
X97347103Y-42451468D02*
X97251865Y-42499087D01*
X97251865Y-42499087D02*
X97204246Y-42546706D01*
X97204246Y-42546706D02*
X97156627Y-42641944D01*
X97156627Y-42641944D02*
X97156627Y-42784801D01*
X97156627Y-42784801D02*
X97204246Y-42880039D01*
X97204246Y-42880039D02*
X97251865Y-42927658D01*
X97251865Y-42927658D02*
X97347103Y-42975277D01*
X97347103Y-42975277D02*
X97728055Y-42975277D01*
X96823293Y-42451468D02*
X96204246Y-42451468D01*
X96204246Y-42451468D02*
X96537579Y-42832420D01*
X96537579Y-42832420D02*
X96394722Y-42832420D01*
X96394722Y-42832420D02*
X96299484Y-42880039D01*
X96299484Y-42880039D02*
X96251865Y-42927658D01*
X96251865Y-42927658D02*
X96204246Y-43022896D01*
X96204246Y-43022896D02*
X96204246Y-43260991D01*
X96204246Y-43260991D02*
X96251865Y-43356229D01*
X96251865Y-43356229D02*
X96299484Y-43403849D01*
X96299484Y-43403849D02*
X96394722Y-43451468D01*
X96394722Y-43451468D02*
X96680436Y-43451468D01*
X96680436Y-43451468D02*
X96775674Y-43403849D01*
X96775674Y-43403849D02*
X96823293Y-43356229D01*
X84984257Y-54457641D02*
X85312526Y-54515524D01*
X85221568Y-55031375D02*
X85395216Y-54046568D01*
X85395216Y-54046568D02*
X84926260Y-53963878D01*
X83861595Y-54791575D02*
X84424342Y-54890803D01*
X84142968Y-54841189D02*
X84316617Y-53856381D01*
X84316617Y-53856381D02*
X84385601Y-54013606D01*
X84385601Y-54013606D02*
X84462854Y-54123935D01*
X84462854Y-54123935D02*
X84548377Y-54187369D01*
X92343880Y-59327218D02*
X92343880Y-59394562D01*
X92343880Y-59394562D02*
X92411224Y-59529249D01*
X92411224Y-59529249D02*
X92478567Y-59596592D01*
X92478567Y-59596592D02*
X92613254Y-59663936D01*
X92613254Y-59663936D02*
X92747941Y-59663936D01*
X92747941Y-59663936D02*
X92848956Y-59630264D01*
X92848956Y-59630264D02*
X93017315Y-59529249D01*
X93017315Y-59529249D02*
X93118330Y-59428234D01*
X93118330Y-59428234D02*
X93219346Y-59259875D01*
X93219346Y-59259875D02*
X93253017Y-59158860D01*
X93253017Y-59158860D02*
X93253017Y-59024173D01*
X93253017Y-59024173D02*
X93185674Y-58889486D01*
X93185674Y-58889486D02*
X93118330Y-58822142D01*
X93118330Y-58822142D02*
X92983643Y-58754799D01*
X92983643Y-58754799D02*
X92916300Y-58754799D01*
X92343880Y-58047692D02*
X92680598Y-58384409D01*
X92680598Y-58384409D02*
X92377552Y-58754799D01*
X92377552Y-58754799D02*
X92377552Y-58687455D01*
X92377552Y-58687455D02*
X92343880Y-58586440D01*
X92343880Y-58586440D02*
X92175521Y-58418081D01*
X92175521Y-58418081D02*
X92074506Y-58384409D01*
X92074506Y-58384409D02*
X92007163Y-58384409D01*
X92007163Y-58384409D02*
X91906147Y-58418081D01*
X91906147Y-58418081D02*
X91737789Y-58586440D01*
X91737789Y-58586440D02*
X91704117Y-58687455D01*
X91704117Y-58687455D02*
X91704117Y-58754799D01*
X91704117Y-58754799D02*
X91737789Y-58855814D01*
X91737789Y-58855814D02*
X91906147Y-59024173D01*
X91906147Y-59024173D02*
X92007163Y-59057844D01*
X92007163Y-59057844D02*
X92074506Y-59057844D01*
X85503393Y-69167705D02*
X85503393Y-69235049D01*
X85503393Y-69235049D02*
X85570737Y-69369736D01*
X85570737Y-69369736D02*
X85638080Y-69437079D01*
X85638080Y-69437079D02*
X85772767Y-69504423D01*
X85772767Y-69504423D02*
X85907454Y-69504423D01*
X85907454Y-69504423D02*
X86008469Y-69470751D01*
X86008469Y-69470751D02*
X86176828Y-69369736D01*
X86176828Y-69369736D02*
X86277843Y-69268721D01*
X86277843Y-69268721D02*
X86378859Y-69100362D01*
X86378859Y-69100362D02*
X86412530Y-68999347D01*
X86412530Y-68999347D02*
X86412530Y-68864660D01*
X86412530Y-68864660D02*
X86345187Y-68729973D01*
X86345187Y-68729973D02*
X86277843Y-68662629D01*
X86277843Y-68662629D02*
X86143156Y-68595286D01*
X86143156Y-68595286D02*
X86075813Y-68595286D01*
X85537065Y-67921851D02*
X85671752Y-68056538D01*
X85671752Y-68056538D02*
X85705424Y-68157553D01*
X85705424Y-68157553D02*
X85705424Y-68224896D01*
X85705424Y-68224896D02*
X85671752Y-68393255D01*
X85671752Y-68393255D02*
X85570737Y-68561614D01*
X85570737Y-68561614D02*
X85301363Y-68830988D01*
X85301363Y-68830988D02*
X85200347Y-68864660D01*
X85200347Y-68864660D02*
X85133004Y-68864660D01*
X85133004Y-68864660D02*
X85031989Y-68830988D01*
X85031989Y-68830988D02*
X84897302Y-68696301D01*
X84897302Y-68696301D02*
X84863630Y-68595286D01*
X84863630Y-68595286D02*
X84863630Y-68527942D01*
X84863630Y-68527942D02*
X84897302Y-68426927D01*
X84897302Y-68426927D02*
X85065660Y-68258568D01*
X85065660Y-68258568D02*
X85166676Y-68224896D01*
X85166676Y-68224896D02*
X85234019Y-68224896D01*
X85234019Y-68224896D02*
X85335034Y-68258568D01*
X85335034Y-68258568D02*
X85469721Y-68393255D01*
X85469721Y-68393255D02*
X85503393Y-68494270D01*
X85503393Y-68494270D02*
X85503393Y-68561614D01*
X85503393Y-68561614D02*
X85469721Y-68662629D01*
X140452683Y-73689947D02*
X141437490Y-73516299D01*
X141437490Y-73516299D02*
X141396146Y-73281821D01*
X141396146Y-73281821D02*
X141324443Y-73149403D01*
X141324443Y-73149403D02*
X141214114Y-73072150D01*
X141214114Y-73072150D02*
X141112054Y-73041792D01*
X141112054Y-73041792D02*
X140916202Y-73027972D01*
X140916202Y-73027972D02*
X140775516Y-73052779D01*
X140775516Y-73052779D02*
X140596202Y-73132751D01*
X140596202Y-73132751D02*
X140510680Y-73196184D01*
X140510680Y-73196184D02*
X140433427Y-73306513D01*
X140433427Y-73306513D02*
X140411338Y-73455469D01*
X140411338Y-73455469D02*
X140452683Y-73689947D01*
X141280380Y-72625282D02*
X141172884Y-72015639D01*
X141172884Y-72015639D02*
X140855602Y-72410060D01*
X140855602Y-72410060D02*
X140830795Y-72269374D01*
X140830795Y-72269374D02*
X140767361Y-72183851D01*
X140767361Y-72183851D02*
X140712197Y-72145225D01*
X140712197Y-72145225D02*
X140610136Y-72114867D01*
X140610136Y-72114867D02*
X140375658Y-72156212D01*
X140375658Y-72156212D02*
X140290136Y-72219645D01*
X140290136Y-72219645D02*
X140251509Y-72274810D01*
X140251509Y-72274810D02*
X140221152Y-72376870D01*
X140221152Y-72376870D02*
X140270766Y-72658244D01*
X140270766Y-72658244D02*
X140334199Y-72743766D01*
X140334199Y-72743766D02*
X140389364Y-72782393D01*
X140695773Y-71229401D02*
X140039235Y-71345167D01*
X141112283Y-71397728D02*
X140450193Y-71756240D01*
X140450193Y-71756240D02*
X140342697Y-71146597D01*
X150300760Y-71953466D02*
X151285567Y-71779818D01*
X151285567Y-71779818D02*
X151244223Y-71545340D01*
X151244223Y-71545340D02*
X151172520Y-71412922D01*
X151172520Y-71412922D02*
X151062191Y-71335669D01*
X151062191Y-71335669D02*
X150960131Y-71305311D01*
X150960131Y-71305311D02*
X150764279Y-71291491D01*
X150764279Y-71291491D02*
X150623593Y-71316298D01*
X150623593Y-71316298D02*
X150444279Y-71396270D01*
X150444279Y-71396270D02*
X150358757Y-71459703D01*
X150358757Y-71459703D02*
X150281504Y-71570032D01*
X150281504Y-71570032D02*
X150259415Y-71718988D01*
X150259415Y-71718988D02*
X150300760Y-71953466D01*
X151128457Y-70888801D02*
X151020961Y-70279158D01*
X151020961Y-70279158D02*
X150703679Y-70673579D01*
X150703679Y-70673579D02*
X150678872Y-70532893D01*
X150678872Y-70532893D02*
X150615438Y-70447370D01*
X150615438Y-70447370D02*
X150560274Y-70408744D01*
X150560274Y-70408744D02*
X150458213Y-70378386D01*
X150458213Y-70378386D02*
X150223735Y-70419731D01*
X150223735Y-70419731D02*
X150138213Y-70483164D01*
X150138213Y-70483164D02*
X150099586Y-70538329D01*
X150099586Y-70538329D02*
X150069229Y-70640389D01*
X150069229Y-70640389D02*
X150118843Y-70921763D01*
X150118843Y-70921763D02*
X150182276Y-71007285D01*
X150182276Y-71007285D02*
X150237441Y-71045912D01*
X150861018Y-69920531D02*
X150899644Y-69865367D01*
X150899644Y-69865367D02*
X150930002Y-69763307D01*
X150930002Y-69763307D02*
X150888657Y-69528829D01*
X150888657Y-69528829D02*
X150825224Y-69443306D01*
X150825224Y-69443306D02*
X150770059Y-69404680D01*
X150770059Y-69404680D02*
X150667999Y-69374322D01*
X150667999Y-69374322D02*
X150574208Y-69390860D01*
X150574208Y-69390860D02*
X150441790Y-69462562D01*
X150441790Y-69462562D02*
X149978270Y-70124537D01*
X149978270Y-70124537D02*
X149870774Y-69514894D01*
X47681568Y-61554383D02*
X46696761Y-61380735D01*
X46696761Y-61380735D02*
X46655416Y-61615213D01*
X46655416Y-61615213D02*
X46677505Y-61764169D01*
X46677505Y-61764169D02*
X46754758Y-61874498D01*
X46754758Y-61874498D02*
X46840280Y-61937931D01*
X46840280Y-61937931D02*
X47019594Y-62017903D01*
X47019594Y-62017903D02*
X47160280Y-62042710D01*
X47160280Y-62042710D02*
X47356132Y-62028890D01*
X47356132Y-62028890D02*
X47458192Y-61998532D01*
X47458192Y-61998532D02*
X47568521Y-61921279D01*
X47568521Y-61921279D02*
X47640224Y-61788861D01*
X47640224Y-61788861D02*
X47681568Y-61554383D01*
X46625173Y-62335185D02*
X46570008Y-62373812D01*
X46570008Y-62373812D02*
X46506574Y-62459334D01*
X46506574Y-62459334D02*
X46465230Y-62693812D01*
X46465230Y-62693812D02*
X46495587Y-62795872D01*
X46495587Y-62795872D02*
X46534214Y-62851037D01*
X46534214Y-62851037D02*
X46619736Y-62914470D01*
X46619736Y-62914470D02*
X46713527Y-62931008D01*
X46713527Y-62931008D02*
X46862483Y-62908919D01*
X46862483Y-62908919D02*
X47524458Y-62445400D01*
X47524458Y-62445400D02*
X47416962Y-63055042D01*
X47251582Y-63992955D02*
X47350810Y-63430207D01*
X47301196Y-63711581D02*
X46316388Y-63537933D01*
X46316388Y-63537933D02*
X46473613Y-63468948D01*
X46473613Y-63468948D02*
X46583942Y-63391695D01*
X46583942Y-63391695D02*
X46647376Y-63306173D01*
X139543555Y-63254815D02*
X139369907Y-62270008D01*
X139452596Y-62738964D02*
X138889849Y-62838191D01*
X138980807Y-63354043D02*
X138807159Y-62369235D01*
X138271937Y-62898792D02*
X138357459Y-62835359D01*
X138357459Y-62835359D02*
X138396086Y-62780194D01*
X138396086Y-62780194D02*
X138426444Y-62678134D01*
X138426444Y-62678134D02*
X138418175Y-62631238D01*
X138418175Y-62631238D02*
X138354741Y-62545716D01*
X138354741Y-62545716D02*
X138299577Y-62507089D01*
X138299577Y-62507089D02*
X138197516Y-62476732D01*
X138197516Y-62476732D02*
X138009934Y-62509808D01*
X138009934Y-62509808D02*
X137924412Y-62573241D01*
X137924412Y-62573241D02*
X137885785Y-62628406D01*
X137885785Y-62628406D02*
X137855427Y-62730466D01*
X137855427Y-62730466D02*
X137863696Y-62777361D01*
X137863696Y-62777361D02*
X137927130Y-62862884D01*
X137927130Y-62862884D02*
X137982294Y-62901510D01*
X137982294Y-62901510D02*
X138084355Y-62931868D01*
X138084355Y-62931868D02*
X138271937Y-62898792D01*
X138271937Y-62898792D02*
X138373997Y-62929150D01*
X138373997Y-62929150D02*
X138429162Y-62967777D01*
X138429162Y-62967777D02*
X138492595Y-63053299D01*
X138492595Y-63053299D02*
X138525671Y-63240881D01*
X138525671Y-63240881D02*
X138495313Y-63342941D01*
X138495313Y-63342941D02*
X138456687Y-63398106D01*
X138456687Y-63398106D02*
X138371165Y-63461539D01*
X138371165Y-63461539D02*
X138183582Y-63494615D01*
X138183582Y-63494615D02*
X138081522Y-63464258D01*
X138081522Y-63464258D02*
X138026357Y-63425631D01*
X138026357Y-63425631D02*
X137962924Y-63340109D01*
X137962924Y-63340109D02*
X137929848Y-63152526D01*
X137929848Y-63152526D02*
X137960206Y-63050466D01*
X137960206Y-63050466D02*
X137998832Y-62995302D01*
X137998832Y-62995302D02*
X138084355Y-62931868D01*
X119020048Y-67314831D02*
X120004855Y-67141183D01*
X120004855Y-67141183D02*
X119963511Y-66906705D01*
X119963511Y-66906705D02*
X119891808Y-66774287D01*
X119891808Y-66774287D02*
X119781479Y-66697034D01*
X119781479Y-66697034D02*
X119679419Y-66666676D01*
X119679419Y-66666676D02*
X119483567Y-66652856D01*
X119483567Y-66652856D02*
X119342881Y-66677663D01*
X119342881Y-66677663D02*
X119163567Y-66757635D01*
X119163567Y-66757635D02*
X119078045Y-66821068D01*
X119078045Y-66821068D02*
X119000792Y-66931397D01*
X119000792Y-66931397D02*
X118978703Y-67080353D01*
X118978703Y-67080353D02*
X119020048Y-67314831D01*
X119745685Y-66219809D02*
X119784312Y-66164644D01*
X119784312Y-66164644D02*
X119814669Y-66062584D01*
X119814669Y-66062584D02*
X119773325Y-65828106D01*
X119773325Y-65828106D02*
X119709891Y-65742584D01*
X119709891Y-65742584D02*
X119654726Y-65703957D01*
X119654726Y-65703957D02*
X119552666Y-65673599D01*
X119552666Y-65673599D02*
X119458875Y-65690137D01*
X119458875Y-65690137D02*
X119326457Y-65761840D01*
X119326457Y-65761840D02*
X118862937Y-66423814D01*
X118862937Y-66423814D02*
X118755441Y-65814172D01*
X119218961Y-65152197D02*
X119282394Y-65237719D01*
X119282394Y-65237719D02*
X119337559Y-65276346D01*
X119337559Y-65276346D02*
X119439619Y-65306703D01*
X119439619Y-65306703D02*
X119486515Y-65298434D01*
X119486515Y-65298434D02*
X119572037Y-65235001D01*
X119572037Y-65235001D02*
X119610663Y-65179836D01*
X119610663Y-65179836D02*
X119641021Y-65077776D01*
X119641021Y-65077776D02*
X119607945Y-64890194D01*
X119607945Y-64890194D02*
X119544512Y-64804671D01*
X119544512Y-64804671D02*
X119489347Y-64766045D01*
X119489347Y-64766045D02*
X119387287Y-64735687D01*
X119387287Y-64735687D02*
X119340391Y-64743956D01*
X119340391Y-64743956D02*
X119254869Y-64807390D01*
X119254869Y-64807390D02*
X119216243Y-64862554D01*
X119216243Y-64862554D02*
X119185885Y-64964614D01*
X119185885Y-64964614D02*
X119218961Y-65152197D01*
X119218961Y-65152197D02*
X119188603Y-65254257D01*
X119188603Y-65254257D02*
X119149976Y-65309421D01*
X119149976Y-65309421D02*
X119064454Y-65372855D01*
X119064454Y-65372855D02*
X118876872Y-65405931D01*
X118876872Y-65405931D02*
X118774811Y-65375573D01*
X118774811Y-65375573D02*
X118719647Y-65336947D01*
X118719647Y-65336947D02*
X118656213Y-65251424D01*
X118656213Y-65251424D02*
X118623138Y-65063842D01*
X118623138Y-65063842D02*
X118653495Y-64961782D01*
X118653495Y-64961782D02*
X118692122Y-64906617D01*
X118692122Y-64906617D02*
X118777644Y-64843184D01*
X118777644Y-64843184D02*
X118965227Y-64810108D01*
X118965227Y-64810108D02*
X119067287Y-64840465D01*
X119067287Y-64840465D02*
X119122451Y-64879092D01*
X119122451Y-64879092D02*
X119185885Y-64964614D01*
X65641242Y-74875424D02*
X64656435Y-74701776D01*
X64656435Y-74701776D02*
X64615090Y-74936254D01*
X64615090Y-74936254D02*
X64637179Y-75085210D01*
X64637179Y-75085210D02*
X64714432Y-75195539D01*
X64714432Y-75195539D02*
X64799954Y-75258972D01*
X64799954Y-75258972D02*
X64979268Y-75338944D01*
X64979268Y-75338944D02*
X65119954Y-75363751D01*
X65119954Y-75363751D02*
X65315806Y-75349931D01*
X65315806Y-75349931D02*
X65417866Y-75319573D01*
X65417866Y-75319573D02*
X65528195Y-75242320D01*
X65528195Y-75242320D02*
X65599898Y-75109902D01*
X65599898Y-75109902D02*
X65641242Y-74875424D01*
X64499324Y-75592792D02*
X64391828Y-76202435D01*
X64391828Y-76202435D02*
X64824875Y-75940318D01*
X64824875Y-75940318D02*
X64800069Y-76081004D01*
X64800069Y-76081004D02*
X64830426Y-76183065D01*
X64830426Y-76183065D02*
X64869053Y-76238229D01*
X64869053Y-76238229D02*
X64954575Y-76301663D01*
X64954575Y-76301663D02*
X65189053Y-76343008D01*
X65189053Y-76343008D02*
X65291113Y-76312650D01*
X65291113Y-76312650D02*
X65346278Y-76274023D01*
X65346278Y-76274023D02*
X65409711Y-76188501D01*
X65409711Y-76188501D02*
X65459325Y-75907127D01*
X65459325Y-75907127D02*
X65428968Y-75805067D01*
X65428968Y-75805067D02*
X65390341Y-75749903D01*
X64234718Y-77093452D02*
X64317407Y-76624496D01*
X64317407Y-76624496D02*
X64794632Y-76660290D01*
X64794632Y-76660290D02*
X64739468Y-76698916D01*
X64739468Y-76698916D02*
X64676034Y-76784439D01*
X64676034Y-76784439D02*
X64634689Y-77018917D01*
X64634689Y-77018917D02*
X64665047Y-77120977D01*
X64665047Y-77120977D02*
X64703674Y-77176141D01*
X64703674Y-77176141D02*
X64789196Y-77239575D01*
X64789196Y-77239575D02*
X65023674Y-77280920D01*
X65023674Y-77280920D02*
X65125734Y-77250562D01*
X65125734Y-77250562D02*
X65180899Y-77211935D01*
X65180899Y-77211935D02*
X65244332Y-77126413D01*
X65244332Y-77126413D02*
X65285677Y-76891935D01*
X65285677Y-76891935D02*
X65255319Y-76789875D01*
X65255319Y-76789875D02*
X65216693Y-76734710D01*
X107435486Y-59203235D02*
X108420293Y-59029587D01*
X108420293Y-59029587D02*
X108378949Y-58795109D01*
X108378949Y-58795109D02*
X108307246Y-58662691D01*
X108307246Y-58662691D02*
X108196917Y-58585438D01*
X108196917Y-58585438D02*
X108094857Y-58555080D01*
X108094857Y-58555080D02*
X107899005Y-58541260D01*
X107899005Y-58541260D02*
X107758319Y-58566067D01*
X107758319Y-58566067D02*
X107579005Y-58646039D01*
X107579005Y-58646039D02*
X107493483Y-58709472D01*
X107493483Y-58709472D02*
X107416230Y-58819801D01*
X107416230Y-58819801D02*
X107394141Y-58968757D01*
X107394141Y-58968757D02*
X107435486Y-59203235D01*
X108161123Y-58108213D02*
X108199750Y-58053048D01*
X108199750Y-58053048D02*
X108230107Y-57950988D01*
X108230107Y-57950988D02*
X108188763Y-57716510D01*
X108188763Y-57716510D02*
X108125329Y-57630988D01*
X108125329Y-57630988D02*
X108070164Y-57592361D01*
X108070164Y-57592361D02*
X107968104Y-57562003D01*
X107968104Y-57562003D02*
X107874313Y-57578541D01*
X107874313Y-57578541D02*
X107741895Y-57650244D01*
X107741895Y-57650244D02*
X107278375Y-58312218D01*
X107278375Y-58312218D02*
X107170879Y-57702576D01*
X108048190Y-56919284D02*
X108031652Y-56825493D01*
X108031652Y-56825493D02*
X107968219Y-56739971D01*
X107968219Y-56739971D02*
X107913054Y-56701344D01*
X107913054Y-56701344D02*
X107810994Y-56670987D01*
X107810994Y-56670987D02*
X107615143Y-56657167D01*
X107615143Y-56657167D02*
X107380665Y-56698512D01*
X107380665Y-56698512D02*
X107201351Y-56778483D01*
X107201351Y-56778483D02*
X107115829Y-56841917D01*
X107115829Y-56841917D02*
X107077202Y-56897081D01*
X107077202Y-56897081D02*
X107046845Y-56999141D01*
X107046845Y-56999141D02*
X107063382Y-57092933D01*
X107063382Y-57092933D02*
X107126816Y-57178455D01*
X107126816Y-57178455D02*
X107181981Y-57217082D01*
X107181981Y-57217082D02*
X107284041Y-57247439D01*
X107284041Y-57247439D02*
X107479892Y-57261259D01*
X107479892Y-57261259D02*
X107714370Y-57219914D01*
X107714370Y-57219914D02*
X107893684Y-57139943D01*
X107893684Y-57139943D02*
X107979206Y-57076509D01*
X107979206Y-57076509D02*
X108017833Y-57021345D01*
X108017833Y-57021345D02*
X108048190Y-56919284D01*
X106526356Y-48768105D02*
X106352708Y-47783298D01*
X106435397Y-48252254D02*
X105872650Y-48351481D01*
X105963608Y-48867333D02*
X105789960Y-47882525D01*
X104852048Y-48047904D02*
X105321004Y-47965215D01*
X105321004Y-47965215D02*
X105450589Y-48425902D01*
X105450589Y-48425902D02*
X105395425Y-48387275D01*
X105395425Y-48387275D02*
X105293365Y-48356918D01*
X105293365Y-48356918D02*
X105058887Y-48398262D01*
X105058887Y-48398262D02*
X104973364Y-48461696D01*
X104973364Y-48461696D02*
X104934738Y-48516861D01*
X104934738Y-48516861D02*
X104904380Y-48618921D01*
X104904380Y-48618921D02*
X104945725Y-48853399D01*
X104945725Y-48853399D02*
X105009158Y-48938921D01*
X105009158Y-48938921D02*
X105064323Y-48977548D01*
X105064323Y-48977548D02*
X105166383Y-49007905D01*
X105166383Y-49007905D02*
X105400861Y-48966561D01*
X105400861Y-48966561D02*
X105486383Y-48903127D01*
X105486383Y-48903127D02*
X105525010Y-48847962D01*
X89359591Y-54595327D02*
X89407211Y-54547708D01*
X89407211Y-54547708D02*
X89454830Y-54404851D01*
X89454830Y-54404851D02*
X89454830Y-54309613D01*
X89454830Y-54309613D02*
X89407211Y-54166756D01*
X89407211Y-54166756D02*
X89311972Y-54071518D01*
X89311972Y-54071518D02*
X89216734Y-54023899D01*
X89216734Y-54023899D02*
X89026258Y-53976280D01*
X89026258Y-53976280D02*
X88883401Y-53976280D01*
X88883401Y-53976280D02*
X88692925Y-54023899D01*
X88692925Y-54023899D02*
X88597687Y-54071518D01*
X88597687Y-54071518D02*
X88502449Y-54166756D01*
X88502449Y-54166756D02*
X88454830Y-54309613D01*
X88454830Y-54309613D02*
X88454830Y-54404851D01*
X88454830Y-54404851D02*
X88502449Y-54547708D01*
X88502449Y-54547708D02*
X88550068Y-54595327D01*
X89454830Y-55071518D02*
X89454830Y-55261994D01*
X89454830Y-55261994D02*
X89407211Y-55357232D01*
X89407211Y-55357232D02*
X89359591Y-55404851D01*
X89359591Y-55404851D02*
X89216734Y-55500089D01*
X89216734Y-55500089D02*
X89026258Y-55547708D01*
X89026258Y-55547708D02*
X88645306Y-55547708D01*
X88645306Y-55547708D02*
X88550068Y-55500089D01*
X88550068Y-55500089D02*
X88502449Y-55452470D01*
X88502449Y-55452470D02*
X88454830Y-55357232D01*
X88454830Y-55357232D02*
X88454830Y-55166756D01*
X88454830Y-55166756D02*
X88502449Y-55071518D01*
X88502449Y-55071518D02*
X88550068Y-55023899D01*
X88550068Y-55023899D02*
X88645306Y-54976280D01*
X88645306Y-54976280D02*
X88883401Y-54976280D01*
X88883401Y-54976280D02*
X88978639Y-55023899D01*
X88978639Y-55023899D02*
X89026258Y-55071518D01*
X89026258Y-55071518D02*
X89073877Y-55166756D01*
X89073877Y-55166756D02*
X89073877Y-55357232D01*
X89073877Y-55357232D02*
X89026258Y-55452470D01*
X89026258Y-55452470D02*
X88978639Y-55500089D01*
X88978639Y-55500089D02*
X88883401Y-55547708D01*
X60919917Y-44063668D02*
X59935109Y-43890019D01*
X59935109Y-43890019D02*
X59893764Y-44124497D01*
X59893764Y-44124497D02*
X59915853Y-44273453D01*
X59915853Y-44273453D02*
X59993106Y-44383782D01*
X59993106Y-44383782D02*
X60078628Y-44447216D01*
X60078628Y-44447216D02*
X60257942Y-44527187D01*
X60257942Y-44527187D02*
X60398629Y-44551994D01*
X60398629Y-44551994D02*
X60594480Y-44538174D01*
X60594480Y-44538174D02*
X60696540Y-44507817D01*
X60696540Y-44507817D02*
X60806869Y-44430563D01*
X60806869Y-44430563D02*
X60878572Y-44298146D01*
X60878572Y-44298146D02*
X60919917Y-44063668D01*
X59777999Y-44781036D02*
X59670502Y-45390679D01*
X59670502Y-45390679D02*
X60103550Y-45128561D01*
X60103550Y-45128561D02*
X60078743Y-45269248D01*
X60078743Y-45269248D02*
X60109101Y-45371308D01*
X60109101Y-45371308D02*
X60147727Y-45426473D01*
X60147727Y-45426473D02*
X60233249Y-45489906D01*
X60233249Y-45489906D02*
X60467727Y-45531251D01*
X60467727Y-45531251D02*
X60569788Y-45500893D01*
X60569788Y-45500893D02*
X60624952Y-45462267D01*
X60624952Y-45462267D02*
X60688386Y-45376745D01*
X60688386Y-45376745D02*
X60737999Y-45095371D01*
X60737999Y-45095371D02*
X60707642Y-44993311D01*
X60707642Y-44993311D02*
X60669015Y-44938146D01*
X98352407Y-73132005D02*
X98419751Y-73132005D01*
X98419751Y-73132005D02*
X98554438Y-73064661D01*
X98554438Y-73064661D02*
X98621781Y-72997318D01*
X98621781Y-72997318D02*
X98689125Y-72862631D01*
X98689125Y-72862631D02*
X98689125Y-72727944D01*
X98689125Y-72727944D02*
X98655453Y-72626929D01*
X98655453Y-72626929D02*
X98554438Y-72458570D01*
X98554438Y-72458570D02*
X98453423Y-72357555D01*
X98453423Y-72357555D02*
X98285064Y-72256539D01*
X98285064Y-72256539D02*
X98184049Y-72222868D01*
X98184049Y-72222868D02*
X98049362Y-72222868D01*
X98049362Y-72222868D02*
X97914675Y-72290211D01*
X97914675Y-72290211D02*
X97847331Y-72357555D01*
X97847331Y-72357555D02*
X97779988Y-72492242D01*
X97779988Y-72492242D02*
X97779988Y-72559585D01*
X97342255Y-73334035D02*
X97813659Y-73805440D01*
X97241240Y-72896303D02*
X97914675Y-73233020D01*
X97914675Y-73233020D02*
X97476942Y-73670753D01*
D15*
%TO.C,D36*%
X130371090Y-75514024D02*
X129189321Y-75722402D01*
X128848971Y-73792178D02*
X129189321Y-75722402D01*
X130030740Y-73583801D02*
X130371090Y-75514024D01*
%TO.C,D10*%
X105465485Y-49442755D02*
X104283716Y-49651133D01*
X103943366Y-47720909D02*
X104283716Y-49651133D01*
X105125135Y-47512532D02*
X105465485Y-49442755D01*
%TO.C,D33*%
X54226234Y-75375106D02*
X53044465Y-75166728D01*
X53384815Y-73236505D02*
X53044465Y-75166728D01*
X54566584Y-73444882D02*
X54226234Y-75375106D01*
%TO.C,SW41*%
X97033342Y-75855320D02*
X94953342Y-75855320D01*
X98713342Y-77125320D02*
X98223342Y-76635320D01*
X98713342Y-77125320D02*
X98713342Y-80025320D01*
X93273342Y-77125320D02*
X93763342Y-76635320D01*
X93273342Y-77125320D02*
X93273342Y-80025320D01*
X98713342Y-80025320D02*
X98223342Y-80515320D01*
X93273342Y-80025320D02*
X93763342Y-80515320D01*
X97033342Y-81295320D02*
X94953342Y-81295320D01*
%TO.C,D23*%
X55962718Y-65527030D02*
X54780949Y-65318652D01*
X55121299Y-63388429D02*
X54780949Y-65318652D01*
X56303068Y-63596806D02*
X55962718Y-65527030D01*
%TO.C,D17*%
X77395352Y-59151916D02*
X76213583Y-58943538D01*
X76553933Y-57013315D02*
X76213583Y-58943538D01*
X77735702Y-57221692D02*
X77395352Y-59151916D01*
%TO.C,C10*%
X95520009Y-55134159D02*
X95520009Y-55349831D01*
X94800009Y-55134159D02*
X94800009Y-55349831D01*
%TO.C,D5*%
X69283757Y-47567354D02*
X68101988Y-47358976D01*
X68442338Y-45428753D02*
X68101988Y-47358976D01*
X69624107Y-45637130D02*
X69283757Y-47567354D01*
%TO.C,U1*%
X91100012Y-47741998D02*
X91100012Y-48541998D01*
X91100012Y-47741998D02*
X91100012Y-46941998D01*
X94220012Y-47741998D02*
X94220012Y-49541998D01*
X94220012Y-47741998D02*
X94220012Y-46941998D01*
%TO.C,D37*%
X73922389Y-78848068D02*
X72740620Y-78639690D01*
X73080970Y-76709467D02*
X72740620Y-78639690D01*
X74262739Y-76917844D02*
X73922389Y-78848068D01*
%TO.C,C7*%
X98681741Y-64506163D02*
X98529238Y-64353660D01*
X99190858Y-63997046D02*
X99038355Y-63844543D01*
%TO.C,D1*%
X49587601Y-44094393D02*
X48405832Y-43886015D01*
X48746182Y-41955792D02*
X48405832Y-43886015D01*
X49927951Y-42164169D02*
X49587601Y-44094393D01*
%TO.C,D4*%
X135009720Y-44233310D02*
X133827951Y-44441688D01*
X133487601Y-42511464D02*
X133827951Y-44441688D01*
X134669370Y-42303087D02*
X135009720Y-44233310D01*
%TO.C,D18*%
X117050051Y-57554348D02*
X115868282Y-57762726D01*
X115527932Y-55832502D02*
X115868282Y-57762726D01*
X116709701Y-55624125D02*
X117050051Y-57554348D01*
%TO.C,R1*%
X99780008Y-74562296D02*
X99780008Y-74255014D01*
X100540008Y-74562296D02*
X100540008Y-74255014D01*
%TO.C,D12*%
X146594278Y-52344909D02*
X145412509Y-52553287D01*
X145072159Y-50623063D02*
X145412509Y-52553287D01*
X146253928Y-50414686D02*
X146594278Y-52344909D01*
%TO.C,D7*%
X79131836Y-49303837D02*
X77950067Y-49095459D01*
X78290417Y-47165236D02*
X77950067Y-49095459D01*
X79472186Y-47373613D02*
X79131836Y-49303837D01*
%TO.C,D22*%
X148330761Y-62192982D02*
X147148992Y-62401360D01*
X146808642Y-60471136D02*
X147148992Y-62401360D01*
X147990411Y-60262759D02*
X148330761Y-62192982D01*
%TO.C,C1*%
X89218842Y-73215322D02*
X89434514Y-73215322D01*
X89218842Y-73935322D02*
X89434514Y-73935322D01*
%TO.C,C2*%
X92381742Y-59206159D02*
X92229239Y-59053656D01*
X92890859Y-58697042D02*
X92738356Y-58544539D01*
%TO.C,D6*%
X125161644Y-45969790D02*
X123979875Y-46178168D01*
X123639525Y-44247944D02*
X123979875Y-46178168D01*
X124821294Y-44039567D02*
X125161644Y-45969790D01*
%TO.C,SW42*%
X90366682Y-75855320D02*
X88286682Y-75855320D01*
X92046682Y-77125320D02*
X91556682Y-76635320D01*
X92046682Y-77125320D02*
X92046682Y-80025320D01*
X86606682Y-77125320D02*
X87096682Y-76635320D01*
X86606682Y-77125320D02*
X86606682Y-80025320D01*
X92046682Y-80025320D02*
X91556682Y-80515320D01*
X86606682Y-80025320D02*
X87096682Y-80515320D01*
X90366682Y-81295320D02*
X88286682Y-81295320D01*
%TO.C,D2*%
X144857798Y-42496831D02*
X143676029Y-42705209D01*
X143335679Y-40774985D02*
X143676029Y-42705209D01*
X144517448Y-40566608D02*
X144857798Y-42496831D01*
%TO.C,D14*%
X136746201Y-54081386D02*
X135564432Y-54289764D01*
X135224082Y-52359540D02*
X135564432Y-54289764D01*
X136405851Y-52151163D02*
X136746201Y-54081386D01*
%TO.C,D11*%
X47851122Y-53942472D02*
X46669353Y-53734094D01*
X47009703Y-51803871D02*
X46669353Y-53734094D01*
X48191472Y-52012248D02*
X47851122Y-53942472D01*
%TO.C,D19*%
X87243433Y-60888396D02*
X86061664Y-60680018D01*
X86402014Y-58749795D02*
X86061664Y-60680018D01*
X87583783Y-58958172D02*
X87243433Y-60888396D01*
%TO.C,D39*%
X83770466Y-80584551D02*
X82588697Y-80376173D01*
X82929047Y-78445950D02*
X82588697Y-80376173D01*
X84110816Y-78654327D02*
X83770466Y-80584551D01*
%TO.C,D13*%
X57699199Y-55678950D02*
X56517430Y-55470572D01*
X56857780Y-53540349D02*
X56517430Y-55470572D01*
X58039549Y-53748726D02*
X57699199Y-55678950D01*
%TO.C,C3*%
X95929240Y-71197044D02*
X96081743Y-71044541D01*
X96438357Y-71706161D02*
X96590860Y-71553658D01*
%TO.C,D31*%
X44378159Y-73638626D02*
X43196390Y-73430248D01*
X43536740Y-71500025D02*
X43196390Y-73430248D01*
X44718509Y-71708402D02*
X44378159Y-73638626D01*
%TO.C,D40*%
X110674933Y-78986988D02*
X109493164Y-79195366D01*
X109152814Y-77265142D02*
X109493164Y-79195366D01*
X110334583Y-77056765D02*
X110674933Y-78986988D01*
%TO.C,D16*%
X126898124Y-55817866D02*
X125716355Y-56026244D01*
X125376005Y-54096020D02*
X125716355Y-56026244D01*
X126557774Y-53887643D02*
X126898124Y-55817866D01*
%TO.C,D15*%
X67547276Y-57415431D02*
X66365507Y-57207053D01*
X66705857Y-55276830D02*
X66365507Y-57207053D01*
X67887626Y-55485207D02*
X67547276Y-57415431D01*
D14*
%TO.C,J1*%
X86160012Y-43954151D02*
X86160012Y-35054151D01*
X99160012Y-43954151D02*
X86160012Y-43954151D01*
X99160012Y-35054151D02*
X99160012Y-43954151D01*
D15*
%TO.C,D29*%
X85506951Y-70736472D02*
X84325182Y-70528094D01*
X84665532Y-68597871D02*
X84325182Y-70528094D01*
X85847301Y-68806248D02*
X85506951Y-70736472D01*
%TO.C,D8*%
X115313565Y-47706274D02*
X114131796Y-47914652D01*
X113791446Y-45984428D02*
X114131796Y-47914652D01*
X114973215Y-45776051D02*
X115313565Y-47706274D01*
%TO.C,D38*%
X120523007Y-77250505D02*
X119341238Y-77458883D01*
X119000888Y-75528659D02*
X119341238Y-77458883D01*
X120182657Y-75320282D02*
X120523007Y-77250505D01*
%TO.C,D26*%
X128634606Y-65665947D02*
X127452837Y-65874325D01*
X127112487Y-63944101D02*
X127452837Y-65874325D01*
X128294256Y-63735724D02*
X128634606Y-65665947D01*
%TO.C,D27*%
X75658870Y-68999991D02*
X74477101Y-68791613D01*
X74817451Y-66861390D02*
X74477101Y-68791613D01*
X75999220Y-67069767D02*
X75658870Y-68999991D01*
%TO.C,D24*%
X138482685Y-63929465D02*
X137300916Y-64137843D01*
X136960566Y-62207619D02*
X137300916Y-64137843D01*
X138142335Y-61999242D02*
X138482685Y-63929465D01*
%TO.C,R2*%
X88646988Y-44546649D02*
X88339706Y-44546649D01*
X88646988Y-43786649D02*
X88339706Y-43786649D01*
%TO.C,D9*%
X88979911Y-51040321D02*
X87798142Y-50831943D01*
X88138492Y-48901720D02*
X87798142Y-50831943D01*
X89320261Y-49110097D02*
X88979911Y-51040321D01*
%TO.C,D30*%
X108938453Y-69138911D02*
X107756684Y-69347289D01*
X107416334Y-67417065D02*
X107756684Y-69347289D01*
X108598103Y-67208688D02*
X108938453Y-69138911D01*
%TO.C,U2*%
X92660012Y-71180636D02*
X92978210Y-70862438D01*
X97447125Y-66393523D02*
X98359293Y-67305691D01*
X97765323Y-66075325D02*
X97447125Y-66393523D01*
X92341814Y-70862438D02*
X92660012Y-71180636D01*
X97447125Y-65757127D02*
X97765323Y-66075325D01*
X87872899Y-66393523D02*
X87554701Y-66075325D01*
X92978210Y-61288212D02*
X92660012Y-60970014D01*
X87554701Y-66075325D02*
X87872899Y-65757127D01*
X92660012Y-60970014D02*
X92341814Y-61288212D01*
%TO.C,D25*%
X65810793Y-67263513D02*
X64629024Y-67055135D01*
X64969374Y-65124912D02*
X64629024Y-67055135D01*
X66151143Y-65333289D02*
X65810793Y-67263513D01*
%TO.C,U3*%
X92660012Y-56801994D02*
X93310012Y-56801994D01*
X92660012Y-56801994D02*
X92010012Y-56801994D01*
X92660012Y-53681994D02*
X94335012Y-53681994D01*
X92660012Y-53681994D02*
X92010012Y-53681994D01*
%TO.C,R3*%
X97143602Y-44546649D02*
X96836320Y-44546649D01*
X97143602Y-43786649D02*
X96836320Y-43786649D01*
%TO.C,F1*%
X84525151Y-51674629D02*
X85710985Y-51883723D01*
X84209111Y-53466979D02*
X85394945Y-53676073D01*
%TO.C,C5*%
X91481741Y-60106160D02*
X91329238Y-59953657D01*
X91990858Y-59597043D02*
X91838355Y-59444540D01*
%TO.C,C6*%
X86638356Y-67644539D02*
X86790859Y-67797042D01*
X86129239Y-68153656D02*
X86281742Y-68306159D01*
%TO.C,D34*%
X140219165Y-73777543D02*
X139037396Y-73985921D01*
X138697046Y-72055697D02*
X139037396Y-73985921D01*
X139878815Y-71847320D02*
X140219165Y-73777543D01*
%TO.C,D32*%
X150067242Y-72041062D02*
X148885473Y-72249440D01*
X148545123Y-70319216D02*
X148885473Y-72249440D01*
X149726892Y-70110839D02*
X150067242Y-72041062D01*
%TO.C,D21*%
X46114639Y-63790547D02*
X44932870Y-63582169D01*
X45273220Y-61651946D02*
X44932870Y-63582169D01*
X46454989Y-61860323D02*
X46114639Y-63790547D01*
%TO.C,D28*%
X118786530Y-67402427D02*
X117604761Y-67610805D01*
X117264411Y-65680581D02*
X117604761Y-67610805D01*
X118446180Y-65472204D02*
X118786530Y-67402427D01*
%TO.C,D35*%
X64074313Y-77111588D02*
X62892544Y-76903210D01*
X63232894Y-74972987D02*
X62892544Y-76903210D01*
X64414663Y-75181364D02*
X64074313Y-77111588D01*
%TO.C,D20*%
X107201968Y-59290831D02*
X106020199Y-59499209D01*
X105679849Y-57568985D02*
X106020199Y-59499209D01*
X106861618Y-57360608D02*
X107201968Y-59290831D01*
%TO.C,C9*%
X90520011Y-54654158D02*
X90520011Y-54869830D01*
X89800011Y-54654158D02*
X89800011Y-54869830D01*
%TO.C,D3*%
X59435677Y-45830875D02*
X58253908Y-45622497D01*
X58594258Y-43692274D02*
X58253908Y-45622497D01*
X59776027Y-43900651D02*
X59435677Y-45830875D01*
%TO.C,C4*%
X96829241Y-71997043D02*
X96981744Y-71844540D01*
X97338358Y-72506160D02*
X97490861Y-72353657D01*
%TD*%
M02*
