%TF.GenerationSoftware,KiCad,Pcbnew,7.0.8*%
%TF.CreationDate,2023-12-09T20:05:49-06:00*%
%TF.ProjectId,lemmingz40,6c656d6d-696e-4677-9a34-302e6b696361,rev?*%
%TF.SameCoordinates,Original*%
%TF.FileFunction,Legend,Top*%
%TF.FilePolarity,Positive*%
%FSLAX46Y46*%
G04 Gerber Fmt 4.6, Leading zero omitted, Abs format (unit mm)*
G04 Created by KiCad (PCBNEW 7.0.8) date 2023-12-09 20:05:49*
%MOMM*%
%LPD*%
G01*
G04 APERTURE LIST*
%ADD10C,0.000000*%
%ADD11C,0.150000*%
G04 APERTURE END LIST*
D10*
G36*
X97511716Y-63243084D02*
G01*
X97511719Y-68856915D01*
X92649998Y-71663828D01*
X87788284Y-68856916D01*
X87788283Y-66137153D01*
X88604991Y-66137153D01*
X88608685Y-66311444D01*
X88619665Y-66483860D01*
X88637783Y-66654250D01*
X88662889Y-66822467D01*
X88694834Y-66988359D01*
X88733468Y-67151779D01*
X88778643Y-67312577D01*
X88830209Y-67470603D01*
X88888017Y-67625708D01*
X88951916Y-67777743D01*
X89021759Y-67926558D01*
X89097395Y-68072005D01*
X89178676Y-68213933D01*
X89265452Y-68352194D01*
X89357573Y-68486638D01*
X89454891Y-68617116D01*
X89468651Y-68521801D01*
X89485175Y-68427405D01*
X89504420Y-68333969D01*
X89526344Y-68241537D01*
X89550903Y-68150151D01*
X89578056Y-68059853D01*
X89607760Y-67970687D01*
X89639972Y-67882695D01*
X89674649Y-67795920D01*
X89711749Y-67710404D01*
X89751229Y-67626190D01*
X89793047Y-67543320D01*
X89810214Y-67511610D01*
X90793917Y-67511610D01*
X90794106Y-67519251D01*
X90794665Y-67526796D01*
X90795587Y-67534234D01*
X90796863Y-67541557D01*
X90798482Y-67548757D01*
X90800438Y-67555824D01*
X90802720Y-67562749D01*
X90805320Y-67569524D01*
X90808229Y-67576139D01*
X90811437Y-67582587D01*
X90814937Y-67588857D01*
X90818720Y-67594941D01*
X90822775Y-67600830D01*
X90827096Y-67606516D01*
X90831671Y-67611989D01*
X90836494Y-67617240D01*
X90841554Y-67622261D01*
X90846843Y-67627043D01*
X90852352Y-67631576D01*
X90858073Y-67635853D01*
X90863996Y-67639863D01*
X90870112Y-67643598D01*
X90876412Y-67647050D01*
X90882888Y-67650209D01*
X90889531Y-67653067D01*
X90896332Y-67655614D01*
X90903282Y-67657842D01*
X90910371Y-67659741D01*
X90917592Y-67661304D01*
X90924935Y-67662520D01*
X90932392Y-67663382D01*
X90939953Y-67663880D01*
X90939953Y-67664010D01*
X91423658Y-67664010D01*
X91423658Y-68147714D01*
X91423787Y-68147714D01*
X91424285Y-68155275D01*
X91425146Y-68162731D01*
X91426363Y-68170075D01*
X91427925Y-68177296D01*
X91429825Y-68184385D01*
X91432053Y-68191335D01*
X91434600Y-68198136D01*
X91437458Y-68204779D01*
X91440617Y-68211255D01*
X91444068Y-68217555D01*
X91447804Y-68223672D01*
X91451814Y-68229594D01*
X91456091Y-68235315D01*
X91460624Y-68240824D01*
X91465406Y-68246113D01*
X91470427Y-68251173D01*
X91475678Y-68255996D01*
X91481151Y-68260571D01*
X91486837Y-68264892D01*
X91492726Y-68268947D01*
X91498810Y-68272729D01*
X91505081Y-68276229D01*
X91511528Y-68279438D01*
X91518143Y-68282347D01*
X91524918Y-68284947D01*
X91531844Y-68287229D01*
X91538911Y-68289184D01*
X91546110Y-68290804D01*
X91553433Y-68292079D01*
X91560872Y-68293001D01*
X91568416Y-68293561D01*
X91576057Y-68293749D01*
X91583698Y-68293561D01*
X91591242Y-68293001D01*
X91598680Y-68292079D01*
X91606003Y-68290804D01*
X91613203Y-68289184D01*
X91620269Y-68287229D01*
X91627194Y-68284947D01*
X91633969Y-68282347D01*
X91640585Y-68279438D01*
X91647032Y-68276229D01*
X91653302Y-68272729D01*
X91659386Y-68268947D01*
X91665275Y-68264892D01*
X91670961Y-68260571D01*
X91676434Y-68255996D01*
X91681685Y-68251173D01*
X91686706Y-68246113D01*
X91691488Y-68240824D01*
X91696021Y-68235315D01*
X91700297Y-68229594D01*
X91704308Y-68223672D01*
X91708043Y-68217555D01*
X91711495Y-68211255D01*
X91714654Y-68204779D01*
X91717512Y-68198136D01*
X91720059Y-68191335D01*
X91722287Y-68184385D01*
X91724186Y-68177296D01*
X91725749Y-68170075D01*
X91726965Y-68162731D01*
X91727827Y-68155275D01*
X91728325Y-68147714D01*
X91728455Y-68147714D01*
X91728455Y-67959871D01*
X93126302Y-67959871D01*
X93126605Y-67966994D01*
X93127239Y-67974099D01*
X93128205Y-67981174D01*
X93129501Y-67988207D01*
X93131129Y-67995183D01*
X93133088Y-68002092D01*
X93135378Y-68008920D01*
X93137999Y-68015654D01*
X93140951Y-68022283D01*
X93144234Y-68028794D01*
X93147849Y-68035174D01*
X93151794Y-68041410D01*
X93156071Y-68047490D01*
X93160679Y-68053401D01*
X93165617Y-68059132D01*
X93170887Y-68064668D01*
X93176424Y-68069938D01*
X93182154Y-68074877D01*
X93188066Y-68079484D01*
X93194146Y-68083761D01*
X93200382Y-68087706D01*
X93206762Y-68091321D01*
X93213272Y-68094604D01*
X93219901Y-68097556D01*
X93226636Y-68100177D01*
X93233464Y-68102467D01*
X93240372Y-68104425D01*
X93247349Y-68106053D01*
X93254381Y-68107350D01*
X93261456Y-68108315D01*
X93268562Y-68108950D01*
X93275685Y-68109253D01*
X93282814Y-68109225D01*
X93289935Y-68108866D01*
X93297036Y-68108176D01*
X93304105Y-68107155D01*
X93311129Y-68105802D01*
X93318095Y-68104119D01*
X93324991Y-68102105D01*
X93331804Y-68099759D01*
X93338521Y-68097082D01*
X93345131Y-68094074D01*
X93351621Y-68090735D01*
X93357977Y-68087065D01*
X93364188Y-68083064D01*
X93370241Y-68078732D01*
X93376122Y-68074069D01*
X93381821Y-68069074D01*
X93381844Y-68069098D01*
X93381867Y-68069121D01*
X93381913Y-68069168D01*
X93723945Y-67727138D01*
X94061475Y-68064668D01*
X94065974Y-68069168D01*
X94065997Y-68069144D01*
X94066021Y-68069121D01*
X94066044Y-68069098D01*
X94066055Y-68069086D01*
X94066066Y-68069074D01*
X94071765Y-68074069D01*
X94077647Y-68078732D01*
X94083699Y-68083064D01*
X94089910Y-68087065D01*
X94096267Y-68090735D01*
X94102756Y-68094074D01*
X94109366Y-68097082D01*
X94116084Y-68099759D01*
X94122898Y-68102105D01*
X94129794Y-68104119D01*
X94136760Y-68105802D01*
X94143783Y-68107155D01*
X94150852Y-68108176D01*
X94157953Y-68108866D01*
X94165075Y-68109225D01*
X94172203Y-68109253D01*
X94179326Y-68108950D01*
X94186432Y-68108315D01*
X94193507Y-68107350D01*
X94200539Y-68106053D01*
X94207516Y-68104425D01*
X94214424Y-68102467D01*
X94221252Y-68100177D01*
X94227987Y-68097556D01*
X94234616Y-68094604D01*
X94241127Y-68091321D01*
X94247506Y-68087706D01*
X94253742Y-68083761D01*
X94259822Y-68079484D01*
X94265734Y-68074877D01*
X94271464Y-68069938D01*
X94277001Y-68064668D01*
X94282270Y-68059132D01*
X94287209Y-68053401D01*
X94291817Y-68047490D01*
X94296093Y-68041410D01*
X94300039Y-68035174D01*
X94303653Y-68028794D01*
X94306936Y-68022283D01*
X94309888Y-68015654D01*
X94312509Y-68008920D01*
X94314799Y-68002092D01*
X94316758Y-67995183D01*
X94318386Y-67988207D01*
X94319683Y-67981174D01*
X94320648Y-67974099D01*
X94321282Y-67966994D01*
X94321586Y-67959871D01*
X94321558Y-67952742D01*
X94321199Y-67945621D01*
X94320509Y-67938520D01*
X94319488Y-67931451D01*
X94318135Y-67924427D01*
X94316452Y-67917461D01*
X94314438Y-67910565D01*
X94312092Y-67903752D01*
X94309415Y-67897034D01*
X94306408Y-67890424D01*
X94303069Y-67883935D01*
X94299399Y-67877579D01*
X94295397Y-67871368D01*
X94291065Y-67865315D01*
X94286402Y-67859433D01*
X94281407Y-67853735D01*
X94281501Y-67853641D01*
X94277001Y-67849142D01*
X93939469Y-67511611D01*
X94277001Y-67174081D01*
X94281501Y-67169582D01*
X94281477Y-67169558D01*
X94281454Y-67169534D01*
X94281431Y-67169511D01*
X94281407Y-67169488D01*
X94286402Y-67163790D01*
X94291065Y-67157908D01*
X94295397Y-67151855D01*
X94299399Y-67145644D01*
X94303069Y-67139288D01*
X94306408Y-67132799D01*
X94309415Y-67126189D01*
X94312092Y-67119471D01*
X94314438Y-67112658D01*
X94316452Y-67105762D01*
X94318135Y-67098796D01*
X94319488Y-67091772D01*
X94320509Y-67084703D01*
X94321199Y-67077602D01*
X94321558Y-67070481D01*
X94321586Y-67063352D01*
X94321282Y-67056229D01*
X94320648Y-67049124D01*
X94319683Y-67042049D01*
X94318386Y-67035016D01*
X94316758Y-67028040D01*
X94314799Y-67021131D01*
X94312509Y-67014303D01*
X94309888Y-67007569D01*
X94306936Y-67000940D01*
X94303653Y-66994429D01*
X94300039Y-66988049D01*
X94296093Y-66981813D01*
X94291817Y-66975733D01*
X94287209Y-66969822D01*
X94282270Y-66964091D01*
X94277001Y-66958555D01*
X94271464Y-66953285D01*
X94265734Y-66948346D01*
X94259822Y-66943738D01*
X94253742Y-66939462D01*
X94247506Y-66935516D01*
X94241126Y-66931902D01*
X94234615Y-66928619D01*
X94227986Y-66925666D01*
X94221252Y-66923045D01*
X94214424Y-66920755D01*
X94207515Y-66918797D01*
X94200539Y-66917169D01*
X94193506Y-66915872D01*
X94186431Y-66914907D01*
X94179326Y-66914272D01*
X94172203Y-66913969D01*
X94165074Y-66913997D01*
X94157953Y-66914356D01*
X94150852Y-66915046D01*
X94143783Y-66916067D01*
X94136759Y-66917419D01*
X94129793Y-66919103D01*
X94122897Y-66921117D01*
X94116084Y-66923463D01*
X94109366Y-66926139D01*
X94102756Y-66929147D01*
X94096267Y-66932486D01*
X94089910Y-66936156D01*
X94083699Y-66940157D01*
X94077647Y-66944489D01*
X94071765Y-66949152D01*
X94066066Y-66954147D01*
X94066020Y-66954100D01*
X94066008Y-66954089D01*
X94065997Y-66954077D01*
X94065985Y-66954065D01*
X94065972Y-66954054D01*
X94061608Y-66958422D01*
X94061575Y-66958455D01*
X94061542Y-66958488D01*
X94061476Y-66958555D01*
X93723945Y-67296085D01*
X93386414Y-66958554D01*
X93381913Y-66954054D01*
X93381821Y-66954147D01*
X93376122Y-66949152D01*
X93370241Y-66944489D01*
X93364188Y-66940157D01*
X93357977Y-66936155D01*
X93351621Y-66932485D01*
X93345131Y-66929147D01*
X93338521Y-66926139D01*
X93331804Y-66923462D01*
X93324991Y-66921116D01*
X93318095Y-66919102D01*
X93311129Y-66917419D01*
X93304105Y-66916066D01*
X93297036Y-66915045D01*
X93289935Y-66914355D01*
X93282814Y-66913996D01*
X93275685Y-66913968D01*
X93268562Y-66914272D01*
X93261456Y-66914906D01*
X93254381Y-66915872D01*
X93247349Y-66917168D01*
X93240372Y-66918796D01*
X93233464Y-66920755D01*
X93226636Y-66923045D01*
X93219901Y-66925666D01*
X93213272Y-66928618D01*
X93206762Y-66931901D01*
X93200382Y-66935515D01*
X93194146Y-66939461D01*
X93188066Y-66943737D01*
X93182154Y-66948345D01*
X93176424Y-66953284D01*
X93170887Y-66958554D01*
X93165617Y-66964090D01*
X93160679Y-66969820D01*
X93156071Y-66975732D01*
X93151794Y-66981812D01*
X93147849Y-66988048D01*
X93144234Y-66994428D01*
X93140951Y-67000939D01*
X93137999Y-67007568D01*
X93135378Y-67014302D01*
X93133088Y-67021130D01*
X93131129Y-67028039D01*
X93129501Y-67035016D01*
X93128205Y-67042048D01*
X93127239Y-67049123D01*
X93126605Y-67056228D01*
X93126302Y-67063352D01*
X93126329Y-67070480D01*
X93126688Y-67077601D01*
X93127378Y-67084703D01*
X93128400Y-67091771D01*
X93129752Y-67098795D01*
X93131435Y-67105761D01*
X93133450Y-67112657D01*
X93135795Y-67119470D01*
X93138472Y-67126188D01*
X93141480Y-67132798D01*
X93144818Y-67139288D01*
X93148488Y-67145644D01*
X93152489Y-67151855D01*
X93156822Y-67157908D01*
X93161485Y-67163790D01*
X93166479Y-67169488D01*
X93166387Y-67169580D01*
X93170887Y-67174080D01*
X93508418Y-67511611D01*
X93166389Y-67853641D01*
X93166479Y-67853735D01*
X93161485Y-67859433D01*
X93156822Y-67865315D01*
X93152489Y-67871368D01*
X93148488Y-67877579D01*
X93144818Y-67883935D01*
X93141480Y-67890424D01*
X93138472Y-67897034D01*
X93135795Y-67903752D01*
X93133450Y-67910565D01*
X93131435Y-67917461D01*
X93129752Y-67924427D01*
X93128400Y-67931451D01*
X93127378Y-67938520D01*
X93126688Y-67945621D01*
X93126329Y-67952742D01*
X93126302Y-67959871D01*
X91728455Y-67959871D01*
X91728455Y-67664010D01*
X92212160Y-67664010D01*
X92212160Y-67663880D01*
X92219721Y-67663382D01*
X92227178Y-67662520D01*
X92234521Y-67661304D01*
X92241742Y-67659741D01*
X92248831Y-67657842D01*
X92255781Y-67655614D01*
X92262582Y-67653067D01*
X92269225Y-67650209D01*
X92275701Y-67647050D01*
X92282001Y-67643598D01*
X92288117Y-67639863D01*
X92294040Y-67635853D01*
X92299760Y-67631576D01*
X92305270Y-67627043D01*
X92310559Y-67622261D01*
X92315619Y-67617240D01*
X92320442Y-67611989D01*
X92325017Y-67606516D01*
X92329337Y-67600830D01*
X92333393Y-67594941D01*
X92337175Y-67588857D01*
X92340675Y-67582587D01*
X92343884Y-67576139D01*
X92346793Y-67569524D01*
X92349393Y-67562749D01*
X92351675Y-67555824D01*
X92353631Y-67548757D01*
X92355250Y-67541557D01*
X92356526Y-67534234D01*
X92357448Y-67526796D01*
X92358007Y-67519251D01*
X92358196Y-67511610D01*
X92358007Y-67503969D01*
X92357448Y-67496425D01*
X92356526Y-67488986D01*
X92355250Y-67481663D01*
X92353631Y-67474464D01*
X92351675Y-67467397D01*
X92349393Y-67460471D01*
X92346793Y-67453697D01*
X92343884Y-67447081D01*
X92340675Y-67440634D01*
X92337175Y-67434363D01*
X92333393Y-67428279D01*
X92329337Y-67422390D01*
X92325017Y-67416704D01*
X92320442Y-67411231D01*
X92315619Y-67405980D01*
X92310559Y-67400959D01*
X92305270Y-67396177D01*
X92299760Y-67391644D01*
X92294040Y-67387368D01*
X92288117Y-67383357D01*
X92282001Y-67379622D01*
X92275701Y-67376170D01*
X92269225Y-67373011D01*
X92262582Y-67370154D01*
X92255781Y-67367606D01*
X92248831Y-67365379D01*
X92241742Y-67363479D01*
X92234521Y-67361916D01*
X92227178Y-67360700D01*
X92219721Y-67359838D01*
X92212160Y-67359340D01*
X92212160Y-67359211D01*
X92205984Y-67359213D01*
X91728455Y-67359213D01*
X91728455Y-66875507D01*
X91728326Y-66875507D01*
X91727828Y-66867945D01*
X91726967Y-66860489D01*
X91725750Y-66853146D01*
X91724187Y-66845925D01*
X91722288Y-66838835D01*
X91720060Y-66831886D01*
X91717513Y-66825085D01*
X91714655Y-66818442D01*
X91711496Y-66811966D01*
X91708044Y-66805665D01*
X91704309Y-66799549D01*
X91700298Y-66793626D01*
X91696022Y-66787906D01*
X91691489Y-66782397D01*
X91686707Y-66777107D01*
X91681686Y-66772047D01*
X91676434Y-66767225D01*
X91670962Y-66762649D01*
X91665276Y-66758329D01*
X91659387Y-66754273D01*
X91653302Y-66750491D01*
X91647032Y-66746991D01*
X91640585Y-66743782D01*
X91633969Y-66740873D01*
X91627195Y-66738273D01*
X91620269Y-66735991D01*
X91613203Y-66734035D01*
X91606003Y-66732416D01*
X91598680Y-66731140D01*
X91591242Y-66730218D01*
X91583698Y-66729659D01*
X91576057Y-66729470D01*
X91568416Y-66729659D01*
X91560872Y-66730218D01*
X91553433Y-66731140D01*
X91546110Y-66732416D01*
X91538911Y-66734035D01*
X91531844Y-66735991D01*
X91524918Y-66738273D01*
X91518143Y-66740873D01*
X91511528Y-66743782D01*
X91505081Y-66746991D01*
X91498810Y-66750491D01*
X91492726Y-66754273D01*
X91486837Y-66758329D01*
X91481151Y-66762649D01*
X91475678Y-66767225D01*
X91470427Y-66772047D01*
X91465406Y-66777107D01*
X91460624Y-66782397D01*
X91456091Y-66787906D01*
X91451814Y-66793626D01*
X91447804Y-66799549D01*
X91444068Y-66805665D01*
X91440617Y-66811966D01*
X91437458Y-66818442D01*
X91434600Y-66825085D01*
X91432053Y-66831886D01*
X91429825Y-66838835D01*
X91427925Y-66845925D01*
X91426363Y-66853146D01*
X91425146Y-66860489D01*
X91424285Y-66867945D01*
X91423787Y-66875507D01*
X91423658Y-66875507D01*
X91423658Y-67359211D01*
X90939953Y-67359211D01*
X90939953Y-67359342D01*
X90932392Y-67359840D01*
X90924935Y-67360701D01*
X90917592Y-67361918D01*
X90910371Y-67363480D01*
X90903281Y-67365380D01*
X90896331Y-67367608D01*
X90889531Y-67370155D01*
X90882888Y-67373012D01*
X90876412Y-67376171D01*
X90870111Y-67379623D01*
X90863995Y-67383359D01*
X90858072Y-67387369D01*
X90852352Y-67391645D01*
X90846843Y-67396179D01*
X90841553Y-67400960D01*
X90836493Y-67405981D01*
X90831671Y-67411233D01*
X90827095Y-67416705D01*
X90822775Y-67422391D01*
X90818719Y-67428280D01*
X90814937Y-67434364D01*
X90811437Y-67440635D01*
X90808228Y-67447082D01*
X90805320Y-67453697D01*
X90802720Y-67460472D01*
X90800438Y-67467397D01*
X90798482Y-67474464D01*
X90796862Y-67481664D01*
X90795587Y-67488987D01*
X90794665Y-67496425D01*
X90794106Y-67503969D01*
X90793917Y-67511610D01*
X89810214Y-67511610D01*
X89837160Y-67461838D01*
X89883525Y-67381785D01*
X89932100Y-67303205D01*
X89982842Y-67226139D01*
X89918698Y-67174912D01*
X89857600Y-67120193D01*
X89799700Y-67062134D01*
X89745148Y-67000885D01*
X89694094Y-66936596D01*
X89646690Y-66869419D01*
X89603085Y-66799504D01*
X89563431Y-66727001D01*
X89527878Y-66652061D01*
X89496577Y-66574836D01*
X89469678Y-66495474D01*
X89447332Y-66414128D01*
X89429689Y-66330948D01*
X89416901Y-66246084D01*
X89409117Y-66159686D01*
X89406489Y-66071907D01*
X89408369Y-65997623D01*
X89413950Y-65924310D01*
X89423139Y-65852059D01*
X89435847Y-65780961D01*
X89451983Y-65711107D01*
X89471454Y-65642588D01*
X89494171Y-65575494D01*
X89520042Y-65509918D01*
X89548977Y-65445949D01*
X89580883Y-65383680D01*
X89615672Y-65323200D01*
X89653251Y-65264600D01*
X89693529Y-65207973D01*
X89736416Y-65153408D01*
X89781820Y-65100997D01*
X89829651Y-65050831D01*
X89879817Y-65003000D01*
X89932228Y-64957595D01*
X89986793Y-64914709D01*
X90043421Y-64874430D01*
X90102020Y-64836852D01*
X90162500Y-64802063D01*
X90224770Y-64770156D01*
X90288738Y-64741222D01*
X90354315Y-64715351D01*
X90421408Y-64692634D01*
X90489927Y-64673163D01*
X90559781Y-64657027D01*
X90630879Y-64644319D01*
X90703130Y-64635130D01*
X90776443Y-64629549D01*
X90850727Y-64627669D01*
X90917472Y-64629186D01*
X90983440Y-64633694D01*
X91048568Y-64641127D01*
X91112788Y-64651419D01*
X91176036Y-64664505D01*
X91238244Y-64680317D01*
X91299348Y-64698791D01*
X91359281Y-64719861D01*
X91417978Y-64743461D01*
X91475372Y-64769524D01*
X91531399Y-64797985D01*
X91585991Y-64828779D01*
X91639083Y-64861839D01*
X91690610Y-64897099D01*
X91740505Y-64934495D01*
X91788703Y-64973958D01*
X91835137Y-65015425D01*
X91879742Y-65058829D01*
X91922452Y-65104104D01*
X91963201Y-65151184D01*
X92001924Y-65200004D01*
X92038554Y-65250497D01*
X92073025Y-65302598D01*
X92105272Y-65356241D01*
X92135229Y-65411360D01*
X92162830Y-65467889D01*
X92188009Y-65525763D01*
X92210700Y-65584915D01*
X92230837Y-65645279D01*
X92248355Y-65706790D01*
X92263188Y-65769383D01*
X92275270Y-65832990D01*
X92321470Y-65827968D01*
X92367863Y-65823600D01*
X92414443Y-65819891D01*
X92461207Y-65816846D01*
X92508149Y-65814470D01*
X92555265Y-65812767D01*
X92602550Y-65811741D01*
X92650000Y-65811398D01*
X92650001Y-65811398D01*
X92694247Y-65811696D01*
X92738351Y-65812588D01*
X92782309Y-65814070D01*
X92826117Y-65816138D01*
X92869770Y-65818788D01*
X92913266Y-65822016D01*
X92956601Y-65825820D01*
X92999770Y-65830194D01*
X93011138Y-65765708D01*
X93025328Y-65702236D01*
X93042272Y-65639847D01*
X93061903Y-65578608D01*
X93084152Y-65518587D01*
X93108953Y-65459851D01*
X93136237Y-65402469D01*
X93165936Y-65346507D01*
X93197984Y-65292034D01*
X93232311Y-65239118D01*
X93268852Y-65187825D01*
X93307537Y-65138224D01*
X93348299Y-65090383D01*
X93391070Y-65044369D01*
X93435783Y-65000250D01*
X93482370Y-64958093D01*
X93530763Y-64917967D01*
X93580895Y-64879939D01*
X93632698Y-64844077D01*
X93686103Y-64810448D01*
X93741045Y-64779120D01*
X93797453Y-64750161D01*
X93855262Y-64723639D01*
X93914403Y-64699621D01*
X93974808Y-64678176D01*
X94036411Y-64659370D01*
X94099142Y-64643271D01*
X94162935Y-64629948D01*
X94227722Y-64619467D01*
X94293434Y-64611897D01*
X94360005Y-64607306D01*
X94427366Y-64605760D01*
X94501650Y-64607640D01*
X94574963Y-64613221D01*
X94647214Y-64622411D01*
X94718312Y-64635119D01*
X94788166Y-64651254D01*
X94856686Y-64670725D01*
X94923779Y-64693442D01*
X94989355Y-64719313D01*
X95053324Y-64748248D01*
X95115593Y-64780155D01*
X95176073Y-64814943D01*
X95234673Y-64852522D01*
X95291300Y-64892800D01*
X95345865Y-64935687D01*
X95398276Y-64981091D01*
X95448442Y-65028922D01*
X95496273Y-65079088D01*
X95541678Y-65131499D01*
X95584564Y-65186064D01*
X95624843Y-65242692D01*
X95662421Y-65301291D01*
X95697210Y-65361771D01*
X95729117Y-65424041D01*
X95758051Y-65488009D01*
X95783922Y-65553585D01*
X95806639Y-65620679D01*
X95826110Y-65689198D01*
X95842246Y-65759052D01*
X95854954Y-65830150D01*
X95864143Y-65902401D01*
X95869724Y-65975714D01*
X95871604Y-66049999D01*
X95868999Y-66137402D01*
X95861282Y-66223436D01*
X95848602Y-66307951D01*
X95831107Y-66390799D01*
X95808947Y-66471831D01*
X95782270Y-66550898D01*
X95751225Y-66627852D01*
X95715960Y-66702544D01*
X95676624Y-66774826D01*
X95633366Y-66844548D01*
X95586335Y-66911562D01*
X95535679Y-66975719D01*
X95481546Y-67036871D01*
X95424087Y-67094869D01*
X95363448Y-67149564D01*
X95299780Y-67200808D01*
X95352283Y-67278969D01*
X95402542Y-67358724D01*
X95450511Y-67440025D01*
X95496145Y-67522829D01*
X95539398Y-67607089D01*
X95580226Y-67692760D01*
X95618583Y-67779798D01*
X95654423Y-67868156D01*
X95687701Y-67957789D01*
X95718372Y-68048652D01*
X95746391Y-68140699D01*
X95771712Y-68233886D01*
X95794289Y-68328167D01*
X95814078Y-68423496D01*
X95831033Y-68519828D01*
X95845109Y-68617118D01*
X95942427Y-68486640D01*
X96034549Y-68352195D01*
X96121325Y-68213934D01*
X96202605Y-68072006D01*
X96278242Y-67926559D01*
X96348085Y-67777744D01*
X96411985Y-67625709D01*
X96469792Y-67470603D01*
X96521358Y-67312577D01*
X96566533Y-67151780D01*
X96605168Y-66988360D01*
X96637113Y-66822467D01*
X96662219Y-66654251D01*
X96680337Y-66483860D01*
X96691317Y-66311444D01*
X96695010Y-66137153D01*
X96689744Y-65929099D01*
X96674114Y-65723764D01*
X96648375Y-65521404D01*
X96612783Y-65322273D01*
X96567592Y-65126626D01*
X96513056Y-64934718D01*
X96449431Y-64746804D01*
X96376971Y-64563138D01*
X96295932Y-64383976D01*
X96206567Y-64209571D01*
X96109133Y-64040180D01*
X96003882Y-63876056D01*
X95891072Y-63717454D01*
X95770955Y-63564629D01*
X95643787Y-63417837D01*
X95509822Y-63277331D01*
X95369317Y-63143367D01*
X95222524Y-63016199D01*
X95069700Y-62896082D01*
X94911098Y-62783271D01*
X94746974Y-62678021D01*
X94577582Y-62580586D01*
X94403178Y-62491222D01*
X94224015Y-62410182D01*
X94040349Y-62337723D01*
X93852435Y-62274098D01*
X93660527Y-62219562D01*
X93464881Y-62174371D01*
X93265750Y-62138779D01*
X93063390Y-62113040D01*
X92858055Y-62097410D01*
X92650001Y-62092144D01*
X92441947Y-62097410D01*
X92236612Y-62113040D01*
X92034252Y-62138779D01*
X91835121Y-62174371D01*
X91639475Y-62219562D01*
X91447567Y-62274098D01*
X91259652Y-62337723D01*
X91075987Y-62410182D01*
X90896824Y-62491222D01*
X90722420Y-62580586D01*
X90553028Y-62678021D01*
X90388904Y-62783271D01*
X90230302Y-62896082D01*
X90077478Y-63016199D01*
X89930685Y-63143367D01*
X89790179Y-63277331D01*
X89656215Y-63417837D01*
X89529047Y-63564629D01*
X89408930Y-63717454D01*
X89296119Y-63876056D01*
X89190869Y-64040180D01*
X89093434Y-64209571D01*
X89004070Y-64383976D01*
X88923030Y-64563138D01*
X88850571Y-64746804D01*
X88786946Y-64934718D01*
X88732410Y-65126626D01*
X88687219Y-65322273D01*
X88651627Y-65521404D01*
X88625888Y-65723764D01*
X88610258Y-65929099D01*
X88604991Y-66137153D01*
X87788283Y-66137153D01*
X87788282Y-63243086D01*
X92650002Y-60436172D01*
X97511716Y-63243084D01*
G37*
D11*
X138276115Y-39338950D02*
X138425070Y-39361039D01*
X138425070Y-39361039D02*
X138659548Y-39319694D01*
X138659548Y-39319694D02*
X138745071Y-39256260D01*
X138745071Y-39256260D02*
X138783697Y-39201096D01*
X138783697Y-39201096D02*
X138814055Y-39099036D01*
X138814055Y-39099036D02*
X138797517Y-39005244D01*
X138797517Y-39005244D02*
X138734084Y-38919722D01*
X138734084Y-38919722D02*
X138678919Y-38881096D01*
X138678919Y-38881096D02*
X138576859Y-38850738D01*
X138576859Y-38850738D02*
X138381007Y-38836918D01*
X138381007Y-38836918D02*
X138278947Y-38806560D01*
X138278947Y-38806560D02*
X138223783Y-38767934D01*
X138223783Y-38767934D02*
X138160349Y-38682412D01*
X138160349Y-38682412D02*
X138143811Y-38588620D01*
X138143811Y-38588620D02*
X138174169Y-38486560D01*
X138174169Y-38486560D02*
X138212796Y-38431396D01*
X138212796Y-38431396D02*
X138298318Y-38367962D01*
X138298318Y-38367962D02*
X138532796Y-38326617D01*
X138532796Y-38326617D02*
X138681752Y-38348706D01*
X139001752Y-38243928D02*
X139409878Y-39187391D01*
X139409878Y-39187391D02*
X139473426Y-38450881D01*
X139473426Y-38450881D02*
X139785043Y-39121239D01*
X139785043Y-39121239D02*
X139845873Y-38095086D01*
X140190680Y-38130995D02*
X140229307Y-38075830D01*
X140229307Y-38075830D02*
X140314829Y-38012397D01*
X140314829Y-38012397D02*
X140549307Y-37971052D01*
X140549307Y-37971052D02*
X140651367Y-38001410D01*
X140651367Y-38001410D02*
X140706532Y-38040036D01*
X140706532Y-38040036D02*
X140769965Y-38125559D01*
X140769965Y-38125559D02*
X140786503Y-38219350D01*
X140786503Y-38219350D02*
X140764414Y-38368306D01*
X140764414Y-38368306D02*
X140300895Y-39030280D01*
X140300895Y-39030280D02*
X140910537Y-38922784D01*
X143016607Y-68965873D02*
X143165563Y-68987961D01*
X143165563Y-68987961D02*
X143400041Y-68946617D01*
X143400041Y-68946617D02*
X143485563Y-68883183D01*
X143485563Y-68883183D02*
X143524190Y-68828019D01*
X143524190Y-68828019D02*
X143554547Y-68725958D01*
X143554547Y-68725958D02*
X143538009Y-68632167D01*
X143538009Y-68632167D02*
X143474576Y-68546645D01*
X143474576Y-68546645D02*
X143419411Y-68508018D01*
X143419411Y-68508018D02*
X143317351Y-68477661D01*
X143317351Y-68477661D02*
X143121500Y-68463841D01*
X143121500Y-68463841D02*
X143019440Y-68433483D01*
X143019440Y-68433483D02*
X142964275Y-68394856D01*
X142964275Y-68394856D02*
X142900842Y-68309334D01*
X142900842Y-68309334D02*
X142884304Y-68215543D01*
X142884304Y-68215543D02*
X142914661Y-68113483D01*
X142914661Y-68113483D02*
X142953288Y-68058318D01*
X142953288Y-68058318D02*
X143038810Y-67994885D01*
X143038810Y-67994885D02*
X143273288Y-67953540D01*
X143273288Y-67953540D02*
X143422244Y-67975629D01*
X143742244Y-67870850D02*
X144150371Y-68814313D01*
X144150371Y-68814313D02*
X144213919Y-68077803D01*
X144213919Y-68077803D02*
X144525535Y-68748162D01*
X144525535Y-68748162D02*
X144586365Y-67722009D01*
X144867739Y-67672395D02*
X145477382Y-67564899D01*
X145477382Y-67564899D02*
X145215264Y-67997946D01*
X145215264Y-67997946D02*
X145355951Y-67973139D01*
X145355951Y-67973139D02*
X145458011Y-68003497D01*
X145458011Y-68003497D02*
X145513176Y-68042124D01*
X145513176Y-68042124D02*
X145576609Y-68127646D01*
X145576609Y-68127646D02*
X145617954Y-68362124D01*
X145617954Y-68362124D02*
X145587596Y-68464184D01*
X145587596Y-68464184D02*
X145548970Y-68519349D01*
X145548970Y-68519349D02*
X145463447Y-68582782D01*
X145463447Y-68582782D02*
X145182074Y-68632396D01*
X145182074Y-68632396D02*
X145080014Y-68602038D01*
X145080014Y-68602038D02*
X145024849Y-68563412D01*
X145869084Y-67592538D02*
X145907711Y-67537374D01*
X145907711Y-67537374D02*
X145993233Y-67473940D01*
X145993233Y-67473940D02*
X146227711Y-67432595D01*
X146227711Y-67432595D02*
X146329772Y-67462953D01*
X146329772Y-67462953D02*
X146384936Y-67501580D01*
X146384936Y-67501580D02*
X146448370Y-67587102D01*
X146448370Y-67587102D02*
X146464908Y-67680893D01*
X146464908Y-67680893D02*
X146442819Y-67829849D01*
X146442819Y-67829849D02*
X145979299Y-68491824D01*
X145979299Y-68491824D02*
X146588942Y-68384327D01*
X98414846Y-46367568D02*
X98563802Y-46389656D01*
X98563802Y-46389656D02*
X98798280Y-46348312D01*
X98798280Y-46348312D02*
X98883802Y-46284878D01*
X98883802Y-46284878D02*
X98922429Y-46229714D01*
X98922429Y-46229714D02*
X98952786Y-46127653D01*
X98952786Y-46127653D02*
X98936248Y-46033862D01*
X98936248Y-46033862D02*
X98872815Y-45948340D01*
X98872815Y-45948340D02*
X98817650Y-45909713D01*
X98817650Y-45909713D02*
X98715590Y-45879356D01*
X98715590Y-45879356D02*
X98519739Y-45865536D01*
X98519739Y-45865536D02*
X98417679Y-45835178D01*
X98417679Y-45835178D02*
X98362514Y-45796551D01*
X98362514Y-45796551D02*
X98299081Y-45711029D01*
X98299081Y-45711029D02*
X98282543Y-45617238D01*
X98282543Y-45617238D02*
X98312900Y-45515178D01*
X98312900Y-45515178D02*
X98351527Y-45460013D01*
X98351527Y-45460013D02*
X98437049Y-45396580D01*
X98437049Y-45396580D02*
X98671527Y-45355235D01*
X98671527Y-45355235D02*
X98820483Y-45377324D01*
X99140483Y-45272545D02*
X99548610Y-46216008D01*
X99548610Y-46216008D02*
X99612158Y-45479498D01*
X99612158Y-45479498D02*
X99923774Y-46149857D01*
X99923774Y-46149857D02*
X99984604Y-45123704D01*
X101049269Y-45951402D02*
X100486522Y-46050629D01*
X100767895Y-46001015D02*
X100594247Y-45016208D01*
X100594247Y-45016208D02*
X100525263Y-45173432D01*
X100525263Y-45173432D02*
X100448009Y-45283761D01*
X100448009Y-45283761D02*
X100362487Y-45347195D01*
X101485264Y-44859097D02*
X101579055Y-44842559D01*
X101579055Y-44842559D02*
X101681115Y-44872917D01*
X101681115Y-44872917D02*
X101736280Y-44911544D01*
X101736280Y-44911544D02*
X101799713Y-44997066D01*
X101799713Y-44997066D02*
X101879685Y-45176379D01*
X101879685Y-45176379D02*
X101921029Y-45410857D01*
X101921029Y-45410857D02*
X101907210Y-45606709D01*
X101907210Y-45606709D02*
X101876852Y-45708769D01*
X101876852Y-45708769D02*
X101838225Y-45763934D01*
X101838225Y-45763934D02*
X101752703Y-45827367D01*
X101752703Y-45827367D02*
X101658912Y-45843905D01*
X101658912Y-45843905D02*
X101556852Y-45813547D01*
X101556852Y-45813547D02*
X101501687Y-45774921D01*
X101501687Y-45774921D02*
X101438254Y-45689398D01*
X101438254Y-45689398D02*
X101358282Y-45510085D01*
X101358282Y-45510085D02*
X101316937Y-45275607D01*
X101316937Y-45275607D02*
X101330757Y-45079756D01*
X101330757Y-45079756D02*
X101361115Y-44977695D01*
X101361115Y-44977695D02*
X101399741Y-44922531D01*
X101399741Y-44922531D02*
X101485264Y-44859097D01*
X100151330Y-56215641D02*
X100300286Y-56237729D01*
X100300286Y-56237729D02*
X100534764Y-56196385D01*
X100534764Y-56196385D02*
X100620286Y-56132951D01*
X100620286Y-56132951D02*
X100658913Y-56077787D01*
X100658913Y-56077787D02*
X100689270Y-55975726D01*
X100689270Y-55975726D02*
X100672732Y-55881935D01*
X100672732Y-55881935D02*
X100609299Y-55796413D01*
X100609299Y-55796413D02*
X100554134Y-55757786D01*
X100554134Y-55757786D02*
X100452074Y-55727429D01*
X100452074Y-55727429D02*
X100256223Y-55713609D01*
X100256223Y-55713609D02*
X100154163Y-55683251D01*
X100154163Y-55683251D02*
X100098998Y-55644624D01*
X100098998Y-55644624D02*
X100035565Y-55559102D01*
X100035565Y-55559102D02*
X100019027Y-55465311D01*
X100019027Y-55465311D02*
X100049384Y-55363251D01*
X100049384Y-55363251D02*
X100088011Y-55308086D01*
X100088011Y-55308086D02*
X100173533Y-55244653D01*
X100173533Y-55244653D02*
X100408011Y-55203308D01*
X100408011Y-55203308D02*
X100556967Y-55225397D01*
X100876967Y-55120618D02*
X101285094Y-56064081D01*
X101285094Y-56064081D02*
X101348642Y-55327571D01*
X101348642Y-55327571D02*
X101660258Y-55997930D01*
X101660258Y-55997930D02*
X101721088Y-54971777D01*
X102065895Y-55007686D02*
X102104522Y-54952521D01*
X102104522Y-54952521D02*
X102190044Y-54889087D01*
X102190044Y-54889087D02*
X102424522Y-54847743D01*
X102424522Y-54847743D02*
X102526582Y-54878100D01*
X102526582Y-54878100D02*
X102581747Y-54916727D01*
X102581747Y-54916727D02*
X102645181Y-55002249D01*
X102645181Y-55002249D02*
X102661718Y-55096040D01*
X102661718Y-55096040D02*
X102639630Y-55244996D01*
X102639630Y-55244996D02*
X102176110Y-55906971D01*
X102176110Y-55906971D02*
X102785753Y-55799475D01*
X103221748Y-54707170D02*
X103315539Y-54690632D01*
X103315539Y-54690632D02*
X103417599Y-54720990D01*
X103417599Y-54720990D02*
X103472764Y-54759617D01*
X103472764Y-54759617D02*
X103536197Y-54845139D01*
X103536197Y-54845139D02*
X103616169Y-55024452D01*
X103616169Y-55024452D02*
X103657513Y-55258930D01*
X103657513Y-55258930D02*
X103643694Y-55454782D01*
X103643694Y-55454782D02*
X103613336Y-55556842D01*
X103613336Y-55556842D02*
X103574709Y-55612007D01*
X103574709Y-55612007D02*
X103489187Y-55675440D01*
X103489187Y-55675440D02*
X103395396Y-55691978D01*
X103395396Y-55691978D02*
X103293336Y-55661620D01*
X103293336Y-55661620D02*
X103238171Y-55622994D01*
X103238171Y-55622994D02*
X103174738Y-55537471D01*
X103174738Y-55537471D02*
X103094766Y-55358158D01*
X103094766Y-55358158D02*
X103053421Y-55123680D01*
X103053421Y-55123680D02*
X103067241Y-54927829D01*
X103067241Y-54927829D02*
X103097599Y-54825768D01*
X103097599Y-54825768D02*
X103136225Y-54770604D01*
X103136225Y-54770604D02*
X103221748Y-54707170D01*
X108731884Y-44548395D02*
X108880839Y-44570484D01*
X108880839Y-44570484D02*
X109115317Y-44529139D01*
X109115317Y-44529139D02*
X109200840Y-44465705D01*
X109200840Y-44465705D02*
X109239466Y-44410541D01*
X109239466Y-44410541D02*
X109269824Y-44308481D01*
X109269824Y-44308481D02*
X109253286Y-44214689D01*
X109253286Y-44214689D02*
X109189853Y-44129167D01*
X109189853Y-44129167D02*
X109134688Y-44090541D01*
X109134688Y-44090541D02*
X109032628Y-44060183D01*
X109032628Y-44060183D02*
X108836776Y-44046363D01*
X108836776Y-44046363D02*
X108734716Y-44016005D01*
X108734716Y-44016005D02*
X108679552Y-43977379D01*
X108679552Y-43977379D02*
X108616118Y-43891857D01*
X108616118Y-43891857D02*
X108599580Y-43798065D01*
X108599580Y-43798065D02*
X108629938Y-43696005D01*
X108629938Y-43696005D02*
X108668565Y-43640841D01*
X108668565Y-43640841D02*
X108754087Y-43577407D01*
X108754087Y-43577407D02*
X108988565Y-43536062D01*
X108988565Y-43536062D02*
X109137521Y-43558151D01*
X109457521Y-43453373D02*
X109865647Y-44396836D01*
X109865647Y-44396836D02*
X109929195Y-43660326D01*
X109929195Y-43660326D02*
X110240812Y-44330684D01*
X110240812Y-44330684D02*
X110301642Y-43304531D01*
X110891914Y-43635633D02*
X110789854Y-43605276D01*
X110789854Y-43605276D02*
X110734689Y-43566649D01*
X110734689Y-43566649D02*
X110671256Y-43481127D01*
X110671256Y-43481127D02*
X110662987Y-43434231D01*
X110662987Y-43434231D02*
X110693344Y-43332171D01*
X110693344Y-43332171D02*
X110731971Y-43277006D01*
X110731971Y-43277006D02*
X110817493Y-43213573D01*
X110817493Y-43213573D02*
X111005076Y-43180497D01*
X111005076Y-43180497D02*
X111107136Y-43210855D01*
X111107136Y-43210855D02*
X111162301Y-43249481D01*
X111162301Y-43249481D02*
X111225734Y-43335004D01*
X111225734Y-43335004D02*
X111234003Y-43381899D01*
X111234003Y-43381899D02*
X111203645Y-43483959D01*
X111203645Y-43483959D02*
X111165019Y-43539124D01*
X111165019Y-43539124D02*
X111079496Y-43602557D01*
X111079496Y-43602557D02*
X110891914Y-43635633D01*
X110891914Y-43635633D02*
X110806392Y-43699067D01*
X110806392Y-43699067D02*
X110767765Y-43754231D01*
X110767765Y-43754231D02*
X110737407Y-43856292D01*
X110737407Y-43856292D02*
X110770483Y-44043874D01*
X110770483Y-44043874D02*
X110833917Y-44129396D01*
X110833917Y-44129396D02*
X110889081Y-44168023D01*
X110889081Y-44168023D02*
X110991142Y-44198381D01*
X110991142Y-44198381D02*
X111178724Y-44165305D01*
X111178724Y-44165305D02*
X111264246Y-44101871D01*
X111264246Y-44101871D02*
X111302873Y-44046707D01*
X111302873Y-44046707D02*
X111333231Y-43944646D01*
X111333231Y-43944646D02*
X111300155Y-43757064D01*
X111300155Y-43757064D02*
X111236721Y-43671542D01*
X111236721Y-43671542D02*
X111181557Y-43632915D01*
X111181557Y-43632915D02*
X111079496Y-43602557D01*
X81669772Y-55587201D02*
X81802190Y-55658903D01*
X81802190Y-55658903D02*
X82036668Y-55700248D01*
X82036668Y-55700248D02*
X82138728Y-55669890D01*
X82138728Y-55669890D02*
X82193893Y-55631264D01*
X82193893Y-55631264D02*
X82257326Y-55545741D01*
X82257326Y-55545741D02*
X82273864Y-55451950D01*
X82273864Y-55451950D02*
X82243506Y-55349890D01*
X82243506Y-55349890D02*
X82204880Y-55294725D01*
X82204880Y-55294725D02*
X82119357Y-55231292D01*
X82119357Y-55231292D02*
X81940044Y-55151320D01*
X81940044Y-55151320D02*
X81854522Y-55087887D01*
X81854522Y-55087887D02*
X81815895Y-55032722D01*
X81815895Y-55032722D02*
X81785537Y-54930662D01*
X81785537Y-54930662D02*
X81802075Y-54836871D01*
X81802075Y-54836871D02*
X81865509Y-54751349D01*
X81865509Y-54751349D02*
X81920673Y-54712722D01*
X81920673Y-54712722D02*
X82022734Y-54682364D01*
X82022734Y-54682364D02*
X82257212Y-54723709D01*
X82257212Y-54723709D02*
X82389629Y-54795412D01*
X82726168Y-54806399D02*
X82786998Y-55832551D01*
X82786998Y-55832551D02*
X83098614Y-55162193D01*
X83098614Y-55162193D02*
X83162162Y-55898703D01*
X83162162Y-55898703D02*
X83570289Y-54955240D01*
X84287657Y-56097158D02*
X83724910Y-55997931D01*
X84006283Y-56047544D02*
X84179931Y-55062737D01*
X84179931Y-55062737D02*
X84061333Y-55186885D01*
X84061333Y-55186885D02*
X83951004Y-55264139D01*
X83951004Y-55264139D02*
X83848944Y-55294496D01*
X84756613Y-56179848D02*
X84944195Y-56212924D01*
X84944195Y-56212924D02*
X85046256Y-56182566D01*
X85046256Y-56182566D02*
X85101420Y-56143939D01*
X85101420Y-56143939D02*
X85220018Y-56019790D01*
X85220018Y-56019790D02*
X85299990Y-55840477D01*
X85299990Y-55840477D02*
X85366141Y-55465312D01*
X85366141Y-55465312D02*
X85335784Y-55363252D01*
X85335784Y-55363252D02*
X85297157Y-55308087D01*
X85297157Y-55308087D02*
X85211635Y-55244654D01*
X85211635Y-55244654D02*
X85024052Y-55211578D01*
X85024052Y-55211578D02*
X84921992Y-55241936D01*
X84921992Y-55241936D02*
X84866828Y-55280562D01*
X84866828Y-55280562D02*
X84803394Y-55366084D01*
X84803394Y-55366084D02*
X84762049Y-55600563D01*
X84762049Y-55600563D02*
X84792407Y-55702623D01*
X84792407Y-55702623D02*
X84831034Y-55757787D01*
X84831034Y-55757787D02*
X84916556Y-55821221D01*
X84916556Y-55821221D02*
X85104138Y-55854297D01*
X85104138Y-55854297D02*
X85206198Y-55823939D01*
X85206198Y-55823939D02*
X85261363Y-55785312D01*
X85261363Y-55785312D02*
X85324797Y-55699790D01*
X113472372Y-74175316D02*
X113621328Y-74197404D01*
X113621328Y-74197404D02*
X113855806Y-74156060D01*
X113855806Y-74156060D02*
X113941328Y-74092626D01*
X113941328Y-74092626D02*
X113979955Y-74037462D01*
X113979955Y-74037462D02*
X114010312Y-73935401D01*
X114010312Y-73935401D02*
X113993774Y-73841610D01*
X113993774Y-73841610D02*
X113930341Y-73756088D01*
X113930341Y-73756088D02*
X113875176Y-73717461D01*
X113875176Y-73717461D02*
X113773116Y-73687104D01*
X113773116Y-73687104D02*
X113577265Y-73673284D01*
X113577265Y-73673284D02*
X113475205Y-73642926D01*
X113475205Y-73642926D02*
X113420040Y-73604299D01*
X113420040Y-73604299D02*
X113356607Y-73518777D01*
X113356607Y-73518777D02*
X113340069Y-73424986D01*
X113340069Y-73424986D02*
X113370426Y-73322926D01*
X113370426Y-73322926D02*
X113409053Y-73267761D01*
X113409053Y-73267761D02*
X113494575Y-73204328D01*
X113494575Y-73204328D02*
X113729053Y-73162983D01*
X113729053Y-73162983D02*
X113878009Y-73185072D01*
X114198009Y-73080293D02*
X114606136Y-74023756D01*
X114606136Y-74023756D02*
X114669684Y-73287246D01*
X114669684Y-73287246D02*
X114981300Y-73957605D01*
X114981300Y-73957605D02*
X115042130Y-72931452D01*
X115323504Y-72881838D02*
X115933147Y-72774342D01*
X115933147Y-72774342D02*
X115671029Y-73207389D01*
X115671029Y-73207389D02*
X115811716Y-73182582D01*
X115811716Y-73182582D02*
X115913776Y-73212940D01*
X115913776Y-73212940D02*
X115968941Y-73251567D01*
X115968941Y-73251567D02*
X116032374Y-73337089D01*
X116032374Y-73337089D02*
X116073719Y-73571567D01*
X116073719Y-73571567D02*
X116043361Y-73673627D01*
X116043361Y-73673627D02*
X116004735Y-73728792D01*
X116004735Y-73728792D02*
X115919212Y-73792225D01*
X115919212Y-73792225D02*
X115637839Y-73841839D01*
X115637839Y-73841839D02*
X115535779Y-73811481D01*
X115535779Y-73811481D02*
X115480614Y-73772855D01*
X116570315Y-73097175D02*
X116468254Y-73066817D01*
X116468254Y-73066817D02*
X116413090Y-73028190D01*
X116413090Y-73028190D02*
X116349656Y-72942668D01*
X116349656Y-72942668D02*
X116341387Y-72895773D01*
X116341387Y-72895773D02*
X116371745Y-72793712D01*
X116371745Y-72793712D02*
X116410372Y-72738548D01*
X116410372Y-72738548D02*
X116495894Y-72675114D01*
X116495894Y-72675114D02*
X116683476Y-72642038D01*
X116683476Y-72642038D02*
X116785537Y-72672396D01*
X116785537Y-72672396D02*
X116840701Y-72711023D01*
X116840701Y-72711023D02*
X116904135Y-72796545D01*
X116904135Y-72796545D02*
X116912404Y-72843441D01*
X116912404Y-72843441D02*
X116882046Y-72945501D01*
X116882046Y-72945501D02*
X116843419Y-73000665D01*
X116843419Y-73000665D02*
X116757897Y-73064099D01*
X116757897Y-73064099D02*
X116570315Y-73097175D01*
X116570315Y-73097175D02*
X116484792Y-73160608D01*
X116484792Y-73160608D02*
X116446166Y-73215773D01*
X116446166Y-73215773D02*
X116415808Y-73317833D01*
X116415808Y-73317833D02*
X116448884Y-73505415D01*
X116448884Y-73505415D02*
X116512317Y-73590938D01*
X116512317Y-73590938D02*
X116567482Y-73629564D01*
X116567482Y-73629564D02*
X116669542Y-73659922D01*
X116669542Y-73659922D02*
X116857125Y-73626846D01*
X116857125Y-73626846D02*
X116942647Y-73563413D01*
X116942647Y-73563413D02*
X116981273Y-73508248D01*
X116981273Y-73508248D02*
X117011631Y-73406188D01*
X117011631Y-73406188D02*
X116978555Y-73218605D01*
X116978555Y-73218605D02*
X116915122Y-73133083D01*
X116915122Y-73133083D02*
X116859957Y-73094457D01*
X116859957Y-73094457D02*
X116757897Y-73064099D01*
X61973622Y-52114240D02*
X62106040Y-52185942D01*
X62106040Y-52185942D02*
X62340518Y-52227287D01*
X62340518Y-52227287D02*
X62442578Y-52196929D01*
X62442578Y-52196929D02*
X62497743Y-52158303D01*
X62497743Y-52158303D02*
X62561176Y-52072780D01*
X62561176Y-52072780D02*
X62577714Y-51978989D01*
X62577714Y-51978989D02*
X62547356Y-51876929D01*
X62547356Y-51876929D02*
X62508730Y-51821764D01*
X62508730Y-51821764D02*
X62423207Y-51758331D01*
X62423207Y-51758331D02*
X62243894Y-51678359D01*
X62243894Y-51678359D02*
X62158372Y-51614926D01*
X62158372Y-51614926D02*
X62119745Y-51559761D01*
X62119745Y-51559761D02*
X62089387Y-51457701D01*
X62089387Y-51457701D02*
X62105925Y-51363910D01*
X62105925Y-51363910D02*
X62169359Y-51278388D01*
X62169359Y-51278388D02*
X62224523Y-51239761D01*
X62224523Y-51239761D02*
X62326584Y-51209403D01*
X62326584Y-51209403D02*
X62561062Y-51250748D01*
X62561062Y-51250748D02*
X62693479Y-51322451D01*
X63030018Y-51333438D02*
X63090848Y-52359590D01*
X63090848Y-52359590D02*
X63402464Y-51689232D01*
X63402464Y-51689232D02*
X63466012Y-52425742D01*
X63466012Y-52425742D02*
X63874139Y-51482279D01*
X64591507Y-52624197D02*
X64028760Y-52524970D01*
X64310133Y-52574583D02*
X64483781Y-51589776D01*
X64483781Y-51589776D02*
X64365183Y-51713924D01*
X64365183Y-51713924D02*
X64254854Y-51791178D01*
X64254854Y-51791178D02*
X64152794Y-51821535D01*
X65656172Y-51796500D02*
X65187216Y-51713810D01*
X65187216Y-51713810D02*
X65057630Y-52174497D01*
X65057630Y-52174497D02*
X65112795Y-52135870D01*
X65112795Y-52135870D02*
X65214855Y-52105513D01*
X65214855Y-52105513D02*
X65449333Y-52146858D01*
X65449333Y-52146858D02*
X65534855Y-52210291D01*
X65534855Y-52210291D02*
X65573482Y-52265456D01*
X65573482Y-52265456D02*
X65603840Y-52367516D01*
X65603840Y-52367516D02*
X65562495Y-52601994D01*
X65562495Y-52601994D02*
X65499061Y-52687516D01*
X65499061Y-52687516D02*
X65443897Y-52726143D01*
X65443897Y-52726143D02*
X65341837Y-52756500D01*
X65341837Y-52756500D02*
X65107359Y-52715156D01*
X65107359Y-52715156D02*
X65021836Y-52651722D01*
X65021836Y-52651722D02*
X64983210Y-52596558D01*
X40540983Y-58489353D02*
X40673401Y-58561055D01*
X40673401Y-58561055D02*
X40907879Y-58602400D01*
X40907879Y-58602400D02*
X41009939Y-58572042D01*
X41009939Y-58572042D02*
X41065104Y-58533416D01*
X41065104Y-58533416D02*
X41128537Y-58447893D01*
X41128537Y-58447893D02*
X41145075Y-58354102D01*
X41145075Y-58354102D02*
X41114717Y-58252042D01*
X41114717Y-58252042D02*
X41076091Y-58196877D01*
X41076091Y-58196877D02*
X40990568Y-58133444D01*
X40990568Y-58133444D02*
X40811255Y-58053472D01*
X40811255Y-58053472D02*
X40725733Y-57990039D01*
X40725733Y-57990039D02*
X40687106Y-57934874D01*
X40687106Y-57934874D02*
X40656748Y-57832814D01*
X40656748Y-57832814D02*
X40673286Y-57739023D01*
X40673286Y-57739023D02*
X40736720Y-57653501D01*
X40736720Y-57653501D02*
X40791884Y-57614874D01*
X40791884Y-57614874D02*
X40893945Y-57584516D01*
X40893945Y-57584516D02*
X41128423Y-57625861D01*
X41128423Y-57625861D02*
X41260840Y-57697564D01*
X41597379Y-57708551D02*
X41658209Y-58734703D01*
X41658209Y-58734703D02*
X41969825Y-58064345D01*
X41969825Y-58064345D02*
X42033373Y-58800855D01*
X42033373Y-58800855D02*
X42441500Y-57857392D01*
X42753231Y-58009066D02*
X42808395Y-57970439D01*
X42808395Y-57970439D02*
X42910456Y-57940082D01*
X42910456Y-57940082D02*
X43144934Y-57981427D01*
X43144934Y-57981427D02*
X43230456Y-58044860D01*
X43230456Y-58044860D02*
X43269082Y-58100025D01*
X43269082Y-58100025D02*
X43299440Y-58202085D01*
X43299440Y-58202085D02*
X43282902Y-58295876D01*
X43282902Y-58295876D02*
X43211200Y-58428294D01*
X43211200Y-58428294D02*
X42549225Y-58891814D01*
X42549225Y-58891814D02*
X43158868Y-58999310D01*
X44096780Y-59164689D02*
X43534033Y-59065462D01*
X43815406Y-59115076D02*
X43989055Y-58130268D01*
X43989055Y-58130268D02*
X43870456Y-58254417D01*
X43870456Y-58254417D02*
X43760127Y-58331670D01*
X43760127Y-58331670D02*
X43658067Y-58362028D01*
X44482903Y-38875886D02*
X44615321Y-38947589D01*
X44615321Y-38947589D02*
X44849799Y-38988934D01*
X44849799Y-38988934D02*
X44951860Y-38958576D01*
X44951860Y-38958576D02*
X45007024Y-38919949D01*
X45007024Y-38919949D02*
X45070458Y-38834427D01*
X45070458Y-38834427D02*
X45086996Y-38740636D01*
X45086996Y-38740636D02*
X45056638Y-38638576D01*
X45056638Y-38638576D02*
X45018011Y-38583411D01*
X45018011Y-38583411D02*
X44932489Y-38519978D01*
X44932489Y-38519978D02*
X44753176Y-38440006D01*
X44753176Y-38440006D02*
X44667653Y-38376573D01*
X44667653Y-38376573D02*
X44629027Y-38321408D01*
X44629027Y-38321408D02*
X44598669Y-38219348D01*
X44598669Y-38219348D02*
X44615207Y-38125557D01*
X44615207Y-38125557D02*
X44678640Y-38040034D01*
X44678640Y-38040034D02*
X44733805Y-38001408D01*
X44733805Y-38001408D02*
X44835865Y-37971050D01*
X44835865Y-37971050D02*
X45070343Y-38012395D01*
X45070343Y-38012395D02*
X45202761Y-38084097D01*
X45539299Y-38095085D02*
X45600129Y-39121237D01*
X45600129Y-39121237D02*
X45911746Y-38450879D01*
X45911746Y-38450879D02*
X45975294Y-39187389D01*
X45975294Y-39187389D02*
X46383420Y-38243926D01*
X47100788Y-39385844D02*
X46538041Y-39286616D01*
X46819415Y-39336230D02*
X46993063Y-38351422D01*
X46993063Y-38351422D02*
X46874465Y-38475571D01*
X46874465Y-38475571D02*
X46764136Y-38552824D01*
X46764136Y-38552824D02*
X46662076Y-38583182D01*
X123320448Y-72438837D02*
X123469404Y-72460925D01*
X123469404Y-72460925D02*
X123703882Y-72419581D01*
X123703882Y-72419581D02*
X123789404Y-72356147D01*
X123789404Y-72356147D02*
X123828031Y-72300983D01*
X123828031Y-72300983D02*
X123858388Y-72198922D01*
X123858388Y-72198922D02*
X123841850Y-72105131D01*
X123841850Y-72105131D02*
X123778417Y-72019609D01*
X123778417Y-72019609D02*
X123723252Y-71980982D01*
X123723252Y-71980982D02*
X123621192Y-71950625D01*
X123621192Y-71950625D02*
X123425341Y-71936805D01*
X123425341Y-71936805D02*
X123323281Y-71906447D01*
X123323281Y-71906447D02*
X123268116Y-71867820D01*
X123268116Y-71867820D02*
X123204683Y-71782298D01*
X123204683Y-71782298D02*
X123188145Y-71688507D01*
X123188145Y-71688507D02*
X123218502Y-71586447D01*
X123218502Y-71586447D02*
X123257129Y-71531282D01*
X123257129Y-71531282D02*
X123342651Y-71467849D01*
X123342651Y-71467849D02*
X123577129Y-71426504D01*
X123577129Y-71426504D02*
X123726085Y-71448593D01*
X124046085Y-71343814D02*
X124454212Y-72287277D01*
X124454212Y-72287277D02*
X124517760Y-71550767D01*
X124517760Y-71550767D02*
X124829376Y-72221126D01*
X124829376Y-72221126D02*
X124890206Y-71194973D01*
X125171580Y-71145359D02*
X125781223Y-71037863D01*
X125781223Y-71037863D02*
X125519105Y-71470910D01*
X125519105Y-71470910D02*
X125659792Y-71446103D01*
X125659792Y-71446103D02*
X125761852Y-71476461D01*
X125761852Y-71476461D02*
X125817017Y-71515088D01*
X125817017Y-71515088D02*
X125880450Y-71600610D01*
X125880450Y-71600610D02*
X125921795Y-71835088D01*
X125921795Y-71835088D02*
X125891437Y-71937148D01*
X125891437Y-71937148D02*
X125852811Y-71992313D01*
X125852811Y-71992313D02*
X125767288Y-72055746D01*
X125767288Y-72055746D02*
X125485915Y-72105360D01*
X125485915Y-72105360D02*
X125383855Y-72075002D01*
X125383855Y-72075002D02*
X125328690Y-72036376D01*
X126625344Y-70889021D02*
X126437761Y-70922097D01*
X126437761Y-70922097D02*
X126352239Y-70985531D01*
X126352239Y-70985531D02*
X126313612Y-71040695D01*
X126313612Y-71040695D02*
X126244628Y-71197920D01*
X126244628Y-71197920D02*
X126230808Y-71393772D01*
X126230808Y-71393772D02*
X126296960Y-71768936D01*
X126296960Y-71768936D02*
X126360393Y-71854459D01*
X126360393Y-71854459D02*
X126415558Y-71893085D01*
X126415558Y-71893085D02*
X126517618Y-71923443D01*
X126517618Y-71923443D02*
X126705201Y-71890367D01*
X126705201Y-71890367D02*
X126790723Y-71826934D01*
X126790723Y-71826934D02*
X126829349Y-71771769D01*
X126829349Y-71771769D02*
X126859707Y-71669709D01*
X126859707Y-71669709D02*
X126818362Y-71435231D01*
X126818362Y-71435231D02*
X126754929Y-71349709D01*
X126754929Y-71349709D02*
X126699764Y-71311082D01*
X126699764Y-71311082D02*
X126597704Y-71280724D01*
X126597704Y-71280724D02*
X126410122Y-71313800D01*
X126410122Y-71313800D02*
X126324599Y-71377234D01*
X126324599Y-71377234D02*
X126285973Y-71432398D01*
X126285973Y-71432398D02*
X126255615Y-71534458D01*
X79933292Y-65435281D02*
X80065710Y-65506983D01*
X80065710Y-65506983D02*
X80300188Y-65548328D01*
X80300188Y-65548328D02*
X80402248Y-65517970D01*
X80402248Y-65517970D02*
X80457413Y-65479344D01*
X80457413Y-65479344D02*
X80520846Y-65393821D01*
X80520846Y-65393821D02*
X80537384Y-65300030D01*
X80537384Y-65300030D02*
X80507026Y-65197970D01*
X80507026Y-65197970D02*
X80468400Y-65142805D01*
X80468400Y-65142805D02*
X80382877Y-65079372D01*
X80382877Y-65079372D02*
X80203564Y-64999400D01*
X80203564Y-64999400D02*
X80118042Y-64935967D01*
X80118042Y-64935967D02*
X80079415Y-64880802D01*
X80079415Y-64880802D02*
X80049057Y-64778742D01*
X80049057Y-64778742D02*
X80065595Y-64684951D01*
X80065595Y-64684951D02*
X80129029Y-64599429D01*
X80129029Y-64599429D02*
X80184193Y-64560802D01*
X80184193Y-64560802D02*
X80286254Y-64530444D01*
X80286254Y-64530444D02*
X80520732Y-64571789D01*
X80520732Y-64571789D02*
X80653149Y-64643492D01*
X80989688Y-64654479D02*
X81050518Y-65680631D01*
X81050518Y-65680631D02*
X81362134Y-65010273D01*
X81362134Y-65010273D02*
X81425682Y-65746783D01*
X81425682Y-65746783D02*
X81833809Y-64803320D01*
X82145540Y-64954994D02*
X82200704Y-64916367D01*
X82200704Y-64916367D02*
X82302765Y-64886010D01*
X82302765Y-64886010D02*
X82537243Y-64927355D01*
X82537243Y-64927355D02*
X82622765Y-64990788D01*
X82622765Y-64990788D02*
X82661391Y-65045953D01*
X82661391Y-65045953D02*
X82691749Y-65148013D01*
X82691749Y-65148013D02*
X82675211Y-65241804D01*
X82675211Y-65241804D02*
X82603509Y-65374222D01*
X82603509Y-65374222D02*
X81941534Y-65837742D01*
X81941534Y-65837742D02*
X82551177Y-65945238D01*
X83020133Y-66027928D02*
X83207715Y-66061004D01*
X83207715Y-66061004D02*
X83309776Y-66030646D01*
X83309776Y-66030646D02*
X83364940Y-65992019D01*
X83364940Y-65992019D02*
X83483538Y-65867870D01*
X83483538Y-65867870D02*
X83563510Y-65688557D01*
X83563510Y-65688557D02*
X83629661Y-65313392D01*
X83629661Y-65313392D02*
X83599304Y-65211332D01*
X83599304Y-65211332D02*
X83560677Y-65156167D01*
X83560677Y-65156167D02*
X83475155Y-65092734D01*
X83475155Y-65092734D02*
X83287572Y-65059658D01*
X83287572Y-65059658D02*
X83185512Y-65090016D01*
X83185512Y-65090016D02*
X83130348Y-65128642D01*
X83130348Y-65128642D02*
X83066914Y-65214164D01*
X83066914Y-65214164D02*
X83025569Y-65448643D01*
X83025569Y-65448643D02*
X83055927Y-65550703D01*
X83055927Y-65550703D02*
X83094554Y-65605867D01*
X83094554Y-65605867D02*
X83180076Y-65669301D01*
X83180076Y-65669301D02*
X83367658Y-65702377D01*
X83367658Y-65702377D02*
X83469718Y-65672019D01*
X83469718Y-65672019D02*
X83524883Y-65633392D01*
X83524883Y-65633392D02*
X83588317Y-65547870D01*
X60237137Y-61962319D02*
X60369555Y-62034021D01*
X60369555Y-62034021D02*
X60604033Y-62075366D01*
X60604033Y-62075366D02*
X60706093Y-62045008D01*
X60706093Y-62045008D02*
X60761258Y-62006382D01*
X60761258Y-62006382D02*
X60824691Y-61920859D01*
X60824691Y-61920859D02*
X60841229Y-61827068D01*
X60841229Y-61827068D02*
X60810871Y-61725008D01*
X60810871Y-61725008D02*
X60772245Y-61669843D01*
X60772245Y-61669843D02*
X60686722Y-61606410D01*
X60686722Y-61606410D02*
X60507409Y-61526438D01*
X60507409Y-61526438D02*
X60421887Y-61463005D01*
X60421887Y-61463005D02*
X60383260Y-61407840D01*
X60383260Y-61407840D02*
X60352902Y-61305780D01*
X60352902Y-61305780D02*
X60369440Y-61211989D01*
X60369440Y-61211989D02*
X60432874Y-61126467D01*
X60432874Y-61126467D02*
X60488038Y-61087840D01*
X60488038Y-61087840D02*
X60590099Y-61057482D01*
X60590099Y-61057482D02*
X60824577Y-61098827D01*
X60824577Y-61098827D02*
X60956994Y-61170530D01*
X61293533Y-61181517D02*
X61354363Y-62207669D01*
X61354363Y-62207669D02*
X61665979Y-61537311D01*
X61665979Y-61537311D02*
X61729527Y-62273821D01*
X61729527Y-62273821D02*
X62137654Y-61330358D01*
X62449385Y-61482032D02*
X62504549Y-61443405D01*
X62504549Y-61443405D02*
X62606610Y-61413048D01*
X62606610Y-61413048D02*
X62841088Y-61454393D01*
X62841088Y-61454393D02*
X62926610Y-61517826D01*
X62926610Y-61517826D02*
X62965236Y-61572991D01*
X62965236Y-61572991D02*
X62995594Y-61675051D01*
X62995594Y-61675051D02*
X62979056Y-61768842D01*
X62979056Y-61768842D02*
X62907354Y-61901260D01*
X62907354Y-61901260D02*
X62245379Y-62364780D01*
X62245379Y-62364780D02*
X62855022Y-62472276D01*
X63919687Y-61644579D02*
X63450731Y-61561889D01*
X63450731Y-61561889D02*
X63321145Y-62022576D01*
X63321145Y-62022576D02*
X63376310Y-61983949D01*
X63376310Y-61983949D02*
X63478370Y-61953592D01*
X63478370Y-61953592D02*
X63712848Y-61994937D01*
X63712848Y-61994937D02*
X63798370Y-62058370D01*
X63798370Y-62058370D02*
X63836997Y-62113535D01*
X63836997Y-62113535D02*
X63867355Y-62215595D01*
X63867355Y-62215595D02*
X63826010Y-62450073D01*
X63826010Y-62450073D02*
X63762576Y-62535595D01*
X63762576Y-62535595D02*
X63707412Y-62574222D01*
X63707412Y-62574222D02*
X63605352Y-62604579D01*
X63605352Y-62604579D02*
X63370874Y-62563235D01*
X63370874Y-62563235D02*
X63285351Y-62499801D01*
X63285351Y-62499801D02*
X63246725Y-62444637D01*
X38804502Y-68337432D02*
X38936920Y-68409134D01*
X38936920Y-68409134D02*
X39171398Y-68450479D01*
X39171398Y-68450479D02*
X39273458Y-68420121D01*
X39273458Y-68420121D02*
X39328623Y-68381495D01*
X39328623Y-68381495D02*
X39392056Y-68295972D01*
X39392056Y-68295972D02*
X39408594Y-68202181D01*
X39408594Y-68202181D02*
X39378236Y-68100121D01*
X39378236Y-68100121D02*
X39339610Y-68044956D01*
X39339610Y-68044956D02*
X39254087Y-67981523D01*
X39254087Y-67981523D02*
X39074774Y-67901551D01*
X39074774Y-67901551D02*
X38989252Y-67838118D01*
X38989252Y-67838118D02*
X38950625Y-67782953D01*
X38950625Y-67782953D02*
X38920267Y-67680893D01*
X38920267Y-67680893D02*
X38936805Y-67587102D01*
X38936805Y-67587102D02*
X39000239Y-67501580D01*
X39000239Y-67501580D02*
X39055403Y-67462953D01*
X39055403Y-67462953D02*
X39157464Y-67432595D01*
X39157464Y-67432595D02*
X39391942Y-67473940D01*
X39391942Y-67473940D02*
X39524359Y-67545643D01*
X39860898Y-67556630D02*
X39921728Y-68582782D01*
X39921728Y-68582782D02*
X40233344Y-67912424D01*
X40233344Y-67912424D02*
X40296892Y-68648934D01*
X40296892Y-68648934D02*
X40705019Y-67705471D01*
X40986392Y-67755085D02*
X41596035Y-67862581D01*
X41596035Y-67862581D02*
X41201614Y-68179863D01*
X41201614Y-68179863D02*
X41342301Y-68204670D01*
X41342301Y-68204670D02*
X41427823Y-68268104D01*
X41427823Y-68268104D02*
X41466450Y-68323268D01*
X41466450Y-68323268D02*
X41496807Y-68425329D01*
X41496807Y-68425329D02*
X41455463Y-68659807D01*
X41455463Y-68659807D02*
X41392029Y-68745329D01*
X41392029Y-68745329D02*
X41336865Y-68783956D01*
X41336865Y-68783956D02*
X41234804Y-68814313D01*
X41234804Y-68814313D02*
X40953431Y-68764699D01*
X40953431Y-68764699D02*
X40867909Y-68701266D01*
X40867909Y-68701266D02*
X40829282Y-68646101D01*
X42360299Y-69012768D02*
X41797552Y-68913541D01*
X42078925Y-68963155D02*
X42252574Y-67978347D01*
X42252574Y-67978347D02*
X42133975Y-68102496D01*
X42133975Y-68102496D02*
X42023646Y-68179749D01*
X42023646Y-68179749D02*
X41921586Y-68210107D01*
X42277464Y-48641278D02*
X42409882Y-48712980D01*
X42409882Y-48712980D02*
X42644360Y-48754325D01*
X42644360Y-48754325D02*
X42746420Y-48723967D01*
X42746420Y-48723967D02*
X42801585Y-48685341D01*
X42801585Y-48685341D02*
X42865018Y-48599818D01*
X42865018Y-48599818D02*
X42881556Y-48506027D01*
X42881556Y-48506027D02*
X42851198Y-48403967D01*
X42851198Y-48403967D02*
X42812572Y-48348802D01*
X42812572Y-48348802D02*
X42727049Y-48285369D01*
X42727049Y-48285369D02*
X42547736Y-48205397D01*
X42547736Y-48205397D02*
X42462214Y-48141964D01*
X42462214Y-48141964D02*
X42423587Y-48086799D01*
X42423587Y-48086799D02*
X42393229Y-47984739D01*
X42393229Y-47984739D02*
X42409767Y-47890948D01*
X42409767Y-47890948D02*
X42473201Y-47805426D01*
X42473201Y-47805426D02*
X42528365Y-47766799D01*
X42528365Y-47766799D02*
X42630426Y-47736441D01*
X42630426Y-47736441D02*
X42864904Y-47777786D01*
X42864904Y-47777786D02*
X42997321Y-47849489D01*
X43333860Y-47860476D02*
X43394690Y-48886628D01*
X43394690Y-48886628D02*
X43706306Y-48216270D01*
X43706306Y-48216270D02*
X43769854Y-48952780D01*
X43769854Y-48952780D02*
X44177981Y-48009317D01*
X44895349Y-49151235D02*
X44332602Y-49052008D01*
X44613975Y-49101621D02*
X44787623Y-48116814D01*
X44787623Y-48116814D02*
X44669025Y-48240962D01*
X44669025Y-48240962D02*
X44558696Y-48318216D01*
X44558696Y-48318216D02*
X44456636Y-48348573D01*
X45833261Y-49316614D02*
X45270514Y-49217387D01*
X45551887Y-49267001D02*
X45725536Y-48282193D01*
X45725536Y-48282193D02*
X45606937Y-48406342D01*
X45606937Y-48406342D02*
X45496608Y-48483595D01*
X45496608Y-48483595D02*
X45394548Y-48513953D01*
X52125539Y-50377756D02*
X52257957Y-50449458D01*
X52257957Y-50449458D02*
X52492435Y-50490803D01*
X52492435Y-50490803D02*
X52594495Y-50460445D01*
X52594495Y-50460445D02*
X52649660Y-50421819D01*
X52649660Y-50421819D02*
X52713093Y-50336296D01*
X52713093Y-50336296D02*
X52729631Y-50242505D01*
X52729631Y-50242505D02*
X52699273Y-50140445D01*
X52699273Y-50140445D02*
X52660647Y-50085280D01*
X52660647Y-50085280D02*
X52575124Y-50021847D01*
X52575124Y-50021847D02*
X52395811Y-49941875D01*
X52395811Y-49941875D02*
X52310289Y-49878442D01*
X52310289Y-49878442D02*
X52271662Y-49823277D01*
X52271662Y-49823277D02*
X52241304Y-49721217D01*
X52241304Y-49721217D02*
X52257842Y-49627426D01*
X52257842Y-49627426D02*
X52321276Y-49541904D01*
X52321276Y-49541904D02*
X52376440Y-49503277D01*
X52376440Y-49503277D02*
X52478501Y-49472919D01*
X52478501Y-49472919D02*
X52712979Y-49514264D01*
X52712979Y-49514264D02*
X52845396Y-49585967D01*
X53181935Y-49596954D02*
X53242765Y-50623106D01*
X53242765Y-50623106D02*
X53554381Y-49952748D01*
X53554381Y-49952748D02*
X53617929Y-50689258D01*
X53617929Y-50689258D02*
X54026056Y-49745795D01*
X54743424Y-50887713D02*
X54180677Y-50788486D01*
X54462050Y-50838099D02*
X54635698Y-49853292D01*
X54635698Y-49853292D02*
X54517100Y-49977440D01*
X54517100Y-49977440D02*
X54406771Y-50054694D01*
X54406771Y-50054694D02*
X54304711Y-50085051D01*
X55245341Y-49960788D02*
X55854984Y-50068285D01*
X55854984Y-50068285D02*
X55460563Y-50385567D01*
X55460563Y-50385567D02*
X55601250Y-50410374D01*
X55601250Y-50410374D02*
X55686772Y-50473807D01*
X55686772Y-50473807D02*
X55725399Y-50528972D01*
X55725399Y-50528972D02*
X55755757Y-50631032D01*
X55755757Y-50631032D02*
X55714412Y-50865510D01*
X55714412Y-50865510D02*
X55650978Y-50951032D01*
X55650978Y-50951032D02*
X55595814Y-50989659D01*
X55595814Y-50989659D02*
X55493754Y-51020016D01*
X55493754Y-51020016D02*
X55212380Y-50970403D01*
X55212380Y-50970403D02*
X55126858Y-50906969D01*
X55126858Y-50906969D02*
X55088231Y-50851805D01*
X128428035Y-41075429D02*
X128576990Y-41097518D01*
X128576990Y-41097518D02*
X128811468Y-41056173D01*
X128811468Y-41056173D02*
X128896991Y-40992739D01*
X128896991Y-40992739D02*
X128935617Y-40937575D01*
X128935617Y-40937575D02*
X128965975Y-40835515D01*
X128965975Y-40835515D02*
X128949437Y-40741723D01*
X128949437Y-40741723D02*
X128886004Y-40656201D01*
X128886004Y-40656201D02*
X128830839Y-40617575D01*
X128830839Y-40617575D02*
X128728779Y-40587217D01*
X128728779Y-40587217D02*
X128532927Y-40573397D01*
X128532927Y-40573397D02*
X128430867Y-40543039D01*
X128430867Y-40543039D02*
X128375703Y-40504413D01*
X128375703Y-40504413D02*
X128312269Y-40418891D01*
X128312269Y-40418891D02*
X128295731Y-40325099D01*
X128295731Y-40325099D02*
X128326089Y-40223039D01*
X128326089Y-40223039D02*
X128364716Y-40167875D01*
X128364716Y-40167875D02*
X128450238Y-40104441D01*
X128450238Y-40104441D02*
X128684716Y-40063096D01*
X128684716Y-40063096D02*
X128833672Y-40085185D01*
X129153672Y-39980407D02*
X129561798Y-40923870D01*
X129561798Y-40923870D02*
X129625346Y-40187360D01*
X129625346Y-40187360D02*
X129936963Y-40857718D01*
X129936963Y-40857718D02*
X129997793Y-39831565D01*
X130852901Y-40019262D02*
X130968666Y-40675801D01*
X130552271Y-39685442D02*
X130441827Y-40430221D01*
X130441827Y-40430221D02*
X131051470Y-40322725D01*
X133168523Y-70702356D02*
X133317479Y-70724444D01*
X133317479Y-70724444D02*
X133551957Y-70683100D01*
X133551957Y-70683100D02*
X133637479Y-70619666D01*
X133637479Y-70619666D02*
X133676106Y-70564502D01*
X133676106Y-70564502D02*
X133706463Y-70462441D01*
X133706463Y-70462441D02*
X133689925Y-70368650D01*
X133689925Y-70368650D02*
X133626492Y-70283128D01*
X133626492Y-70283128D02*
X133571327Y-70244501D01*
X133571327Y-70244501D02*
X133469267Y-70214144D01*
X133469267Y-70214144D02*
X133273416Y-70200324D01*
X133273416Y-70200324D02*
X133171356Y-70169966D01*
X133171356Y-70169966D02*
X133116191Y-70131339D01*
X133116191Y-70131339D02*
X133052758Y-70045817D01*
X133052758Y-70045817D02*
X133036220Y-69952026D01*
X133036220Y-69952026D02*
X133066577Y-69849966D01*
X133066577Y-69849966D02*
X133105204Y-69794801D01*
X133105204Y-69794801D02*
X133190726Y-69731368D01*
X133190726Y-69731368D02*
X133425204Y-69690023D01*
X133425204Y-69690023D02*
X133574160Y-69712112D01*
X133894160Y-69607333D02*
X134302287Y-70550796D01*
X134302287Y-70550796D02*
X134365835Y-69814286D01*
X134365835Y-69814286D02*
X134677451Y-70484645D01*
X134677451Y-70484645D02*
X134738281Y-69458492D01*
X135019655Y-69408878D02*
X135629298Y-69301382D01*
X135629298Y-69301382D02*
X135367180Y-69734429D01*
X135367180Y-69734429D02*
X135507867Y-69709622D01*
X135507867Y-69709622D02*
X135609927Y-69739980D01*
X135609927Y-69739980D02*
X135665092Y-69778607D01*
X135665092Y-69778607D02*
X135728525Y-69864129D01*
X135728525Y-69864129D02*
X135769870Y-70098607D01*
X135769870Y-70098607D02*
X135739512Y-70200667D01*
X135739512Y-70200667D02*
X135700886Y-70255832D01*
X135700886Y-70255832D02*
X135615363Y-70319265D01*
X135615363Y-70319265D02*
X135333990Y-70368879D01*
X135333990Y-70368879D02*
X135231930Y-70338521D01*
X135231930Y-70338521D02*
X135176765Y-70299895D01*
X136531301Y-69480810D02*
X136647067Y-70137348D01*
X136230672Y-69146990D02*
X136120228Y-69891769D01*
X136120228Y-69891769D02*
X136729871Y-69784272D01*
X71821697Y-53850724D02*
X71954115Y-53922426D01*
X71954115Y-53922426D02*
X72188593Y-53963771D01*
X72188593Y-53963771D02*
X72290653Y-53933413D01*
X72290653Y-53933413D02*
X72345818Y-53894787D01*
X72345818Y-53894787D02*
X72409251Y-53809264D01*
X72409251Y-53809264D02*
X72425789Y-53715473D01*
X72425789Y-53715473D02*
X72395431Y-53613413D01*
X72395431Y-53613413D02*
X72356805Y-53558248D01*
X72356805Y-53558248D02*
X72271282Y-53494815D01*
X72271282Y-53494815D02*
X72091969Y-53414843D01*
X72091969Y-53414843D02*
X72006447Y-53351410D01*
X72006447Y-53351410D02*
X71967820Y-53296245D01*
X71967820Y-53296245D02*
X71937462Y-53194185D01*
X71937462Y-53194185D02*
X71954000Y-53100394D01*
X71954000Y-53100394D02*
X72017434Y-53014872D01*
X72017434Y-53014872D02*
X72072598Y-52976245D01*
X72072598Y-52976245D02*
X72174659Y-52945887D01*
X72174659Y-52945887D02*
X72409137Y-52987232D01*
X72409137Y-52987232D02*
X72541554Y-53058935D01*
X72878093Y-53069922D02*
X72938923Y-54096074D01*
X72938923Y-54096074D02*
X73250539Y-53425716D01*
X73250539Y-53425716D02*
X73314087Y-54162226D01*
X73314087Y-54162226D02*
X73722214Y-53218763D01*
X74439582Y-54360681D02*
X73876835Y-54261454D01*
X74158208Y-54311067D02*
X74331856Y-53326260D01*
X74331856Y-53326260D02*
X74213258Y-53450408D01*
X74213258Y-53450408D02*
X74102929Y-53527662D01*
X74102929Y-53527662D02*
X74000869Y-53558019D01*
X74941499Y-53433756D02*
X75598038Y-53549522D01*
X75598038Y-53549522D02*
X75002329Y-54459909D01*
X109999406Y-54479163D02*
X110148362Y-54501251D01*
X110148362Y-54501251D02*
X110382840Y-54459907D01*
X110382840Y-54459907D02*
X110468362Y-54396473D01*
X110468362Y-54396473D02*
X110506989Y-54341309D01*
X110506989Y-54341309D02*
X110537346Y-54239248D01*
X110537346Y-54239248D02*
X110520808Y-54145457D01*
X110520808Y-54145457D02*
X110457375Y-54059935D01*
X110457375Y-54059935D02*
X110402210Y-54021308D01*
X110402210Y-54021308D02*
X110300150Y-53990951D01*
X110300150Y-53990951D02*
X110104299Y-53977131D01*
X110104299Y-53977131D02*
X110002239Y-53946773D01*
X110002239Y-53946773D02*
X109947074Y-53908146D01*
X109947074Y-53908146D02*
X109883641Y-53822624D01*
X109883641Y-53822624D02*
X109867103Y-53728833D01*
X109867103Y-53728833D02*
X109897460Y-53626773D01*
X109897460Y-53626773D02*
X109936087Y-53571608D01*
X109936087Y-53571608D02*
X110021609Y-53508175D01*
X110021609Y-53508175D02*
X110256087Y-53466830D01*
X110256087Y-53466830D02*
X110405043Y-53488919D01*
X110725043Y-53384140D02*
X111133170Y-54327603D01*
X111133170Y-54327603D02*
X111196718Y-53591093D01*
X111196718Y-53591093D02*
X111508334Y-54261452D01*
X111508334Y-54261452D02*
X111569164Y-53235299D01*
X112633829Y-54062997D02*
X112071082Y-54162224D01*
X112352455Y-54112610D02*
X112178807Y-53127803D01*
X112178807Y-53127803D02*
X112109823Y-53285027D01*
X112109823Y-53285027D02*
X112032569Y-53395356D01*
X112032569Y-53395356D02*
X111947047Y-53458790D01*
X113097349Y-53401022D02*
X112995288Y-53370664D01*
X112995288Y-53370664D02*
X112940124Y-53332037D01*
X112940124Y-53332037D02*
X112876690Y-53246515D01*
X112876690Y-53246515D02*
X112868421Y-53199620D01*
X112868421Y-53199620D02*
X112898779Y-53097559D01*
X112898779Y-53097559D02*
X112937406Y-53042395D01*
X112937406Y-53042395D02*
X113022928Y-52978961D01*
X113022928Y-52978961D02*
X113210510Y-52945885D01*
X113210510Y-52945885D02*
X113312571Y-52976243D01*
X113312571Y-52976243D02*
X113367735Y-53014870D01*
X113367735Y-53014870D02*
X113431169Y-53100392D01*
X113431169Y-53100392D02*
X113439438Y-53147288D01*
X113439438Y-53147288D02*
X113409080Y-53249348D01*
X113409080Y-53249348D02*
X113370453Y-53304512D01*
X113370453Y-53304512D02*
X113284931Y-53367946D01*
X113284931Y-53367946D02*
X113097349Y-53401022D01*
X113097349Y-53401022D02*
X113011826Y-53464455D01*
X113011826Y-53464455D02*
X112973200Y-53519620D01*
X112973200Y-53519620D02*
X112942842Y-53621680D01*
X112942842Y-53621680D02*
X112975918Y-53809262D01*
X112975918Y-53809262D02*
X113039351Y-53894785D01*
X113039351Y-53894785D02*
X113094516Y-53933411D01*
X113094516Y-53933411D02*
X113196576Y-53963769D01*
X113196576Y-53963769D02*
X113384159Y-53930693D01*
X113384159Y-53930693D02*
X113469681Y-53867260D01*
X113469681Y-53867260D02*
X113508307Y-53812095D01*
X113508307Y-53812095D02*
X113538665Y-53710035D01*
X113538665Y-53710035D02*
X113505589Y-53522452D01*
X113505589Y-53522452D02*
X113442156Y-53436930D01*
X113442156Y-53436930D02*
X113386991Y-53398304D01*
X113386991Y-53398304D02*
X113284931Y-53367946D01*
X48652579Y-70073914D02*
X48784997Y-70145616D01*
X48784997Y-70145616D02*
X49019475Y-70186961D01*
X49019475Y-70186961D02*
X49121535Y-70156603D01*
X49121535Y-70156603D02*
X49176700Y-70117977D01*
X49176700Y-70117977D02*
X49240133Y-70032454D01*
X49240133Y-70032454D02*
X49256671Y-69938663D01*
X49256671Y-69938663D02*
X49226313Y-69836603D01*
X49226313Y-69836603D02*
X49187687Y-69781438D01*
X49187687Y-69781438D02*
X49102164Y-69718005D01*
X49102164Y-69718005D02*
X48922851Y-69638033D01*
X48922851Y-69638033D02*
X48837329Y-69574600D01*
X48837329Y-69574600D02*
X48798702Y-69519435D01*
X48798702Y-69519435D02*
X48768344Y-69417375D01*
X48768344Y-69417375D02*
X48784882Y-69323584D01*
X48784882Y-69323584D02*
X48848316Y-69238062D01*
X48848316Y-69238062D02*
X48903480Y-69199435D01*
X48903480Y-69199435D02*
X49005541Y-69169077D01*
X49005541Y-69169077D02*
X49240019Y-69210422D01*
X49240019Y-69210422D02*
X49372436Y-69282125D01*
X49708975Y-69293112D02*
X49769805Y-70319264D01*
X49769805Y-70319264D02*
X50081421Y-69648906D01*
X50081421Y-69648906D02*
X50144969Y-70385416D01*
X50144969Y-70385416D02*
X50553096Y-69441953D01*
X50834469Y-69491567D02*
X51444112Y-69599063D01*
X51444112Y-69599063D02*
X51049691Y-69916345D01*
X51049691Y-69916345D02*
X51190378Y-69941152D01*
X51190378Y-69941152D02*
X51275900Y-70004586D01*
X51275900Y-70004586D02*
X51314527Y-70059750D01*
X51314527Y-70059750D02*
X51344884Y-70161811D01*
X51344884Y-70161811D02*
X51303540Y-70396289D01*
X51303540Y-70396289D02*
X51240106Y-70481811D01*
X51240106Y-70481811D02*
X51184942Y-70520438D01*
X51184942Y-70520438D02*
X51082881Y-70550795D01*
X51082881Y-70550795D02*
X50801508Y-70501181D01*
X50801508Y-70501181D02*
X50715986Y-70437748D01*
X50715986Y-70437748D02*
X50677359Y-70382583D01*
X51772381Y-69656946D02*
X52382024Y-69764443D01*
X52382024Y-69764443D02*
X51987603Y-70081725D01*
X51987603Y-70081725D02*
X52128290Y-70106532D01*
X52128290Y-70106532D02*
X52213812Y-70169965D01*
X52213812Y-70169965D02*
X52252439Y-70225130D01*
X52252439Y-70225130D02*
X52282797Y-70327190D01*
X52282797Y-70327190D02*
X52241452Y-70561668D01*
X52241452Y-70561668D02*
X52178018Y-70647190D01*
X52178018Y-70647190D02*
X52122854Y-70685817D01*
X52122854Y-70685817D02*
X52020794Y-70716174D01*
X52020794Y-70716174D02*
X51739420Y-70666561D01*
X51739420Y-70666561D02*
X51653898Y-70603127D01*
X51653898Y-70603127D02*
X51615271Y-70547963D01*
X103624294Y-75911801D02*
X103773250Y-75933889D01*
X103773250Y-75933889D02*
X104007728Y-75892545D01*
X104007728Y-75892545D02*
X104093250Y-75829111D01*
X104093250Y-75829111D02*
X104131877Y-75773947D01*
X104131877Y-75773947D02*
X104162234Y-75671886D01*
X104162234Y-75671886D02*
X104145696Y-75578095D01*
X104145696Y-75578095D02*
X104082263Y-75492573D01*
X104082263Y-75492573D02*
X104027098Y-75453946D01*
X104027098Y-75453946D02*
X103925038Y-75423589D01*
X103925038Y-75423589D02*
X103729187Y-75409769D01*
X103729187Y-75409769D02*
X103627127Y-75379411D01*
X103627127Y-75379411D02*
X103571962Y-75340784D01*
X103571962Y-75340784D02*
X103508529Y-75255262D01*
X103508529Y-75255262D02*
X103491991Y-75161471D01*
X103491991Y-75161471D02*
X103522348Y-75059411D01*
X103522348Y-75059411D02*
X103560975Y-75004246D01*
X103560975Y-75004246D02*
X103646497Y-74940813D01*
X103646497Y-74940813D02*
X103880975Y-74899468D01*
X103880975Y-74899468D02*
X104029931Y-74921557D01*
X104349931Y-74816778D02*
X104758058Y-75760241D01*
X104758058Y-75760241D02*
X104821606Y-75023731D01*
X104821606Y-75023731D02*
X105133222Y-75694090D01*
X105133222Y-75694090D02*
X105194052Y-74667937D01*
X106049160Y-74855634D02*
X106164926Y-75512172D01*
X105748530Y-74521814D02*
X105638087Y-75266593D01*
X105638087Y-75266593D02*
X106247730Y-75159096D01*
X106694712Y-74403330D02*
X106788503Y-74386792D01*
X106788503Y-74386792D02*
X106890563Y-74417150D01*
X106890563Y-74417150D02*
X106945728Y-74455777D01*
X106945728Y-74455777D02*
X107009161Y-74541299D01*
X107009161Y-74541299D02*
X107089133Y-74720612D01*
X107089133Y-74720612D02*
X107130477Y-74955090D01*
X107130477Y-74955090D02*
X107116658Y-75150942D01*
X107116658Y-75150942D02*
X107086300Y-75253002D01*
X107086300Y-75253002D02*
X107047673Y-75308167D01*
X107047673Y-75308167D02*
X106962151Y-75371600D01*
X106962151Y-75371600D02*
X106868360Y-75388138D01*
X106868360Y-75388138D02*
X106766300Y-75357780D01*
X106766300Y-75357780D02*
X106711135Y-75319154D01*
X106711135Y-75319154D02*
X106647702Y-75233631D01*
X106647702Y-75233631D02*
X106567730Y-75054318D01*
X106567730Y-75054318D02*
X106526385Y-74819840D01*
X106526385Y-74819840D02*
X106540205Y-74623989D01*
X106540205Y-74623989D02*
X106570563Y-74521928D01*
X106570563Y-74521928D02*
X106609189Y-74466764D01*
X106609189Y-74466764D02*
X106694712Y-74403330D01*
X101887812Y-66063719D02*
X102036768Y-66085807D01*
X102036768Y-66085807D02*
X102271246Y-66044463D01*
X102271246Y-66044463D02*
X102356768Y-65981029D01*
X102356768Y-65981029D02*
X102395395Y-65925865D01*
X102395395Y-65925865D02*
X102425752Y-65823804D01*
X102425752Y-65823804D02*
X102409214Y-65730013D01*
X102409214Y-65730013D02*
X102345781Y-65644491D01*
X102345781Y-65644491D02*
X102290616Y-65605864D01*
X102290616Y-65605864D02*
X102188556Y-65575507D01*
X102188556Y-65575507D02*
X101992705Y-65561687D01*
X101992705Y-65561687D02*
X101890645Y-65531329D01*
X101890645Y-65531329D02*
X101835480Y-65492702D01*
X101835480Y-65492702D02*
X101772047Y-65407180D01*
X101772047Y-65407180D02*
X101755509Y-65313389D01*
X101755509Y-65313389D02*
X101785866Y-65211329D01*
X101785866Y-65211329D02*
X101824493Y-65156164D01*
X101824493Y-65156164D02*
X101910015Y-65092731D01*
X101910015Y-65092731D02*
X102144493Y-65051386D01*
X102144493Y-65051386D02*
X102293449Y-65073475D01*
X102613449Y-64968696D02*
X103021576Y-65912159D01*
X103021576Y-65912159D02*
X103085124Y-65175649D01*
X103085124Y-65175649D02*
X103396740Y-65846008D01*
X103396740Y-65846008D02*
X103457570Y-64819855D01*
X103738944Y-64770241D02*
X104348587Y-64662745D01*
X104348587Y-64662745D02*
X104086469Y-65095792D01*
X104086469Y-65095792D02*
X104227156Y-65070985D01*
X104227156Y-65070985D02*
X104329216Y-65101343D01*
X104329216Y-65101343D02*
X104384381Y-65139970D01*
X104384381Y-65139970D02*
X104447814Y-65225492D01*
X104447814Y-65225492D02*
X104489159Y-65459970D01*
X104489159Y-65459970D02*
X104458801Y-65562030D01*
X104458801Y-65562030D02*
X104420175Y-65617195D01*
X104420175Y-65617195D02*
X104334652Y-65680628D01*
X104334652Y-65680628D02*
X104053279Y-65730242D01*
X104053279Y-65730242D02*
X103951219Y-65699884D01*
X103951219Y-65699884D02*
X103896054Y-65661258D01*
X104958230Y-64555248D02*
X105052021Y-64538710D01*
X105052021Y-64538710D02*
X105154081Y-64569068D01*
X105154081Y-64569068D02*
X105209246Y-64607695D01*
X105209246Y-64607695D02*
X105272679Y-64693217D01*
X105272679Y-64693217D02*
X105352651Y-64872530D01*
X105352651Y-64872530D02*
X105393995Y-65107008D01*
X105393995Y-65107008D02*
X105380176Y-65302860D01*
X105380176Y-65302860D02*
X105349818Y-65404920D01*
X105349818Y-65404920D02*
X105311191Y-65460085D01*
X105311191Y-65460085D02*
X105225669Y-65523518D01*
X105225669Y-65523518D02*
X105131878Y-65540056D01*
X105131878Y-65540056D02*
X105029818Y-65509698D01*
X105029818Y-65509698D02*
X104974653Y-65471072D01*
X104974653Y-65471072D02*
X104911220Y-65385549D01*
X104911220Y-65385549D02*
X104831248Y-65206236D01*
X104831248Y-65206236D02*
X104789903Y-64971758D01*
X104789903Y-64971758D02*
X104803723Y-64775907D01*
X104803723Y-64775907D02*
X104834081Y-64673846D01*
X104834081Y-64673846D02*
X104872707Y-64618682D01*
X104872707Y-64618682D02*
X104958230Y-64555248D01*
X74027133Y-44085335D02*
X74159551Y-44157038D01*
X74159551Y-44157038D02*
X74394029Y-44198383D01*
X74394029Y-44198383D02*
X74496090Y-44168025D01*
X74496090Y-44168025D02*
X74551254Y-44129398D01*
X74551254Y-44129398D02*
X74614688Y-44043876D01*
X74614688Y-44043876D02*
X74631226Y-43950085D01*
X74631226Y-43950085D02*
X74600868Y-43848025D01*
X74600868Y-43848025D02*
X74562241Y-43792860D01*
X74562241Y-43792860D02*
X74476719Y-43729427D01*
X74476719Y-43729427D02*
X74297406Y-43649455D01*
X74297406Y-43649455D02*
X74211883Y-43586022D01*
X74211883Y-43586022D02*
X74173257Y-43530857D01*
X74173257Y-43530857D02*
X74142899Y-43428797D01*
X74142899Y-43428797D02*
X74159437Y-43335006D01*
X74159437Y-43335006D02*
X74222870Y-43249483D01*
X74222870Y-43249483D02*
X74278035Y-43210857D01*
X74278035Y-43210857D02*
X74380095Y-43180499D01*
X74380095Y-43180499D02*
X74614573Y-43221844D01*
X74614573Y-43221844D02*
X74746991Y-43293546D01*
X75083529Y-43304534D02*
X75144359Y-44330686D01*
X75144359Y-44330686D02*
X75455976Y-43660328D01*
X75455976Y-43660328D02*
X75519524Y-44396838D01*
X75519524Y-44396838D02*
X75927650Y-43453375D01*
X76209024Y-43502989D02*
X76865562Y-43618754D01*
X76865562Y-43618754D02*
X76269854Y-44529141D01*
X129695563Y-51006198D02*
X129844519Y-51028286D01*
X129844519Y-51028286D02*
X130078997Y-50986942D01*
X130078997Y-50986942D02*
X130164519Y-50923508D01*
X130164519Y-50923508D02*
X130203146Y-50868344D01*
X130203146Y-50868344D02*
X130233503Y-50766283D01*
X130233503Y-50766283D02*
X130216965Y-50672492D01*
X130216965Y-50672492D02*
X130153532Y-50586970D01*
X130153532Y-50586970D02*
X130098367Y-50548343D01*
X130098367Y-50548343D02*
X129996307Y-50517986D01*
X129996307Y-50517986D02*
X129800456Y-50504166D01*
X129800456Y-50504166D02*
X129698396Y-50473808D01*
X129698396Y-50473808D02*
X129643231Y-50435181D01*
X129643231Y-50435181D02*
X129579798Y-50349659D01*
X129579798Y-50349659D02*
X129563260Y-50255868D01*
X129563260Y-50255868D02*
X129593617Y-50153808D01*
X129593617Y-50153808D02*
X129632244Y-50098643D01*
X129632244Y-50098643D02*
X129717766Y-50035210D01*
X129717766Y-50035210D02*
X129952244Y-49993865D01*
X129952244Y-49993865D02*
X130101200Y-50015954D01*
X130421200Y-49911175D02*
X130829327Y-50854638D01*
X130829327Y-50854638D02*
X130892875Y-50118128D01*
X130892875Y-50118128D02*
X131204491Y-50788487D01*
X131204491Y-50788487D02*
X131265321Y-49762334D01*
X132329986Y-50590032D02*
X131767239Y-50689259D01*
X132048612Y-50639645D02*
X131874964Y-49654838D01*
X131874964Y-49654838D02*
X131805980Y-49812062D01*
X131805980Y-49812062D02*
X131728726Y-49922391D01*
X131728726Y-49922391D02*
X131643204Y-49985825D01*
X133058341Y-49784652D02*
X133174107Y-50441190D01*
X132757712Y-49450832D02*
X132647268Y-50195611D01*
X132647268Y-50195611D02*
X133256911Y-50088114D01*
X139543640Y-49269716D02*
X139692596Y-49291804D01*
X139692596Y-49291804D02*
X139927074Y-49250460D01*
X139927074Y-49250460D02*
X140012596Y-49187026D01*
X140012596Y-49187026D02*
X140051223Y-49131862D01*
X140051223Y-49131862D02*
X140081580Y-49029801D01*
X140081580Y-49029801D02*
X140065042Y-48936010D01*
X140065042Y-48936010D02*
X140001609Y-48850488D01*
X140001609Y-48850488D02*
X139946444Y-48811861D01*
X139946444Y-48811861D02*
X139844384Y-48781504D01*
X139844384Y-48781504D02*
X139648533Y-48767684D01*
X139648533Y-48767684D02*
X139546473Y-48737326D01*
X139546473Y-48737326D02*
X139491308Y-48698699D01*
X139491308Y-48698699D02*
X139427875Y-48613177D01*
X139427875Y-48613177D02*
X139411337Y-48519386D01*
X139411337Y-48519386D02*
X139441694Y-48417326D01*
X139441694Y-48417326D02*
X139480321Y-48362161D01*
X139480321Y-48362161D02*
X139565843Y-48298728D01*
X139565843Y-48298728D02*
X139800321Y-48257383D01*
X139800321Y-48257383D02*
X139949277Y-48279472D01*
X140269277Y-48174693D02*
X140677404Y-49118156D01*
X140677404Y-49118156D02*
X140740952Y-48381646D01*
X140740952Y-48381646D02*
X141052568Y-49052005D01*
X141052568Y-49052005D02*
X141113398Y-48025852D01*
X142178063Y-48853550D02*
X141615316Y-48952777D01*
X141896689Y-48903163D02*
X141723041Y-47918356D01*
X141723041Y-47918356D02*
X141654057Y-48075580D01*
X141654057Y-48075580D02*
X141576803Y-48185909D01*
X141576803Y-48185909D02*
X141491281Y-48249343D01*
X142396117Y-47896381D02*
X142434744Y-47841217D01*
X142434744Y-47841217D02*
X142520266Y-47777783D01*
X142520266Y-47777783D02*
X142754744Y-47736438D01*
X142754744Y-47736438D02*
X142856805Y-47766796D01*
X142856805Y-47766796D02*
X142911969Y-47805423D01*
X142911969Y-47805423D02*
X142975403Y-47890945D01*
X142975403Y-47890945D02*
X142991941Y-47984736D01*
X142991941Y-47984736D02*
X142969852Y-48133692D01*
X142969852Y-48133692D02*
X142506332Y-48795667D01*
X142506332Y-48795667D02*
X143115975Y-48688170D01*
X64179057Y-42348853D02*
X64311475Y-42420556D01*
X64311475Y-42420556D02*
X64545953Y-42461901D01*
X64545953Y-42461901D02*
X64648014Y-42431543D01*
X64648014Y-42431543D02*
X64703178Y-42392916D01*
X64703178Y-42392916D02*
X64766612Y-42307394D01*
X64766612Y-42307394D02*
X64783150Y-42213603D01*
X64783150Y-42213603D02*
X64752792Y-42111543D01*
X64752792Y-42111543D02*
X64714165Y-42056378D01*
X64714165Y-42056378D02*
X64628643Y-41992945D01*
X64628643Y-41992945D02*
X64449330Y-41912973D01*
X64449330Y-41912973D02*
X64363807Y-41849540D01*
X64363807Y-41849540D02*
X64325181Y-41794375D01*
X64325181Y-41794375D02*
X64294823Y-41692315D01*
X64294823Y-41692315D02*
X64311361Y-41598524D01*
X64311361Y-41598524D02*
X64374794Y-41513001D01*
X64374794Y-41513001D02*
X64429959Y-41474375D01*
X64429959Y-41474375D02*
X64532019Y-41444017D01*
X64532019Y-41444017D02*
X64766497Y-41485362D01*
X64766497Y-41485362D02*
X64898915Y-41557064D01*
X65235453Y-41568052D02*
X65296283Y-42594204D01*
X65296283Y-42594204D02*
X65607900Y-41923846D01*
X65607900Y-41923846D02*
X65671448Y-42660356D01*
X65671448Y-42660356D02*
X66079574Y-41716893D01*
X66923695Y-41865734D02*
X66454739Y-41783044D01*
X66454739Y-41783044D02*
X66325154Y-42243732D01*
X66325154Y-42243732D02*
X66380318Y-42205105D01*
X66380318Y-42205105D02*
X66482378Y-42174747D01*
X66482378Y-42174747D02*
X66716856Y-42216092D01*
X66716856Y-42216092D02*
X66802379Y-42279526D01*
X66802379Y-42279526D02*
X66841005Y-42334690D01*
X66841005Y-42334690D02*
X66871363Y-42436750D01*
X66871363Y-42436750D02*
X66830018Y-42671228D01*
X66830018Y-42671228D02*
X66766585Y-42756751D01*
X66766585Y-42756751D02*
X66711420Y-42795377D01*
X66711420Y-42795377D02*
X66609360Y-42825735D01*
X66609360Y-42825735D02*
X66374882Y-42784390D01*
X66374882Y-42784390D02*
X66289360Y-42720957D01*
X66289360Y-42720957D02*
X66250733Y-42665792D01*
X54330980Y-40612370D02*
X54463398Y-40684073D01*
X54463398Y-40684073D02*
X54697876Y-40725418D01*
X54697876Y-40725418D02*
X54799937Y-40695060D01*
X54799937Y-40695060D02*
X54855101Y-40656433D01*
X54855101Y-40656433D02*
X54918535Y-40570911D01*
X54918535Y-40570911D02*
X54935073Y-40477120D01*
X54935073Y-40477120D02*
X54904715Y-40375060D01*
X54904715Y-40375060D02*
X54866088Y-40319895D01*
X54866088Y-40319895D02*
X54780566Y-40256462D01*
X54780566Y-40256462D02*
X54601253Y-40176490D01*
X54601253Y-40176490D02*
X54515730Y-40113057D01*
X54515730Y-40113057D02*
X54477104Y-40057892D01*
X54477104Y-40057892D02*
X54446746Y-39955832D01*
X54446746Y-39955832D02*
X54463284Y-39862041D01*
X54463284Y-39862041D02*
X54526717Y-39776518D01*
X54526717Y-39776518D02*
X54581882Y-39737892D01*
X54581882Y-39737892D02*
X54683942Y-39707534D01*
X54683942Y-39707534D02*
X54918420Y-39748879D01*
X54918420Y-39748879D02*
X55050838Y-39820581D01*
X55387376Y-39831569D02*
X55448206Y-40857721D01*
X55448206Y-40857721D02*
X55759823Y-40187363D01*
X55759823Y-40187363D02*
X55823371Y-40923873D01*
X55823371Y-40923873D02*
X56231497Y-39980410D01*
X56512871Y-40030024D02*
X57122514Y-40137520D01*
X57122514Y-40137520D02*
X56728093Y-40454802D01*
X56728093Y-40454802D02*
X56868779Y-40479609D01*
X56868779Y-40479609D02*
X56954302Y-40543043D01*
X56954302Y-40543043D02*
X56992928Y-40598207D01*
X56992928Y-40598207D02*
X57023286Y-40700267D01*
X57023286Y-40700267D02*
X56981941Y-40934745D01*
X56981941Y-40934745D02*
X56918508Y-41020268D01*
X56918508Y-41020268D02*
X56863343Y-41058894D01*
X56863343Y-41058894D02*
X56761283Y-41089252D01*
X56761283Y-41089252D02*
X56479909Y-41039638D01*
X56479909Y-41039638D02*
X56394387Y-40976205D01*
X56394387Y-40976205D02*
X56355760Y-40921040D01*
X131432045Y-60854277D02*
X131581001Y-60876365D01*
X131581001Y-60876365D02*
X131815479Y-60835021D01*
X131815479Y-60835021D02*
X131901001Y-60771587D01*
X131901001Y-60771587D02*
X131939628Y-60716423D01*
X131939628Y-60716423D02*
X131969985Y-60614362D01*
X131969985Y-60614362D02*
X131953447Y-60520571D01*
X131953447Y-60520571D02*
X131890014Y-60435049D01*
X131890014Y-60435049D02*
X131834849Y-60396422D01*
X131834849Y-60396422D02*
X131732789Y-60366065D01*
X131732789Y-60366065D02*
X131536938Y-60352245D01*
X131536938Y-60352245D02*
X131434878Y-60321887D01*
X131434878Y-60321887D02*
X131379713Y-60283260D01*
X131379713Y-60283260D02*
X131316280Y-60197738D01*
X131316280Y-60197738D02*
X131299742Y-60103947D01*
X131299742Y-60103947D02*
X131330099Y-60001887D01*
X131330099Y-60001887D02*
X131368726Y-59946722D01*
X131368726Y-59946722D02*
X131454248Y-59883289D01*
X131454248Y-59883289D02*
X131688726Y-59841944D01*
X131688726Y-59841944D02*
X131837682Y-59864033D01*
X132157682Y-59759254D02*
X132565809Y-60702717D01*
X132565809Y-60702717D02*
X132629357Y-59966207D01*
X132629357Y-59966207D02*
X132940973Y-60636566D01*
X132940973Y-60636566D02*
X133001803Y-59610413D01*
X133346610Y-59646322D02*
X133385237Y-59591157D01*
X133385237Y-59591157D02*
X133470759Y-59527723D01*
X133470759Y-59527723D02*
X133705237Y-59486379D01*
X133705237Y-59486379D02*
X133807297Y-59516736D01*
X133807297Y-59516736D02*
X133862462Y-59555363D01*
X133862462Y-59555363D02*
X133925896Y-59640885D01*
X133925896Y-59640885D02*
X133942433Y-59734676D01*
X133942433Y-59734676D02*
X133920345Y-59883632D01*
X133920345Y-59883632D02*
X133456825Y-60545607D01*
X133456825Y-60545607D02*
X134066468Y-60438111D01*
X134794823Y-59632731D02*
X134910589Y-60289269D01*
X134494194Y-59298911D02*
X134383750Y-60043690D01*
X134383750Y-60043690D02*
X134993393Y-59936193D01*
X119847482Y-52742681D02*
X119996438Y-52764769D01*
X119996438Y-52764769D02*
X120230916Y-52723425D01*
X120230916Y-52723425D02*
X120316438Y-52659991D01*
X120316438Y-52659991D02*
X120355065Y-52604827D01*
X120355065Y-52604827D02*
X120385422Y-52502766D01*
X120385422Y-52502766D02*
X120368884Y-52408975D01*
X120368884Y-52408975D02*
X120305451Y-52323453D01*
X120305451Y-52323453D02*
X120250286Y-52284826D01*
X120250286Y-52284826D02*
X120148226Y-52254469D01*
X120148226Y-52254469D02*
X119952375Y-52240649D01*
X119952375Y-52240649D02*
X119850315Y-52210291D01*
X119850315Y-52210291D02*
X119795150Y-52171664D01*
X119795150Y-52171664D02*
X119731717Y-52086142D01*
X119731717Y-52086142D02*
X119715179Y-51992351D01*
X119715179Y-51992351D02*
X119745536Y-51890291D01*
X119745536Y-51890291D02*
X119784163Y-51835126D01*
X119784163Y-51835126D02*
X119869685Y-51771693D01*
X119869685Y-51771693D02*
X120104163Y-51730348D01*
X120104163Y-51730348D02*
X120253119Y-51752437D01*
X120573119Y-51647658D02*
X120981246Y-52591121D01*
X120981246Y-52591121D02*
X121044794Y-51854611D01*
X121044794Y-51854611D02*
X121356410Y-52524970D01*
X121356410Y-52524970D02*
X121417240Y-51498817D01*
X122481905Y-52326515D02*
X121919158Y-52425742D01*
X122200531Y-52376128D02*
X122026883Y-51391321D01*
X122026883Y-51391321D02*
X121957899Y-51548545D01*
X121957899Y-51548545D02*
X121880645Y-51658874D01*
X121880645Y-51658874D02*
X121795123Y-51722308D01*
X123152378Y-51192865D02*
X122964795Y-51225941D01*
X122964795Y-51225941D02*
X122879273Y-51289375D01*
X122879273Y-51289375D02*
X122840646Y-51344539D01*
X122840646Y-51344539D02*
X122771662Y-51501764D01*
X122771662Y-51501764D02*
X122757842Y-51697616D01*
X122757842Y-51697616D02*
X122823994Y-52072780D01*
X122823994Y-52072780D02*
X122887427Y-52158303D01*
X122887427Y-52158303D02*
X122942592Y-52196929D01*
X122942592Y-52196929D02*
X123044652Y-52227287D01*
X123044652Y-52227287D02*
X123232235Y-52194211D01*
X123232235Y-52194211D02*
X123317757Y-52130778D01*
X123317757Y-52130778D02*
X123356383Y-52075613D01*
X123356383Y-52075613D02*
X123386741Y-51973553D01*
X123386741Y-51973553D02*
X123345396Y-51739075D01*
X123345396Y-51739075D02*
X123281963Y-51653553D01*
X123281963Y-51653553D02*
X123226798Y-51614926D01*
X123226798Y-51614926D02*
X123124738Y-51584568D01*
X123124738Y-51584568D02*
X122937156Y-51617644D01*
X122937156Y-51617644D02*
X122851633Y-51681078D01*
X122851633Y-51681078D02*
X122813007Y-51736242D01*
X122813007Y-51736242D02*
X122782649Y-51838302D01*
X111735889Y-64327241D02*
X111884845Y-64349329D01*
X111884845Y-64349329D02*
X112119323Y-64307985D01*
X112119323Y-64307985D02*
X112204845Y-64244551D01*
X112204845Y-64244551D02*
X112243472Y-64189387D01*
X112243472Y-64189387D02*
X112273829Y-64087326D01*
X112273829Y-64087326D02*
X112257291Y-63993535D01*
X112257291Y-63993535D02*
X112193858Y-63908013D01*
X112193858Y-63908013D02*
X112138693Y-63869386D01*
X112138693Y-63869386D02*
X112036633Y-63839029D01*
X112036633Y-63839029D02*
X111840782Y-63825209D01*
X111840782Y-63825209D02*
X111738722Y-63794851D01*
X111738722Y-63794851D02*
X111683557Y-63756224D01*
X111683557Y-63756224D02*
X111620124Y-63670702D01*
X111620124Y-63670702D02*
X111603586Y-63576911D01*
X111603586Y-63576911D02*
X111633943Y-63474851D01*
X111633943Y-63474851D02*
X111672570Y-63419686D01*
X111672570Y-63419686D02*
X111758092Y-63356253D01*
X111758092Y-63356253D02*
X111992570Y-63314908D01*
X111992570Y-63314908D02*
X112141526Y-63336997D01*
X112461526Y-63232218D02*
X112869653Y-64175681D01*
X112869653Y-64175681D02*
X112933201Y-63439171D01*
X112933201Y-63439171D02*
X113244817Y-64109530D01*
X113244817Y-64109530D02*
X113305647Y-63083377D01*
X113650454Y-63119286D02*
X113689081Y-63064121D01*
X113689081Y-63064121D02*
X113774603Y-63000687D01*
X113774603Y-63000687D02*
X114009081Y-62959343D01*
X114009081Y-62959343D02*
X114111141Y-62989700D01*
X114111141Y-62989700D02*
X114166306Y-63028327D01*
X114166306Y-63028327D02*
X114229740Y-63113849D01*
X114229740Y-63113849D02*
X114246277Y-63207640D01*
X114246277Y-63207640D02*
X114224189Y-63356596D01*
X114224189Y-63356596D02*
X113760669Y-64018571D01*
X113760669Y-64018571D02*
X114370312Y-63911075D01*
X114833832Y-63249100D02*
X114731771Y-63218742D01*
X114731771Y-63218742D02*
X114676607Y-63180115D01*
X114676607Y-63180115D02*
X114613173Y-63094593D01*
X114613173Y-63094593D02*
X114604904Y-63047698D01*
X114604904Y-63047698D02*
X114635262Y-62945637D01*
X114635262Y-62945637D02*
X114673889Y-62890473D01*
X114673889Y-62890473D02*
X114759411Y-62827039D01*
X114759411Y-62827039D02*
X114946993Y-62793963D01*
X114946993Y-62793963D02*
X115049054Y-62824321D01*
X115049054Y-62824321D02*
X115104218Y-62862948D01*
X115104218Y-62862948D02*
X115167652Y-62948470D01*
X115167652Y-62948470D02*
X115175921Y-62995366D01*
X115175921Y-62995366D02*
X115145563Y-63097426D01*
X115145563Y-63097426D02*
X115106936Y-63152590D01*
X115106936Y-63152590D02*
X115021414Y-63216024D01*
X115021414Y-63216024D02*
X114833832Y-63249100D01*
X114833832Y-63249100D02*
X114748309Y-63312533D01*
X114748309Y-63312533D02*
X114709683Y-63367698D01*
X114709683Y-63367698D02*
X114679325Y-63469758D01*
X114679325Y-63469758D02*
X114712401Y-63657340D01*
X114712401Y-63657340D02*
X114775834Y-63742863D01*
X114775834Y-63742863D02*
X114830999Y-63781489D01*
X114830999Y-63781489D02*
X114933059Y-63811847D01*
X114933059Y-63811847D02*
X115120642Y-63778771D01*
X115120642Y-63778771D02*
X115206164Y-63715338D01*
X115206164Y-63715338D02*
X115244790Y-63660173D01*
X115244790Y-63660173D02*
X115275148Y-63558113D01*
X115275148Y-63558113D02*
X115242072Y-63370530D01*
X115242072Y-63370530D02*
X115178639Y-63285008D01*
X115178639Y-63285008D02*
X115123474Y-63246382D01*
X115123474Y-63246382D02*
X115021414Y-63216024D01*
X68348731Y-73546879D02*
X68481149Y-73618581D01*
X68481149Y-73618581D02*
X68715627Y-73659926D01*
X68715627Y-73659926D02*
X68817687Y-73629568D01*
X68817687Y-73629568D02*
X68872852Y-73590942D01*
X68872852Y-73590942D02*
X68936285Y-73505419D01*
X68936285Y-73505419D02*
X68952823Y-73411628D01*
X68952823Y-73411628D02*
X68922465Y-73309568D01*
X68922465Y-73309568D02*
X68883839Y-73254403D01*
X68883839Y-73254403D02*
X68798316Y-73190970D01*
X68798316Y-73190970D02*
X68619003Y-73110998D01*
X68619003Y-73110998D02*
X68533481Y-73047565D01*
X68533481Y-73047565D02*
X68494854Y-72992400D01*
X68494854Y-72992400D02*
X68464496Y-72890340D01*
X68464496Y-72890340D02*
X68481034Y-72796549D01*
X68481034Y-72796549D02*
X68544468Y-72711027D01*
X68544468Y-72711027D02*
X68599632Y-72672400D01*
X68599632Y-72672400D02*
X68701693Y-72642042D01*
X68701693Y-72642042D02*
X68936171Y-72683387D01*
X68936171Y-72683387D02*
X69068588Y-72755090D01*
X69405127Y-72766077D02*
X69465957Y-73792229D01*
X69465957Y-73792229D02*
X69777573Y-73121871D01*
X69777573Y-73121871D02*
X69841121Y-73858381D01*
X69841121Y-73858381D02*
X70249248Y-72914918D01*
X70530621Y-72964532D02*
X71140264Y-73072028D01*
X71140264Y-73072028D02*
X70745843Y-73389310D01*
X70745843Y-73389310D02*
X70886530Y-73414117D01*
X70886530Y-73414117D02*
X70972052Y-73477551D01*
X70972052Y-73477551D02*
X71010679Y-73532715D01*
X71010679Y-73532715D02*
X71041036Y-73634776D01*
X71041036Y-73634776D02*
X70999692Y-73869254D01*
X70999692Y-73869254D02*
X70936258Y-73954776D01*
X70936258Y-73954776D02*
X70881094Y-73993403D01*
X70881094Y-73993403D02*
X70779033Y-74023760D01*
X70779033Y-74023760D02*
X70497660Y-73974146D01*
X70497660Y-73974146D02*
X70412138Y-73910713D01*
X70412138Y-73910713D02*
X70373511Y-73855548D01*
X71468533Y-73129911D02*
X72125072Y-73245677D01*
X72125072Y-73245677D02*
X71529363Y-74156064D01*
X83875214Y-45821815D02*
X84007632Y-45893518D01*
X84007632Y-45893518D02*
X84242110Y-45934863D01*
X84242110Y-45934863D02*
X84344171Y-45904505D01*
X84344171Y-45904505D02*
X84399335Y-45865878D01*
X84399335Y-45865878D02*
X84462769Y-45780356D01*
X84462769Y-45780356D02*
X84479307Y-45686565D01*
X84479307Y-45686565D02*
X84448949Y-45584505D01*
X84448949Y-45584505D02*
X84410322Y-45529340D01*
X84410322Y-45529340D02*
X84324800Y-45465907D01*
X84324800Y-45465907D02*
X84145487Y-45385935D01*
X84145487Y-45385935D02*
X84059964Y-45322502D01*
X84059964Y-45322502D02*
X84021338Y-45267337D01*
X84021338Y-45267337D02*
X83990980Y-45165277D01*
X83990980Y-45165277D02*
X84007518Y-45071486D01*
X84007518Y-45071486D02*
X84070951Y-44985963D01*
X84070951Y-44985963D02*
X84126116Y-44947337D01*
X84126116Y-44947337D02*
X84228176Y-44916979D01*
X84228176Y-44916979D02*
X84462654Y-44958324D01*
X84462654Y-44958324D02*
X84595072Y-45030026D01*
X84931610Y-45041014D02*
X84992440Y-46067166D01*
X84992440Y-46067166D02*
X85304057Y-45396808D01*
X85304057Y-45396808D02*
X85367605Y-46133318D01*
X85367605Y-46133318D02*
X85775731Y-45189855D01*
X86024143Y-46249083D02*
X86211726Y-46282159D01*
X86211726Y-46282159D02*
X86313786Y-46251801D01*
X86313786Y-46251801D02*
X86368951Y-46213175D01*
X86368951Y-46213175D02*
X86487549Y-46089026D01*
X86487549Y-46089026D02*
X86567520Y-45909712D01*
X86567520Y-45909712D02*
X86633672Y-45534547D01*
X86633672Y-45534547D02*
X86603314Y-45432487D01*
X86603314Y-45432487D02*
X86564687Y-45377323D01*
X86564687Y-45377323D02*
X86479165Y-45313889D01*
X86479165Y-45313889D02*
X86291583Y-45280813D01*
X86291583Y-45280813D02*
X86189523Y-45311171D01*
X86189523Y-45311171D02*
X86134358Y-45349798D01*
X86134358Y-45349798D02*
X86070924Y-45435320D01*
X86070924Y-45435320D02*
X86029580Y-45669798D01*
X86029580Y-45669798D02*
X86059937Y-45771858D01*
X86059937Y-45771858D02*
X86098564Y-45827023D01*
X86098564Y-45827023D02*
X86184086Y-45890456D01*
X86184086Y-45890456D02*
X86371669Y-45923532D01*
X86371669Y-45923532D02*
X86473729Y-45893174D01*
X86473729Y-45893174D02*
X86528893Y-45854548D01*
X86528893Y-45854548D02*
X86592327Y-45769026D01*
X78196811Y-75283360D02*
X78329229Y-75355062D01*
X78329229Y-75355062D02*
X78563707Y-75396407D01*
X78563707Y-75396407D02*
X78665767Y-75366049D01*
X78665767Y-75366049D02*
X78720932Y-75327423D01*
X78720932Y-75327423D02*
X78784365Y-75241900D01*
X78784365Y-75241900D02*
X78800903Y-75148109D01*
X78800903Y-75148109D02*
X78770545Y-75046049D01*
X78770545Y-75046049D02*
X78731919Y-74990884D01*
X78731919Y-74990884D02*
X78646396Y-74927451D01*
X78646396Y-74927451D02*
X78467083Y-74847479D01*
X78467083Y-74847479D02*
X78381561Y-74784046D01*
X78381561Y-74784046D02*
X78342934Y-74728881D01*
X78342934Y-74728881D02*
X78312576Y-74626821D01*
X78312576Y-74626821D02*
X78329114Y-74533030D01*
X78329114Y-74533030D02*
X78392548Y-74447508D01*
X78392548Y-74447508D02*
X78447712Y-74408881D01*
X78447712Y-74408881D02*
X78549773Y-74378523D01*
X78549773Y-74378523D02*
X78784251Y-74419868D01*
X78784251Y-74419868D02*
X78916668Y-74491571D01*
X79253207Y-74502558D02*
X79314037Y-75528710D01*
X79314037Y-75528710D02*
X79625653Y-74858352D01*
X79625653Y-74858352D02*
X79689201Y-75594862D01*
X79689201Y-75594862D02*
X80097328Y-74651399D01*
X80378701Y-74701013D02*
X80988344Y-74808509D01*
X80988344Y-74808509D02*
X80593923Y-75125791D01*
X80593923Y-75125791D02*
X80734610Y-75150598D01*
X80734610Y-75150598D02*
X80820132Y-75214032D01*
X80820132Y-75214032D02*
X80858759Y-75269196D01*
X80858759Y-75269196D02*
X80889116Y-75371257D01*
X80889116Y-75371257D02*
X80847772Y-75605735D01*
X80847772Y-75605735D02*
X80784338Y-75691257D01*
X80784338Y-75691257D02*
X80729174Y-75729884D01*
X80729174Y-75729884D02*
X80627113Y-75760241D01*
X80627113Y-75760241D02*
X80345740Y-75710627D01*
X80345740Y-75710627D02*
X80260218Y-75647194D01*
X80260218Y-75647194D02*
X80221591Y-75592029D01*
X81283652Y-75876007D02*
X81471234Y-75909083D01*
X81471234Y-75909083D02*
X81573295Y-75878725D01*
X81573295Y-75878725D02*
X81628459Y-75840098D01*
X81628459Y-75840098D02*
X81747057Y-75715949D01*
X81747057Y-75715949D02*
X81827029Y-75536636D01*
X81827029Y-75536636D02*
X81893180Y-75161471D01*
X81893180Y-75161471D02*
X81862823Y-75059411D01*
X81862823Y-75059411D02*
X81824196Y-75004246D01*
X81824196Y-75004246D02*
X81738674Y-74940813D01*
X81738674Y-74940813D02*
X81551091Y-74907737D01*
X81551091Y-74907737D02*
X81449031Y-74938095D01*
X81449031Y-74938095D02*
X81393867Y-74976721D01*
X81393867Y-74976721D02*
X81330433Y-75062243D01*
X81330433Y-75062243D02*
X81289088Y-75296722D01*
X81289088Y-75296722D02*
X81319446Y-75398782D01*
X81319446Y-75398782D02*
X81358073Y-75453946D01*
X81358073Y-75453946D02*
X81443595Y-75517380D01*
X81443595Y-75517380D02*
X81631177Y-75550456D01*
X81631177Y-75550456D02*
X81733237Y-75520098D01*
X81733237Y-75520098D02*
X81788402Y-75481471D01*
X81788402Y-75481471D02*
X81851836Y-75395949D01*
X121583966Y-62590760D02*
X121732922Y-62612848D01*
X121732922Y-62612848D02*
X121967400Y-62571504D01*
X121967400Y-62571504D02*
X122052922Y-62508070D01*
X122052922Y-62508070D02*
X122091549Y-62452906D01*
X122091549Y-62452906D02*
X122121906Y-62350845D01*
X122121906Y-62350845D02*
X122105368Y-62257054D01*
X122105368Y-62257054D02*
X122041935Y-62171532D01*
X122041935Y-62171532D02*
X121986770Y-62132905D01*
X121986770Y-62132905D02*
X121884710Y-62102548D01*
X121884710Y-62102548D02*
X121688859Y-62088728D01*
X121688859Y-62088728D02*
X121586799Y-62058370D01*
X121586799Y-62058370D02*
X121531634Y-62019743D01*
X121531634Y-62019743D02*
X121468201Y-61934221D01*
X121468201Y-61934221D02*
X121451663Y-61840430D01*
X121451663Y-61840430D02*
X121482020Y-61738370D01*
X121482020Y-61738370D02*
X121520647Y-61683205D01*
X121520647Y-61683205D02*
X121606169Y-61619772D01*
X121606169Y-61619772D02*
X121840647Y-61578427D01*
X121840647Y-61578427D02*
X121989603Y-61600516D01*
X122309603Y-61495737D02*
X122717730Y-62439200D01*
X122717730Y-62439200D02*
X122781278Y-61702690D01*
X122781278Y-61702690D02*
X123092894Y-62373049D01*
X123092894Y-62373049D02*
X123153724Y-61346896D01*
X123498531Y-61382805D02*
X123537158Y-61327640D01*
X123537158Y-61327640D02*
X123622680Y-61264206D01*
X123622680Y-61264206D02*
X123857158Y-61222862D01*
X123857158Y-61222862D02*
X123959218Y-61253219D01*
X123959218Y-61253219D02*
X124014383Y-61291846D01*
X124014383Y-61291846D02*
X124077817Y-61377368D01*
X124077817Y-61377368D02*
X124094354Y-61471159D01*
X124094354Y-61471159D02*
X124072266Y-61620115D01*
X124072266Y-61620115D02*
X123608746Y-62282090D01*
X123608746Y-62282090D02*
X124218389Y-62174594D01*
X124888862Y-61040944D02*
X124701279Y-61074020D01*
X124701279Y-61074020D02*
X124615757Y-61137454D01*
X124615757Y-61137454D02*
X124577130Y-61192618D01*
X124577130Y-61192618D02*
X124508146Y-61349843D01*
X124508146Y-61349843D02*
X124494326Y-61545695D01*
X124494326Y-61545695D02*
X124560478Y-61920859D01*
X124560478Y-61920859D02*
X124623911Y-62006382D01*
X124623911Y-62006382D02*
X124679076Y-62045008D01*
X124679076Y-62045008D02*
X124781136Y-62075366D01*
X124781136Y-62075366D02*
X124968719Y-62042290D01*
X124968719Y-62042290D02*
X125054241Y-61978857D01*
X125054241Y-61978857D02*
X125092867Y-61923692D01*
X125092867Y-61923692D02*
X125123225Y-61821632D01*
X125123225Y-61821632D02*
X125081880Y-61587154D01*
X125081880Y-61587154D02*
X125018447Y-61501632D01*
X125018447Y-61501632D02*
X124963282Y-61463005D01*
X124963282Y-61463005D02*
X124861222Y-61432647D01*
X124861222Y-61432647D02*
X124673640Y-61465723D01*
X124673640Y-61465723D02*
X124588117Y-61529157D01*
X124588117Y-61529157D02*
X124549491Y-61584321D01*
X124549491Y-61584321D02*
X124519133Y-61686381D01*
X141280122Y-59117796D02*
X141429078Y-59139884D01*
X141429078Y-59139884D02*
X141663556Y-59098540D01*
X141663556Y-59098540D02*
X141749078Y-59035106D01*
X141749078Y-59035106D02*
X141787705Y-58979942D01*
X141787705Y-58979942D02*
X141818062Y-58877881D01*
X141818062Y-58877881D02*
X141801524Y-58784090D01*
X141801524Y-58784090D02*
X141738091Y-58698568D01*
X141738091Y-58698568D02*
X141682926Y-58659941D01*
X141682926Y-58659941D02*
X141580866Y-58629584D01*
X141580866Y-58629584D02*
X141385015Y-58615764D01*
X141385015Y-58615764D02*
X141282955Y-58585406D01*
X141282955Y-58585406D02*
X141227790Y-58546779D01*
X141227790Y-58546779D02*
X141164357Y-58461257D01*
X141164357Y-58461257D02*
X141147819Y-58367466D01*
X141147819Y-58367466D02*
X141178176Y-58265406D01*
X141178176Y-58265406D02*
X141216803Y-58210241D01*
X141216803Y-58210241D02*
X141302325Y-58146808D01*
X141302325Y-58146808D02*
X141536803Y-58105463D01*
X141536803Y-58105463D02*
X141685759Y-58127552D01*
X142005759Y-58022773D02*
X142413886Y-58966236D01*
X142413886Y-58966236D02*
X142477434Y-58229726D01*
X142477434Y-58229726D02*
X142789050Y-58900085D01*
X142789050Y-58900085D02*
X142849880Y-57873932D01*
X143194687Y-57909841D02*
X143233314Y-57854676D01*
X143233314Y-57854676D02*
X143318836Y-57791242D01*
X143318836Y-57791242D02*
X143553314Y-57749898D01*
X143553314Y-57749898D02*
X143655374Y-57780255D01*
X143655374Y-57780255D02*
X143710539Y-57818882D01*
X143710539Y-57818882D02*
X143773973Y-57904404D01*
X143773973Y-57904404D02*
X143790510Y-57998195D01*
X143790510Y-57998195D02*
X143768422Y-58147151D01*
X143768422Y-58147151D02*
X143304902Y-58809126D01*
X143304902Y-58809126D02*
X143914545Y-58701630D01*
X144132599Y-57744461D02*
X144171226Y-57689297D01*
X144171226Y-57689297D02*
X144256748Y-57625863D01*
X144256748Y-57625863D02*
X144491226Y-57584518D01*
X144491226Y-57584518D02*
X144593287Y-57614876D01*
X144593287Y-57614876D02*
X144648451Y-57653503D01*
X144648451Y-57653503D02*
X144711885Y-57739025D01*
X144711885Y-57739025D02*
X144728423Y-57832816D01*
X144728423Y-57832816D02*
X144706334Y-57981772D01*
X144706334Y-57981772D02*
X144242814Y-58643747D01*
X144242814Y-58643747D02*
X144852457Y-58536250D01*
X50389064Y-60225832D02*
X50521482Y-60297534D01*
X50521482Y-60297534D02*
X50755960Y-60338879D01*
X50755960Y-60338879D02*
X50858020Y-60308521D01*
X50858020Y-60308521D02*
X50913185Y-60269895D01*
X50913185Y-60269895D02*
X50976618Y-60184372D01*
X50976618Y-60184372D02*
X50993156Y-60090581D01*
X50993156Y-60090581D02*
X50962798Y-59988521D01*
X50962798Y-59988521D02*
X50924172Y-59933356D01*
X50924172Y-59933356D02*
X50838649Y-59869923D01*
X50838649Y-59869923D02*
X50659336Y-59789951D01*
X50659336Y-59789951D02*
X50573814Y-59726518D01*
X50573814Y-59726518D02*
X50535187Y-59671353D01*
X50535187Y-59671353D02*
X50504829Y-59569293D01*
X50504829Y-59569293D02*
X50521367Y-59475502D01*
X50521367Y-59475502D02*
X50584801Y-59389980D01*
X50584801Y-59389980D02*
X50639965Y-59351353D01*
X50639965Y-59351353D02*
X50742026Y-59320995D01*
X50742026Y-59320995D02*
X50976504Y-59362340D01*
X50976504Y-59362340D02*
X51108921Y-59434043D01*
X51445460Y-59445030D02*
X51506290Y-60471182D01*
X51506290Y-60471182D02*
X51817906Y-59800824D01*
X51817906Y-59800824D02*
X51881454Y-60537334D01*
X51881454Y-60537334D02*
X52289581Y-59593871D01*
X52601312Y-59745545D02*
X52656476Y-59706918D01*
X52656476Y-59706918D02*
X52758537Y-59676561D01*
X52758537Y-59676561D02*
X52993015Y-59717906D01*
X52993015Y-59717906D02*
X53078537Y-59781339D01*
X53078537Y-59781339D02*
X53117163Y-59836504D01*
X53117163Y-59836504D02*
X53147521Y-59938564D01*
X53147521Y-59938564D02*
X53130983Y-60032355D01*
X53130983Y-60032355D02*
X53059281Y-60164773D01*
X53059281Y-60164773D02*
X52397306Y-60628293D01*
X52397306Y-60628293D02*
X53006949Y-60735789D01*
X53508866Y-59808864D02*
X54118509Y-59916361D01*
X54118509Y-59916361D02*
X53724088Y-60233643D01*
X53724088Y-60233643D02*
X53864775Y-60258450D01*
X53864775Y-60258450D02*
X53950297Y-60321883D01*
X53950297Y-60321883D02*
X53988924Y-60377048D01*
X53988924Y-60377048D02*
X54019282Y-60479108D01*
X54019282Y-60479108D02*
X53977937Y-60713586D01*
X53977937Y-60713586D02*
X53914503Y-60799108D01*
X53914503Y-60799108D02*
X53859339Y-60837735D01*
X53859339Y-60837735D02*
X53757279Y-60868092D01*
X53757279Y-60868092D02*
X53475905Y-60818479D01*
X53475905Y-60818479D02*
X53390383Y-60755045D01*
X53390383Y-60755045D02*
X53351756Y-60699881D01*
X70085215Y-63698801D02*
X70217633Y-63770503D01*
X70217633Y-63770503D02*
X70452111Y-63811848D01*
X70452111Y-63811848D02*
X70554171Y-63781490D01*
X70554171Y-63781490D02*
X70609336Y-63742864D01*
X70609336Y-63742864D02*
X70672769Y-63657341D01*
X70672769Y-63657341D02*
X70689307Y-63563550D01*
X70689307Y-63563550D02*
X70658949Y-63461490D01*
X70658949Y-63461490D02*
X70620323Y-63406325D01*
X70620323Y-63406325D02*
X70534800Y-63342892D01*
X70534800Y-63342892D02*
X70355487Y-63262920D01*
X70355487Y-63262920D02*
X70269965Y-63199487D01*
X70269965Y-63199487D02*
X70231338Y-63144322D01*
X70231338Y-63144322D02*
X70200980Y-63042262D01*
X70200980Y-63042262D02*
X70217518Y-62948471D01*
X70217518Y-62948471D02*
X70280952Y-62862949D01*
X70280952Y-62862949D02*
X70336116Y-62824322D01*
X70336116Y-62824322D02*
X70438177Y-62793964D01*
X70438177Y-62793964D02*
X70672655Y-62835309D01*
X70672655Y-62835309D02*
X70805072Y-62907012D01*
X71141611Y-62917999D02*
X71202441Y-63944151D01*
X71202441Y-63944151D02*
X71514057Y-63273793D01*
X71514057Y-63273793D02*
X71577605Y-64010303D01*
X71577605Y-64010303D02*
X71985732Y-63066840D01*
X72297463Y-63218514D02*
X72352627Y-63179887D01*
X72352627Y-63179887D02*
X72454688Y-63149530D01*
X72454688Y-63149530D02*
X72689166Y-63190875D01*
X72689166Y-63190875D02*
X72774688Y-63254308D01*
X72774688Y-63254308D02*
X72813314Y-63309473D01*
X72813314Y-63309473D02*
X72843672Y-63411533D01*
X72843672Y-63411533D02*
X72827134Y-63505324D01*
X72827134Y-63505324D02*
X72755432Y-63637742D01*
X72755432Y-63637742D02*
X72093457Y-64101262D01*
X72093457Y-64101262D02*
X72703100Y-64208758D01*
X73205017Y-63281833D02*
X73861556Y-63397599D01*
X73861556Y-63397599D02*
X73265847Y-64307986D01*
X58500653Y-71810393D02*
X58633071Y-71882095D01*
X58633071Y-71882095D02*
X58867549Y-71923440D01*
X58867549Y-71923440D02*
X58969609Y-71893082D01*
X58969609Y-71893082D02*
X59024774Y-71854456D01*
X59024774Y-71854456D02*
X59088207Y-71768933D01*
X59088207Y-71768933D02*
X59104745Y-71675142D01*
X59104745Y-71675142D02*
X59074387Y-71573082D01*
X59074387Y-71573082D02*
X59035761Y-71517917D01*
X59035761Y-71517917D02*
X58950238Y-71454484D01*
X58950238Y-71454484D02*
X58770925Y-71374512D01*
X58770925Y-71374512D02*
X58685403Y-71311079D01*
X58685403Y-71311079D02*
X58646776Y-71255914D01*
X58646776Y-71255914D02*
X58616418Y-71153854D01*
X58616418Y-71153854D02*
X58632956Y-71060063D01*
X58632956Y-71060063D02*
X58696390Y-70974541D01*
X58696390Y-70974541D02*
X58751554Y-70935914D01*
X58751554Y-70935914D02*
X58853615Y-70905556D01*
X58853615Y-70905556D02*
X59088093Y-70946901D01*
X59088093Y-70946901D02*
X59220510Y-71018604D01*
X59557049Y-71029591D02*
X59617879Y-72055743D01*
X59617879Y-72055743D02*
X59929495Y-71385385D01*
X59929495Y-71385385D02*
X59993043Y-72121895D01*
X59993043Y-72121895D02*
X60401170Y-71178432D01*
X60682543Y-71228046D02*
X61292186Y-71335542D01*
X61292186Y-71335542D02*
X60897765Y-71652824D01*
X60897765Y-71652824D02*
X61038452Y-71677631D01*
X61038452Y-71677631D02*
X61123974Y-71741065D01*
X61123974Y-71741065D02*
X61162601Y-71796229D01*
X61162601Y-71796229D02*
X61192958Y-71898290D01*
X61192958Y-71898290D02*
X61151614Y-72132768D01*
X61151614Y-72132768D02*
X61088180Y-72218290D01*
X61088180Y-72218290D02*
X61033016Y-72256917D01*
X61033016Y-72256917D02*
X60930955Y-72287274D01*
X60930955Y-72287274D02*
X60649582Y-72237660D01*
X60649582Y-72237660D02*
X60564060Y-72174227D01*
X60564060Y-72174227D02*
X60525433Y-72119062D01*
X62183203Y-71492653D02*
X61714247Y-71409963D01*
X61714247Y-71409963D02*
X61584661Y-71870650D01*
X61584661Y-71870650D02*
X61639826Y-71832023D01*
X61639826Y-71832023D02*
X61741886Y-71801666D01*
X61741886Y-71801666D02*
X61976364Y-71843011D01*
X61976364Y-71843011D02*
X62061886Y-71906444D01*
X62061886Y-71906444D02*
X62100513Y-71961609D01*
X62100513Y-71961609D02*
X62130871Y-72063669D01*
X62130871Y-72063669D02*
X62089526Y-72298147D01*
X62089526Y-72298147D02*
X62026092Y-72383669D01*
X62026092Y-72383669D02*
X61970928Y-72422296D01*
X61970928Y-72422296D02*
X61868868Y-72452653D01*
X61868868Y-72452653D02*
X61634390Y-72411309D01*
X61634390Y-72411309D02*
X61548867Y-72347875D01*
X61548867Y-72347875D02*
X61510241Y-72292711D01*
X118579959Y-42811914D02*
X118728914Y-42834003D01*
X118728914Y-42834003D02*
X118963392Y-42792658D01*
X118963392Y-42792658D02*
X119048915Y-42729224D01*
X119048915Y-42729224D02*
X119087541Y-42674060D01*
X119087541Y-42674060D02*
X119117899Y-42572000D01*
X119117899Y-42572000D02*
X119101361Y-42478208D01*
X119101361Y-42478208D02*
X119037928Y-42392686D01*
X119037928Y-42392686D02*
X118982763Y-42354060D01*
X118982763Y-42354060D02*
X118880703Y-42323702D01*
X118880703Y-42323702D02*
X118684851Y-42309882D01*
X118684851Y-42309882D02*
X118582791Y-42279524D01*
X118582791Y-42279524D02*
X118527627Y-42240898D01*
X118527627Y-42240898D02*
X118464193Y-42155376D01*
X118464193Y-42155376D02*
X118447655Y-42061584D01*
X118447655Y-42061584D02*
X118478013Y-41959524D01*
X118478013Y-41959524D02*
X118516640Y-41904360D01*
X118516640Y-41904360D02*
X118602162Y-41840926D01*
X118602162Y-41840926D02*
X118836640Y-41799581D01*
X118836640Y-41799581D02*
X118985596Y-41821670D01*
X119305596Y-41716892D02*
X119713722Y-42660355D01*
X119713722Y-42660355D02*
X119777270Y-41923845D01*
X119777270Y-41923845D02*
X120088887Y-42594203D01*
X120088887Y-42594203D02*
X120149717Y-41568050D01*
X120946942Y-41427478D02*
X120759360Y-41460554D01*
X120759360Y-41460554D02*
X120673837Y-41523987D01*
X120673837Y-41523987D02*
X120635211Y-41579152D01*
X120635211Y-41579152D02*
X120566226Y-41736377D01*
X120566226Y-41736377D02*
X120552407Y-41932228D01*
X120552407Y-41932228D02*
X120618558Y-42307393D01*
X120618558Y-42307393D02*
X120681992Y-42392915D01*
X120681992Y-42392915D02*
X120737156Y-42431542D01*
X120737156Y-42431542D02*
X120839217Y-42461900D01*
X120839217Y-42461900D02*
X121026799Y-42428824D01*
X121026799Y-42428824D02*
X121112321Y-42365390D01*
X121112321Y-42365390D02*
X121150948Y-42310226D01*
X121150948Y-42310226D02*
X121181306Y-42208165D01*
X121181306Y-42208165D02*
X121139961Y-41973687D01*
X121139961Y-41973687D02*
X121076527Y-41888165D01*
X121076527Y-41888165D02*
X121021363Y-41849538D01*
X121021363Y-41849538D02*
X120919303Y-41819181D01*
X120919303Y-41819181D02*
X120731720Y-41852257D01*
X120731720Y-41852257D02*
X120646198Y-41915690D01*
X120646198Y-41915690D02*
X120607571Y-41970855D01*
X120607571Y-41970855D02*
X120577213Y-42072915D01*
M02*
