%TF.GenerationSoftware,KiCad,Pcbnew,7.0.8*%
%TF.CreationDate,2023-12-07T22:17:23-06:00*%
%TF.ProjectId,lemmingz40,6c656d6d-696e-4677-9a34-302e6b696361,rev?*%
%TF.SameCoordinates,Original*%
%TF.FileFunction,Paste,Bot*%
%TF.FilePolarity,Positive*%
%FSLAX46Y46*%
G04 Gerber Fmt 4.6, Leading zero omitted, Abs format (unit mm)*
G04 Created by KiCad (PCBNEW 7.0.8) date 2023-12-07 22:17:23*
%MOMM*%
%LPD*%
G01*
G04 APERTURE LIST*
G04 Aperture macros list*
%AMRoundRect*
0 Rectangle with rounded corners*
0 $1 Rounding radius*
0 $2 $3 $4 $5 $6 $7 $8 $9 X,Y pos of 4 corners*
0 Add a 4 corners polygon primitive as box body*
4,1,4,$2,$3,$4,$5,$6,$7,$8,$9,$2,$3,0*
0 Add four circle primitives for the rounded corners*
1,1,$1+$1,$2,$3*
1,1,$1+$1,$4,$5*
1,1,$1+$1,$6,$7*
1,1,$1+$1,$8,$9*
0 Add four rect primitives between the rounded corners*
20,1,$1+$1,$2,$3,$4,$5,0*
20,1,$1+$1,$4,$5,$6,$7,0*
20,1,$1+$1,$6,$7,$8,$9,0*
20,1,$1+$1,$8,$9,$2,$3,0*%
G04 Aperture macros list end*
%ADD10C,0.360001*%
%ADD11C,0.360000*%
%ADD12RoundRect,0.150000X-0.223009X0.112992X-0.170914X-0.182451X0.223009X-0.112992X0.170914X0.182451X0*%
%ADD13RoundRect,0.150000X-0.170914X0.182451X-0.223009X-0.112992X0.170914X-0.182451X0.223009X0.112992X0*%
%ADD14R,1.100000X1.800000*%
%ADD15RoundRect,0.140000X-0.170000X0.140000X-0.170000X-0.140000X0.170000X-0.140000X0.170000X0.140000X0*%
%ADD16RoundRect,0.150000X0.150000X-0.512500X0.150000X0.512500X-0.150000X0.512500X-0.150000X-0.512500X0*%
%ADD17RoundRect,0.140000X0.219203X0.021213X0.021213X0.219203X-0.219203X-0.021213X-0.021213X-0.219203X0*%
%ADD18RoundRect,0.135000X0.185000X-0.135000X0.185000X0.135000X-0.185000X0.135000X-0.185000X-0.135000X0*%
%ADD19RoundRect,0.140000X-0.140000X-0.170000X0.140000X-0.170000X0.140000X0.170000X-0.140000X0.170000X0*%
%ADD20RoundRect,0.140000X0.021213X-0.219203X0.219203X-0.021213X-0.021213X0.219203X-0.219203X0.021213X0*%
%ADD21R,0.550000X1.100000*%
%ADD22R,0.300000X1.100000*%
%ADD23RoundRect,0.135000X0.135000X0.185000X-0.135000X0.185000X-0.135000X-0.185000X0.135000X-0.185000X0*%
%ADD24RoundRect,0.075000X0.521491X-0.415425X-0.415425X0.521491X-0.521491X0.415425X0.415425X-0.521491X0*%
%ADD25RoundRect,0.075000X0.521491X0.415425X0.415425X0.521491X-0.521491X-0.415425X-0.415425X-0.521491X0*%
%ADD26RoundRect,0.150000X0.587500X0.150000X-0.587500X0.150000X-0.587500X-0.150000X0.587500X-0.150000X0*%
%ADD27RoundRect,0.250000X-0.477833X-0.550387X0.260773X-0.680623X0.477833X0.550387X-0.260773X0.680623X0*%
%ADD28RoundRect,0.140000X-0.219203X-0.021213X-0.021213X-0.219203X0.219203X0.021213X0.021213X0.219203X0*%
G04 APERTURE END LIST*
%TO.C,H3*%
D10*
X47924525Y-66352495D02*
G75*
G03*
X47924525Y-66352495I-180000J0D01*
G01*
D11*
X47281666Y-67406883D02*
G75*
G03*
X47281666Y-67406883I-180000J0D01*
G01*
X47689739Y-65092585D02*
G75*
G03*
X47689739Y-65092585I-180000J0D01*
G01*
D10*
X46013073Y-67690909D02*
G75*
G03*
X46013073Y-67690909I-180000J0D01*
G01*
D11*
X46594794Y-64391803D02*
G75*
G03*
X46594794Y-64391803I-180000J0D01*
G01*
X44918127Y-66990127D02*
G75*
G03*
X44918127Y-66990127I-180000J0D01*
G01*
D10*
X45326201Y-64675829D02*
G75*
G03*
X45326201Y-64675829I-180000J0D01*
G01*
D11*
X44674659Y-65779457D02*
G75*
G03*
X44674659Y-65779457I-180000J0D01*
G01*
%TO.C,H6*%
D10*
X137597550Y-46083301D02*
G75*
G03*
X137597550Y-46083301I-180000J0D01*
G01*
X137354082Y-47293971D02*
G75*
G03*
X137354082Y-47293971I-180000J0D01*
G01*
D11*
X136946008Y-44979673D02*
G75*
G03*
X136946008Y-44979673I-180000J0D01*
G01*
X136259136Y-47994753D02*
G75*
G03*
X136259136Y-47994753I-180000J0D01*
G01*
X135677415Y-44695647D02*
G75*
G03*
X135677415Y-44695647I-180000J0D01*
G01*
X134990543Y-47710727D02*
G75*
G03*
X134990543Y-47710727I-180000J0D01*
G01*
X134582470Y-45396429D02*
G75*
G03*
X134582470Y-45396429I-180000J0D01*
G01*
X134347684Y-46656339D02*
G75*
G03*
X134347684Y-46656339I-180000J0D01*
G01*
%TO.C,H2*%
D10*
X80962563Y-51747577D02*
G75*
G03*
X80962563Y-51747577I-180000J0D01*
G01*
D11*
X80319704Y-52801965D02*
G75*
G03*
X80319704Y-52801965I-180000J0D01*
G01*
X80727777Y-50487667D02*
G75*
G03*
X80727777Y-50487667I-180000J0D01*
G01*
D10*
X79051111Y-53085991D02*
G75*
G03*
X79051111Y-53085991I-180000J0D01*
G01*
D11*
X79632832Y-49786885D02*
G75*
G03*
X79632832Y-49786885I-180000J0D01*
G01*
X77956165Y-52385209D02*
G75*
G03*
X77956165Y-52385209I-180000J0D01*
G01*
D10*
X78364239Y-50070911D02*
G75*
G03*
X78364239Y-50070911I-180000J0D01*
G01*
D11*
X77712697Y-51174539D02*
G75*
G03*
X77712697Y-51174539I-180000J0D01*
G01*
%TO.C,H1*%
D10*
X51418330Y-46538135D02*
G75*
G03*
X51418330Y-46538135I-180000J0D01*
G01*
D11*
X50775471Y-47592523D02*
G75*
G03*
X50775471Y-47592523I-180000J0D01*
G01*
X51183544Y-45278225D02*
G75*
G03*
X51183544Y-45278225I-180000J0D01*
G01*
D10*
X49506878Y-47876549D02*
G75*
G03*
X49506878Y-47876549I-180000J0D01*
G01*
D11*
X50088599Y-44577443D02*
G75*
G03*
X50088599Y-44577443I-180000J0D01*
G01*
X48411932Y-47175767D02*
G75*
G03*
X48411932Y-47175767I-180000J0D01*
G01*
D10*
X48820006Y-44861469D02*
G75*
G03*
X48820006Y-44861469I-180000J0D01*
G01*
D11*
X48168464Y-45965097D02*
G75*
G03*
X48168464Y-45965097I-180000J0D01*
G01*
%TO.C,H4*%
D10*
X77468756Y-71561943D02*
G75*
G03*
X77468756Y-71561943I-180000J0D01*
G01*
D11*
X76825897Y-72616331D02*
G75*
G03*
X76825897Y-72616331I-180000J0D01*
G01*
X77233970Y-70302033D02*
G75*
G03*
X77233970Y-70302033I-180000J0D01*
G01*
D10*
X75557304Y-72900357D02*
G75*
G03*
X75557304Y-72900357I-180000J0D01*
G01*
D11*
X76139025Y-69601251D02*
G75*
G03*
X76139025Y-69601251I-180000J0D01*
G01*
X74462358Y-72199575D02*
G75*
G03*
X74462358Y-72199575I-180000J0D01*
G01*
D10*
X74870432Y-69885277D02*
G75*
G03*
X74870432Y-69885277I-180000J0D01*
G01*
D11*
X74218890Y-70988905D02*
G75*
G03*
X74218890Y-70988905I-180000J0D01*
G01*
%TO.C,H7*%
D10*
X111526279Y-70988902D02*
G75*
G03*
X111526279Y-70988902I-180000J0D01*
G01*
X111282811Y-72199572D02*
G75*
G03*
X111282811Y-72199572I-180000J0D01*
G01*
D11*
X110874737Y-69885274D02*
G75*
G03*
X110874737Y-69885274I-180000J0D01*
G01*
X110187865Y-72900354D02*
G75*
G03*
X110187865Y-72900354I-180000J0D01*
G01*
X109606144Y-69601248D02*
G75*
G03*
X109606144Y-69601248I-180000J0D01*
G01*
X108919272Y-72616328D02*
G75*
G03*
X108919272Y-72616328I-180000J0D01*
G01*
X108511199Y-70302030D02*
G75*
G03*
X108511199Y-70302030I-180000J0D01*
G01*
X108276413Y-71561940D02*
G75*
G03*
X108276413Y-71561940I-180000J0D01*
G01*
%TO.C,H8*%
D10*
X141070513Y-65779456D02*
G75*
G03*
X141070513Y-65779456I-180000J0D01*
G01*
X140827045Y-66990126D02*
G75*
G03*
X140827045Y-66990126I-180000J0D01*
G01*
D11*
X140418971Y-64675828D02*
G75*
G03*
X140418971Y-64675828I-180000J0D01*
G01*
X139732099Y-67690908D02*
G75*
G03*
X139732099Y-67690908I-180000J0D01*
G01*
X139150378Y-64391802D02*
G75*
G03*
X139150378Y-64391802I-180000J0D01*
G01*
X138463506Y-67406882D02*
G75*
G03*
X138463506Y-67406882I-180000J0D01*
G01*
X138055433Y-65092584D02*
G75*
G03*
X138055433Y-65092584I-180000J0D01*
G01*
X137820647Y-66352494D02*
G75*
G03*
X137820647Y-66352494I-180000J0D01*
G01*
%TO.C,H5*%
D10*
X108053314Y-51292746D02*
G75*
G03*
X108053314Y-51292746I-180000J0D01*
G01*
X107809846Y-52503416D02*
G75*
G03*
X107809846Y-52503416I-180000J0D01*
G01*
D11*
X107401772Y-50189118D02*
G75*
G03*
X107401772Y-50189118I-180000J0D01*
G01*
X106714900Y-53204198D02*
G75*
G03*
X106714900Y-53204198I-180000J0D01*
G01*
X106133179Y-49905092D02*
G75*
G03*
X106133179Y-49905092I-180000J0D01*
G01*
X105446307Y-52920172D02*
G75*
G03*
X105446307Y-52920172I-180000J0D01*
G01*
X105038234Y-50605874D02*
G75*
G03*
X105038234Y-50605874I-180000J0D01*
G01*
X104803448Y-51865784D02*
G75*
G03*
X104803448Y-51865784I-180000J0D01*
G01*
%TD*%
D12*
%TO.C,D36*%
X129682963Y-75066720D03*
X129439855Y-73687990D03*
%TD*%
%TO.C,D10*%
X104777358Y-48995451D03*
X104534250Y-47616721D03*
%TD*%
D13*
%TO.C,D33*%
X53732592Y-74719424D03*
X53975700Y-73340694D03*
%TD*%
D14*
%TO.C,SW41*%
X94143342Y-75475320D03*
X94143342Y-81675320D03*
X97843342Y-75475320D03*
X97843342Y-81675320D03*
%TD*%
D13*
%TO.C,D23*%
X55469076Y-64871348D03*
X55712184Y-63492618D03*
%TD*%
%TO.C,D17*%
X76901710Y-58496234D03*
X77144818Y-57117504D03*
%TD*%
D15*
%TO.C,C10*%
X95160009Y-54761995D03*
X95160009Y-55721995D03*
%TD*%
D13*
%TO.C,D5*%
X68790115Y-46911672D03*
X69033223Y-45532942D03*
%TD*%
D16*
%TO.C,U1*%
X93610012Y-48879498D03*
X92660012Y-48879498D03*
X91710012Y-48879498D03*
X91710012Y-46604498D03*
X92660012Y-46604498D03*
X93610012Y-46604498D03*
%TD*%
D13*
%TO.C,D37*%
X73428747Y-78192386D03*
X73671855Y-76813656D03*
%TD*%
D17*
%TO.C,C7*%
X99199459Y-64514764D03*
X98520637Y-63835942D03*
%TD*%
D13*
%TO.C,D1*%
X49093959Y-43438711D03*
X49337067Y-42059981D03*
%TD*%
D12*
%TO.C,D4*%
X134321593Y-43786006D03*
X134078485Y-42407276D03*
%TD*%
%TO.C,D18*%
X116361924Y-57107044D03*
X116118816Y-55728314D03*
%TD*%
D18*
%TO.C,R1*%
X100160008Y-74918655D03*
X100160008Y-73898655D03*
%TD*%
D12*
%TO.C,D12*%
X145906151Y-51897605D03*
X145663043Y-50518875D03*
%TD*%
D13*
%TO.C,D7*%
X78638194Y-48648155D03*
X78881302Y-47269425D03*
%TD*%
D12*
%TO.C,D22*%
X147642634Y-61745678D03*
X147399526Y-60366948D03*
%TD*%
D19*
%TO.C,C1*%
X88846678Y-73575322D03*
X89806678Y-73575322D03*
%TD*%
D17*
%TO.C,C2*%
X92899460Y-59214760D03*
X92220638Y-58535938D03*
%TD*%
D12*
%TO.C,D6*%
X124473517Y-45522486D03*
X124230409Y-44143756D03*
%TD*%
D14*
%TO.C,SW42*%
X87476682Y-75475320D03*
X87476682Y-81675320D03*
X91176682Y-75475320D03*
X91176682Y-81675320D03*
%TD*%
D12*
%TO.C,D2*%
X144169671Y-42049527D03*
X143926563Y-40670797D03*
%TD*%
%TO.C,D14*%
X136058074Y-53634082D03*
X135814966Y-52255352D03*
%TD*%
D13*
%TO.C,D11*%
X47357480Y-53286790D03*
X47600588Y-51908060D03*
%TD*%
%TO.C,D19*%
X86749791Y-60232714D03*
X86992899Y-58853984D03*
%TD*%
%TO.C,D39*%
X83276824Y-79928869D03*
X83519932Y-78550139D03*
%TD*%
%TO.C,D13*%
X57205557Y-55023268D03*
X57448665Y-53644538D03*
%TD*%
D20*
%TO.C,C3*%
X95920639Y-71714762D03*
X96599461Y-71035940D03*
%TD*%
D13*
%TO.C,D31*%
X43884517Y-72982944D03*
X44127625Y-71604214D03*
%TD*%
D12*
%TO.C,D40*%
X109986806Y-78539684D03*
X109743698Y-77160954D03*
%TD*%
%TO.C,D16*%
X126209997Y-55370562D03*
X125966889Y-53991832D03*
%TD*%
D13*
%TO.C,D15*%
X67053634Y-56759749D03*
X67296742Y-55381019D03*
%TD*%
D21*
%TO.C,J1*%
X89460012Y-42384151D03*
X90210012Y-42384151D03*
D22*
X91410012Y-42384151D03*
X92410012Y-42384151D03*
X92910012Y-42384151D03*
X93910012Y-42384151D03*
D21*
X95860012Y-42384151D03*
X95110012Y-42384151D03*
D22*
X94410012Y-42384151D03*
X93410012Y-42384151D03*
X91910012Y-42384151D03*
X90910012Y-42384151D03*
%TD*%
D13*
%TO.C,D29*%
X85013309Y-70080790D03*
X85256417Y-68702060D03*
%TD*%
D12*
%TO.C,D8*%
X114625438Y-47258970D03*
X114382330Y-45880240D03*
%TD*%
%TO.C,D38*%
X119834880Y-76803201D03*
X119591772Y-75424471D03*
%TD*%
%TO.C,D26*%
X127946479Y-65218643D03*
X127703371Y-63839913D03*
%TD*%
D13*
%TO.C,D27*%
X75165228Y-68344309D03*
X75408336Y-66965579D03*
%TD*%
D12*
%TO.C,D24*%
X137794558Y-63482161D03*
X137551450Y-62103431D03*
%TD*%
D23*
%TO.C,R2*%
X89003347Y-44166649D03*
X87983347Y-44166649D03*
%TD*%
D13*
%TO.C,D9*%
X88486269Y-50384639D03*
X88729377Y-49005909D03*
%TD*%
D12*
%TO.C,D30*%
X108250326Y-68691607D03*
X108007218Y-67312877D03*
%TD*%
D24*
%TO.C,U2*%
X97547888Y-67074113D03*
X97194334Y-67427667D03*
X96840781Y-67781220D03*
X96487227Y-68134774D03*
X96133674Y-68488327D03*
X95780121Y-68841880D03*
X95426567Y-69195434D03*
X95073014Y-69548987D03*
X94719461Y-69902540D03*
X94365907Y-70256094D03*
X94012354Y-70609647D03*
X93658800Y-70963201D03*
D25*
X91661224Y-70963201D03*
X91307670Y-70609647D03*
X90954117Y-70256094D03*
X90600563Y-69902540D03*
X90247010Y-69548987D03*
X89893457Y-69195434D03*
X89539903Y-68841880D03*
X89186350Y-68488327D03*
X88832797Y-68134774D03*
X88479243Y-67781220D03*
X88125690Y-67427667D03*
X87772136Y-67074113D03*
D24*
X87772136Y-65076537D03*
X88125690Y-64722983D03*
X88479243Y-64369430D03*
X88832797Y-64015876D03*
X89186350Y-63662323D03*
X89539903Y-63308770D03*
X89893457Y-62955216D03*
X90247010Y-62601663D03*
X90600563Y-62248110D03*
X90954117Y-61894556D03*
X91307670Y-61541003D03*
X91661224Y-61187449D03*
D25*
X93658800Y-61187449D03*
X94012354Y-61541003D03*
X94365907Y-61894556D03*
X94719461Y-62248110D03*
X95073014Y-62601663D03*
X95426567Y-62955216D03*
X95780121Y-63308770D03*
X96133674Y-63662323D03*
X96487227Y-64015876D03*
X96840781Y-64369430D03*
X97194334Y-64722983D03*
X97547888Y-65076537D03*
%TD*%
D13*
%TO.C,D25*%
X65317151Y-66607831D03*
X65560259Y-65229101D03*
%TD*%
D26*
%TO.C,U3*%
X93597512Y-54291994D03*
X93597512Y-56191994D03*
X91722512Y-55241994D03*
%TD*%
D23*
%TO.C,R3*%
X97499961Y-44166649D03*
X96479961Y-44166649D03*
%TD*%
D27*
%TO.C,F1*%
X83581317Y-52432244D03*
X86338779Y-52918458D03*
%TD*%
D17*
%TO.C,C5*%
X91999459Y-60114761D03*
X91320637Y-59435939D03*
%TD*%
D28*
%TO.C,C6*%
X86120638Y-67635938D03*
X86799460Y-68314760D03*
%TD*%
D12*
%TO.C,D34*%
X139531038Y-73330239D03*
X139287930Y-71951509D03*
%TD*%
%TO.C,D32*%
X149379115Y-71593758D03*
X149136007Y-70215028D03*
%TD*%
D13*
%TO.C,D21*%
X45620997Y-63134865D03*
X45864105Y-61756135D03*
%TD*%
D12*
%TO.C,D28*%
X118098403Y-66955123D03*
X117855295Y-65576393D03*
%TD*%
D13*
%TO.C,D35*%
X63580671Y-76455906D03*
X63823779Y-75077176D03*
%TD*%
D12*
%TO.C,D20*%
X106513841Y-58843527D03*
X106270733Y-57464797D03*
%TD*%
D15*
%TO.C,C9*%
X90160011Y-54281994D03*
X90160011Y-55241994D03*
%TD*%
D13*
%TO.C,D3*%
X58942035Y-45175193D03*
X59185143Y-43796463D03*
%TD*%
D20*
%TO.C,C4*%
X96820640Y-72514761D03*
X97499462Y-71835939D03*
%TD*%
M02*
